<svg width="24" height="24" viewBox="0 0 24 24" fill="none" xmlns="http://www.w3.org/2000/svg">
<g clip-path="url(#clip0_1313_54768)">
<path fill-rule="evenodd" clip-rule="evenodd" d="M12.0133 2.85001C13.9634 2.84715 15.739 3.47275 17.0196 4.67453C18.2889 5.86565 19.1452 7.69104 19.1466 10.2405L19.0965 13.4959C19.0843 14.2938 19.2426 15.0851 19.5611 15.8168L20.1259 17.1145C20.1546 17.1805 20.1062 17.2544 20.0342 17.2544H20.0028H19.9713H19.9399H19.9085H19.8771H19.8457H19.8143H19.7829H19.7515H19.7201H19.6886H19.6572H19.6258H19.5944H19.563H19.5316H19.5002H19.4688H19.4374H19.406H19.3745H19.3431H19.3117H19.2803H19.2489H19.2175H19.1861H19.1547H19.1233H19.0918H19.0604H19.029H18.9976H18.9662H18.9348H18.9034H18.872H18.8406H18.8092H18.7777H18.7463H18.7149H18.6835H18.6521H18.6207H18.5893H18.5579H18.5265H18.495H18.4636H18.4322H18.4008H18.3694H18.338H18.3066H18.2752H18.2438H18.2124H18.1809H18.1495H18.1181H18.0867H18.0553H18.0239H17.9925H17.9611H17.9297H17.8982H17.8668H17.8354H17.804H17.7726H17.7412H17.7098H17.6784H17.647H17.6156H17.5841H17.5527H17.5213H17.4899H17.4585H17.4271H17.3957H17.3643H17.3329H17.3014H17.27H17.2386H17.2072H17.1758H17.1444H17.113H17.0816H17.0502H17.0188H16.9873H16.9559H16.9245H16.8931H16.8617H16.8303H16.7989H16.7675H16.7361H16.7046H16.6732H16.6418H16.6104H16.579H16.5476H16.5162H16.4848H16.4534H16.422H16.3905H16.3591H16.3277H16.2963H16.2649H16.2335H16.2021H16.1707H16.1393H16.1078H16.0764H16.045H16.0136H15.9822H15.9508H15.9194H15.888H15.8566H15.8252H15.7937H15.7623H15.7309H15.6995H15.6681H15.6367H15.6053H15.5739H15.5425H15.511H15.4796H15.4482H15.4168H15.3854H15.354H15.3226H15.2912H15.2598H15.2284H15.1969H15.1655H15.1341H15.1027H15.0713H15.0399H15.0085H14.9771H14.9457H14.9142H14.8828H14.8514H14.82H14.7886H14.7572H14.7258H14.6944H14.663H14.6316H14.6001H14.5687H14.5373H14.5059H14.4745H14.4431H14.4117H14.3803H14.3489H14.3174H14.286H14.2546H14.2232H14.1918H14.1604H14.129H14.0976H14.0662H14.0348H14.0033H13.9719H13.9405H13.9091H13.8777H13.8463H13.8149H13.7835H13.7521H13.7206H13.6892H13.6578H13.6264H13.595H13.5636H13.5322H13.5008H13.4694H13.438H13.4065H13.3751H13.3437H13.3123H13.2809H13.2495H13.2181H13.1867H13.1553H13.1238H13.0924H13.061H13.0296H12.9982H12.9668H12.9354H12.904H12.8726H12.8412H12.8097H12.7783H12.7469H12.7155H12.6841H12.6527H12.6213H12.5899H12.5585H12.527H12.4956H12.4642H12.4328H12.4014H12.37H12.3386H12.3072H12.2758H12.2444H12.2129H12.1815H12.1501H12.1187H12.0873H12.0559H12.0245H11.9931H11.9617H11.9302H11.8988H11.8674H11.836H11.8046H11.7732H11.7418H11.7104H11.679H11.6476H11.6161H11.5847H11.5533H11.5219H11.4905H11.4591H11.4277H11.3963H11.3649H11.3334H11.302H11.2706H11.2392H11.2078H11.1764H11.145H11.1136H11.0822H11.0508H11.0193H10.9879H10.9565H10.9251H10.8937H10.8623H10.8309H10.7995H10.7681H10.7366H10.7052H10.6738H10.6424H10.611H10.5796H10.5482H10.5168H10.4854H10.454H10.4225H10.3911H10.3597H10.3283H10.2969H10.2655H10.2341H10.2027H10.1713H10.1398H10.1084H10.077H10.0456H10.0142H9.9828H9.95139H9.91998H9.88857H9.85715H9.82574H9.79433H9.76292H9.73151H9.7001H9.66869H9.63728H9.60587H9.57446H9.54305H9.51164H9.48023H9.44882H9.41741H9.386H9.35459H9.32318H9.29177H9.26035H9.22894H9.19753H9.16612H9.13471H9.1033H9.07189H9.04048H9.00907H8.97766H8.94625H8.91484H8.88343H8.85202H8.82061H8.7892H8.75779H8.72638H8.69497H8.66356H8.63214H8.60073H8.56932H8.53791H8.5065H8.47509H8.44368H8.41227H8.38086H8.34945H8.31804H8.28663H8.25522H8.22381H8.1924H8.16099H8.12958H8.09817H8.06676H8.03535H8.00393H7.97252H7.94111H7.9097H7.87829H7.84688H7.81547H7.78406H7.75265H7.72124H7.68983H7.65842H7.62701H7.5956H7.56419H7.53278H7.50137H7.46996H7.43855H7.40714H7.37572H7.34431H7.3129H7.28149H7.25008H7.21867H7.18726H7.15585H7.12444H7.09303H7.06162H7.03021H6.9988H6.96739H6.93598H6.90457H6.87316H6.84175H6.81034H6.77892H6.74751H6.7161H6.68469H6.65328H6.62187H6.59046H6.55905H6.52764H6.49623H6.46482H6.43341H6.402H6.37059H6.33918H6.30777H6.27636H6.24495H6.21354H6.18213H6.15071H6.1193H6.08789H6.05648H6.02507H5.99366H5.96225H5.93084H5.89943H5.86802H5.83661H5.8052H5.77379H5.74238H5.71097H5.67956H5.64815H5.61674H5.58533H5.55391H5.5225H5.49109H5.45968H5.42827H5.39686H5.36545H5.33404H5.30263H5.27122H5.23981H5.2084H5.17699H5.14558H5.11417H5.08276H5.05135H5.01994H4.98853H4.95711H4.9257H4.89429H4.86288H4.83147H4.80006H4.76865H4.73724H4.70583H4.67442H4.64301H4.6116H4.58019H4.54878H4.51737H4.48596H4.45455H4.42314H4.39173H4.36032H4.3289H4.29749H4.26608H4.23467H4.20326H4.17185H4.14044H4.10903H4.07762H4.04621H4.0148H3.98339H3.95198C3.88091 17.2544 3.83252 17.1823 3.85941 17.1165L4.43652 15.7046C4.70619 15.0449 4.84743 14.3397 4.85267 13.627L4.87746 10.2532H4.87748V10.2469C4.87748 7.70775 5.73344 5.88275 7.00487 4.68826C8.28662 3.48406 10.0633 2.85287 12.0133 2.85001ZM20.8466 10.2469C20.8466 7.2893 19.8403 4.99017 18.1829 3.43489C16.5359 1.88925 14.3192 1.14662 12.0108 1.15001C9.70236 1.1534 7.48678 1.90294 5.84085 3.44928C4.18519 5.00476 3.17821 7.299 3.17748 10.2437L3.15271 13.6145C3.14907 14.1108 3.0507 14.6019 2.86289 15.0614L2.28579 16.4733C1.80179 17.6574 2.67276 18.9544 3.95198 18.9544H3.98339H4.0148H4.04621H4.07762H4.10903H4.14044H4.17185H4.20326H4.23467H4.26608H4.29749H4.3289H4.36032H4.39173H4.42314H4.45455H4.48596H4.51737H4.54878H4.58019H4.6116H4.64301H4.67442H4.70583H4.73724H4.76865H4.80006H4.83147H4.86288H4.89429H4.9257H4.95711H4.98853H5.01994H5.05135H5.08276H5.11417H5.14558H5.17699H5.2084H5.23981H5.27122H5.30263H5.33404H5.36545H5.39686H5.42827H5.45968H5.49109H5.5225H5.55391H5.58533H5.61674H5.64815H5.67956H5.71097H5.74238H5.77379H5.8052H5.83661H5.86802H5.89943H5.93084H5.96225H5.99366H6.02507H6.05648H6.08789H6.1193H6.15071H6.18213H6.21354H6.24495H6.27636H6.30777H6.33918H6.37059H6.402H6.43341H6.46482H6.49623H6.52764H6.55905H6.59046H6.62187H6.65328H6.68469H6.7161H6.74751H6.77892H6.81034H6.84175H6.87316H6.90457H6.93598H6.96739H6.9988H7.03021H7.06162H7.09303H7.12444H7.15585H7.18726H7.21867H7.25008H7.28149H7.3129H7.34431H7.37572H7.40714H7.43855H7.46996H7.50137H7.53278H7.56419H7.5956H7.62701H7.65842H7.68983H7.72124H7.75265H7.78406H7.81547H7.84688H7.87829H7.9097H7.93614C8.08782 20.9677 9.73329 22.5644 11.8399 22.5644C12.8953 22.5644 13.8822 22.2127 14.6107 21.5138C15.28 20.8719 15.6789 19.987 15.7442 18.9544H15.7623H15.7937H15.8252H15.8566H15.888H15.9194H15.9508H15.9822H16.0136H16.045H16.0764H16.1078H16.1393H16.1707H16.2021H16.2335H16.2649H16.2963H16.3277H16.3591H16.3905H16.422H16.4534H16.4848H16.5162H16.5476H16.579H16.6104H16.6418H16.6732H16.7046H16.7361H16.7675H16.7989H16.8303H16.8617H16.8931H16.9245H16.9559H16.9873H17.0188H17.0502H17.0816H17.113H17.1444H17.1758H17.2072H17.2386H17.27H17.3014H17.3329H17.3643H17.3957H17.4271H17.4585H17.4899H17.5213H17.5527H17.5841H17.6156H17.647H17.6784H17.7098H17.7412H17.7726H17.804H17.8354H17.8668H17.8982H17.9297H17.9611H17.9925H18.0239H18.0553H18.0867H18.1181H18.1495H18.1809H18.2124H18.2438H18.2752H18.3066H18.338H18.3694H18.4008H18.4322H18.4636H18.495H18.5265H18.5579H18.5893H18.6207H18.6521H18.6835H18.7149H18.7463H18.7777H18.8092H18.8406H18.872H18.9034H18.9348H18.9662H18.9976H19.029H19.0604H19.0918H19.1233H19.1547H19.1861H19.2175H19.2489H19.2803H19.3117H19.3431H19.3745H19.406H19.4374H19.4688H19.5002H19.5316H19.563H19.5944H19.6258H19.6572H19.6886H19.7201H19.7515H19.7829H19.8143H19.8457H19.8771H19.9085H19.9399H19.9713H20.0028H20.0342C21.3307 18.9544 22.202 17.6249 21.6846 16.4361L21.1199 15.1384C20.8981 14.6288 20.7878 14.0777 20.7963 13.522L20.8465 10.26L20.8466 10.26V10.2469ZM14.039 18.9544H14.0348H14.0033H13.9719H13.9405H13.9091H13.8777H13.8463H13.8149H13.7835H13.7521H13.7206H13.6892H13.6578H13.6264H13.595H13.5636H13.5322H13.5008H13.4694H13.438H13.4065H13.3751H13.3437H13.3123H13.2809H13.2495H13.2181H13.1867H13.1553H13.1238H13.0924H13.061H13.0296H12.9982H12.9668H12.9354H12.904H12.8726H12.8412H12.8097H12.7783H12.7469H12.7155H12.6841H12.6527H12.6213H12.5899H12.5585H12.527H12.4956H12.4642H12.4328H12.4014H12.37H12.3386H12.3072H12.2758H12.2444H12.2129H12.1815H12.1501H12.1187H12.0873H12.0559H12.0245H11.9931H11.9617H11.9302H11.8988H11.8674H11.836H11.8046H11.7732H11.7418H11.7104H11.679H11.6476H11.6161H11.5847H11.5533H11.5219H11.4905H11.4591H11.4277H11.3963H11.3649H11.3334H11.302H11.2706H11.2392H11.2078H11.1764H11.145H11.1136H11.0822H11.0508H11.0193H10.9879H10.9565H10.9251H10.8937H10.8623H10.8309H10.7995H10.7681H10.7366H10.7052H10.6738H10.6424H10.611H10.5796H10.5482H10.5168H10.4854H10.454H10.4225H10.3911H10.3597H10.3283H10.2969H10.2655H10.2341H10.2027H10.1713H10.1398H10.1084H10.077H10.0456H10.0142H9.9828H9.95139H9.91998H9.88857H9.85715H9.82574H9.79433H9.76292H9.73151H9.7001H9.66869H9.64459C9.78765 20.0388 10.6876 20.8644 11.8399 20.8644C12.5192 20.8644 13.0643 20.6415 13.4339 20.287C13.7469 19.9868 13.9797 19.5489 14.039 18.9544Z" fill="white"/>
</g>
<defs>
<clipPath id="clip0_1313_54768">
<rect width="24" height="24" fill="white"/>
</clipPath>
</defs>
</svg>
