<svg width="24" height="24" viewBox="0 0 24 24" fill="none" xmlns="http://www.w3.org/2000/svg">
<g clip-path="url(#clip0_1451_70615)">
<path fill-rule="evenodd" clip-rule="evenodd" d="M18.3012 3.35684C19.9957 4.96595 21.0164 7.33831 21.0164 10.3705L21.0163 10.3863L20.9769 12.9788H20.9771L20.9665 13.6735C20.9582 14.2213 21.0657 14.7646 21.2817 15.267L21.8335 16.5498C22.4014 17.8703 21.445 19.3469 20.0219 19.3469L20.0217 19.3469H15.9016C15.9016 19.3469 15.9016 19.3469 15.9016 19.3469H7.79432C7.79432 19.3469 7.79432 19.3469 7.79432 19.3469H3.97766L3.97742 19.3469C3.94451 19.3469 3.91185 19.3461 3.87945 19.3445C2.52937 19.2794 1.62985 17.8756 2.14863 16.5912L2.71412 15.1912C2.89707 14.7383 2.9929 14.2541 2.99646 13.7648L3.02113 10.3667C3.022 7.34756 4.04346 4.9805 5.73592 3.37147C7.41678 1.77347 9.67446 1.00349 12.0173 1.00001C14.36 0.996532 16.619 1.75938 18.3012 3.35684ZM8.25578 20.8469H15.4876C15.2949 21.2385 15.0408 21.5896 14.7304 21.8909C13.9674 22.6315 12.9381 23 11.8466 23C10.2674 23 8.93646 22.1273 8.25578 20.8469Z" fill="white"/>
</g>
<defs>
<clipPath id="clip0_1451_70615">
<rect width="24" height="24" fill="white"/>
</clipPath>
</defs>
</svg>
