<svg width="20" height="20" viewBox="0 0 20 20" fill="none" xmlns="http://www.w3.org/2000/svg">
<g clip-path="url(#clip0_3243_96436)">
<path d="M9.95999 2.89991C6.78686 2.90457 4.01036 4.95759 4.01036 9.04501L3.9936 11.3257C3.98916 11.9303 3.86935 12.5284 3.64061 13.088L3.43524 13.5905C3.1798 14.2154 3.63948 14.8999 4.31462 14.8999H15.5681C16.2525 14.8999 16.7123 14.1983 16.4392 13.5708L16.2703 13.1826C16.0002 12.562 15.8658 11.8908 15.8762 11.214L15.9096 9.04501C15.9096 4.93896 13.1331 2.89525 9.95999 2.89991Z" stroke="white" stroke-width="1.3" stroke-linecap="round" stroke-linejoin="round"/>
<path d="M12.46 14.8938C12.46 16.4563 11.3758 17.3938 9.96054 17.3938C8.54528 17.3938 7.46002 16.2745 7.46002 14.8938" stroke="white" stroke-width="1.3" stroke-linecap="square"/>
</g>
<defs>
<clipPath id="clip0_3243_96436">
<rect width="20" height="20" fill="white"/>
</clipPath>
</defs>
</svg>
