<svg width="20" height="20" viewBox="0 0 20 20" fill="none" xmlns="http://www.w3.org/2000/svg">
<g clip-path="url(#clip0_3243_96508)">
<path d="M9.95999 2.89991C6.78686 2.90457 4.01036 4.95759 4.01036 9.04501L3.9936 11.3257C3.98916 11.9303 3.86935 12.5284 3.64061 13.088L3.43524 13.5905C3.1798 14.2154 3.63948 14.8999 4.31462 14.8999H15.5681C16.2525 14.8999 16.7123 14.1983 16.4392 13.5708L16.2703 13.1826C16.0002 12.562 15.8658 11.8908 15.8762 11.214L15.9096 9.04501C15.9096 4.93896 13.1331 2.89525 9.95999 2.89991Z" fill="white" stroke="white" stroke-width="1.1" stroke-linecap="round" stroke-linejoin="round"/>
<path fill-rule="evenodd" clip-rule="evenodd" d="M13.1099 14.2437H6.80994V14.8937C6.80994 15.0659 6.82346 15.235 6.84956 15.3999H13.0765C13.0986 15.2363 13.1099 15.0673 13.1099 14.8937V14.2437ZM12.8449 16.2499H7.11053C7.6086 17.3089 8.67833 18.0437 9.96046 18.0437C10.8119 18.0437 11.6057 17.76 12.1909 17.1987C12.4693 16.9316 12.6898 16.6118 12.8449 16.2499Z" fill="white"/>
</g>
<defs>
<clipPath id="clip0_3243_96508">
<rect width="20" height="20" fill="white"/>
</clipPath>
</defs>
</svg>
