<svg width="16" height="16" viewBox="0 0 16 16" fill="none" xmlns="http://www.w3.org/2000/svg">
<g clip-path="url(#clip0_3292_5486)">
<path fill-rule="evenodd" clip-rule="evenodd" d="M11.6076 3.21669C12.5827 4.1317 13.1776 5.48651 13.1776 7.23608V7.24301L13.154 8.7728C13.1446 9.38546 13.2662 9.99307 13.5107 10.5549L13.6309 10.831C13.9471 11.5576 13.4146 12.37 12.6223 12.37H3.28782C2.50608 12.37 1.97382 11.5774 2.2696 10.8538L2.42661 10.4697C2.63368 9.96306 2.74213 9.42159 2.74616 8.87433L2.75821 7.2344C2.75859 5.49249 3.35383 4.14047 4.328 3.22525C5.29701 2.31487 6.60311 1.872 7.96725 1.87C9.33133 1.868 10.638 2.30679 11.6076 3.21669Z" fill="white"/>
<path fill-rule="evenodd" clip-rule="evenodd" d="M10.488 11.3H5.448V11.82C5.448 11.9841 5.46333 12.1446 5.49273 12.3001H10.4501C10.4752 12.146 10.488 11.9857 10.488 11.82V11.3ZM10.2423 12.9801H5.7253C6.13808 13.7868 6.97328 14.34 7.96842 14.34C8.64957 14.34 9.28459 14.1131 9.75275 13.6641C9.95607 13.469 10.1208 13.2389 10.2423 12.9801Z" fill="white"/>
</g>
<defs>
<clipPath id="clip0_3292_5486">
<rect width="16" height="16" fill="white"/>
</clipPath>
</defs>
</svg>
