<svg width="16" height="16" viewBox="0 0 16 16" fill="none" xmlns="http://www.w3.org/2000/svg">
<g clip-path="url(#clip0_3292_5416)">
<path d="M7.96798 2.32007C5.42947 2.3238 3.20827 3.96622 3.20827 7.23616L3.19621 8.87771C3.19177 9.48224 3.07196 10.0804 2.84323 10.64L2.68621 11.0241C2.51143 11.4517 2.82595 11.9201 3.28789 11.9201H12.6223C13.0906 11.9201 13.4052 11.44 13.2183 11.0107L13.0982 10.7346C12.8281 10.1139 12.6937 9.44273 12.7041 8.76594L12.7277 7.23616C12.7277 3.95132 10.5065 2.31635 7.96798 2.32007Z" stroke="white" stroke-width="0.9" stroke-linecap="round" stroke-linejoin="round"/>
<path d="M9.96802 11.915C9.96802 13.165 9.10065 13.915 7.96844 13.915C6.83622 13.915 5.96802 13.0196 5.96802 11.915" stroke="white" stroke-width="0.9" stroke-linecap="square"/>
</g>
<defs>
<clipPath id="clip0_3292_5416">
<rect width="16" height="16" fill="white"/>
</clipPath>
</defs>
</svg>
