<svg width="24" height="24" viewBox="0 0 24 24" fill="none" xmlns="http://www.w3.org/2000/svg">
<path fill-rule="evenodd" clip-rule="evenodd" d="M0.299805 9.36333C0.299805 5.29666 4.31647 2 9.2748 2C14.2331 2 18.2498 5.29666 18.2498 9.36333C18.2498 13.43 14.2315 16.7267 9.27647 16.7267C8.36221 16.7278 7.45154 16.6125 6.56647 16.3833L3.6448 18.3633L3.94814 15.28C1.73814 13.9383 0.299805 11.7917 0.299805 9.36333ZM23.6332 12.5466C23.6332 10.0599 22.1732 6.67492 19.2549 5.63659H19.2532C19.6682 6.52158 19.8982 7.48992 19.8982 8.52992C19.8982 13.5616 17.2249 18.1132 9.2682 18.3199C10.7915 19.5399 12.8032 20.2816 15.0082 20.2816C15.8885 20.2819 16.7646 20.1602 17.6115 19.9199L20.4165 21.9999L20.1282 18.7616C22.2499 17.3516 23.6332 15.0966 23.6332 12.5466Z" fill="white"/>
</svg>
