<svg width="20" height="20" viewBox="0 0 20 20" fill="none" xmlns="http://www.w3.org/2000/svg">
<path fill-rule="evenodd" clip-rule="evenodd" d="M2.1499 7.95452C2.1499 5.21821 4.85257 3 8.18885 3C11.5251 3 14.2278 5.21821 14.2278 7.95452C14.2278 10.6908 11.524 12.909 8.18997 12.909C7.57481 12.9098 6.96205 12.8322 6.36651 12.678L4.40063 14.0103L4.60473 11.9356C3.1177 11.0329 2.1499 9.58846 2.1499 7.95452ZM17.8502 10.0964C17.8502 8.42323 16.8678 6.14559 14.9042 5.44693H14.903C15.1823 6.04242 15.337 6.69398 15.337 7.39375C15.337 10.7794 13.5382 13.842 8.18449 13.9811C9.20948 14.802 10.5631 15.301 12.0467 15.301C12.6391 15.3012 13.2286 15.2193 13.7984 15.0577L15.6858 16.4572L15.4918 14.2783C16.9194 13.3295 17.8502 11.8122 17.8502 10.0964Z" fill="white"/>
</svg>
