<svg width="16" height="16" viewBox="0 0 16 16" fill="none" xmlns="http://www.w3.org/2000/svg">
<path fill-rule="evenodd" clip-rule="evenodd" d="M1.80005 6.61576C1.80005 4.48076 3.90881 2.75 6.51194 2.75C9.11508 2.75 11.2238 4.48076 11.2238 6.61576C11.2238 8.75077 9.1142 10.4815 6.51282 10.4815C6.03283 10.4822 5.55473 10.4216 5.09006 10.3013L3.55618 11.3408L3.71543 9.72203C2.55518 9.01765 1.80005 7.89064 1.80005 6.61576ZM14.0501 8.28697C14.0501 6.98147 13.2836 5.20434 11.7515 4.65921H11.7506C11.9685 5.12384 12.0893 5.63221 12.0893 6.17822C12.0893 8.81985 10.6858 11.2095 6.5085 11.318C7.30825 11.9585 8.36438 12.3479 9.52201 12.3479C9.98418 12.348 10.4441 12.2841 10.8888 12.158L12.3614 13.25L12.21 11.5499C13.3239 10.8096 14.0501 9.62573 14.0501 8.28697Z" fill="white"/>
</svg>
