<svg width="24" height="24" viewBox="0 0 24 24" fill="none" xmlns="http://www.w3.org/2000/svg">
<path d="M4.59172 13L2.09241 10.9914C2.8869 10.0644 3.71448 9.1774 4.57517 8.33047C4.91724 7.98712 5.13241 7.76967 5.22069 7.67811C4.94483 7.63233 4.15586 7.44349 2.85379 7.11159C1.91586 6.87124 1.29793 6.69385 1 6.5794L1.97655 3.55794C3.42207 4.16452 4.7131 4.83405 5.84966 5.56652C5.58483 3.701 5.45241 2.17883 5.45241 1H8.39862C8.39862 1.83548 8.24966 3.3691 7.95172 5.60086C8.17241 5.5093 8.6469 5.28612 9.37517 4.93133C10.3683 4.46209 11.2841 4.06152 12.1228 3.72961L13 6.83691C11.7752 7.12303 10.3572 7.40343 8.74621 7.67811L10.7324 9.99571C11.1297 10.465 11.4441 10.8484 11.6759 11.1459L9.14345 12.8798L6.90897 9.0515C6.23586 10.2876 5.46345 11.6037 4.59172 13Z" fill="white"/>
</svg>
