<svg width="20" height="20" viewBox="0 0 20 20" fill="none" xmlns="http://www.w3.org/2000/svg">
<path d="M3.9931 11L1.91034 9.32618C2.57241 8.55365 3.26207 7.8145 3.97931 7.10873C4.26437 6.8226 4.44368 6.64139 4.51724 6.56509C4.28736 6.52694 3.62989 6.36958 2.54483 6.09299C1.76322 5.8927 1.24828 5.74487 1 5.6495L1.81379 3.13162C3.01839 3.6371 4.09425 4.19504 5.04138 4.80544C4.82069 3.25083 4.71034 1.98236 4.71034 1H7.16552C7.16552 1.69623 7.04138 2.97425 6.7931 4.83405C6.97701 4.75775 7.37241 4.57177 7.97931 4.27611C8.8069 3.88507 9.57012 3.55126 10.269 3.27468L11 5.86409C9.97931 6.10253 8.7977 6.33619 7.45517 6.56509L9.11034 8.49642C9.44138 8.88746 9.70345 9.20696 9.89655 9.45494L7.78621 10.8999L5.92414 7.70959C5.36322 8.73963 4.71954 9.83643 3.9931 11Z" fill="white"/>
</svg>
