<svg width="16" height="16" viewBox="0 0 16 16" fill="none" xmlns="http://www.w3.org/2000/svg">
<path d="M3.39448 9L1.72828 7.66094C2.25793 7.04292 2.80966 6.4516 3.38345 5.88698C3.61149 5.65808 3.75494 5.51311 3.81379 5.45207C3.62989 5.42155 3.10391 5.29566 2.23586 5.07439C1.61057 4.91416 1.19862 4.7959 1 4.7196L1.65103 2.70529C2.61471 3.10968 3.4754 3.55603 4.2331 4.04435C4.05655 2.80067 3.96828 1.78588 3.96828 1H5.93241C5.93241 1.55699 5.8331 2.5794 5.63448 4.06724C5.78161 4.0062 6.09793 3.85742 6.58345 3.62089C7.24552 3.30806 7.85609 3.04101 8.41517 2.81974L9 4.89127C8.18345 5.08202 7.23816 5.26896 6.16414 5.45207L7.48828 6.99714C7.7531 7.30997 7.96276 7.56557 8.11724 7.76395L6.42897 8.91989L4.93931 6.36767C4.49057 7.1917 3.97563 8.06915 3.39448 9Z" fill="white"/>
</svg>
