<svg width="20" height="20" viewBox="0 0 20 20" fill="none" xmlns="http://www.w3.org/2000/svg">
<g clip-path="url(#clip0_3243_98700)">
<path fill-rule="evenodd" clip-rule="evenodd" d="M2.85001 5.0001C2.85001 3.81268 3.81259 2.8501 5.00001 2.8501H7.11794C8.30535 2.8501 9.26794 3.81269 9.26794 5.0001V7.13245C9.26794 8.31986 8.30535 9.28245 7.11794 9.28245H5.00001C3.81259 9.28245 2.85001 8.31986 2.85001 7.13245V5.0001Z" fill="white"/>
<path fill-rule="evenodd" clip-rule="evenodd" d="M10.7321 5.0001C10.7321 3.81268 11.6947 2.8501 12.8821 2.8501H15C16.1874 2.8501 17.15 3.81269 17.15 5.0001V7.13245C17.15 8.31986 16.1874 9.28245 15 9.28245H12.8821C11.6947 9.28245 10.7321 8.31986 10.7321 7.13245V5.0001Z" fill="white"/>
<path fill-rule="evenodd" clip-rule="evenodd" d="M2.85001 12.868C2.85001 11.6806 3.81259 10.718 5.00001 10.718H7.11794C8.30535 10.718 9.26794 11.6806 9.26794 12.868V15.0004C9.26794 16.1878 8.30535 17.1504 7.11794 17.1504H5.00001C3.81259 17.1504 2.85001 16.1878 2.85001 15.0004V12.868Z" fill="white"/>
<path fill-rule="evenodd" clip-rule="evenodd" d="M10.7321 12.868C10.7321 11.6806 11.6947 10.718 12.8821 10.718H15C16.1874 10.718 17.15 11.6806 17.15 12.868V15.0004C17.15 16.1878 16.1874 17.1504 15 17.1504H12.8821C11.6947 17.1504 10.7321 16.1878 10.7321 15.0004V12.868Z" fill="white"/>
</g>
<defs>
<clipPath id="clip0_3243_98700">
<rect width="20" height="20" fill="white"/>
</clipPath>
</defs>
</svg>
