<svg width="24" height="24" viewBox="0 0 24 24" fill="none" xmlns="http://www.w3.org/2000/svg">
<g clip-path="url(#clip0_236_31265)">
<path fill-rule="evenodd" clip-rule="evenodd" d="M3.80001 12C3.80001 7.47122 7.47128 3.79995 12 3.79995C16.5287 3.79995 20.2 7.47122 20.2 12C20.2 16.5287 16.5287 20.2 12 20.2C7.47128 20.2 3.80001 16.5287 3.80001 12ZM12 2.19995C6.58762 2.19995 2.20001 6.58756 2.20001 12C2.20001 17.4123 6.58762 21.7999 12 21.7999C17.4124 21.7999 21.8 17.4123 21.8 12C21.8 6.58756 17.4124 2.19995 12 2.19995ZM12.6354 7.80685L13.5716 9.83653L15.7912 10.0997C16.3844 10.17 16.6226 10.9032 16.1841 11.3088L14.543 12.8263L14.9786 15.0187C15.0951 15.6046 14.4714 16.0577 13.9502 15.7659L11.9997 14.6742L10.0493 15.7659C9.52809 16.0577 8.90442 15.6046 9.02084 15.0187L9.45645 12.8263L7.81541 11.3088C7.37686 10.9032 7.61509 10.17 8.20826 10.0997L10.4279 9.83653L11.3641 7.80685C11.6143 7.26444 12.3852 7.26444 12.6354 7.80685Z" fill="white"/>
</g>
<defs>
<clipPath id="clip0_236_31265">
<rect width="24" height="24" fill="white"/>
</clipPath>
</defs>
</svg>
