<svg width="20" height="20" viewBox="0 0 20 20" fill="none" xmlns="http://www.w3.org/2000/svg">
<g clip-path="url(#clip0_3243_99147)">
<path fill-rule="evenodd" clip-rule="evenodd" d="M10 1.3501C5.22277 1.3501 1.35004 5.22283 1.35004 10.0001C1.35004 14.7774 5.22277 18.6501 10 18.6501C14.7773 18.6501 18.65 14.7774 18.65 10.0001C18.65 5.22283 14.7773 1.3501 10 1.3501ZM10.603 6.38483L11.4886 8.30487L13.5884 8.55382C14.1495 8.62035 14.3748 9.31392 13.96 9.69757L12.4076 11.1332L12.8197 13.2071C12.9298 13.7613 12.3398 14.1899 11.8468 13.9139L10.0017 12.8812L8.15665 13.9139C7.66358 14.1899 7.0736 13.7613 7.18372 13.2071L7.5958 11.1332L6.04342 9.69757C5.62856 9.31392 5.85391 8.62035 6.41504 8.55382L8.51478 8.30487L9.4004 6.38483C9.63708 5.87172 10.3663 5.87173 10.603 6.38483Z" fill="white"/>
</g>
<defs>
<clipPath id="clip0_3243_99147">
<rect width="20" height="20" fill="white"/>
</clipPath>
</defs>
</svg>
