<svg width="16" height="16" viewBox="0 0 16 16" fill="none" xmlns="http://www.w3.org/2000/svg">
<g clip-path="url(#clip0_3292_8091)">
<path fill-rule="evenodd" clip-rule="evenodd" d="M7.99999 1.55005C4.43775 1.55005 1.54999 4.43781 1.54999 8.00005C1.54999 11.5623 4.43775 14.45 7.99999 14.45C11.5622 14.45 14.45 11.5623 14.45 8.00005C14.45 4.43781 11.5622 1.55005 7.99999 1.55005ZM8.51974 5.25859L9.18396 6.69862L10.7588 6.88534C11.1796 6.93524 11.3486 7.45541 11.0375 7.74315L9.87319 8.81985L10.1823 10.3753C10.2648 10.7909 9.82236 11.1124 9.45256 10.9054L8.06877 10.1308L6.68498 10.9054C6.31517 11.1124 5.87269 10.7909 5.95528 10.3753L6.26434 8.81985L5.10005 7.74315C4.78891 7.45541 4.95792 6.93524 5.37877 6.88534L6.95357 6.69862L7.61779 5.25859C7.7953 4.87376 8.34224 4.87376 8.51974 5.25859Z" fill="white"/>
</g>
<defs>
<clipPath id="clip0_3292_8091">
<rect width="16" height="16" fill="white"/>
</clipPath>
</defs>
</svg>
