<svg width="24" height="24" viewBox="0 0 24 24" fill="none" xmlns="http://www.w3.org/2000/svg">
<g clip-path="url(#clip0_3236_72580)">
<path fill-rule="evenodd" clip-rule="evenodd" d="M12 2.19995C6.58762 2.19995 2.20001 6.58756 2.20001 12C2.20001 17.4123 6.58762 21.7999 12 21.7999C17.4124 21.7999 21.8 17.4123 21.8 12C21.8 6.58756 17.4124 2.19995 12 2.19995ZM12.6354 7.80695L13.5716 9.83663L15.7912 10.0998C16.3844 10.1701 16.6226 10.9033 16.1841 11.3089L14.5431 12.8265L14.9787 15.0188C15.0951 15.6047 14.4714 16.0578 13.9502 15.766L11.9998 14.6743L10.0493 15.766C9.52811 16.0578 8.90444 15.6047 9.02085 15.0188L9.45647 12.8265L7.81543 11.3089C7.37688 10.9033 7.6151 10.1701 8.20828 10.0998L10.4279 9.83663L11.3641 7.80695C11.6143 7.26454 12.3852 7.26455 12.6354 7.80695Z" fill="white"/>
</g>
<defs>
<clipPath id="clip0_3236_72580">
<rect width="24" height="24" fill="white"/>
</clipPath>
</defs>
</svg>
