<svg width="16" height="16" viewBox="0 0 16 16" fill="none" xmlns="http://www.w3.org/2000/svg">
<g clip-path="url(#clip0_3292_8020)">
<path fill-rule="evenodd" clip-rule="evenodd" d="M2.45 8C2.45 4.93482 4.93482 2.45 8 2.45C11.0652 2.45 13.55 4.93482 13.55 8C13.55 11.0652 11.0652 13.55 8 13.55C4.93482 13.55 2.45 11.0652 2.45 8ZM8 1.55C4.43776 1.55 1.55 4.43776 1.55 8C1.55 11.5622 4.43776 14.45 8 14.45C11.5622 14.45 14.45 11.5622 14.45 8C14.45 4.43776 11.5622 1.55 8 1.55ZM8.42358 5.2046L9.04771 6.55772L10.5275 6.73317C10.9229 6.78006 11.0817 7.26884 10.7894 7.53921L9.69535 8.55093L9.98576 10.0125C10.0634 10.4031 9.64758 10.7052 9.3001 10.5106L7.99982 9.7828L6.69954 10.5106C6.35205 10.7052 5.93627 10.4031 6.01388 10.0125L6.30429 8.55093L5.21027 7.53921C4.9179 7.26884 5.07672 6.78006 5.47216 6.73317L6.95193 6.55772L7.57606 5.2046C7.74285 4.84299 8.25679 4.843 8.42358 5.2046Z" fill="white"/>
</g>
<defs>
<clipPath id="clip0_3292_8020">
<rect width="16" height="16" fill="white"/>
</clipPath>
</defs>
</svg>
