<svg width="50" height="50" viewBox="0 0 50 50" fill="none" xmlns="http://www.w3.org/2000/svg">
<rect x="-910" y="-1094" width="6456" height="1396" rx="80" fill="white"/>
<rect x="-809.5" y="-506.5" width="6255" height="708" rx="39.5" stroke="black" stroke-opacity="0.1"/>
<rect width="5556" height="118" transform="translate(-110 -34)" fill="black"/>
<g clip-path="url(#clip0_11_3791)">
<g clip-path="url(#clip1_11_3791)">
<path d="M22.5195 0.357376C15.7458 0.357491 10.2546 5.85154 10.2545 12.6287L10.2544 14.7394C10.2544 15.0278 10.4881 15.2616 10.7763 15.2616L22.4011 15.2614C29.1748 15.2612 34.6661 9.76719 34.6662 2.99006L34.6662 0.879343C34.6663 0.590954 34.4326 0.357173 34.1443 0.357178L22.5195 0.357376Z" fill="white"/>
<path fill-rule="evenodd" clip-rule="evenodd" d="M1.40102 19.0609C0.824532 19.0609 0.357195 19.5285 0.35719 20.1053L0.357117 29.9314C0.357035 40.8178 9.17774 49.643 20.0587 49.6429C28.1981 49.6428 35.1848 44.7045 38.1888 37.6591L40.3273 37.6591C45.472 37.6589 49.6427 33.4953 49.6428 28.3593C49.643 23.2232 45.4725 19.0598 40.3278 19.0599L1.40102 19.0609ZM40.3277 24.2991L39.7606 24.2991L39.7606 29.9311C39.7606 30.7741 39.7077 31.6047 39.605 32.4199L40.3275 32.4199C42.5737 32.4198 44.3947 30.6019 44.3948 28.3594C44.3948 26.1169 42.5739 24.299 40.3277 24.2991Z" fill="white"/>
</g>
</g>
<defs>
<clipPath id="clip0_11_3791">
<rect width="50" height="50" fill="white"/>
</clipPath>
<clipPath id="clip1_11_3791">
<rect width="50" height="50" fill="white"/>
</clipPath>
</defs>
</svg>
