<svg width="16" height="16" viewBox="0 0 16 16" fill="none" xmlns="http://www.w3.org/2000/svg">
<g clip-path="url(#clip0_3292_9599)">
<path d="M6.32606 6.47613C5.86129 7.54566 8.31804 10.2871 9.58607 9.73611C10.3399 9.40853 11.1354 8.92614 11.9406 9.40397C12.466 9.71584 12.9375 10.0656 13.3687 10.4968C13.9095 11.0376 13.8744 12.1425 13.4913 12.668C12.5198 14.0007 10.3943 14.1698 8.88572 13.5033C6.18647 12.311 3.75098 9.87528 2.55884 7.17651C1.89243 5.66788 2.13219 3.61308 3.46495 2.64158C3.99046 2.25851 5.0246 2.15272 5.56535 2.69347C5.99892 3.12705 6.34694 3.59719 6.6582 4.12164C7.13603 4.92675 6.65364 5.72228 6.32606 6.47613Z" fill="white"/>
<path d="M9.4234 4.69708C9.85194 4.76289 10.3136 4.99857 10.7 5.38496C11.0864 5.77136 11.3221 6.23305 11.3879 6.66159" stroke="white" stroke-width="0.9" stroke-linecap="round"/>
<path d="M10.2957 2.62322C11.0259 2.72817 11.7721 3.09312 12.382 3.703C12.9918 4.31287 13.3568 5.0591 13.4617 5.78922" stroke="white" stroke-width="0.9" stroke-linecap="round"/>
</g>
<defs>
<clipPath id="clip0_3292_9599">
<rect width="16" height="16" fill="white"/>
</clipPath>
</defs>
</svg>
