<svg width="24" height="24" viewBox="0 0 24 24" fill="none" xmlns="http://www.w3.org/2000/svg">
<g clip-path="url(#clip0_1324_74722)">
<path d="M9.48902 9.7142C8.79188 11.3185 12.477 15.4307 14.379 14.6042C15.5098 14.1128 16.7031 13.3892 17.9108 14.106C18.699 14.5738 19.4061 15.0984 20.053 15.7452C20.8642 16.5563 20.8116 18.2137 20.237 19.002C18.7797 21.0011 15.5915 21.2546 13.3285 20.255C9.27964 18.4665 5.62641 14.8129 3.8382 10.7648C2.83859 8.50182 3.19822 5.41963 5.19736 3.96237C5.98563 3.38777 7.53684 3.22908 8.34796 4.04021C8.99832 4.69058 9.52035 5.39579 9.98724 6.18247C10.704 7.39013 9.9804 8.58343 9.48902 9.7142Z" stroke="white" stroke-width="1.7"/>
<path d="M14.135 7.04556C14.7778 7.14427 15.4703 7.49779 16.0499 8.07738C16.6295 8.65698 16.983 9.34952 17.0817 9.99232" stroke="white" stroke-width="1.7" stroke-linecap="round"/>
<path d="M15.4437 3.93476C16.5388 4.0922 17.6582 4.63962 18.573 5.55443C19.4878 6.46925 20.0352 7.58859 20.1927 8.68377" stroke="white" stroke-width="1.7" stroke-linecap="round"/>
</g>
<defs>
<clipPath id="clip0_1324_74722">
<rect width="24" height="24" fill="white"/>
</clipPath>
</defs>
</svg>
