<svg width="20" height="20" viewBox="0 0 20 20" fill="none" xmlns="http://www.w3.org/2000/svg">
<g clip-path="url(#clip0_3243_100667)">
<path d="M7.90748 8.09504C7.32653 9.43195 10.3975 12.8588 11.9825 12.17C12.9248 11.7605 13.9192 11.1575 14.9256 11.7548C15.5825 12.1447 16.1717 12.5818 16.7108 13.1209C17.3868 13.7968 17.3429 15.178 16.8641 15.8349C15.6497 17.5008 12.9928 17.7121 11.1071 16.8791C7.733 15.3886 4.68864 12.344 3.19846 8.97051C2.36545 7.08473 2.66515 4.51623 4.33109 3.30186C4.98799 2.82302 6.28066 2.69078 6.95659 3.36672C7.49856 3.90869 7.93358 4.49637 8.32266 5.15193C8.91995 6.15832 8.31696 7.15273 7.90748 8.09504Z" fill="white"/>
<path d="M11.7791 5.87138C12.3148 5.95364 12.8919 6.24824 13.3749 6.73124C13.8579 7.21423 14.1525 7.79134 14.2348 8.32701" stroke="white" stroke-width="1.3" stroke-linecap="round"/>
<path d="M12.8696 3.27893C13.7823 3.41012 14.7151 3.86631 15.4774 4.62866C16.2398 5.391 16.6959 6.32378 16.8271 7.23643" stroke="white" stroke-width="1.3" stroke-linecap="round"/>
</g>
<defs>
<clipPath id="clip0_3243_100667">
<rect width="20" height="20" fill="white"/>
</clipPath>
</defs>
</svg>
