<svg width="20" height="20" viewBox="0 0 20 20" fill="none" xmlns="http://www.w3.org/2000/svg">
<path fill-rule="evenodd" clip-rule="evenodd" d="M5.78478 2.97976L5.36899 4.51257H2.8335C1.72893 4.51257 0.833496 5.408 0.833496 6.51257V16.3334C0.833496 17.438 1.72893 18.3334 2.8335 18.3334H17.1668C18.2714 18.3334 19.1668 17.438 19.1668 16.3334V6.5126C19.1668 5.40802 18.2714 4.51258 17.1668 4.5126L14.5358 4.51263L14.1859 3.03809C13.9946 2.23218 13.3071 1.66681 12.5184 1.66681L7.4374 1.66675C6.67001 1.66675 5.9956 2.20257 5.78478 2.97976ZM9.97933 7.50008C8.08085 7.50008 6.54183 9.0391 6.54183 10.9376C6.54183 12.8361 8.08085 14.3751 9.97933 14.3751C11.8778 14.3751 13.4168 12.8361 13.4168 10.9376C13.4168 9.0391 11.8778 7.50008 9.97933 7.50008Z" fill="white"/>
</svg>
