<svg width="24" height="24" viewBox="0 0 24 24" fill="none" xmlns="http://www.w3.org/2000/svg">
<path fill-rule="evenodd" clip-rule="evenodd" d="M6.94154 3.57561L6.4426 5.41499H3C1.89543 5.41499 1 6.31042 1 7.41499V20C1 21.1046 1.89543 22 3 22H21C22.1046 22 23 21.1046 23 20V7.41501C23 6.31043 22.1046 5.415 21 5.41501L17.4428 5.41506L17.0228 3.64561C16.7933 2.67851 15.9683 2.00007 15.0219 2.00007L8.92468 2C8.00382 2 7.19452 2.64299 6.94154 3.57561ZM11.975 9C9.69683 9 7.85 10.8468 7.85 13.125C7.85 15.4032 9.69683 17.25 11.975 17.25C14.2532 17.25 16.1 15.4032 16.1 13.125C16.1 10.8468 14.2532 9 11.975 9Z" fill="white"/>
</svg>
