<svg width="50" height="50" viewBox="0 0 50 50" fill="none" xmlns="http://www.w3.org/2000/svg">
<g clip-path="url(#clip0_5814_60606)">
<path fill-rule="evenodd" clip-rule="evenodd" d="M16.5693 10.2926L15.7377 13.3583H11.6667C8.90526 13.3583 6.66669 15.5968 6.66669 18.3583V36C6.66669 38.7614 8.90526 41 11.6667 41H38.3333C41.0948 41 43.3334 38.7614 43.3334 36V18.3583C43.3334 15.5969 41.0947 13.3583 38.3333 13.3583L34.0714 13.3584L33.3714 10.4093C32.9889 8.79748 31.6139 7.66675 30.0366 7.66675L19.8745 7.66663C18.3397 7.66663 16.9909 8.73827 16.5693 10.2926ZM24.9583 19.3332C21.1614 19.3332 18.0833 22.4112 18.0833 26.2082C18.0833 30.0051 21.1614 33.0832 24.9583 33.0832C28.7553 33.0832 31.8333 30.0051 31.8333 26.2082C31.8333 22.4112 28.7553 19.3332 24.9583 19.3332Z" fill="white"/>
</g>
<defs>
<clipPath id="clip0_5814_60606">
<rect width="50" height="50" fill="white"/>
</clipPath>
</defs>
</svg>
