<svg width="16" height="16" viewBox="0 0 16 16" fill="none" xmlns="http://www.w3.org/2000/svg">
<path fill-rule="evenodd" clip-rule="evenodd" d="M4.62765 2.38378L4.29502 3.61003H2.66663C1.56206 3.61003 0.666626 4.50546 0.666626 5.61003V12.6667C0.666626 13.7713 1.56206 14.6667 2.66663 14.6667H13.3333C14.4379 14.6667 15.3333 13.7713 15.3333 12.6667V5.61006C15.3333 4.50548 14.4378 3.61004 13.3333 3.61006L11.6285 3.61008L11.3485 2.43044C11.1955 1.78572 10.6455 1.33342 10.0146 1.33342L5.94975 1.33337C5.33584 1.33337 4.79631 1.76203 4.62765 2.38378ZM7.98329 6.00004C6.46451 6.00004 5.23329 7.23126 5.23329 8.75004C5.23329 10.2688 6.46451 11.5 7.98329 11.5C9.50208 11.5 10.7333 10.2688 10.7333 8.75004C10.7333 7.23126 9.50208 6.00004 7.98329 6.00004Z" fill="white"/>
</svg>
