<svg width="24" height="24" viewBox="0 0 24 24" fill="none" xmlns="http://www.w3.org/2000/svg">
<g clip-path="url(#clip0_889_259929)">
<path fill-rule="evenodd" clip-rule="evenodd" d="M22 12C22 17.5228 17.5228 22 12 22C6.47715 22 2 17.5228 2 12C2 6.47715 6.47715 2 12 2C17.5228 2 22 6.47715 22 12ZM15.6063 8.39371C15.9382 8.72566 15.9382 9.26385 15.6063 9.59579L13.2021 12L15.6063 14.4042C15.9382 14.7362 15.9382 15.2743 15.6063 15.6063C15.2743 15.9382 14.7362 15.9382 14.4042 15.6063L12 13.2021L9.59588 15.6062C9.26394 15.9381 8.72575 15.9381 8.3938 15.6062C8.06185 15.2743 8.06185 14.7361 8.3938 14.4041L10.7979 12L8.3938 9.59588C8.06186 9.26394 8.06186 8.72575 8.3938 8.3938C8.72575 8.06185 9.26394 8.06185 9.59588 8.3938L12 10.7979L14.4042 8.39371C14.7362 8.06176 15.2743 8.06176 15.6063 8.39371Z" fill="white"/>
</g>
<defs>
<clipPath id="clip0_889_259929">
<rect width="24" height="24" fill="white"/>
</clipPath>
</defs>
</svg>
