<svg width="16" height="16" viewBox="0 0 16 16" fill="none" xmlns="http://www.w3.org/2000/svg">
<g clip-path="url(#clip0_3292_9168)">
<path fill-rule="evenodd" clip-rule="evenodd" d="M7.99998 14.4C11.5346 14.4 14.4 11.5346 14.4 7.99998C14.4 4.46535 11.5346 1.59998 7.99998 1.59998C4.46535 1.59998 1.59998 4.46535 1.59998 7.99998C1.59998 11.5346 4.46535 14.4 7.99998 14.4ZM6.37365 5.66654C6.17838 5.47128 5.8618 5.47128 5.66654 5.66654C5.47128 5.8618 5.47128 6.17838 5.66654 6.37365L7.29289 7.99999L5.66654 9.62634C5.47128 9.8216 5.47128 10.1382 5.66654 10.3334C5.8618 10.5287 6.17838 10.5287 6.37365 10.3334L7.99999 8.7071L9.62634 10.3334C9.8216 10.5287 10.1382 10.5287 10.3334 10.3334C10.5287 10.1382 10.5287 9.8216 10.3334 9.62634L8.7071 7.99999L10.3334 6.37365C10.5287 6.17838 10.5287 5.8618 10.3334 5.66654C10.1382 5.47128 9.8216 5.47128 9.62634 5.66654L7.99999 7.29289L6.37365 5.66654Z" fill="white"/>
</g>
<defs>
<clipPath id="clip0_3292_9168">
<rect width="16" height="16" fill="white"/>
</clipPath>
</defs>
</svg>
