<svg width="20" height="20" viewBox="0 0 20 20" fill="none" xmlns="http://www.w3.org/2000/svg">
<g clip-path="url(#clip0_3243_100235)">
<path fill-rule="evenodd" clip-rule="evenodd" d="M10 18C14.4183 18 18 14.4183 18 10C18 5.58172 14.4183 2 10 2C5.58172 2 2 5.58172 2 10C2 14.4183 5.58172 18 10 18ZM8.05548 6.99482C7.76258 6.70192 7.28771 6.70192 6.99482 6.99482C6.70192 7.28771 6.70192 7.76258 6.99482 8.05548L8.93936 10L6.99482 11.9446C6.70192 12.2375 6.70192 12.7123 6.99482 13.0052C7.28771 13.2981 7.76258 13.2981 8.05548 13.0052L10 11.0607L11.9446 13.0052C12.2375 13.2981 12.7123 13.2981 13.0052 13.0052C13.2981 12.7123 13.2981 12.2375 13.0052 11.9446L11.0607 10L13.0052 8.05548C13.2981 7.76258 13.2981 7.28771 13.0052 6.99482C12.7123 6.70192 12.2375 6.70192 11.9446 6.99482L10 8.93936L8.05548 6.99482Z" fill="white"/>
</g>
<defs>
<clipPath id="clip0_3243_100235">
<rect width="20" height="20" fill="white"/>
</clipPath>
</defs>
</svg>
