<svg width="24" height="24" viewBox="0 0 24 24" fill="none" xmlns="http://www.w3.org/2000/svg">
<g clip-path="url(#clip0_1555_17057)">
<path fill-rule="evenodd" clip-rule="evenodd" d="M19.782 4.22916C15.5964 0.156554 8.87405 0.118664 4.64861 4.14577C1.39516 7.2515 0.524234 12.0788 2.50381 16.1042C2.51838 16.1349 2.52284 16.1698 2.50534 16.2167C2.35741 16.6133 2.26432 16.821 2.17729 16.9761C2.09397 17.1247 2.00355 17.2484 1.82601 17.4737C1.22345 18.1983 1.01907 19.0986 1.23114 19.9168C1.44426 20.739 2.06462 21.4154 2.96248 21.6864C4.38582 22.1738 5.85934 22.5192 7.34051 22.7244L7.3548 22.7264C7.36264 22.7275 7.37049 22.7284 7.37835 22.7293L7.39271 22.7309C9.01 22.909 10.573 22.8606 12.1158 22.758C15.0097 22.564 17.6193 21.2268 19.6051 19.3637L19.6135 19.3559L19.6272 19.3427L19.6355 19.3346C23.7386 15.3066 23.927 8.81005 20.1244 4.56503C20.1114 4.55056 20.0979 4.53653 20.084 4.52297L19.782 4.22916ZM12.2457 13.1905C12.9042 13.1905 13.4379 12.6575 13.4379 12C13.4379 11.3426 12.9042 10.8096 12.2457 10.8096C11.5873 10.8096 11.0535 11.3426 11.0535 12C11.0535 12.6575 11.5873 13.1905 12.2457 13.1905ZM15.8996 13.1905C16.5581 13.1905 17.0918 12.6575 17.0918 12C17.0918 11.3426 16.5581 10.8096 15.8996 10.8096C15.2412 10.8096 14.7074 11.3426 14.7074 12C14.7074 12.6575 15.2412 13.1905 15.8996 13.1905ZM9.78703 12.0001C9.78703 12.6576 9.25325 13.1906 8.59481 13.1906C7.93636 13.1906 7.40259 12.6576 7.40259 12.0001C7.40259 11.3426 7.93636 10.8096 8.59481 10.8096C9.25325 10.8096 9.78703 11.3426 9.78703 12.0001Z" fill="white"/>
</g>
<defs>
<clipPath id="clip0_1555_17057">
<rect width="24" height="24" fill="white"/>
</clipPath>
</defs>
</svg>
