<svg width="20" height="20" viewBox="0 0 20 20" fill="none" xmlns="http://www.w3.org/2000/svg">
<g clip-path="url(#clip0_3243_96890)">
<path fill-rule="evenodd" clip-rule="evenodd" d="M7.48042 10.8749C7.96442 10.8749 8.35678 10.4831 8.35678 9.99983C8.35678 9.51654 7.96442 9.12476 7.48042 9.12476C6.99642 9.12476 6.60406 9.51654 6.60406 9.99983C6.60406 10.4831 6.99642 10.8749 7.48042 10.8749ZM11.0404 9.99983C11.0404 10.4831 10.648 10.8749 10.164 10.8749C9.68001 10.8749 9.28765 10.4831 9.28765 9.99983C9.28765 9.51654 9.68001 9.12476 10.164 9.12476C10.648 9.12476 11.0404 9.51654 11.0404 9.99983ZM13.7263 9.99983C13.7263 10.4831 13.3339 10.8749 12.8499 10.8749C12.3659 10.8749 11.9735 10.4831 11.9735 9.99983C11.9735 9.51654 12.3659 9.12476 12.8499 9.12476C13.3339 9.12476 13.7263 9.51654 13.7263 9.99983Z" fill="white"/>
<path fill-rule="evenodd" clip-rule="evenodd" d="M4.92627 4.57088C7.84694 1.78731 12.4981 1.8131 15.392 4.62885L15.6184 4.84921C18.2432 7.77935 18.114 12.264 15.28 15.0461L15.2739 15.0521L15.2676 15.0579C13.8667 16.3723 12.0435 17.2985 10.0442 17.4325C8.90014 17.5086 7.77184 17.5421 6.61433 17.4146L6.60358 17.4134L6.59286 17.4119C5.51691 17.2628 4.44762 17.0116 3.41641 16.6577C2.48339 16.3835 2.19751 15.3021 2.86456 14.5071C3.14287 14.1544 3.24743 13.9989 3.47629 13.3855C3.5497 13.1887 3.53931 12.981 3.45093 12.799C2.08864 10.031 2.6855 6.70992 4.92627 4.57088Z" stroke="white" stroke-width="1.3" stroke-linecap="round" stroke-linejoin="round"/>
</g>
<defs>
<clipPath id="clip0_3243_96890">
<rect width="20" height="20" fill="white"/>
</clipPath>
</defs>
</svg>
