<svg width="20" height="20" viewBox="0 0 20 20" fill="none" xmlns="http://www.w3.org/2000/svg">
<g clip-path="url(#clip0_3243_96963)">
<path fill-rule="evenodd" clip-rule="evenodd" d="M15.392 4.62885C12.4981 1.8131 7.84694 1.78731 4.92627 4.57088C2.6855 6.70992 2.08864 10.031 3.45093 12.799C3.53931 12.981 3.5497 13.1887 3.47629 13.3855C3.24743 13.9989 3.14287 14.1544 2.86456 14.5071C2.19751 15.3021 2.48339 16.3835 3.41641 16.6577C4.44762 17.0116 5.51691 17.2628 6.59286 17.4119L6.60358 17.4134L6.61433 17.4146C7.77184 17.5421 8.90014 17.5086 10.0442 17.4325C12.0435 17.2985 13.8667 16.3723 15.2676 15.0579L15.2739 15.0521L15.28 15.0461C18.114 12.264 18.2432 7.77935 15.6184 4.84921L15.392 4.62885ZM8.35678 9.99983C8.35678 10.4831 7.96442 10.8749 7.48042 10.8749C6.99642 10.8749 6.60406 10.4831 6.60406 9.99983C6.60406 9.51654 6.99642 9.12476 7.48042 9.12476C7.96442 9.12476 8.35678 9.51654 8.35678 9.99983ZM10.164 10.8749C10.648 10.8749 11.0404 10.4831 11.0404 9.99983C11.0404 9.51654 10.648 9.12476 10.164 9.12476C9.68001 9.12476 9.28765 9.51654 9.28765 9.99983C9.28765 10.4831 9.68001 10.8749 10.164 10.8749ZM12.8499 10.8749C13.3339 10.8749 13.7263 10.4831 13.7263 9.99983C13.7263 9.51654 13.3339 9.12476 12.8499 9.12476C12.3659 9.12476 11.9735 9.51654 11.9735 9.99983C11.9735 10.4831 12.3659 10.8749 12.8499 10.8749Z" fill="white"/>
</g>
<defs>
<clipPath id="clip0_3243_96963">
<rect width="20" height="20" fill="white"/>
</clipPath>
</defs>
</svg>
