<svg width="24" height="24" viewBox="0 0 24 24" fill="none" xmlns="http://www.w3.org/2000/svg">
<g clip-path="url(#clip0_101_1131)">
<path fill-rule="evenodd" clip-rule="evenodd" d="M13.4379 12C13.4379 12.6575 12.9042 13.1905 12.2457 13.1905C11.5873 13.1905 11.0535 12.6575 11.0535 12C11.0535 11.3426 11.5873 10.8096 12.2457 10.8096C12.9042 10.8096 13.4379 11.3426 13.4379 12ZM17.0918 12C17.0918 12.6575 16.5581 13.1905 15.8996 13.1905C15.2412 13.1905 14.7074 12.6575 14.7074 12C14.7074 11.3426 15.2412 10.8096 15.8996 10.8096C16.5581 10.8096 17.0918 11.3426 17.0918 12ZM8.59481 13.1906C9.25325 13.1906 9.78703 12.6576 9.78703 12.0001C9.78703 11.3426 9.25325 10.8096 8.59481 10.8096C7.93636 10.8096 7.40259 11.3426 7.40259 12.0001C7.40259 12.6576 7.93636 13.1906 8.59481 13.1906Z" fill="white"/>
<path fill-rule="evenodd" clip-rule="evenodd" d="M5.23503 4.76117C9.12925 1.04974 15.3307 1.08413 19.1893 4.83847L19.4912 5.13228C22.9909 9.03914 22.8186 15.0187 19.04 18.7281L19.0319 18.7361L19.0235 18.7439C17.1556 20.4964 14.7247 21.7313 12.0589 21.91C10.5335 22.0115 9.02912 22.0561 7.48578 21.8861L7.47144 21.8845L7.45714 21.8825C6.02254 21.6837 4.59682 21.3489 3.22188 20.8769C1.97785 20.5113 1.59668 19.0695 2.48607 18.0094C2.85715 17.5391 2.99658 17.3319 3.30172 16.5139C3.3996 16.2516 3.38574 15.9747 3.2679 15.732C1.45152 12.0413 2.24733 7.61322 5.23503 4.76117Z" stroke="white" stroke-width="1.7" stroke-linecap="round" stroke-linejoin="round"/>
</g>
<defs>
<clipPath id="clip0_101_1131">
<rect width="24" height="24" fill="white"/>
</clipPath>
</defs>
</svg>
