<svg width="16" height="16" viewBox="0 0 16 16" fill="none" xmlns="http://www.w3.org/2000/svg">
<g clip-path="url(#clip0_3292_5854)">
<ellipse cx="5.7511" cy="7.84082" rx="0.751098" ry="0.75" fill="white"/>
<ellipse cx="8.25329" cy="7.84082" rx="0.751098" ry="0.75" fill="white"/>
<ellipse cx="10.7555" cy="7.84082" rx="0.751098" ry="0.75" fill="white"/>
<path fill-rule="evenodd" clip-rule="evenodd" d="M4.11014 3.83768C6.34932 1.7036 9.91518 1.72337 12.1338 3.88212L12.3075 4.05106C14.3198 6.29751 14.2207 9.73577 12.048 11.8687L12.0433 11.8733L12.0385 11.8777C10.9645 12.8854 9.56671 13.5955 8.03387 13.6982C7.15678 13.7566 6.29174 13.7823 5.40432 13.6845L5.39607 13.6836L5.38786 13.6825C4.56296 13.5682 3.74317 13.3756 2.95258 13.1042C2.23726 12.894 2.01809 12.065 2.52949 11.4554C2.74286 11.185 2.82303 11.0658 2.99849 10.5955C3.05477 10.4446 3.0468 10.2854 2.97904 10.1459C1.93463 8.02375 2.39221 5.4776 4.11014 3.83768Z" stroke="white" stroke-width="0.9" stroke-linecap="round" stroke-linejoin="round"/>
</g>
<defs>
<clipPath id="clip0_3292_5854">
<rect width="16" height="16" fill="white"/>
</clipPath>
</defs>
</svg>
