<svg width="16" height="16" viewBox="0 0 16 16" fill="none" xmlns="http://www.w3.org/2000/svg">
<g clip-path="url(#clip0_3292_5927)">
<path fill-rule="evenodd" clip-rule="evenodd" d="M12.4477 3.55964C10.0558 1.23241 6.21422 1.21078 3.79969 3.51197C1.94094 5.28633 1.44365 8.04407 2.57478 10.3436C2.58765 10.3707 2.59055 10.4017 2.57689 10.4383C2.49162 10.6669 2.43727 10.7885 2.38575 10.8803C2.33622 10.9686 2.28255 11.0419 2.18009 11.1718C1.8408 11.5796 1.72678 12.0848 1.84543 12.5425C1.96462 13.0024 2.31157 13.3811 2.81524 13.5329C3.63146 13.8124 4.47655 14.0105 5.32611 14.1282L5.3343 14.1296L5.35506 14.1318C6.28163 14.2339 7.1777 14.2063 8.06398 14.1473C9.7176 14.0364 11.21 13.2722 12.3464 12.206L12.3513 12.2016L12.3633 12.1898C14.7078 9.8883 14.8153 6.17632 12.6427 3.75085C12.6358 3.74319 12.6287 3.73576 12.6213 3.72858L12.4477 3.55964ZM5.7511 8.59082C6.16592 8.59082 6.5022 8.25503 6.5022 7.84082C6.5022 7.42661 6.16592 7.09082 5.7511 7.09082C5.33628 7.09082 5 7.42661 5 7.84082C5 8.25503 5.33628 8.59082 5.7511 8.59082ZM8.2533 8.59082C8.66812 8.59082 9.00439 8.25503 9.00439 7.84082C9.00439 7.42661 8.66812 7.09082 8.2533 7.09082C7.83848 7.09082 7.5022 7.42661 7.5022 7.84082C7.5022 8.25503 7.83848 8.59082 8.2533 8.59082ZM11.5066 7.84082C11.5066 8.25503 11.1703 8.59082 10.7555 8.59082C10.3407 8.59082 10.0044 8.25503 10.0044 7.84082C10.0044 7.42661 10.3407 7.09082 10.7555 7.09082C11.1703 7.09082 11.5066 7.42661 11.5066 7.84082Z" fill="white"/>
</g>
<defs>
<clipPath id="clip0_3292_5927">
<rect width="16" height="16" fill="white"/>
</clipPath>
</defs>
</svg>
