<svg width="24" height="24" viewBox="0 0 24 24" fill="none" xmlns="http://www.w3.org/2000/svg">
<g clip-path="url(#clip0_5381_29211)">
<g clip-path="url(#clip1_5381_29211)">
<path fill-rule="evenodd" clip-rule="evenodd" d="M12 0C18.6274 0 24 5.37258 24 12C24 18.6274 18.6274 24 12 24C5.37258 24 0 18.6274 0 12C0 5.37258 5.37258 0 12 0ZM17.298 7.65293C16.8853 7.28601 16.2528 7.32315 15.8859 7.73594L10.4103 13.8941L8.04706 11.2359C7.68014 10.8232 7.04871 10.786 6.63593 11.1529C6.22314 11.5198 6.186 12.1513 6.55292 12.5641L9.58905 15.9801C10.0266 16.4723 10.796 16.4723 11.2336 15.9801L17.381 9.06406C17.7475 8.65139 17.7104 8.0198 17.298 7.65293Z" fill="white"/>
</g>
</g>
<defs>
<clipPath id="clip0_5381_29211">
<rect width="24" height="24" fill="white"/>
</clipPath>
<clipPath id="clip1_5381_29211">
<rect width="24" height="24" fill="white"/>
</clipPath>
</defs>
</svg>
