<svg width="20" height="20" viewBox="0 0 20 20" fill="none" xmlns="http://www.w3.org/2000/svg">
<g clip-path="url(#clip0_5381_13137)">
<g clip-path="url(#clip1_5381_13137)">
<path d="M10 0C15.5228 0 20 4.47715 20 10C20 15.5228 15.5228 20 10 20C4.47715 20 0 15.5228 0 10C0 4.47715 4.47715 0 10 0ZM14.7109 6.16699C14.4014 5.8918 13.9266 5.91991 13.6514 6.22949L8.55566 11.9619L6.28809 9.41113C6.01297 9.10162 5.53908 9.07366 5.22949 9.34863C4.91998 9.62376 4.89201 10.0976 5.16699 10.4072L7.9209 13.5049C8.25906 13.885 8.85336 13.8852 9.19141 13.5049L14.7725 7.22559C15.0475 6.91614 15.0201 6.44224 14.7109 6.16699Z" fill="white"/>
</g>
</g>
<defs>
<clipPath id="clip0_5381_13137">
<rect width="20" height="20" fill="white"/>
</clipPath>
<clipPath id="clip1_5381_13137">
<rect width="20" height="20" fill="white"/>
</clipPath>
</defs>
</svg>
