<svg width="16" height="16" viewBox="0 0 16 16" fill="none" xmlns="http://www.w3.org/2000/svg">
<g clip-path="url(#clip0_5381_70718)">
<path d="M8 0C12.4183 0 16 3.58172 16 8C16 12.4183 12.4183 16 8 16C3.58172 16 0 12.4183 0 8C0 3.58172 3.58172 0 8 0ZM11.3281 5.26465C11.0598 5.02615 10.6487 5.05005 10.4102 5.31836L7.00586 9.14648L5.54785 7.50586C5.30934 7.23767 4.89913 7.21369 4.63086 7.45215C4.36266 7.69066 4.33869 8.10087 4.57715 8.36914L6.44629 10.4727C6.74463 10.8083 7.26904 10.8083 7.56738 10.4727L11.3818 6.18164C11.62 5.91349 11.5959 5.50315 11.3281 5.26465Z" fill="white"/>
</g>
<defs>
<clipPath id="clip0_5381_70718">
<rect width="16" height="16" fill="white"/>
</clipPath>
</defs>
</svg>
