<svg width="24" height="24" viewBox="0 0 24 24" fill="none" xmlns="http://www.w3.org/2000/svg">
<g clip-path="url(#clip0_101_2537)">
<path fill-rule="evenodd" clip-rule="evenodd" d="M6.10101 4.89896C5.76906 4.56701 5.23087 4.56701 4.89893 4.89896C4.56698 5.2309 4.56698 5.7691 4.89893 6.10104L10.7997 12.0019L4.89896 17.9027C4.56701 18.2346 4.56701 18.7728 4.89896 19.1047C5.2309 19.4367 5.76909 19.4367 6.10104 19.1047L12.0018 13.2039L17.9026 19.1047C18.2346 19.4367 18.7728 19.4367 19.1047 19.1047C19.4366 18.7728 19.4366 18.2346 19.1047 17.9027L13.2039 12.0019L19.1047 6.10104C19.4367 5.7691 19.4367 5.2309 19.1047 4.89896C18.7728 4.56701 18.2346 4.56701 17.9027 4.89896L12.0018 10.7998L6.10101 4.89896Z" fill="white"/>
</g>
<defs>
<clipPath id="clip0_101_2537">
<rect width="24" height="24" fill="white"/>
</clipPath>
</defs>
</svg>
