<svg width="16" height="16" viewBox="0 0 16 16" fill="none" xmlns="http://www.w3.org/2000/svg">
<g clip-path="url(#clip0_3292_7212)">
<path d="M11.9465 2.38002V8.53333H12.5221C13.1615 8.53333 13.6798 8.0232 13.6798 7.39393V3.51942C13.6798 2.89015 13.1615 2.38002 12.5221 2.38002H11.9465Z" fill="white"/>
<path d="M7.07984 11.8133V9.62771H3.50888C3.16786 9.63142 2.84236 9.49117 2.61858 9.24411C2.3948 8.99706 2.29533 8.66812 2.34651 8.34444L3.14854 3.32293C3.23545 2.77275 3.7313 2.36813 4.31091 2.37442H10.6798V8.51182L8.97484 13.2683C8.91786 13.4273 8.76616 13.5377 8.59945 13.5108C7.76002 13.3752 7.07984 12.6466 7.07984 11.8133Z" fill="white"/>
</g>
<defs>
<clipPath id="clip0_3292_7212">
<rect width="16" height="16" fill="white"/>
</clipPath>
</defs>
</svg>
