<svg width="20" height="20" viewBox="0 0 20 20" fill="none" xmlns="http://www.w3.org/2000/svg">
<g clip-path="url(#clip0_3243_98268)">
<path d="M14.9331 2.97512V10.6667H15.6526C16.4519 10.6667 17.0998 10.0291 17.0998 9.24251V4.39936C17.0998 3.61277 16.4519 2.97512 15.6526 2.97512H14.9331Z" fill="white"/>
<path d="M8.84979 14.7667V12.0347H4.38609C3.95982 12.0394 3.55294 11.8641 3.27322 11.5552C2.9935 11.2464 2.86915 10.8352 2.93312 10.4306L3.93567 4.15375C4.04431 3.46603 4.66412 2.96026 5.38863 2.96812H13.3498V10.6399L11.1948 16.6517C11.1378 16.8107 10.9864 16.9203 10.8189 16.8987C9.73789 16.7592 8.84979 15.8313 8.84979 14.7667Z" fill="white"/>
</g>
<defs>
<clipPath id="clip0_3243_98268">
<rect width="20" height="20" fill="white"/>
</clipPath>
</defs>
</svg>
