<svg width="24" height="24" viewBox="0 0 24 24" fill="none" xmlns="http://www.w3.org/2000/svg">
<g clip-path="url(#clip0_236_30205)">
<path d="M17.9198 3.57009V12.8H18.7831C19.7422 12.8 20.5198 12.0349 20.5198 11.091V5.27918C20.5198 4.33528 19.7422 3.57009 18.7831 3.57009H17.9198Z" fill="white"/>
<path d="M10.6198 17.72V14.4416H5.26333C4.75181 14.4472 4.26356 14.2368 3.92789 13.8662C3.59222 13.4956 3.44301 13.0022 3.51977 12.5167L4.72283 4.98446C4.85319 4.15919 5.59697 3.55226 6.46638 3.5617H16.0198V12.7678L13.4148 20.035C13.3578 20.194 13.2066 20.303 13.0387 20.285C11.7163 20.1429 10.6198 19.0159 10.6198 17.72Z" fill="white"/>
</g>
<defs>
<clipPath id="clip0_236_30205">
<rect width="24" height="24" fill="white"/>
</clipPath>
</defs>
</svg>
