<svg width="20" height="20" viewBox="0 0 20 20" fill="none" xmlns="http://www.w3.org/2000/svg">
<g clip-path="url(#clip0_5125_66700)">
<path d="M15.3991 3.27248C14.6943 2.56972 13.5532 2.57144 12.8504 3.27631C10.5358 5.5979 6.37898 9.75071 4.71405 11.4136C4.24706 11.88 3.94884 12.4852 3.86001 13.1393C3.77854 13.7391 3.68808 14.3985 3.61101 14.9583C3.51966 15.6218 4.09282 16.1863 4.75524 16.0871C5.30757 16.0044 5.95436 15.9091 6.53607 15.8274C7.1964 15.7346 7.81084 15.4371 8.28338 14.9666C9.956 13.3013 14.1081 9.16629 16.4205 6.85386C17.1216 6.15277 17.1247 5.01705 16.4275 4.31213L15.3991 3.27248Z" stroke="white" stroke-width="1.3"/>
<path d="M11.4383 4.75673L15.0111 8.3287" stroke="white" stroke-width="1.3"/>
</g>
<defs>
<clipPath id="clip0_5125_66700">
<rect width="20" height="20" fill="white"/>
</clipPath>
</defs>
</svg>
