<svg width="24" height="24" viewBox="0 0 24 24" fill="none" xmlns="http://www.w3.org/2000/svg">
<g clip-path="url(#clip0_5125_72393)">
<path d="M18.7859 3.64386C17.8752 2.73592 16.4009 2.73814 15.493 3.64881C12.4006 6.7505 6.76313 12.3822 4.77257 14.3702C4.30557 14.8366 4.00631 15.4428 3.91775 16.0968C3.80955 16.8959 3.68404 17.8117 3.57594 18.5973C3.44812 19.5263 4.25103 20.3168 5.17847 20.1783C5.95692 20.062 6.8589 19.9297 7.63336 19.8227C8.29389 19.7314 8.90897 19.4328 9.38152 18.9624C11.3823 16.9704 17.0153 11.361 20.1055 8.27085C21.0112 7.36508 21.0153 5.89778 20.1145 4.98704L18.7859 3.64386Z" stroke="white" stroke-width="1.7"/>
<path d="M13.6685 5.56153L18.2843 10.1764" stroke="white" stroke-width="1.7"/>
</g>
<defs>
<clipPath id="clip0_5125_72393">
<rect width="24" height="24" fill="white"/>
</clipPath>
</defs>
</svg>
