<svg width="20" height="20" viewBox="0 0 20 20" fill="none" xmlns="http://www.w3.org/2000/svg">
<g clip-path="url(#clip0_5125_66772)">
<path fill-rule="evenodd" clip-rule="evenodd" d="M15.8228 2.70105C14.8832 1.76433 13.3622 1.76661 12.4255 2.70616C12.1152 3.0174 11.7717 3.36157 11.4056 3.72825L15.8264 8.14908C16.192 7.78409 16.5349 7.44148 16.8448 7.13159C17.7793 6.1971 17.7834 4.68328 16.8541 3.74367L15.8257 2.704L15.8228 2.70105ZM14.9771 8.99681L10.5576 4.57729C8.30567 6.83119 5.56616 9.56799 4.29004 10.8426C3.72927 11.4026 3.37182 12.129 3.26546 12.912C3.18406 13.5113 3.09365 14.1703 3.01661 14.7299C2.87044 15.7916 3.78718 16.6922 4.84408 16.5339C5.3956 16.4514 6.04039 16.3564 6.61952 16.275C7.40387 16.1648 8.13893 15.8106 8.70671 15.2453C9.98839 13.9692 12.7265 11.2424 14.9771 8.99681Z" fill="white"/>
</g>
<defs>
<clipPath id="clip0_5125_66772">
<rect width="20" height="20" fill="white"/>
</clipPath>
</defs>
</svg>
