<svg width="16" height="16" viewBox="0 0 16 16" fill="none" xmlns="http://www.w3.org/2000/svg">
<g clip-path="url(#clip0_5125_54692)">
<path d="M12.2813 3.15023C11.7548 2.62539 10.9026 2.62667 10.3778 3.15309C8.72884 4.80702 5.82796 7.7054 4.48479 9.04702C4.01781 9.51346 3.71791 10.1205 3.62876 10.7745C3.5746 11.1717 3.51779 11.5854 3.46904 11.9394C3.40506 12.4039 3.80642 12.7994 4.27009 12.7298C4.61692 12.6778 5.01989 12.6182 5.40419 12.5632C6.06428 12.4687 6.68002 12.1695 7.15254 11.699C8.50099 10.3564 11.3972 7.47176 13.0441 5.8249C13.5676 5.30131 13.57 4.45313 13.0493 3.92667L12.2813 3.15023Z" stroke="white" stroke-width="0.9"/>
<path d="M9.32296 4.25859L11.9912 6.92624" stroke="white" stroke-width="0.9"/>
</g>
<defs>
<clipPath id="clip0_5125_54692">
<rect width="16" height="16" fill="white"/>
</clipPath>
</defs>
</svg>
