<svg width="24" height="24" viewBox="0 0 24 24" fill="none" xmlns="http://www.w3.org/2000/svg">
<g clip-path="url(#clip0_5125_72465)">
<path fill-rule="evenodd" clip-rule="evenodd" d="M15.0682 3.22533C16.2101 2.08 18.0642 2.07721 19.2096 3.2191L19.2125 3.22205L19.2125 3.22206L20.5411 4.56526C21.674 5.71068 21.669 7.55608 20.5298 8.69526C20.1444 9.08065 19.7195 9.5052 19.267 9.95702L13.8032 4.49317C14.2565 4.03913 14.6822 3.61251 15.0682 3.22533ZM12.6018 5.69597C9.57261 8.72771 5.88072 12.4157 4.34865 13.9458C3.78811 14.5057 3.42935 15.2329 3.32325 16.0165C3.21513 16.8149 3.08969 17.7302 2.98161 18.5157C2.79898 19.843 3.94562 20.9692 5.26718 20.7718C6.04482 20.6557 6.94432 20.5238 7.71559 20.4172C8.50153 20.3085 9.23744 19.9527 9.80492 19.3877C11.3446 17.8549 15.0358 14.1792 18.0638 11.158L12.6018 5.69597Z" fill="white"/>
</g>
<defs>
<clipPath id="clip0_5125_72465">
<rect width="24" height="24" fill="white"/>
</clipPath>
</defs>
</svg>
