<svg width="16" height="16" viewBox="0 0 16 16" fill="none" xmlns="http://www.w3.org/2000/svg">
<g clip-path="url(#clip0_5125_54764)">
<path fill-rule="evenodd" clip-rule="evenodd" d="M10.3779 3.1531C10.9027 2.62668 11.7549 2.6254 12.2814 3.15024L13.0494 3.92668C13.5701 4.45314 13.5677 5.30132 13.0442 5.82491C12.8131 6.05597 12.5574 6.31139 12.2849 6.5835L9.61705 3.91562C9.89016 3.64208 10.1464 3.38533 10.3779 3.1531ZM8.98103 4.5524C7.4004 6.1344 5.49882 8.03427 4.48489 9.04703C4.01791 9.51347 3.71801 10.1205 3.62886 10.7745C3.5747 11.1717 3.51789 11.5854 3.46914 11.9394C3.40516 12.4039 3.80652 12.7994 4.27019 12.7298C4.61702 12.6778 5.01999 12.6182 5.40429 12.5632C6.06438 12.4687 6.68012 12.1695 7.15264 11.699C8.1703 10.6858 10.0695 8.79423 11.6479 7.2193L8.98103 4.5524Z" fill="white"/>
</g>
<defs>
<clipPath id="clip0_5125_54764">
<rect width="16" height="16" fill="white"/>
</clipPath>
</defs>
</svg>
