<svg width="24" height="24" viewBox="0 0 24 24" fill="none" xmlns="http://www.w3.org/2000/svg">
<g clip-path="url(#clip0_1401_64575)">
<path d="M12 1C18.0751 1 23 5.92486 23 12C23 18.0751 18.0751 23 12 23C5.92486 23 1 18.0751 1 12C1 5.92486 5.92486 1 12 1ZM12 2.57143C6.79281 2.57143 2.57143 6.79281 2.57143 12C2.57143 17.2072 6.79281 21.4286 12 21.4286C17.2072 21.4286 21.4286 17.2072 21.4286 12C21.4286 6.79281 17.2072 2.57143 12 2.57143ZM15.63 14.5263C15.9705 14.7945 16.0281 15.2885 15.7599 15.6295C14.8233 16.817 13.4525 17.5 12 17.5C10.5475 17.5 9.17667 16.817 8.2401 15.6295C7.9719 15.289 8.03005 14.7945 8.37052 14.5258C8.711 14.2576 9.20548 14.3163 9.47419 14.6568C10.1132 15.4655 11.0336 15.9286 12 15.9286C12.9664 15.9286 13.8868 15.466 14.5258 14.6562C14.7945 14.3158 15.2895 14.2571 15.63 14.5263ZM8.33333 8.85714C8.91214 8.85714 9.38095 9.32595 9.38095 9.90476C9.38095 10.4836 8.91214 10.9524 8.33333 10.9524C7.75452 10.9524 7.28571 10.4836 7.28571 9.90476C7.28571 9.32595 7.75452 8.85714 8.33333 8.85714ZM15.6667 8.85714C16.2455 8.85714 16.7143 9.32595 16.7143 9.90476C16.7143 10.4836 16.2455 10.9524 15.6667 10.9524C15.0879 10.9524 14.619 10.4836 14.619 9.90476C14.619 9.32595 15.0879 8.85714 15.6667 8.85714Z" fill="white"/>
</g>
<defs>
<clipPath id="clip0_1401_64575">
<rect width="24" height="24" fill="white"/>
</clipPath>
</defs>
</svg>
