<svg width="16" height="16" viewBox="0 0 16 16" fill="none" xmlns="http://www.w3.org/2000/svg">
<g clip-path="url(#clip0_3292_9828)">
<path d="M7.99998 1.59998C11.5346 1.59998 14.4 4.46535 14.4 7.99998C14.4 11.5346 11.5346 14.4 7.99998 14.4C4.46535 14.4 1.59998 11.5346 1.59998 7.99998C1.59998 4.46535 4.46535 1.59998 7.99998 1.59998ZM7.99998 2.51426C4.97034 2.51426 2.51426 4.97034 2.51426 7.99998C2.51426 11.0296 4.97034 13.4857 7.99998 13.4857C11.0296 13.4857 13.4857 11.0296 13.4857 7.99998C13.4857 4.97034 11.0296 2.51426 7.99998 2.51426ZM10.112 9.46984C10.3101 9.62588 10.3436 9.91327 10.1876 10.1117C9.64264 10.8026 8.84508 11.2 7.99998 11.2C7.15487 11.2 6.35731 10.8026 5.81239 10.1117C5.65636 9.91358 5.69019 9.62588 5.88828 9.46954C6.08638 9.3135 6.37407 9.34763 6.53041 9.54573C6.90222 10.0163 7.43769 10.2857 7.99998 10.2857C8.56226 10.2857 9.09773 10.0166 9.46954 9.54542C9.62588 9.34733 9.91388 9.31319 10.112 9.46984ZM5.86664 6.1714C6.2034 6.1714 6.47617 6.44417 6.47617 6.78093C6.47617 7.11769 6.2034 7.39045 5.86664 7.39045C5.52988 7.39045 5.25712 7.11769 5.25712 6.78093C5.25712 6.44417 5.52988 6.1714 5.86664 6.1714ZM10.1333 6.1714C10.4701 6.1714 10.7428 6.44417 10.7428 6.78093C10.7428 7.11769 10.4701 7.39045 10.1333 7.39045C9.79655 7.39045 9.52379 7.11769 9.52379 6.78093C9.52379 6.44417 9.79655 6.1714 10.1333 6.1714Z" fill="white"/>
</g>
<defs>
<clipPath id="clip0_3292_9828">
<rect width="16" height="16" fill="white"/>
</clipPath>
</defs>
</svg>
