<svg width="20" height="20" viewBox="0 0 20 20" fill="none" xmlns="http://www.w3.org/2000/svg">
<g clip-path="url(#clip0_3243_100896)">
<path d="M10 2C14.4183 2 18 5.58171 18 10C18 14.4183 14.4183 18 10 18C5.58171 18 2 14.4183 2 10C2 5.58171 5.58171 2 10 2ZM10 3.14286C6.21295 3.14286 3.14286 6.21295 3.14286 10C3.14286 13.787 6.21295 16.8571 10 16.8571C13.787 16.8571 16.8571 13.787 16.8571 10C16.8571 6.21295 13.787 3.14286 10 3.14286ZM12.64 11.8373C12.8876 12.0324 12.9295 12.3916 12.7345 12.6396C12.0533 13.5032 11.0564 14 10 14C8.94362 14 7.94667 13.5032 7.26552 12.6396C7.07048 12.392 7.11276 12.0324 7.36038 11.837C7.608 11.6419 7.96762 11.6846 8.16305 11.9322C8.62781 12.5204 9.29714 12.8571 10 12.8571C10.7029 12.8571 11.3722 12.5208 11.837 11.9318C12.0324 11.6842 12.3924 11.6415 12.64 11.8373ZM7.33333 7.71429C7.75429 7.71429 8.09524 8.05524 8.09524 8.47619C8.09524 8.89714 7.75429 9.23809 7.33333 9.23809C6.91238 9.23809 6.57143 8.89714 6.57143 8.47619C6.57143 8.05524 6.91238 7.71429 7.33333 7.71429ZM12.6667 7.71429C13.0876 7.71429 13.4286 8.05524 13.4286 8.47619C13.4286 8.89714 13.0876 9.23809 12.6667 9.23809C12.2457 9.23809 11.9048 8.89714 11.9048 8.47619C11.9048 8.05524 12.2457 7.71429 12.6667 7.71429Z" fill="white"/>
</g>
<defs>
<clipPath id="clip0_3243_100896">
<rect width="20" height="20" fill="white"/>
</clipPath>
</defs>
</svg>
