<svg width="24" height="24" viewBox="0 0 24 24" fill="none" xmlns="http://www.w3.org/2000/svg">
<path fill-rule="evenodd" clip-rule="evenodd" d="M1 11.75C1 5.81294 5.81294 1 11.75 1C17.6871 1 22.5 5.81294 22.5 11.75C22.5 17.6871 17.6871 22.5 11.75 22.5C5.81294 22.5 1 17.6871 1 11.75ZM10.4123 7.78579C10.2999 6.94625 10.9529 6.19995 11.8 6.19995C12.647 6.19995 13.3 6.94625 13.1876 7.78579L12.4796 13.0719C12.434 13.4124 12.1435 13.6666 11.8 13.6666C11.4564 13.6666 11.1659 13.4124 11.1203 13.0719L10.4123 7.78579ZM11.8 14.5C11.1924 14.5 10.7 14.9925 10.7 15.6C10.7 16.2075 11.1924 16.7 11.8 16.7C12.4075 16.7 12.9 16.2075 12.9 15.6C12.9 14.9925 12.4075 14.5 11.8 14.5Z" fill="white"/>
</svg>
