<svg width="16" height="16" viewBox="0 0 16 16" fill="none" xmlns="http://www.w3.org/2000/svg">
<path d="M8.00049 2.05017C11.2864 2.05038 13.9497 4.7144 13.9497 8.00037C13.9495 11.2862 11.2863 13.9494 8.00049 13.9496C4.71452 13.9496 2.0505 11.2863 2.05029 8.00037C2.05029 4.71427 4.71439 2.05017 8.00049 2.05017Z" stroke="white" stroke-width="0.9"/>
<path fill-rule="evenodd" clip-rule="evenodd" d="M7.9999 4.30005C7.32483 4.30005 6.80911 4.90261 6.91333 5.56958L7.44366 8.96373C7.48648 9.23777 7.72253 9.4398 7.9999 9.4398C8.27728 9.4398 8.51332 9.23777 8.55614 8.96373L9.08648 5.56958C9.19069 4.90261 8.67497 4.30005 7.9999 4.30005ZM7.99994 10C7.52684 10 7.14331 10.3836 7.14331 10.8567C7.14331 11.3298 7.52684 11.7133 7.99994 11.7133C8.47304 11.7133 8.85656 11.3298 8.85656 10.8567C8.85656 10.3836 8.47304 10 7.99994 10Z" fill="white"/>
</svg>
