<svg width="24" height="24" viewBox="0 0 24 24" fill="none" xmlns="http://www.w3.org/2000/svg">
<g clip-path="url(#clip0_2743_63819)">
<path fill-rule="evenodd" clip-rule="evenodd" d="M1 11.75C1 5.81294 5.81294 1 11.75 1C17.6871 1 22.5 5.81294 22.5 11.75C22.5 17.6871 17.6871 22.5 11.75 22.5C5.81294 22.5 1 17.6871 1 11.75Z" stroke="white" stroke-width="1.7"/>
<path d="M10.4123 7.78579C10.2999 6.94625 10.9529 6.19995 11.8 6.19995C12.647 6.19995 13.3 6.94625 13.1876 7.78579L12.4796 13.0719C12.434 13.4124 12.1435 13.6666 11.8 13.6666C11.4564 13.6666 11.1659 13.4124 11.1203 13.0719L10.4123 7.78579Z" fill="white"/>
<rect x="10.7" y="14.5" width="2.2" height="2.2" rx="1.1" fill="white"/>
</g>
<defs>
<clipPath id="clip0_2743_63819">
<rect width="24" height="24" fill="white"/>
</clipPath>
</defs>
</svg>
