<svg width="20" height="20" viewBox="0 0 20 20" fill="none" xmlns="http://www.w3.org/2000/svg">
<path d="M10 2.65039C14.0593 2.65039 17.3496 5.94071 17.3496 10C17.3496 14.0593 14.0593 17.3496 10 17.3496C5.94071 17.3496 2.65039 14.0593 2.65039 10C2.65039 5.94071 5.94071 2.65039 10 2.65039Z" stroke="white" stroke-width="1.3"/>
<path fill-rule="evenodd" clip-rule="evenodd" d="M9.99993 5.5C9.21187 5.5 8.60984 6.20341 8.73149 6.98202L9.35059 10.9442C9.40058 11.2642 9.67613 11.5 9.99993 11.5C10.3237 11.5 10.5993 11.2642 10.6493 10.9442L11.2684 6.98202C11.39 6.20341 10.788 5.5 9.99993 5.5ZM9.99993 12.5C9.44764 12.5 8.99993 12.9477 8.99993 13.5C8.99993 14.0523 9.44764 14.5 9.99993 14.5C10.5522 14.5 10.9999 14.0523 10.9999 13.5C10.9999 12.9477 10.5522 12.5 9.99993 12.5Z" fill="white"/>
</svg>
