<svg width="20" height="20" viewBox="0 0 20 20" fill="none" xmlns="http://www.w3.org/2000/svg">
<path fill-rule="evenodd" clip-rule="evenodd" d="M10 2C5.58172 2 2 5.58172 2 10C2 14.4183 5.58172 18 10 18C14.4183 18 18 14.4183 18 10C18 5.58172 14.4183 2 10 2ZM8.73149 6.98202C8.60984 6.20341 9.21187 5.5 9.99993 5.5C10.788 5.5 11.39 6.20341 11.2684 6.98202L10.6493 10.9442C10.5993 11.2642 10.3237 11.5 9.99993 11.5C9.67613 11.5 9.40058 11.2642 9.35059 10.9442L8.73149 6.98202ZM8.99993 13.5C8.99993 12.9477 9.44764 12.5 9.99993 12.5C10.5522 12.5 10.9999 12.9477 10.9999 13.5C10.9999 14.0523 10.5522 14.5 9.99993 14.5C9.44764 14.5 8.99993 14.0523 8.99993 13.5Z" fill="white"/>
</svg>
