<svg width="16" height="16" viewBox="0 0 16 16" fill="none" xmlns="http://www.w3.org/2000/svg">
<path fill-rule="evenodd" clip-rule="evenodd" d="M7.99998 1.59998C4.46535 1.59998 1.59998 4.46535 1.59998 7.99998C1.59998 11.5346 4.46535 14.4 7.99998 14.4C11.5346 14.4 14.4 11.5346 14.4 7.99998C14.4 4.46535 11.5346 1.59998 7.99998 1.59998ZM6.91321 5.5695C6.80899 4.90253 7.32471 4.29997 7.99978 4.29997C8.67485 4.29997 9.19057 4.90253 9.08635 5.5695L8.55602 8.96365C8.5132 9.2377 8.27715 9.43972 7.99978 9.43972C7.72241 9.43972 7.48636 9.23769 7.44354 8.96365L6.91321 5.5695ZM7.14319 10.8566C7.14319 10.3835 7.52671 9.99997 7.99981 9.99997C8.47292 9.99997 8.85644 10.3835 8.85644 10.8566C8.85644 11.3297 8.47292 11.7132 7.99981 11.7132C7.52671 11.7132 7.14319 11.3297 7.14319 10.8566Z" fill="white"/>
</svg>
