<svg width="24" height="24" viewBox="0 0 24 24" fill="none" xmlns="http://www.w3.org/2000/svg">
<g clip-path="url(#clip0_780_155334)">
<path fill-rule="evenodd" clip-rule="evenodd" d="M12.4889 7C13.0627 7 13.5278 7.44765 13.5278 8V16C13.5278 16.5524 13.0627 17 12.4889 17H12.4278C11.8539 17 11.3889 16.5524 11.3889 16V8C11.3889 7.44765 11.8539 7 12.4278 7H12.4889ZM21.9611 7C22.5349 7 23 7.44765 23 8V8.05882C23 8.61118 22.5349 9.05882 21.9611 9.05882H17.8056V11.1176H21.4722C21.9782 11.1176 22.3889 11.5129 22.3889 12V12.2941C22.3889 12.7812 21.9782 13.1765 21.4722 13.1765H17.8056V16.1176C17.8056 16.6047 17.3949 17 16.8889 17H16.5833C16.0773 17 15.6667 16.6047 15.6667 16.1176V7.88235C15.6667 7.39529 16.0773 7 16.5833 7H21.9611ZM5.71778 7C7.31033 7 8.60039 7.54412 9.41561 8.61471C9.77617 9.08824 9.668 9.75176 9.17422 10.0971C8.68106 10.4424 7.98867 10.3382 7.62811 9.86529C7.25961 9.38059 6.64422 9.12118 5.71778 9.12118C4.16067 9.12118 3.21222 10.1547 3.21222 11.9965C3.21222 13.8712 4.13744 14.8788 5.72572 14.8788C6.99133 14.8788 7.77906 14.3412 7.92817 13.5065H6.51222C5.90111 13.5065 5.40611 13.0318 5.40611 12.4459C5.40611 11.86 5.90111 11.3853 6.51222 11.3853H9.05994C9.67106 11.3853 10.1661 11.86 10.1661 12.4459V13.2059C10.1667 15.4618 8.28933 17 5.72572 17C2.84739 17 1 14.9865 1 11.9965C1 9.03941 2.87122 7 5.71778 7Z" fill="white"/>
</g>
<defs>
<clipPath id="clip0_780_155334">
<rect width="24" height="24" fill="white"/>
</clipPath>
</defs>
</svg>
