<svg width="16" height="16" viewBox="0 0 16 16" fill="none" xmlns="http://www.w3.org/2000/svg">
<g clip-path="url(#clip0_3292_9310)">
<path fill-rule="evenodd" clip-rule="evenodd" d="M8.31233 4.40002C8.71002 4.40002 9.03233 4.72233 9.03233 5.12002V10.88C9.03233 11.2777 8.71002 11.6 8.31233 11.6H8.26998C7.87228 11.6 7.54998 11.2777 7.54998 10.88V5.12002C7.54998 4.72233 7.87228 4.40002 8.26998 4.40002H8.31233ZM14.877 4.40002C15.2747 4.40002 15.597 4.72233 15.597 5.12002V5.16238C15.597 5.56007 15.2747 5.88238 14.877 5.88238H11.997V7.36473H14.5382C14.8889 7.36473 15.1735 7.64934 15.1735 8.00002V8.21179C15.1735 8.56247 14.8889 8.84708 14.5382 8.84708H11.997V10.9647C11.997 11.3154 11.7124 11.6 11.3617 11.6H11.15C10.7993 11.6 10.5147 11.3154 10.5147 10.9647V5.03532C10.5147 4.68464 10.7993 4.40002 11.15 4.40002H14.877ZM3.61962 4.40002C4.72334 4.40002 5.61741 4.79179 6.1824 5.56261C6.43228 5.90355 6.35732 6.38129 6.0151 6.62991C5.67332 6.87852 5.19346 6.80355 4.94358 6.46304C4.68819 6.11405 4.26169 5.92727 3.61962 5.92727C2.54047 5.92727 1.88315 6.67141 1.88315 7.99748C1.88315 9.34727 2.52438 10.0728 3.62513 10.0728C4.50226 10.0728 5.04819 9.68567 5.15153 9.08468H4.17021C3.74668 9.08468 3.40362 8.7429 3.40362 8.32106C3.40362 7.89922 3.74668 7.55744 4.17021 7.55744H5.9359C6.35943 7.55744 6.70249 7.89922 6.70249 8.32106V8.86826C6.70292 10.4925 5.40183 11.6 3.62513 11.6C1.6303 11.6 0.349976 10.1503 0.349976 7.99748C0.349976 5.8684 1.64682 4.40002 3.61962 4.40002Z" fill="white"/>
</g>
<defs>
<clipPath id="clip0_3292_9310">
<rect width="16" height="16" fill="white"/>
</clipPath>
</defs>
</svg>
