<svg width="20" height="20" viewBox="0 0 20 20" fill="none" xmlns="http://www.w3.org/2000/svg">
<g clip-path="url(#clip0_3243_100378)">
<path d="M4.86035 6.25C6.10173 6.25008 7.07356 6.68822 7.68359 7.52051C7.86992 7.77475 7.84456 8.11772 7.63965 8.3418L7.54102 8.43066C7.24893 8.64303 6.83761 8.57817 6.62402 8.28711C6.25955 7.78971 5.66606 7.5528 4.86035 7.55273C4.16216 7.55273 3.57507 7.79659 3.16699 8.27637C2.76363 8.75068 2.55957 9.42612 2.55957 10.2471C2.55958 11.0795 2.75726 11.7578 3.16016 12.2314C3.56836 12.7112 4.15855 12.9472 4.86621 12.9473C5.41858 12.9473 5.89064 12.825 6.24805 12.5879C6.60992 12.3478 6.84206 11.9971 6.91504 11.5732L6.96484 11.2803H5.50977C5.14704 11.2801 4.85547 10.9879 4.85547 10.6289C4.85552 10.27 5.14707 9.97766 5.50977 9.97754H7.59473C7.95742 9.97766 8.24897 10.27 8.24902 10.6289V11.2754C8.24917 12.1627 7.89603 12.9004 7.30469 13.4189C6.71077 13.9396 5.86353 14.25 4.86621 14.25C3.7529 14.2499 2.85581 13.8473 2.23535 13.1592C1.61261 12.4684 1.25001 11.4689 1.25 10.2471C1.25 9.04066 1.61701 8.0423 2.24219 7.34863C2.86532 6.65736 3.76152 6.25 4.86035 6.25ZM10.3496 6.25H10.4004C10.7315 6.25021 10.9998 6.51849 11 6.84961V13.6504C10.9998 13.9815 10.7315 14.2498 10.4004 14.25H10.3496C10.0185 14.2498 9.75021 13.9815 9.75 13.6504V6.84961C9.75021 6.51849 10.0185 6.25021 10.3496 6.25ZM13.75 6.25H18.1504C18.4815 6.25021 18.7498 6.51849 18.75 6.84961V6.90039C18.7498 7.23151 18.4815 7.49979 18.1504 7.5H14.5V9.75H17.75C18.0259 9.75 18.25 9.97407 18.25 10.25V10.5C18.25 10.7759 18.0259 11 17.75 11H14.5V13.75C14.5 14.0259 14.2759 14.25 14 14.25H13.75C13.4741 14.25 13.25 14.0259 13.25 13.75V6.75C13.25 6.47407 13.4741 6.25 13.75 6.25Z" fill="white" stroke="white" stroke-width="0.5"/>
</g>
<defs>
<clipPath id="clip0_3243_100378">
<rect width="20" height="20" fill="white"/>
</clipPath>
</defs>
</svg>
