<svg width="24" height="24" viewBox="0 0 24 24" fill="none" xmlns="http://www.w3.org/2000/svg">
<path d="M8.83812 6.53149H7.19402C5.09859 6.53149 3.3999 8.23018 3.3999 10.3256V18.706C3.3999 20.8014 5.09859 22.5001 7.19402 22.5001H16.8294C18.9248 22.5001 20.6235 20.8014 20.6235 18.706V10.3256C20.6235 8.23018 18.9248 6.53149 16.8294 6.53149H15.2502" stroke="white" stroke-width="1.7" stroke-linejoin="round"/>
<path fill-rule="evenodd" clip-rule="evenodd" d="M14.0937 10.8005C14.0937 10.7597 14.1265 10.7261 14.1672 10.7261H15.5087C15.5486 10.7261 15.5813 10.7597 15.5813 10.7996V14.2096H17.0273C17.0672 14.2096 17.1008 14.2423 17.1008 14.2831V15.3846C17.1008 15.4252 17.0679 15.4581 17.0273 15.4581H15.5813V18.877C15.5813 18.9172 15.549 18.95 15.5087 18.9504H14.3089C14.2635 18.9479 14.2212 18.9268 14.192 18.892L9.92574 13.1461V18.8761C9.92526 18.9168 9.8921 18.9496 9.85136 18.9496H8.51251C8.47177 18.9496 8.43861 18.9168 8.43813 18.8761V15.4572H6.99479C6.95405 15.4572 6.9209 15.4245 6.92041 15.3837V14.2822C6.92041 14.2414 6.95406 14.2087 6.99391 14.2087H8.43813V10.7996C8.43813 10.7597 8.47266 10.7261 8.51251 10.7261H9.72385C9.7637 10.7261 9.81683 10.7526 9.84162 10.7854L14.0946 16.5101V10.7996L14.0937 10.8005Z" fill="white"/>
<path fill-rule="evenodd" clip-rule="evenodd" d="M13.582 1.70711C13.9725 1.31658 14.6057 1.31658 14.9962 1.70711L16.7309 3.44177C17.1214 3.83229 17.1214 4.46545 16.7309 4.85598L12.7419 8.84494C12.3514 9.23547 11.7182 9.23547 11.3277 8.84494L7.33874 4.85598C6.94821 4.46546 6.94821 3.83229 7.33874 3.44177L9.0734 1.70711C9.46392 1.31658 10.0971 1.31658 10.4876 1.70711L12.0348 3.25431L13.582 1.70711Z" stroke="white" stroke-width="1.7"/>
</svg>
