<svg width="20" height="20" viewBox="0 0 20 20" fill="none" xmlns="http://www.w3.org/2000/svg">
<path d="M7.42646 5.50244H6.08823C4.38265 5.50244 3 6.88509 3 8.59067V15.4119C3 17.1175 4.38265 18.5001 6.08824 18.5001H13.931C15.6366 18.5001 17.0192 17.1175 17.0192 15.4119V8.59068C17.0192 6.88509 15.6366 5.50244 13.931 5.50244H12.6456" stroke="white" stroke-width="1.3" stroke-linejoin="round"/>
<path fill-rule="evenodd" clip-rule="evenodd" d="M11.704 8.97705C11.704 8.94389 11.7306 8.9165 11.7638 8.9165H12.8557C12.8881 8.9165 12.9148 8.94389 12.9148 8.97633V11.7519H14.0918C14.1242 11.7519 14.1516 11.7786 14.1516 11.8117V12.7083C14.1516 12.7414 14.1248 12.7681 14.0918 12.7681H12.9148V15.5509C12.9148 15.5837 12.8885 15.6104 12.8557 15.6108H11.8791C11.8422 15.6087 11.8078 15.5915 11.784 15.5632L8.31143 10.8863V15.5502C8.31104 15.5834 8.28405 15.61 8.25089 15.61H7.16113C7.12797 15.61 7.10098 15.5834 7.10059 15.5502V12.7674H5.92578C5.89262 12.7674 5.86563 12.7408 5.86523 12.7076V11.811C5.86523 11.7778 5.89262 11.7512 5.92506 11.7512H7.10059V8.97633C7.10059 8.94389 7.12869 8.9165 7.16113 8.9165H8.1471C8.17954 8.9165 8.22278 8.93813 8.24296 8.96479L11.7047 13.6244V8.97633L11.704 8.97705Z" fill="white"/>
<path fill-rule="evenodd" clip-rule="evenodd" d="M11.1561 1.70711C11.5467 1.31658 12.1798 1.31658 12.5703 1.70711L13.7192 2.85593C14.1097 3.24645 14.1097 3.87962 13.7192 4.27014L10.7354 7.25386C10.3449 7.64438 9.71175 7.64439 9.32123 7.25386L6.33751 4.27014C5.94699 3.87962 5.94699 3.24645 6.33751 2.85593L7.48633 1.70711C7.87686 1.31658 8.51002 1.31658 8.90054 1.70711L10.0283 2.8349L11.1561 1.70711Z" stroke="white" stroke-width="1.3"/>
</svg>
