<svg width="16" height="16" viewBox="0 0 16 16" fill="none" xmlns="http://www.w3.org/2000/svg">
<path d="M6.05878 4.396H5.04938C3.76288 4.396 2.71997 5.43891 2.71997 6.72541V11.8706C2.71997 13.1571 3.76288 14.2 5.04938 14.2H10.965C12.2515 14.2 13.2945 13.1571 13.2945 11.8706V6.72541C13.2945 5.43891 12.2515 4.396 10.965 4.396H9.99549" stroke="white" stroke-width="0.9" stroke-linejoin="round"/>
<path fill-rule="evenodd" clip-rule="evenodd" d="M9.28542 7.0171C9.28542 6.99209 9.30553 6.97144 9.33054 6.97144H10.1542C10.1786 6.97144 10.1987 6.99209 10.1987 7.01656V9.11014H11.0865C11.111 9.11014 11.1316 9.13025 11.1316 9.15526V9.83155C11.1316 9.85647 11.1114 9.87668 11.0865 9.87668H10.1987V11.9757C10.1987 12.0004 10.1789 12.0205 10.1542 12.0208H9.41752C9.38968 12.0193 9.36371 12.0063 9.34576 11.9849L6.72648 8.45722V11.9751C6.72618 12.0002 6.70582 12.0203 6.68081 12.0203H5.85882C5.83381 12.0203 5.81345 12.0002 5.81316 11.9751V9.87613H4.92701C4.902 9.87613 4.88165 9.85602 4.88135 9.83101V9.15472C4.88135 9.12971 4.90201 9.10959 4.92647 9.10959H5.81316V7.01656C5.81316 6.99209 5.83436 6.97144 5.85882 6.97144H6.60253C6.62699 6.97144 6.65961 6.98774 6.67483 7.00786L9.28596 10.5225V7.01656L9.28542 7.0171Z" fill="white"/>
<path fill-rule="evenodd" clip-rule="evenodd" d="M8.69826 1.70711C9.08878 1.31658 9.72195 1.31658 10.1125 1.70711L10.6315 2.22615C11.022 2.61668 11.022 3.24984 10.6315 3.64037L8.72843 5.54345C8.33791 5.93398 7.70474 5.93398 7.31422 5.54345L5.41113 3.64037C5.02061 3.24984 5.02061 2.61668 5.41113 2.22615L5.93018 1.70711C6.3207 1.31658 6.95387 1.31658 7.34439 1.70711L8.02132 2.38404L8.69826 1.70711Z" stroke="white" stroke-width="0.9"/>
</svg>
