<svg width="16" height="16" viewBox="0 0 16 16" fill="none" xmlns="http://www.w3.org/2000/svg">
<g clip-path="url(#clip0_3292_10392)">
<path fill-rule="evenodd" clip-rule="evenodd" d="M14.9 6.09356C14.9 3.89053 13.1233 2.09998 10.9257 2.09998C9.76723 2.09998 8.72556 2.59816 8.00011 3.39073C7.27454 2.59816 6.23274 2.09998 5.07446 2.09998C2.87688 2.09998 1.10002 3.89051 1.10002 6.09356C1.10002 7.83063 2.10099 9.45543 3.25236 10.7625C4.41531 12.0828 5.80176 13.1577 6.71607 13.8021C7.49034 14.3478 8.50998 14.3477 9.28423 13.802C10.1985 13.1576 11.5849 12.0827 12.7478 10.7625C13.8991 9.4554 14.9 7.83061 14.9 6.09356Z" fill="white"/>
</g>
<defs>
<clipPath id="clip0_3292_10392">
<rect width="16" height="16" fill="white"/>
</clipPath>
</defs>
</svg>
