<svg width="24" height="24" viewBox="0 0 24 24" fill="none" xmlns="http://www.w3.org/2000/svg">
<g clip-path="url(#clip0_2099_62232)">
<path fill-rule="evenodd" clip-rule="evenodd" d="M23.1001 8.49083C23.1001 4.9112 20.2129 2 16.6396 2C14.8384 2 13.2112 2.74074 12.0414 3.93168C10.8714 2.74075 9.24405 2 7.44319 2C3.8699 2 0.982452 4.91115 0.982452 8.49083C0.982452 11.4987 2.83457 14.2756 4.82518 16.4199C6.84613 18.5969 9.18127 20.3041 10.4814 21.1827C11.4294 21.8234 12.6535 21.8233 13.6015 21.1827C14.9016 20.304 17.2367 18.5968 19.2575 16.4198C21.2481 14.2755 23.1001 11.4986 23.1001 8.49083Z" fill="white"/>
</g>
<defs>
<clipPath id="clip0_2099_62232">
<rect width="24" height="24" fill="white"/>
</clipPath>
</defs>
</svg>
