<svg width="20" height="20" viewBox="0 0 20 20" fill="none" xmlns="http://www.w3.org/2000/svg">
<g clip-path="url(#clip0_3243_101460)">
<g clip-path="url(#clip1_3243_101460)">
<path fill-rule="evenodd" clip-rule="evenodd" d="M19.25 7.19781C19.25 4.24769 16.8708 1.8501 13.9282 1.8501C12.3682 1.8501 10.9664 2.52473 9.99424 3.59656C9.02196 2.52473 7.61993 1.8501 6.0602 1.8501C3.11765 1.8501 0.738239 4.24766 0.738239 7.19781C0.738239 9.63856 2.21345 11.9188 3.86179 13.7231C5.52832 15.5473 7.47603 16.9978 8.62837 17.7866C9.45697 18.3538 10.5316 18.3537 11.3602 17.7866C12.5125 16.9978 14.4601 15.5473 16.1266 13.7231C17.7749 11.9188 19.25 9.63854 19.25 7.19781Z" fill="white"/>
</g>
</g>
<defs>
<clipPath id="clip0_3243_101460">
<rect width="20" height="20" fill="white"/>
</clipPath>
<clipPath id="clip1_3243_101460">
<rect width="20" height="20" fill="white"/>
</clipPath>
</defs>
</svg>
