<svg width="16" height="16" viewBox="0 0 16 16" fill="none" xmlns="http://www.w3.org/2000/svg">
<g clip-path="url(#clip0_3292_5199)">
<path d="M2.30073 9.17585C2.30048 8.13036 2.30036 7.60761 2.42952 7.12474C2.55576 6.65271 2.77186 6.20947 3.06597 5.81928C3.36684 5.42012 3.77874 5.09825 4.60255 4.45451C5.78631 3.52949 6.3782 3.06697 7.02889 2.87914C7.66303 2.69608 8.336 2.69607 8.97015 2.87909C9.62085 3.0669 10.2129 3.52946 11.3969 4.45459C12.221 5.09852 12.6331 5.42049 12.934 5.81974C13.2279 6.20964 13.4439 6.65251 13.5702 7.12415C13.6995 7.6071 13.6995 8.12995 13.6995 9.17565L13.6995 9.46617C13.6994 11.1821 13.6994 12.04 13.2961 12.6611C13.1053 12.9549 12.8548 13.2053 12.561 13.3961C11.94 13.7995 11.082 13.7995 9.36611 13.7995H6.63428C4.91859 13.7995 4.06074 13.7995 3.4397 13.3962C3.14598 13.2055 2.89561 12.9551 2.70481 12.6615C2.30139 12.0405 2.30119 11.1827 2.3008 9.46698L2.30073 9.17585Z" stroke="white" stroke-width="0.9" stroke-linejoin="bevel"/>
<path d="M8.45036 10.8192C8.45036 10.5707 8.24889 10.3692 8.00036 10.3692C7.75184 10.3692 7.55036 10.5707 7.55036 10.8192L8.45036 10.8192ZM7.55037 13.8L7.55037 14.25L8.45037 14.25L8.45037 13.8L7.55037 13.8ZM7.55036 10.8192L7.55037 13.8L8.45037 13.8L8.45036 10.8192L7.55036 10.8192Z" fill="white"/>
</g>
<defs>
<clipPath id="clip0_3292_5199">
<rect width="16" height="16" fill="white"/>
</clipPath>
</defs>
</svg>
