<svg width="24" height="24" viewBox="0 0 24 24" fill="none" xmlns="http://www.w3.org/2000/svg">
<g clip-path="url(#clip0_1451_70519)">
<path d="M11.9985 1.5C11.0597 1.50002 10.238 1.82351 9.38845 2.33767C8.57361 2.83083 7.64728 3.5547 6.50637 4.44628L5.91613 4.90744C4.0286 6.38145 2.81599 7.32841 2.15698 8.68013C1.49797 10.0318 1.49881 11.5704 1.50011 13.9653L1.50029 14.4976C1.50063 16.0859 1.5009 17.3788 1.63822 18.3984C1.78147 19.4622 2.09018 20.3769 2.81947 21.106C3.54877 21.8351 4.46358 22.1436 5.52738 22.2867C6.45257 22.411 7.60271 22.4225 8.99437 22.4236C9.94058 22.4243 10.4137 22.4246 10.7068 22.1317C11 21.8388 11 21.3671 11 20.4237V20.3992L11 16.4561C11 15.9038 11.4477 15.4561 12 15.4561C12.5523 15.4561 13 15.9038 13 16.4561L13 20.3992V20.4237C13 21.3671 13 21.8388 13.2932 22.1317C13.5863 22.4246 14.0596 22.4243 15.006 22.4236C16.3975 22.4225 17.5475 22.411 18.4726 22.2866C19.5366 22.1436 20.4515 21.835 21.1808 21.1057C21.9102 20.3764 22.2188 19.4614 22.3618 18.3974C22.4989 17.3776 22.4989 16.0844 22.4989 14.4957L22.499 13.9639C22.4997 11.5695 22.5002 10.0313 21.8412 8.67997C21.1821 7.3286 19.9697 6.38191 18.0825 4.90829L17.4908 4.44603C16.3499 3.55451 15.4235 2.83066 14.6086 2.33755C13.7591 1.82343 12.9373 1.49998 11.9985 1.5Z" fill="white"/>
</g>
<defs>
<clipPath id="clip0_1451_70519">
<rect width="24" height="24" fill="white"/>
</clipPath>
</defs>
</svg>
