<svg width="20" height="20" viewBox="0 0 20 20" fill="none" xmlns="http://www.w3.org/2000/svg">
<g clip-path="url(#clip0_3243_96293)">
<path fill-rule="evenodd" clip-rule="evenodd" d="M11.017 2.71695C10.3488 2.55006 9.64976 2.55008 8.98153 2.717C8.51293 2.83405 8.09371 3.05307 7.64251 3.35373C7.20392 3.64598 6.69702 4.0421 6.06283 4.53767L6.06283 4.53768L6.04104 4.5547L5.95007 4.62578L5.95007 4.62578C4.86557 5.47302 4.20661 5.98782 3.73356 6.64118C3.34697 7.17513 3.05594 7.77209 2.87339 8.40551C2.65002 9.18059 2.65032 10.0122 2.6508 11.3801L2.65084 11.4944L2.65084 11.5256C2.65103 12.3656 2.65118 13.0399 2.69719 13.5848C2.74449 14.1449 2.84398 14.6315 3.07989 15.0779C3.42752 15.7358 3.96544 16.2736 4.62342 16.6211C5.06994 16.8569 5.55652 16.9563 6.11666 17.0035C6.66151 17.0493 7.33586 17.0493 8.17584 17.0493H8.17586H9.20024L9.20024 16.35L9.20024 12.8724C9.20024 12.4305 9.55841 12.0724 10.0002 12.0724C10.4421 12.0724 10.8002 12.4305 10.8002 12.8724L10.8002 16.35V17.0493H11.8243H11.8243C12.6644 17.0493 13.3389 17.0493 13.8838 17.0035C14.444 16.9563 14.9306 16.8569 15.3772 16.621C16.0353 16.2734 16.5733 15.7355 16.9209 15.0773C17.1567 14.6308 17.2561 14.1442 17.3033 13.584C17.3492 13.039 17.3492 12.3646 17.3492 11.5245V11.5245V11.4933L17.3492 11.3791C17.3494 10.0114 17.3495 9.1801 17.1261 8.40525C16.9435 7.77192 16.6524 7.17506 16.2658 6.64121C15.7928 5.98807 15.1338 5.4733 14.0492 4.62608L13.9582 4.555L13.9364 4.53797L13.9364 4.53795C13.302 4.04225 12.7949 3.64605 12.3562 3.35375C11.9049 3.05304 11.4857 2.83398 11.017 2.71695Z" fill="white"/>
</g>
<defs>
<clipPath id="clip0_3243_96293">
<rect width="20" height="20" fill="white"/>
</clipPath>
</defs>
</svg>
