<svg width="16" height="16" viewBox="0 0 16 16" fill="none" xmlns="http://www.w3.org/2000/svg">
<g clip-path="url(#clip0_3292_5270)">
<path fill-rule="evenodd" clip-rule="evenodd" d="M9.09496 2.44665C8.37928 2.2401 7.61978 2.24011 6.90411 2.4467C6.16891 2.65893 5.51264 3.17191 4.41428 4.03045L4.3255 4.09985L4.26969 4.14345C3.49905 4.74554 3.04346 5.10149 2.70665 5.54833C2.37771 5.98472 2.13602 6.48046 1.99483 7.00838C1.85025 7.54894 1.85043 8.12709 1.85074 9.10505L1.85076 9.17587L1.85083 9.49146C1.85102 10.3286 1.85117 10.9905 1.90392 11.5193C1.95791 12.0606 2.07051 12.511 2.32749 12.9065C2.55263 13.2531 2.84806 13.5485 3.19466 13.7735C3.59025 14.0304 4.04071 14.1429 4.58196 14.1968C5.11083 14.2494 5.77272 14.2494 6.60984 14.2494H7.55044L7.55044 10.8191C7.55044 10.5706 7.75191 10.3691 8.00044 10.3691C8.24896 10.3691 8.45044 10.5706 8.45044 10.8191L8.45044 14.2494H9.39061C10.2278 14.2494 10.8898 14.2494 11.4187 14.1968C11.96 14.1429 12.4105 14.0304 12.8061 13.7735C13.1529 13.5483 13.4484 13.2528 13.6735 12.9061C13.9304 12.5105 14.043 12.06 14.0968 11.5187C14.1495 10.9897 14.1495 10.3278 14.1495 9.49055L14.1495 9.10473V9.10472C14.1496 8.12657 14.1496 7.5483 14.0049 7.00767C13.8636 6.48019 13.6221 5.98486 13.2934 5.5488C12.9565 5.10186 12.5007 4.7458 11.7298 4.14353L11.674 4.09991L11.5851 4.0305C10.4866 3.17188 9.83017 2.65885 9.09496 2.44665Z" fill="white"/>
</g>
<defs>
<clipPath id="clip0_3292_5270">
<rect width="16" height="16" fill="white"/>
</clipPath>
</defs>
</svg>
