<svg width="20" height="20" viewBox="0 0 20 20" fill="none" xmlns="http://www.w3.org/2000/svg">
<g clip-path="url(#clip0_3243_96222)">
<path d="M3.00023 11.6074C2.99984 9.92534 2.99965 9.08429 3.2526 8.31925C3.39335 7.89358 3.5907 7.48878 3.83936 7.11573C4.28627 6.44525 4.95286 5.92436 6.28605 4.88257C7.77053 3.72256 8.51276 3.14256 9.34618 2.98423C9.77773 2.90225 10.2209 2.90224 10.6524 2.9842C11.4858 3.14249 12.2283 3.72262 13.7133 4.8829C15.0465 5.92464 15.7132 6.44552 16.1601 7.11577C16.4088 7.48877 16.6062 7.89352 16.7469 8.31915C16.9999 9.08395 16.9999 9.92478 16.9999 11.6064C16.9999 13.582 16.9999 14.5698 16.5528 15.2942C16.3075 15.6916 15.9729 16.0262 15.5755 16.2715C14.8511 16.7185 13.8633 16.7185 11.8877 16.7185H8.11253C6.13721 16.7185 5.14956 16.7185 4.42521 16.2715C4.02794 16.0264 3.69336 15.6919 3.4481 15.2946C3.00092 14.5704 3.00069 13.5827 3.00023 11.6074Z" stroke="white" stroke-width="1.3" stroke-linejoin="bevel"/>
<path d="M10.6504 13.0583C10.6504 12.6994 10.3593 12.4083 10.0004 12.4083C9.64138 12.4083 9.35036 12.6994 9.35036 13.0583L10.6504 13.0583ZM9.35037 16.7194L9.35037 17.3694L10.6504 17.3694L10.6504 16.7194L9.35037 16.7194ZM9.35036 13.0583L9.35037 16.7194L10.6504 16.7194L10.6504 13.0583L9.35036 13.0583Z" fill="white"/>
</g>
<defs>
<clipPath id="clip0_3243_96222">
<rect width="20" height="20" fill="white"/>
</clipPath>
</defs>
</svg>
