<svg width="24" height="24" viewBox="0 0 24 24" fill="none" xmlns="http://www.w3.org/2000/svg">
<g clip-path="url(#clip0_571_100410)">
<path d="M2.50027 14.2892C2.49966 11.6539 2.49935 10.3362 3.05589 9.19468C3.61244 8.05314 4.6507 7.24181 6.72724 5.61915L7.07296 5.34899C9.43841 3.50057 10.6211 2.57636 11.9986 2.57633C13.376 2.57629 14.5588 3.50045 16.9243 5.34876L17.2716 5.62008C19.3478 7.24229 20.3858 8.0534 20.9424 9.19464C21.499 10.3359 21.499 11.6533 21.499 14.288L21.499 14.5001C21.4989 17.7999 21.4989 19.4498 20.4738 20.4749C19.4487 21.5 17.7988 21.5 14.499 21.5H9.50031C6.20119 21.5 4.55162 21.5 3.52655 20.4752C2.50147 19.4503 2.50109 17.8008 2.50032 14.5016L2.50027 14.2892Z" stroke="white" stroke-width="1.7" stroke-linejoin="bevel"/>
<path d="M12.85 16.5327C12.85 16.0633 12.4694 15.6827 12 15.6827C11.5306 15.6827 11.15 16.0633 11.15 16.5327L12.85 16.5327ZM11.15 21.501L11.15 22.351L12.85 22.351L12.85 21.501L11.15 21.501ZM11.15 16.5327L11.15 21.501L12.85 21.501L12.85 16.5327L11.15 16.5327Z" fill="white"/>
</g>
<defs>
<clipPath id="clip0_571_100410">
<rect width="24" height="24" fill="white"/>
</clipPath>
</defs>
</svg>
