<svg width="24" height="24" viewBox="0 0 24 24" fill="none" xmlns="http://www.w3.org/2000/svg">
<g clip-path="url(#clip0_133_8246)">
<path fill-rule="evenodd" clip-rule="evenodd" d="M2.52133 14.0135C2.52638 13.9597 2.53143 13.9058 2.53388 13.8519C2.70027 12.2811 3.34718 10.3659 4.49157 9.18546C5.15923 8.49678 5.95456 9.16454 6.58784 9.76932L6.59156 9.77288C6.97542 10.1395 7.34057 10.4882 7.87025 10.5199C8.22437 10.5443 8.56518 10.4012 8.82656 10.1664C9.46906 9.58454 9.12745 8.83812 8.7949 8.11149C8.67633 7.85242 8.55891 7.59587 8.48766 7.35019C8.12213 6.38593 8.05264 5.65213 8.12213 4.81005C8.27324 2.99825 9.78327 1.34842 11.3811 0.609366C12.2081 0.226869 12.9933 0.905253 13.2252 1.75186C13.2512 1.8467 13.2811 1.94049 13.3196 2.03099C13.3595 2.12483 13.3979 2.22443 13.4382 2.32881C13.6603 2.904 13.9384 3.62429 14.8204 4.32627C18.6201 7.35019 21.7165 9.91854 21.4881 14.9592C21.2647 19.8919 16.8396 23.7079 11.5942 23.4912C6.34884 23.2745 2.28535 19.1078 2.50879 14.1751C2.51123 14.1211 2.51628 14.0673 2.52133 14.0135ZM17.2882 15.6077C17.2882 15.0554 16.8405 14.6077 16.2882 14.6077C15.7359 14.6077 15.2882 15.0554 15.2882 15.6077C15.2882 16.114 15.087 16.5997 14.729 16.9577C14.3709 17.3158 13.8853 17.5169 13.379 17.5169C12.8267 17.5169 12.379 17.9646 12.379 18.5169C12.379 19.0692 12.8267 19.5169 13.379 19.5169C14.4158 19.5169 15.4101 19.105 16.1432 18.3719C16.8763 17.6388 17.2882 16.6445 17.2882 15.6077Z" fill="white"/>
</g>
<defs>
<clipPath id="clip0_133_8246">
<rect width="24" height="24" fill="white"/>
</clipPath>
</defs>
</svg>
