<svg width="20" height="20" viewBox="0 0 20 20" fill="none" xmlns="http://www.w3.org/2000/svg">
<g clip-path="url(#clip0_3243_96365)">
<path fill-rule="evenodd" clip-rule="evenodd" d="M6.84304 8.78551C7.10964 8.80392 7.36622 8.69618 7.56301 8.51938C8.04672 8.08134 7.78953 7.51938 7.53917 6.97233C7.4499 6.77729 7.3615 6.58414 7.30786 6.39918C7.03267 5.67323 6.98035 5.12078 7.03267 4.48681C7.14643 3.12278 8.28327 1.88068 9.48625 1.32428C10.1438 1.02013 10.7663 1.60697 10.9 2.29296C10.9473 2.3919 10.9896 2.50132 11.0349 2.61878C11.2021 3.05182 11.4115 3.59409 12.0755 4.12259C14.9361 6.39918 17.2673 8.33279 17.0954 12.1277C16.9272 15.8414 13.5957 18.7143 9.64667 18.5511C5.69763 18.388 2.63839 15.2511 2.80661 11.5374C2.80844 11.4968 2.81225 11.4562 2.81605 11.4157C2.81985 11.3752 2.82365 11.3347 2.82549 11.2941C2.95077 10.1114 3.4378 8.66956 4.29936 7.78088C4.80202 7.2624 5.40079 7.76513 5.87756 8.22045L5.88037 8.22313C6.16936 8.49912 6.44426 8.76167 6.84304 8.78551ZM13.8306 12.616C13.8306 12.257 13.5396 11.966 13.1806 11.966C12.8216 11.966 12.5306 12.257 12.5306 12.616C12.5306 13.0245 12.3683 13.4162 12.0795 13.7051C11.7906 13.9939 11.3989 14.1562 10.9904 14.1562C10.6314 14.1562 10.3404 14.4472 10.3404 14.8062C10.3404 15.1652 10.6314 15.4562 10.9904 15.4562C11.7436 15.4562 12.4661 15.157 12.9987 14.6243C13.5314 14.0917 13.8306 13.3692 13.8306 12.616Z" fill="white"/>
</g>
<defs>
<clipPath id="clip0_3243_96365">
<rect width="20" height="20" fill="white"/>
</clipPath>
</defs>
</svg>
