<svg width="24" height="24" viewBox="0 0 24 24" fill="none" xmlns="http://www.w3.org/2000/svg">
<g clip-path="url(#clip0_1451_70541)">
<path d="M11.8848 1.35156C11.9223 1.35604 11.9757 1.37302 12.042 1.41895C12.1844 1.51761 12.3345 1.71837 12.4053 1.97656C12.4371 2.09289 12.4787 2.22582 12.5371 2.36328C12.7596 2.88681 13.0402 3.99568 14.291 4.99121C18.1281 8.04491 20.8451 10.3629 20.6387 14.9209C20.4385 19.3379 16.456 22.841 11.6289 22.6416C6.80412 22.4421 3.15864 18.6275 3.3584 14.2139C3.35976 14.1839 3.36182 14.15 3.36719 14.0928C3.37086 14.0536 3.37515 13.9999 3.37891 13.9414C3.53364 12.4807 4.13587 10.7736 5.10156 9.77734C5.11669 9.76174 5.12883 9.75215 5.13672 9.74609C5.1513 9.7491 5.17669 9.75595 5.21484 9.77246C5.41791 9.86036 5.6744 10.0719 6.00098 10.3838C6.33841 10.706 6.92241 11.3106 7.81152 11.3672V11.3682C8.43526 11.4112 8.99458 11.1581 9.39453 10.7988L9.39746 10.7969C9.75857 10.4699 9.96468 10.072 10.0225 9.63672C10.0765 9.22946 9.99215 8.85035 9.89355 8.54883C9.79555 8.24917 9.65684 7.95166 9.55078 7.71973C9.43426 7.4649 9.35127 7.27726 9.30371 7.11328L9.29492 7.08105L9.28223 7.04883C8.96478 6.21138 8.90988 5.60516 8.96973 4.87988L8.96875 4.87891C9.08781 3.46239 10.3256 2.03424 11.7383 1.38086C11.8057 1.34972 11.8516 1.34766 11.8848 1.35156Z" stroke="white" stroke-width="1.7"/>
<path d="M16.2881 15.6077C16.2881 16.3792 15.9816 17.1192 15.436 17.6648C14.8905 18.2104 14.1505 18.5169 13.3789 18.5169" stroke="white" stroke-width="1.7" stroke-linecap="round" stroke-linejoin="round"/>
</g>
<defs>
<clipPath id="clip0_1451_70541">
<rect width="24" height="24" fill="white"/>
</clipPath>
</defs>
</svg>
