<svg width="16" height="16" viewBox="0 0 16 16" fill="none" xmlns="http://www.w3.org/2000/svg">
<g clip-path="url(#clip0_3292_5345)">
<path fill-rule="evenodd" clip-rule="evenodd" d="M5.46886 7.09906C5.68441 7.11394 5.89186 7.02683 6.05096 6.88389C6.44205 6.52972 6.23411 6.07538 6.03169 5.63308C5.95952 5.47539 5.88805 5.31922 5.84468 5.16968C5.62218 4.58274 5.57988 4.13608 5.62218 3.62351C5.71416 2.52067 6.6333 1.51643 7.60592 1.06657C8.13759 0.820661 8.64085 1.29513 8.74893 1.84976C8.78724 1.92975 8.82139 2.01822 8.85806 2.11319C8.99323 2.46331 9.16249 2.90174 9.69939 3.32903C12.0122 5.16968 13.897 6.73302 13.758 9.80124C13.622 12.8038 10.9285 15.1266 7.73563 14.9946C4.54278 14.8627 2.06936 12.3265 2.20536 9.32396C2.20685 9.29113 2.20992 9.25837 2.213 9.22561L2.213 9.2256C2.21607 9.19284 2.21915 9.16007 2.22063 9.12724C2.32192 8.17107 2.71569 7.00531 3.41227 6.2868C3.81868 5.8676 4.30279 6.27407 4.68826 6.6422L4.69053 6.64436C4.92418 6.86751 5.14645 7.07978 5.46886 7.09906ZM11.0427 10.1959C11.0427 9.94739 10.8413 9.74592 10.5927 9.74592C10.3442 9.74592 10.1427 9.94739 10.1427 10.1959C10.1427 10.5462 10.0036 10.8822 9.75587 11.1299C9.50816 11.3776 9.17221 11.5168 8.8219 11.5168C8.57337 11.5168 8.3719 11.7182 8.3719 11.9668C8.3719 12.2153 8.57337 12.4168 8.8219 12.4168C9.4109 12.4168 9.97578 12.1828 10.3923 11.7663C10.8088 11.3498 11.0427 10.7849 11.0427 10.1959Z" fill="white"/>
</g>
<defs>
<clipPath id="clip0_3292_5345">
<rect width="16" height="16" fill="white"/>
</clipPath>
</defs>
</svg>
