<svg width="16" height="16" viewBox="0 0 16 16" fill="none" xmlns="http://www.w3.org/2000/svg">
<g clip-path="url(#clip0_3292_5275)">
<path d="M7.79474 1.47461C7.88473 1.43301 7.96751 1.44245 8.06329 1.51562C8.17246 1.5991 8.27216 1.75483 8.30743 1.93555C8.31471 1.9729 8.32618 2.00961 8.34259 2.04395C8.47479 2.32001 8.62933 3.05216 9.41876 3.68066C11.7514 5.53707 13.4358 6.96854 13.3084 9.78125C13.1846 12.5106 10.725 14.6677 7.75372 14.5449C4.78376 14.422 2.53177 12.0723 2.65509 9.34473C2.656 9.32456 2.65771 9.30216 2.66095 9.26758C2.66327 9.24289 2.66557 9.21012 2.66779 9.1748C2.7629 8.27686 3.13311 7.22062 3.73517 6.59961C3.75747 6.57663 3.77309 6.56723 3.78009 6.56348C3.78636 6.56013 3.7894 6.55977 3.79083 6.55957C3.79395 6.55914 3.81992 6.55615 3.8797 6.58203C4.01582 6.64102 4.17985 6.77878 4.37775 6.96777C4.58697 7.1676 4.92536 7.5146 5.43829 7.54688V7.54785C5.79632 7.57245 6.11902 7.4274 6.35138 7.21875L6.35333 7.21777C6.56174 7.02904 6.67871 6.8012 6.71173 6.55273C6.74276 6.319 6.69508 6.09894 6.63654 5.91992C6.57832 5.74196 6.49554 5.56512 6.43048 5.42285C6.35984 5.26837 6.30772 5.14931 6.27716 5.04395C6.27383 5.0325 6.26967 5.02091 6.26544 5.00977C6.06858 4.49033 6.034 4.11153 6.07111 3.66113C6.14566 2.76727 6.91988 1.87925 7.79474 1.47461Z" stroke="white" stroke-width="0.9" stroke-linecap="round" stroke-linejoin="round"/>
<path d="M10.5927 10.1959C10.5927 10.6656 10.4062 11.116 10.0741 11.4481C9.74197 11.7802 9.29155 11.9668 8.8219 11.9668" stroke="white" stroke-width="0.9" stroke-linecap="round" stroke-linejoin="round"/>
</g>
<defs>
<clipPath id="clip0_3292_5275">
<rect width="16" height="16" fill="white"/>
</clipPath>
</defs>
</svg>
