<svg width="20" height="20" viewBox="0 0 20 20" fill="none" xmlns="http://www.w3.org/2000/svg">
<g clip-path="url(#clip0_3243_96295)">
<path d="M9.86932 1.89331C9.8982 1.89765 9.9417 1.91291 9.9953 1.95386C10.1104 2.04186 10.2222 2.21411 10.2619 2.41772C10.2725 2.4717 10.2899 2.52437 10.3137 2.57397C10.4674 2.89519 10.6721 3.83656 11.6711 4.63159C14.5601 6.9308 16.6016 8.6727 16.4465 12.0984C16.2961 15.4177 13.3022 18.052 9.67303 17.9021C6.04573 17.752 3.3062 14.8838 3.45624 11.5671C3.45725 11.5448 3.45903 11.5195 3.46307 11.4763C3.46584 11.4468 3.46902 11.4063 3.47186 11.3621C3.5883 10.2636 4.0409 8.9809 4.76581 8.23315C4.77466 8.22402 4.78204 8.21795 4.78729 8.21362C4.79805 8.21617 4.81534 8.22149 4.84003 8.23218C4.99101 8.29757 5.18298 8.45534 5.42889 8.69019C5.68236 8.93225 6.12448 9.39041 6.79803 9.43335V9.43433C7.27086 9.46698 7.6945 9.27468 7.99725 9.00269L7.99921 9.00073C8.27267 8.75302 8.42902 8.45193 8.47284 8.12183C8.51379 7.8132 8.45058 7.52622 8.37616 7.29858C8.30218 7.07239 8.19713 6.84801 8.11737 6.67358C8.02962 6.48169 7.96741 6.34111 7.93182 6.21851C7.92699 6.20184 7.92137 6.18493 7.91522 6.1687C7.6769 5.53996 7.63597 5.08518 7.68085 4.54077C7.76949 3.47861 8.69724 2.40489 9.75897 1.91382C9.81052 1.88998 9.84475 1.88962 9.86932 1.89331Z" stroke="white" stroke-width="1.3" stroke-linecap="round" stroke-linejoin="round"/>
<path d="M13.1806 12.616C13.1806 13.1969 12.9498 13.754 12.5391 14.1647C12.1283 14.5755 11.5712 14.8062 10.9904 14.8062" stroke="white" stroke-width="1.3" stroke-linecap="round" stroke-linejoin="round"/>
</g>
<defs>
<clipPath id="clip0_3243_96295">
<rect width="20" height="20" fill="white"/>
</clipPath>
</defs>
</svg>
