<svg width="16" height="16" viewBox="0 0 16 16" fill="none" xmlns="http://www.w3.org/2000/svg">
<path fill-rule="evenodd" clip-rule="evenodd" d="M1.6001 7.99998C1.6001 4.46535 4.46548 1.59998 8.0001 1.59998C11.5347 1.59998 14.4001 4.46535 14.4001 7.99998C14.4001 11.5346 11.5347 14.4 8.0001 14.4C4.46548 14.4 1.6001 11.5346 1.6001 7.99998ZM7.25012 5.34998C7.25012 4.93576 7.58591 4.59998 8.00012 4.59998C8.41434 4.59998 8.75012 4.93576 8.75012 5.34998C8.75012 5.76419 8.41434 6.09998 8.00012 6.09998C7.58591 6.09998 7.25012 5.76419 7.25012 5.34998ZM8.50012 11.4V7.00002H7.50012V11.4H8.50012Z" fill="white"/>
</svg>
