<svg width="24" height="24" viewBox="0 0 24 24" fill="none" xmlns="http://www.w3.org/2000/svg">
<g clip-path="url(#clip0_3885_87966)">
<path fill-rule="evenodd" clip-rule="evenodd" d="M0.25 11.75C0.25 5.39873 5.39873 0.25 11.75 0.25C18.1013 0.25 23.25 5.39873 23.25 11.75C23.25 18.1013 18.1013 23.25 11.75 23.25C5.39873 23.25 0.25 18.1013 0.25 11.75ZM10.5 7.65C10.5 6.95964 11.0596 6.4 11.75 6.4C12.4404 6.4 13 6.95964 13 7.65C13 8.34036 12.4404 8.9 11.75 8.9C11.0596 8.9 10.5 8.34036 10.5 7.65ZM12.6 10H10.85V17H12.6V10Z" fill="white"/>
</g>
<defs>
<clipPath id="clip0_3885_87966">
<rect width="24" height="24" fill="white"/>
</clipPath>
</defs>
</svg>
