<svg width="16" height="16" viewBox="0 0 16 16" fill="none" xmlns="http://www.w3.org/2000/svg">
<g clip-path="url(#clip0_3292_9025)">
<path fill-rule="evenodd" clip-rule="evenodd" d="M14.4001 7.99998C14.4001 11.5346 11.5347 14.4 8.0001 14.4C4.46548 14.4 1.6001 11.5346 1.6001 7.99998C1.6001 4.46535 4.46548 1.59998 8.0001 1.59998C11.5347 1.59998 14.4001 4.46535 14.4001 7.99998ZM8.0001 4.69998C8.27624 4.69998 8.5001 4.92383 8.5001 5.19998V7.49998H10.8001C11.0762 7.49998 11.3001 7.72383 11.3001 7.99998C11.3001 8.27612 11.0762 8.49998 10.8001 8.49998H8.5001V10.8C8.5001 11.0761 8.27624 11.3 8.0001 11.3C7.72396 11.3 7.5001 11.0761 7.5001 10.8V8.49998H5.2001C4.92396 8.49998 4.7001 8.27612 4.7001 7.99998C4.7001 7.72383 4.92396 7.49998 5.2001 7.49998H7.5001V5.19998C7.5001 4.92383 7.72396 4.69998 8.0001 4.69998Z" fill="white"/>
</g>
<defs>
<clipPath id="clip0_3292_9025">
<rect width="16" height="16" fill="white"/>
</clipPath>
</defs>
</svg>
