<svg width="24" height="24" viewBox="0 0 24 24" fill="none" xmlns="http://www.w3.org/2000/svg">
<g clip-path="url(#clip0_3236_76237)">
<circle cx="12" cy="12" r="9.15" stroke="white" stroke-width="1.7"/>
<path fill-rule="evenodd" clip-rule="evenodd" d="M12.8 7.74995C12.8 7.30812 12.4418 6.94995 12 6.94995C11.5581 6.94995 11.2 7.30812 11.2 7.74995V11.2H7.74995C7.30812 11.2 6.94995 11.5581 6.94995 12C6.94995 12.4418 7.30812 12.8 7.74995 12.8H11.2V16.25C11.2 16.6918 11.5581 17.05 12 17.05C12.4418 17.05 12.8 16.6918 12.8 16.25V12.8H16.25C16.6918 12.8 17.05 12.4418 17.05 12C17.05 11.5581 16.6918 11.2 16.25 11.2H12.8V7.74995Z" fill="white"/>
<path d="M12 7.75L12 16.25" stroke="white" stroke-width="1.6" stroke-linecap="round"/>
<path d="M16.25 12L7.75 12" stroke="white" stroke-width="1.6" stroke-linecap="round"/>
</g>
<defs>
<clipPath id="clip0_3236_76237">
<rect width="24" height="24" fill="white"/>
</clipPath>
</defs>
</svg>
