<svg width="24" height="24" viewBox="0 0 24 24" fill="none" xmlns="http://www.w3.org/2000/svg">
<g clip-path="url(#clip0_369_42017)">
<path fill-rule="evenodd" clip-rule="evenodd" d="M12 22C17.5228 22 22 17.5228 22 12C22 6.47715 17.5228 2 12 2C6.47715 2 2 6.47715 2 12C2 17.5228 6.47715 22 12 22ZM12 6.90001C12.4694 6.90001 12.85 7.28057 12.85 7.75001V11.15H16.25C16.7194 11.15 17.1 11.5306 17.1 12C17.1 12.4695 16.7194 12.85 16.25 12.85H12.85V16.25C12.85 16.7195 12.4694 17.1 12 17.1C11.5306 17.1 11.15 16.7195 11.15 16.25V12.85H7.74998C7.28054 12.85 6.89998 12.4694 6.89998 12C6.89998 11.5306 7.28054 11.15 7.74998 11.15H11.15V7.75001C11.15 7.28057 11.5306 6.90001 12 6.90001Z" fill="white"/>
</g>
<defs>
<clipPath id="clip0_369_42017">
<rect width="24" height="24" fill="white"/>
</clipPath>
</defs>
</svg>
