<svg width="16" height="16" viewBox="0 0 16 16" fill="none" xmlns="http://www.w3.org/2000/svg">
<g clip-path="url(#clip0_5300_38696)">
<path d="M12 8.79994V6.70241C12 6.70176 11.9997 6.70113 11.9993 6.70067C11.9988 6.70021 11.9982 6.69995 11.9975 6.69995H2.40245C2.4018 6.69995 2.40117 6.70021 2.40071 6.70067C2.40025 6.70113 2.39999 6.70176 2.39999 6.70241V9.09994C2.39999 11.7509 4.54903 13.8999 7.19999 13.8999C7.48849 13.8999 7.77104 13.8745 8.04552 13.8257" stroke="white" stroke-width="0.9" stroke-linecap="round"/>
<path d="M14 8.59995C14 8.84848 14.2015 9.04995 14.45 9.04995C14.6985 9.04995 14.9 8.84848 14.9 8.59995H14ZM12 7.14995H12.55V6.24995H12V7.14995ZM12.55 7.14995C13.3508 7.14995 14 7.79914 14 8.59995H14.9C14.9 7.30208 13.8479 6.24995 12.55 6.24995V7.14995Z" fill="white"/>
<path d="M8.09439 1.9502H10.3639C10.3227 3.55869 9.00675 4.84959 7.38834 4.84961H5.1188C5.1601 3.2412 6.47603 1.9502 8.09439 1.9502Z" stroke="white" stroke-width="0.9"/>
<path fill-rule="evenodd" clip-rule="evenodd" d="M11.4 14.7C12.7807 14.7 13.9 13.5807 13.9 12.2C13.9 10.8192 12.7807 9.69995 11.4 9.69995C10.0193 9.69995 8.89999 10.8192 8.89999 12.2C8.89999 13.5807 10.0193 14.7 11.4 14.7ZM11.2295 11.1901C11.1319 11.0924 10.9736 11.0924 10.876 11.1901C10.7784 11.2877 10.7784 11.446 10.876 11.5436L11.5673 12.2349L10.876 12.9262C10.7784 13.0238 10.7784 13.1821 10.876 13.2797C10.9736 13.3774 11.1319 13.3774 11.2295 13.2797L12.0269 12.4824C12.1636 12.3457 12.1636 12.1241 12.0269 11.9874L11.2295 11.1901Z" fill="white"/>
</g>
<defs>
<clipPath id="clip0_5300_38696">
<rect width="16" height="16" fill="white"/>
</clipPath>
</defs>
</svg>
