<svg width="24" height="24" viewBox="0 0 24 24" fill="none" xmlns="http://www.w3.org/2000/svg">
<g clip-path="url(#clip0_5300_38524)">
<path d="M18.0192 12.3475V11.7837V9.97854C18.0192 9.9775 18.0187 9.9765 18.018 9.97576C18.0173 9.97502 18.0163 9.97461 18.0152 9.97461H2.20393C2.20289 9.97461 2.20189 9.97502 2.20115 9.97576C2.20041 9.9765 2.2 9.9775 2.2 9.97854V13.5904C2.2 17.9588 5.74124 21.5 10.1096 21.5C11.1048 21.5 12.0571 21.3162 12.9344 20.9806" stroke="white" stroke-width="1.7" stroke-linecap="round"/>
<path d="M15.3073 9.97461H18.6971C20.1172 9.97461 21.2925 11.0225 21.4921 12.3872" stroke="white" stroke-width="1.7" stroke-linecap="round"/>
<path d="M10.5996 2.34961H14.8594V2.90039C14.8592 4.97119 13.1802 6.65024 11.1094 6.65039H6.84961V6.09961C6.84982 4.02885 8.52885 2.34982 10.5996 2.34961Z" stroke="white" stroke-width="1.7"/>
<path fill-rule="evenodd" clip-rule="evenodd" d="M18.1 21.5999C20.0882 21.5999 21.7 19.9881 21.7 17.9999C21.7 16.0117 20.0882 14.3999 18.1 14.3999C16.1118 14.3999 14.5 16.0117 14.5 17.9999C14.5 19.9881 16.1118 21.5999 18.1 21.5999ZM17.8828 16.5172C17.7266 16.361 17.4734 16.361 17.3172 16.5172C17.1609 16.6734 17.1609 16.9267 17.3172 17.0829L18.2843 18.05L17.3172 19.0172C17.1609 19.1734 17.1609 19.4267 17.3172 19.5829C17.4734 19.7391 17.7266 19.7391 17.8828 19.5829L19.0621 18.4036C19.2574 18.2083 19.2574 17.8918 19.0621 17.6965L17.8828 16.5172Z" fill="white"/>
</g>
<defs>
<clipPath id="clip0_5300_38524">
<rect width="24" height="24" fill="white"/>
</clipPath>
</defs>
</svg>
