<svg width="20" height="20" viewBox="0 0 20 20" fill="none" xmlns="http://www.w3.org/2000/svg">
<g clip-path="url(#clip0_5300_38616)">
<path fill-rule="evenodd" clip-rule="evenodd" d="M14.1 17.7C15.674 17.7 16.95 16.424 16.95 14.85C16.95 13.276 15.674 12 14.1 12C12.526 12 11.25 13.276 11.25 14.85C11.25 16.424 12.526 17.7 14.1 17.7ZM13.9517 13.6528C13.815 13.5161 13.5934 13.5161 13.4567 13.6528C13.32 13.7895 13.32 14.0111 13.4567 14.1478L14.1988 14.8899L13.4567 15.632C13.32 15.7686 13.32 15.9903 13.4567 16.1269C13.5934 16.2636 13.815 16.2636 13.9517 16.1269L14.8705 15.2081C15.0463 15.0323 15.0463 14.7474 14.8705 14.5717L13.9517 13.6528Z" fill="white"/>
<path d="M14.5714 11V8.87446C14.5714 8.87363 14.5711 8.87284 14.5705 8.87225C14.5699 8.87167 14.5691 8.87134 14.5683 8.87134H2.00312C2.00229 8.87134 2.0015 8.87167 2.00091 8.87225C2.00033 8.87284 2 8.87363 2 8.87446V11.7285C2 15.2 4.81421 18.0142 8.28571 18.0142C9.17182 18.0142 10.0151 17.8308 10.7797 17.5" stroke="white" stroke-width="1.3" stroke-linecap="round"/>
<path d="M17.35 11.1571C17.35 11.516 17.641 11.8071 18 11.8071C18.359 11.8071 18.65 11.516 18.65 11.1571H17.35ZM12.2857 9.52134H15.7143V8.22134H12.2857V9.52134ZM15.7143 9.52134C16.6177 9.52134 17.35 10.2537 17.35 11.1571H18.65C18.65 9.5357 17.3356 8.22134 15.7143 8.22134V9.52134Z" fill="white"/>
<path d="M9.83768 2.43604H13.0642C13.0576 4.61191 11.2915 6.37354 9.11405 6.37354H5.88846C5.89499 4.19771 7.66037 2.43625 9.83768 2.43604Z" stroke="white" stroke-width="1.3"/>
</g>
<defs>
<clipPath id="clip0_5300_38616">
<rect width="20" height="20" fill="white"/>
</clipPath>
</defs>
</svg>
