<svg width="24" height="24" viewBox="0 0 24 24" fill="none" xmlns="http://www.w3.org/2000/svg">
<g clip-path="url(#clip0_236_30299)">
<path d="M6.1 19.73V10.5H5.23666C4.27753 10.5 3.5 11.2652 3.5 12.2091V18.0209C3.5 18.9648 4.27753 19.73 5.23666 19.73H6.1Z" fill="white"/>
<path d="M13.4 5.58V8.85842H18.7564C19.268 8.85286 19.7562 9.06323 20.0919 9.43382C20.4276 9.8044 20.5768 10.2978 20.5 10.7833L19.2969 18.3156C19.1666 19.1409 18.4228 19.7478 17.5534 19.7384H8V10.5323L10.605 3.26503C10.662 3.10606 10.8132 2.99704 10.9811 3.01507C12.3035 3.15714 13.4 4.28416 13.4 5.58Z" fill="white"/>
</g>
<defs>
<clipPath id="clip0_236_30299">
<rect width="24" height="24" fill="white"/>
</clipPath>
</defs>
</svg>
