<svg width="20" height="20" viewBox="0 0 20 20" fill="none" xmlns="http://www.w3.org/2000/svg">
<g clip-path="url(#clip0_3243_98127)">
<path d="M5.08333 16.4416V8.75H4.36388C3.5646 8.75 2.91666 9.38766 2.91666 10.1742V15.0174C2.91666 15.804 3.5646 16.4416 4.36388 16.4416H5.08333Z" fill="white"/>
<path d="M11.1667 4.65V7.38202H15.6304C16.0566 7.37739 16.4635 7.5527 16.7432 7.86151C17.023 8.17033 17.1473 8.5815 17.0833 8.98611L16.0808 15.263C15.9722 15.9507 15.3523 16.4565 14.6278 16.4486H6.66666V8.77688L8.82166 2.76503C8.87865 2.60606 9.03005 2.49647 9.19754 2.51808C10.2786 2.65755 11.1667 3.58541 11.1667 4.65Z" fill="white"/>
</g>
<defs>
<clipPath id="clip0_3243_98127">
<rect width="20" height="20" fill="white"/>
</clipPath>
</defs>
</svg>
