<svg width="16" height="16" viewBox="0 0 16 16" fill="none" xmlns="http://www.w3.org/2000/svg">
<g clip-path="url(#clip0_3292_7071)">
<path d="M4.06667 13.1533V7H3.4911C2.85168 7 2.33333 7.51012 2.33333 8.13939V12.0139C2.33333 12.6432 2.85168 13.1533 3.4911 13.1533H4.06667Z" fill="white"/>
<path d="M8.93333 3.72V5.90562H12.5043C12.8453 5.90191 13.1708 6.04216 13.3946 6.28921C13.6184 6.53627 13.7178 6.8652 13.6667 7.18889L12.8646 12.2104C12.7777 12.7606 12.2819 13.1652 11.7023 13.1589H5.33333V7.02151L7.03833 2.26503C7.09531 2.10606 7.24701 1.99563 7.41372 2.02255C8.25315 2.15808 8.93333 2.88668 8.93333 3.72Z" fill="white"/>
</g>
<defs>
<clipPath id="clip0_3292_7071">
<rect width="16" height="16" fill="white"/>
</clipPath>
</defs>
</svg>
