<svg width="16" height="16" viewBox="0 0 16 16" fill="none" xmlns="http://www.w3.org/2000/svg">
<g clip-path="url(#clip0_3292_7790)">
<path fill-rule="evenodd" clip-rule="evenodd" d="M5.91512 13.4687C7.15729 13.7327 8.84273 13.7327 10.0849 13.4687C11.7821 13.1079 13.1079 11.7821 13.4687 10.0849C13.7327 8.84276 13.7327 7.15732 13.4687 5.91515C13.1079 4.21799 11.7821 2.89214 10.0849 2.5314C8.84273 2.26737 7.15729 2.26737 5.91512 2.5314C4.21796 2.89214 2.89211 4.21799 2.53137 5.91515C2.26734 7.15732 2.26734 8.84276 2.53137 10.0849C2.89211 11.7821 4.21796 13.1079 5.91512 13.4687ZM5.77593 6.27406L10.2145 6.27405C10.4907 6.27405 10.7145 6.05019 10.7145 5.77405C10.7145 5.4979 10.4907 5.27405 10.2145 5.27405L5.77593 5.27406C5.49979 5.27406 5.27593 5.49792 5.27593 5.77406C5.27593 6.0502 5.49979 6.27406 5.77593 6.27406ZM5.27593 8.02364C5.27593 7.7475 5.49979 7.52364 5.77593 7.52364H10.2276C10.5038 7.52364 10.7276 7.7475 10.7276 8.02364C10.7276 8.29978 10.5038 8.52364 10.2276 8.52364H5.77593C5.49979 8.52364 5.27593 8.29978 5.27593 8.02364ZM5.77593 9.77323C5.49979 9.77323 5.27593 9.99709 5.27593 10.2732C5.27593 10.5494 5.49979 10.7732 5.77593 10.7732H7.99567C8.27181 10.7732 8.49567 10.5494 8.49567 10.2732C8.49567 9.99709 8.27181 9.77323 7.99567 9.77323H5.77593Z" fill="white"/>
</g>
<defs>
<clipPath id="clip0_3292_7790">
<rect width="16" height="16" fill="white"/>
</clipPath>
</defs>
</svg>
