<svg width="24" height="24" viewBox="0 0 24 24" fill="none" xmlns="http://www.w3.org/2000/svg">
<g clip-path="url(#clip0_236_31116)">
<path d="M15.1273 20.203C13.2641 20.599 10.7359 20.599 8.87267 20.203C6.32693 19.6619 4.33815 17.6731 3.79703 15.1273C3.40099 13.2641 3.40099 10.7359 3.79703 8.87267C4.33815 6.32692 6.32692 4.33815 8.87267 3.79703C10.7359 3.40099 13.2641 3.40099 15.1273 3.79703C17.6731 4.33815 19.6619 6.32692 20.203 8.87267C20.599 10.7359 20.599 13.2641 20.203 15.1273C19.6619 17.6731 17.6731 19.6619 15.1273 20.203Z" stroke="white" stroke-width="1.6" stroke-linecap="round" stroke-linejoin="round"/>
<path d="M8.66388 8.6609L15.3218 8.66089" stroke="white" stroke-width="1.6" stroke-linecap="round"/>
<path d="M8.66388 12.0354H15.3415" stroke="white" stroke-width="1.6" stroke-linecap="round"/>
<path d="M8.66388 15.4099H11.9935" stroke="white" stroke-width="1.6" stroke-linecap="round"/>
</g>
<defs>
<clipPath id="clip0_236_31116">
<rect width="24" height="24" fill="white"/>
</clipPath>
</defs>
</svg>
