<svg width="20" height="20" viewBox="0 0 20 20" fill="none" xmlns="http://www.w3.org/2000/svg">
<g clip-path="url(#clip0_3243_98846)">
<path fill-rule="evenodd" clip-rule="evenodd" d="M7.24059 17.2379C8.88463 17.5874 11.1154 17.5874 12.7594 17.2379C15.0057 16.7605 16.7605 15.0057 17.2379 12.7594C17.5874 11.1154 17.5874 8.88463 17.2379 7.24059C16.7605 4.99434 15.0057 3.23954 12.7594 2.76209C11.1154 2.41264 8.88463 2.41264 7.24059 2.76209C4.99435 3.23954 3.23954 4.99435 2.76209 7.24059C2.41264 8.88463 2.41264 11.1154 2.76209 12.7594C3.23954 15.0057 4.99435 16.7605 7.24059 17.2379ZM7.05635 7.75378L12.931 7.75377C13.3176 7.75377 13.631 7.44037 13.631 7.05377C13.631 6.66717 13.3176 6.35377 12.931 6.35377L7.05635 6.35378C6.66975 6.35378 6.35635 6.66718 6.35635 7.05378C6.35635 7.44038 6.66976 7.75378 7.05635 7.75378ZM6.35635 10.0312C6.35635 9.64459 6.66975 9.33119 7.05635 9.33119H12.9483C13.3349 9.33119 13.6483 9.64459 13.6483 10.0312C13.6483 10.4178 13.3349 10.7312 12.9483 10.7312H7.05635C6.66975 10.7312 6.35635 10.4178 6.35635 10.0312ZM7.05635 12.3086C6.66975 12.3086 6.35635 12.622 6.35635 13.0086C6.35635 13.3952 6.66975 13.7086 7.05635 13.7086H9.99424C10.3808 13.7086 10.6942 13.3952 10.6942 13.0086C10.6942 12.622 10.3808 12.3086 9.99424 12.3086H7.05635Z" fill="white"/>
</g>
<defs>
<clipPath id="clip0_3243_98846">
<rect width="20" height="20" fill="white"/>
</clipPath>
</defs>
</svg>
