<svg width="20" height="20" viewBox="0 0 20 20" fill="none" xmlns="http://www.w3.org/2000/svg">
<g clip-path="url(#clip0_3243_98773)">
<path d="M12.7594 17.2379C11.1154 17.5874 8.88463 17.5874 7.24059 17.2379C4.99435 16.7605 3.23954 15.0057 2.76209 12.7594C2.41264 11.1154 2.41264 8.88463 2.76209 7.24059C3.23954 4.99435 4.99435 3.23954 7.24059 2.76209C8.88463 2.41264 11.1154 2.41264 12.7594 2.76209C15.0057 3.23954 16.7605 4.99434 17.2379 7.24059C17.5874 8.88463 17.5874 11.1154 17.2379 12.7594C16.7605 15.0057 15.0057 16.7605 12.7594 17.2379Z" stroke="white" stroke-width="1.3" stroke-linecap="round" stroke-linejoin="round"/>
<path d="M7.05637 7.05372L12.931 7.05371" stroke="white" stroke-width="1.3" stroke-linecap="round"/>
<path d="M7.05637 10.0312H12.9483" stroke="white" stroke-width="1.3" stroke-linecap="round"/>
<path d="M7.05637 13.0085H9.99425" stroke="white" stroke-width="1.3" stroke-linecap="round"/>
</g>
<defs>
<clipPath id="clip0_3243_98773">
<rect width="20" height="20" fill="white"/>
</clipPath>
</defs>
</svg>
