<svg width="24" height="24" viewBox="0 0 24 24" fill="none" xmlns="http://www.w3.org/2000/svg">
<g clip-path="url(#clip0_3236_69231)">
<path fill-rule="evenodd" clip-rule="evenodd" d="M8.87267 20.203C10.7359 20.599 13.2641 20.599 15.1273 20.203C17.6731 19.6619 19.6619 17.6731 20.203 15.1273C20.599 13.2641 20.599 10.7359 20.203 8.87267C19.6619 6.32692 17.6731 4.33815 15.1273 3.79703C13.2641 3.40099 10.7359 3.40099 8.87267 3.79703C6.32692 4.33815 4.33815 6.32692 3.79703 8.87267C3.40099 10.7359 3.40099 13.2641 3.79703 15.1273C4.33815 17.6731 6.32693 19.6619 8.87267 20.203ZM8.66388 9.56102L15.3218 9.56101C15.8189 9.56101 16.2218 9.15806 16.2218 8.66101C16.2218 8.16395 15.8189 7.76101 15.3218 7.76101L8.66388 7.76102C8.16682 7.76102 7.76388 8.16397 7.76388 8.66102C7.76388 9.15808 8.16682 9.56102 8.66388 9.56102ZM7.76388 12.0354C7.76388 11.5383 8.16682 11.1354 8.66388 11.1354H15.3415C15.8385 11.1354 16.2415 11.5383 16.2415 12.0354C16.2415 12.5325 15.8385 12.9354 15.3415 12.9354H8.66388C8.16682 12.9354 7.76388 12.5325 7.76388 12.0354ZM8.66388 14.5098C8.16682 14.5098 7.76388 14.9127 7.76388 15.4098C7.76388 15.9068 8.16682 16.3098 8.66388 16.3098H11.9935C12.4905 16.3098 12.8935 15.9068 12.8935 15.4098C12.8935 14.9127 12.4905 14.5098 11.9935 14.5098H8.66388Z" fill="white"/>
</g>
<defs>
<clipPath id="clip0_3236_69231">
<rect width="24" height="24" fill="white"/>
</clipPath>
</defs>
</svg>
