<svg width="16" height="16" viewBox="0 0 16 16" fill="none" xmlns="http://www.w3.org/2000/svg">
<g clip-path="url(#clip0_3292_9753)">
<path fill-rule="evenodd" clip-rule="evenodd" d="M8.45029 4.47451V2.90279C10.9173 3.11774 12.8828 5.08327 13.0978 7.55029L11.5261 7.55029C11.2775 7.55029 11.0761 7.75176 11.0761 8.00029C11.0761 8.24881 11.2775 8.45029 11.5261 8.45029H13.0978C12.8828 10.9173 10.9173 12.8828 8.45029 13.0978V11.526C8.45029 11.2775 8.24881 11.076 8.00029 11.076C7.75176 11.076 7.55029 11.2775 7.55029 11.526V13.0978C5.08327 12.8828 3.11774 10.9173 2.90279 8.45029H4.47454C4.72307 8.45029 4.92454 8.24881 4.92454 8.00029C4.92454 7.75176 4.72307 7.55029 4.47454 7.55029L2.90279 7.55029C3.11774 5.08327 5.08327 3.11774 7.55029 2.90279V4.47451C7.55029 4.72304 7.75176 4.92451 8.00029 4.92451C8.24881 4.92451 8.45029 4.72304 8.45029 4.47451ZM14.0173 8.0032C14.0157 11.325 11.3224 14.0173 8.00029 14.0173C4.67718 14.0173 1.98328 11.3234 1.98328 8.00029C1.98328 4.67718 4.67718 1.98328 8.00029 1.98328C11.3229 1.98328 14.0166 4.67644 14.0173 7.99891V8.00029L14.0173 8.0032Z" fill="white"/>
</g>
<defs>
<clipPath id="clip0_3292_9753">
<rect width="16" height="16" fill="white"/>
</clipPath>
</defs>
</svg>
