<svg width="20" height="20" viewBox="0 0 20 20" fill="none" xmlns="http://www.w3.org/2000/svg">
<g clip-path="url(#clip0_3243_100821)">
<path fill-rule="evenodd" clip-rule="evenodd" d="M2.42749 9.35025C2.73903 5.67119 5.67144 2.73888 9.35054 2.42747V4.78701C9.35054 5.14599 9.64155 5.43701 10.0005 5.43701C10.3595 5.43701 10.6505 5.14599 10.6505 4.78701V2.42754C14.3292 2.73934 17.2612 5.67149 17.5727 9.35025L15.2138 9.35025C14.8548 9.35025 14.5638 9.64127 14.5638 10.0003C14.5638 10.3592 14.8548 10.6503 15.2138 10.6503H17.5727C17.261 14.3289 14.3291 17.2609 10.6505 17.5727V15.2135C10.6505 14.8546 10.3595 14.5635 10.0005 14.5635C9.64155 14.5635 9.35054 14.8546 9.35054 15.2135V17.5727C5.67154 17.2613 2.7392 14.3292 2.42752 10.6503H4.78725C5.14624 10.6503 5.43725 10.3592 5.43725 10.0003C5.43725 9.64127 5.14624 9.35025 4.78725 9.35025L2.42749 9.35025ZM1.1001 10.0001C1.1001 5.08476 5.08476 1.1001 10.0001 1.1001C14.9154 1.1001 18.9001 5.08476 18.9001 10.0001C18.9001 14.9154 14.9154 18.9001 10.0001 18.9001C5.08476 18.9001 1.1001 14.9154 1.1001 10.0001Z" fill="white"/>
</g>
<defs>
<clipPath id="clip0_3243_100821">
<rect width="20" height="20" fill="white"/>
</clipPath>
</defs>
</svg>
