<svg width="24" height="24" viewBox="0 0 24 24" fill="none" xmlns="http://www.w3.org/2000/svg">
<g clip-path="url(#clip0_1390_30609)">
<path fill-rule="evenodd" clip-rule="evenodd" d="M3.83843 11.2005C4.21487 7.30997 7.30997 4.21487 11.2005 3.83843V6.71181C11.2005 7.15363 11.5586 7.51181 12.0005 7.51181C12.4423 7.51181 12.8005 7.15363 12.8005 6.71181V3.83853C16.6905 4.21541 19.7851 7.31031 20.1615 11.2005H17.2891C16.8473 11.2005 16.4891 11.5586 16.4891 12.0005C16.4891 12.4423 16.8473 12.8005 17.2891 12.8005H20.1614C19.7845 16.6901 16.6901 19.7845 12.8005 20.1614V17.2891C12.8005 16.8473 12.4423 16.4891 12.0005 16.4891C11.5586 16.4891 11.2005 16.8473 11.2005 17.2891V20.1615C7.31031 19.7851 4.21541 16.6905 3.83853 12.8005H6.71185C7.15368 12.8005 7.51185 12.4423 7.51185 12.0005C7.51185 11.5586 7.15368 11.2005 6.71185 11.2005H3.83843ZM2.19995 12C2.19995 6.58756 6.58756 2.19995 12 2.19995C17.4123 2.19995 21.7999 6.58756 21.7999 12C21.7999 17.4123 17.4123 21.7999 12 21.7999C6.58756 21.7999 2.19995 17.4123 2.19995 12Z" fill="white"/>
</g>
<defs>
<clipPath id="clip0_1390_30609">
<rect width="24" height="24" fill="white"/>
</clipPath>
</defs>
</svg>
