<svg width="20" height="20" viewBox="0 0 20 20" fill="none" xmlns="http://www.w3.org/2000/svg">
<g clip-path="url(#clip0_6631_59052)">
<path d="M6.50024 6.65V5.25C6.50024 3.317 8.06725 1.75 10.0002 1.75C11.9332 1.75 13.5002 3.317 13.5002 5.25V6.65" stroke="white" stroke-width="1.3" stroke-linejoin="round"/>
<path d="M3.87868 17.3713C4.75736 18.25 6.17157 18.25 9 18.25H11C13.8284 18.25 15.2426 18.25 16.1213 17.3713M3.87868 17.3713C3 16.4926 3 15.0784 3 12.25C3 9.42157 3 8.00736 3.87868 7.12868M3.87868 17.3713C3.87868 17.3713 3.87868 17.3713 3.87868 17.3713ZM16.1213 17.3713C17 16.4926 17 15.0784 17 12.25C17 9.42157 17 8.00736 16.1213 7.12868M16.1213 17.3713C16.1213 17.3713 16.1213 17.3713 16.1213 17.3713ZM16.1213 7.12868C15.2426 6.25 13.8284 6.25 11 6.25H9C6.17157 6.25 4.75736 6.25 3.87868 7.12868M16.1213 7.12868C16.1213 7.12868 16.1213 7.12868 16.1213 7.12868ZM3.87868 7.12868C3.87868 7.12868 3.87868 7.12868 3.87868 7.12868Z" stroke="white" stroke-width="1.3" stroke-linejoin="round"/>
<path fill-rule="evenodd" clip-rule="evenodd" d="M10.8501 12.486C11.2427 12.2155 11.5 11.7628 11.5 11.25C11.5 10.4216 10.8284 9.75 10 9.75C9.17157 9.75 8.5 10.4216 8.5 11.25C8.5 11.8053 8.80169 12.29 9.2501 12.5494V14.2503H10.8501V12.486Z" fill="white"/>
</g>
<defs>
<clipPath id="clip0_6631_59052">
<rect width="20" height="20" fill="white"/>
</clipPath>
</defs>
</svg>
