<svg width="24" height="24" viewBox="0 0 24 24" fill="none" xmlns="http://www.w3.org/2000/svg">
<g clip-path="url(#clip0_6631_58904)">
<path d="M8 7.64286V6.5C8 4.29086 9.79086 2.5 12 2.5C14.2091 2.5 16 4.29086 16 6.5V7.64286" stroke="white" stroke-width="1.7" stroke-linejoin="round"/>
<path d="M4 14.5002C4 11.8272 4 10.4907 4.6131 9.51494C4.93281 9.00612 5.36306 8.57588 5.87187 8.25617C6.84762 7.64307 8.18413 7.64307 10.8571 7.64307H13.1429C15.8159 7.64307 17.1524 7.64307 18.1281 8.25617C18.6369 8.57588 19.0672 9.00612 19.3869 9.51494C20 10.4907 20 11.8272 20 14.5002C20 17.1732 20 18.5097 19.3869 19.4855C19.0672 19.9943 18.6369 20.4245 18.1281 20.7442C17.1524 21.3574 15.8159 21.3574 13.1429 21.3574H10.8571C8.18413 21.3574 6.84762 21.3574 5.87187 20.7442C5.36306 20.4245 4.93281 19.9943 4.6131 19.4855C4 18.5097 4 17.1732 4 14.5002Z" stroke="white" stroke-width="1.7" stroke-linejoin="round"/>
<path fill-rule="evenodd" clip-rule="evenodd" d="M12.9716 14.7696C13.4202 14.4604 13.7142 13.9431 13.7142 13.3571C13.7142 12.4103 12.9467 11.6428 11.9999 11.6428C11.0532 11.6428 10.2856 12.4103 10.2856 13.3571C10.2856 13.9917 10.6305 14.5458 11.143 14.8422V16.7858H12.9716V14.7696Z" fill="white"/>
</g>
<defs>
<clipPath id="clip0_6631_58904">
<rect width="24" height="24" fill="white"/>
</clipPath>
</defs>
</svg>
