<svg width="16" height="16" viewBox="0 0 16 16" fill="none" xmlns="http://www.w3.org/2000/svg">
<g clip-path="url(#clip0_6631_97281)">
<path d="M5.09424 5.46454V4.30325C5.09424 2.69984 6.39406 1.40002 7.99746 1.40002C9.60087 1.40002 10.9007 2.69984 10.9007 4.30325V5.46454" stroke="white" stroke-linejoin="round"/>
<path fill-rule="evenodd" clip-rule="evenodd" d="M2.45983 6.3292C2 7.06101 2 8.06339 2 10.0681C2 12.0729 2 13.0753 2.45983 13.8071C2.69961 14.1887 3.02229 14.5114 3.40391 14.7512C4.13572 15.211 5.1381 15.211 7.14285 15.211H8.85715C10.8619 15.211 11.8643 15.211 12.5961 14.7512C12.9777 14.5114 13.3004 14.1887 13.5402 13.8071C14 13.0753 14 12.0729 14 10.0681C14 8.06339 14 7.06101 13.5402 6.3292C13.3004 5.94759 12.9777 5.6249 12.5961 5.38512C11.8643 4.92529 10.8619 4.92529 8.85715 4.92529H7.14285C5.1381 4.92529 4.13572 4.92529 3.40391 5.38512C3.02229 5.6249 2.69961 5.94759 2.45983 6.3292ZM9.24146 9.28021C9.24146 9.70559 9.02799 10.0811 8.70234 10.3055V11.7689H7.37515V10.358C7.00322 10.1429 6.75298 9.74077 6.75298 9.28021C6.75298 8.59303 7.31004 8.03597 7.99722 8.03597C8.68439 8.03597 9.24146 8.59303 9.24146 9.28021Z" fill="white"/>
</g>
<defs>
<clipPath id="clip0_6631_97281">
<rect width="16" height="16" fill="white"/>
</clipPath>
</defs>
</svg>
