<svg width="24" height="24" viewBox="0 0 24 24" fill="none" xmlns="http://www.w3.org/2000/svg">
<g clip-path="url(#clip0_6631_7527)">
<path d="M8 8.84281V6.69995C8 4.49081 9.79086 2.69995 12 2.69995C14.2091 2.69995 16 4.49081 16 6.69995V8.84281" stroke="white" stroke-width="1.7" stroke-linejoin="round"/>
<path fill-rule="evenodd" clip-rule="evenodd" d="M4.45561 8.93125C3.75 9.95587 3.75 11.3944 3.75 14.2714C3.75 17.1484 3.75 18.5869 4.45561 19.6115C4.73214 20.0131 5.07975 20.3607 5.48129 20.6372C6.50592 21.3428 7.94442 21.3428 10.8214 21.3428H13.1786C16.0556 21.3428 17.4941 21.3428 18.5187 20.6372C18.9203 20.3607 19.2679 20.0131 19.5444 19.6115C20.25 18.5869 20.25 17.1484 20.25 14.2714C20.25 11.3944 20.25 9.95587 19.5444 8.93125C19.2679 8.5297 18.9203 8.18209 18.5187 7.90557C17.4941 7.19995 16.0556 7.19995 13.1786 7.19995H10.8214C7.94442 7.19995 6.50592 7.19995 5.48129 7.90557C5.07975 8.18209 4.73214 8.5297 4.45561 8.93125ZM13.7141 13.3571C13.7141 13.9431 13.42 14.4604 12.9715 14.7696V16.7858H11.1429V14.8422C10.6303 14.5458 10.2855 13.9917 10.2855 13.3571C10.2855 12.4103 11.053 11.6428 11.9998 11.6428C12.9465 11.6428 13.7141 12.4103 13.7141 13.3571Z" fill="white"/>
</g>
<defs>
<clipPath id="clip0_6631_7527">
<rect width="24" height="24" fill="white"/>
</clipPath>
</defs>
</svg>
