<svg width="20" height="20" viewBox="0 0 20 20" fill="none" xmlns="http://www.w3.org/2000/svg">
<g clip-path="url(#clip0_6631_58980)">
<path d="M6.5 6.65V5.25C6.5 3.317 8.067 1.75 10 1.75C11.933 1.75 13.5 3.317 13.5 5.25V6.65" stroke="white" stroke-width="1.3" stroke-linejoin="round"/>
<path fill-rule="evenodd" clip-rule="evenodd" d="M3.64846 6.87868C2.76978 7.75736 2.76978 9.17157 2.76978 12V12.4C2.76978 15.2284 2.76978 16.6426 3.64846 17.5213C4.52713 18.4 5.94135 18.4 8.76977 18.4H11.2364C14.0649 18.4 15.4791 18.4 16.3578 17.5213C17.2364 16.6426 17.2364 15.2284 17.2364 12.4V12C17.2364 9.17157 17.2364 7.75736 16.3578 6.87868C15.4791 6 14.0649 6 11.2364 6H8.76977C5.94135 6 4.52713 6 3.64846 6.87868ZM11.4999 11.2501C11.4999 11.7629 11.2425 12.2156 10.85 12.4861V14.2504H9.24996V12.5494C8.80155 12.2901 8.49986 11.8053 8.49986 11.2501C8.49986 10.4216 9.17143 9.75006 9.99986 9.75006C10.8283 9.75006 11.4999 10.4216 11.4999 11.2501Z" fill="white"/>
</g>
<defs>
<clipPath id="clip0_6631_58980">
<rect width="20" height="20" fill="white"/>
</clipPath>
</defs>
</svg>
