<svg width="16" height="16" viewBox="0 0 16 16" fill="none" xmlns="http://www.w3.org/2000/svg">
<g clip-path="url(#clip0_6631_97353)">
<path d="M5.09424 5.46454V4.30325C5.09424 2.69984 6.39406 1.40002 7.99746 1.40002C9.60087 1.40002 10.9007 2.69984 10.9007 4.30325V5.46454" stroke="white" stroke-linejoin="round"/>
<path d="M2 10.0681C2 8.06339 2 7.06101 2.45983 6.3292C2.69961 5.94759 3.02229 5.6249 3.40391 5.38512C4.13572 4.92529 5.1381 4.92529 7.14285 4.92529H8.85715C10.8619 4.92529 11.8643 4.92529 12.5961 5.38512C12.9777 5.6249 13.3004 5.94759 13.5402 6.3292C14 7.06101 14 8.06339 14 10.0681C14 12.0729 14 13.0753 13.5402 13.8071C13.3004 14.1887 12.9777 14.5114 12.5961 14.7512C11.8643 15.211 10.8619 15.211 8.85715 15.211H7.14285C5.1381 15.211 4.13572 15.211 3.40391 14.7512C3.02229 14.5114 2.69961 14.1887 2.45983 13.8071C2 13.0753 2 12.0729 2 10.0681Z" stroke="white" stroke-linejoin="round"/>
<path fill-rule="evenodd" clip-rule="evenodd" d="M8.70229 10.3054C9.02794 10.081 9.24141 9.70551 9.24141 9.28013C9.24141 8.59295 8.68434 8.03589 7.99717 8.03589C7.30999 8.03589 6.75293 8.59295 6.75293 9.28013C6.75293 9.74069 7.00317 10.1428 7.3751 10.3579V11.7689H8.70229V10.3054Z" fill="white"/>
</g>
<defs>
<clipPath id="clip0_6631_97353">
<rect width="16" height="16" fill="white"/>
</clipPath>
</defs>
</svg>
