<svg width="53" height="20" viewBox="0 0 53 20" fill="none" xmlns="http://www.w3.org/2000/svg">
<g clip-path="url(#clip0_4821_112816)">
<path d="M26.9246 7.4643V8.30444C25.9767 7.66216 24.8294 7.28564 23.5936 7.28564C20.329 7.28564 17.6831 9.90793 17.6831 13.143C17.6831 16.378 20.329 19.0003 23.5936 19.0003C24.8294 19.0003 25.9752 18.6238 26.9246 17.9815V18.8216H29.947V7.4643H26.9246ZM23.8151 16.0015C22.2219 16.0015 20.93 14.7214 20.93 13.143C20.93 11.5646 22.2219 10.2844 23.8151 10.2844C25.4082 10.2844 26.7002 11.5646 26.7002 13.143C26.7002 14.7214 25.4082 16.0015 23.8151 16.0015Z" fill="white"/>
<path d="M49.5124 14.9884C49.0945 15.4461 48.5733 15.7724 48.123 15.9806C47.7273 16.1652 47.1706 16.2966 46.6509 16.2966C46.3586 16.2966 45.8905 16.2656 45.4653 16.1253C45.1198 16.0101 44.8407 15.8743 44.5587 15.6469C44.0198 15.2128 43.782 14.6045 43.782 14.0626H52.0476C52.0756 13.7378 52.0904 13.4838 52.0904 13.3037C52.0904 11.5038 51.4762 10.1425 50.4308 9.05575C49.3736 7.95723 47.8557 7.28394 46.2375 7.28394C44.7078 7.28394 43.2254 7.86421 42.0914 8.99964C40.956 10.1351 40.3757 11.6397 40.3757 13.1309C40.3757 14.6222 40.9752 16.1991 42.1224 17.3154C42.6688 17.8454 43.2889 18.2544 43.9518 18.5364C44.6724 18.8421 45.5332 18.9986 46.3187 18.9986C47.3272 18.9986 48.2411 18.8834 49.1462 18.4907C50.0779 18.0861 50.8324 17.587 51.5441 16.7735L49.5094 14.9899L49.5124 14.9884ZM43.782 11.9527C43.782 10.739 44.8791 9.98448 46.2331 9.98448C47.587 9.98448 48.6841 10.739 48.6841 11.9527C48.6841 11.9527 48.6841 11.9541 48.6841 11.9556H43.7806C43.7806 11.9556 43.7806 11.9541 43.7806 11.9527H43.782Z" fill="white"/>
<path d="M32.5652 18.8186V7.45975C32.5652 7.45975 32.5652 6.73035 32.5652 6.0674C32.5652 5.59491 32.639 4.80055 32.9018 4.10806C33.1543 3.44215 33.6002 2.8486 33.9295 2.50457C34.7785 1.62014 36.1871 1 37.609 1C38.6735 1 39.7263 1 39.7263 1V3.94122C39.7263 3.94122 38.8802 3.96484 38.4978 3.96484C37.5337 3.96484 36.8869 4.44323 36.664 4.68685C36.2609 5.12981 35.9479 5.65545 35.9479 6.52068C35.9479 6.83666 35.9479 7.45827 35.9479 7.45827H39.49V10.5959H39.0678H35.9479V18.8171H32.5652V18.8186Z" fill="white"/>
<path d="M9.71291 15.1909C7.0035 15.1909 4.80645 12.9939 4.80645 10.2844C4.80645 7.57505 7.0035 5.378 9.71291 5.378C11.3297 5.378 12.7634 6.16055 13.6582 7.36686L16.5314 4.85679C14.9353 2.85463 12.474 1.57007 9.71438 1.57007C4.90095 1.57007 1 5.47249 1 10.2844C1 15.0964 4.90243 18.9988 9.71438 18.9988C12.4755 18.9988 14.9353 17.7157 16.5314 15.7121L13.6582 13.202C12.7649 14.4084 11.3297 15.1909 9.71291 15.1909Z" fill="white"/>
<path d="M49.4874 1.00586H48.194C45.179 1.00586 43.3259 2.62116 43.3259 5.60372H44.6179C47.6093 5.60372 49.4874 4.04452 49.4874 1.00586Z" fill="white"/>
</g>
<defs>
<clipPath id="clip0_4821_112816">
<rect width="53" height="20" fill="white"/>
</clipPath>
</defs>
</svg>
