<svg width="37" height="16" viewBox="0 0 37 16" fill="none" xmlns="http://www.w3.org/2000/svg">
<g clip-path="url(#clip0_4821_112895)">
<path d="M18.9606 5.82904V6.37868C18.3405 5.95848 17.5899 5.71216 16.7814 5.71216C14.6456 5.71216 12.9146 7.42774 12.9146 9.5442C12.9146 11.6607 14.6456 13.3762 16.7814 13.3762C17.5899 13.3762 18.3395 13.1299 18.9606 12.7097V13.2594H20.938V5.82904H18.9606ZM16.9263 11.4143C15.884 11.4143 15.0387 10.5768 15.0387 9.5442C15.0387 8.51157 15.884 7.67406 16.9263 7.67406C17.9686 7.67406 18.8138 8.51157 18.8138 9.5442C18.8138 10.5768 17.9686 11.4143 16.9263 11.4143Z" fill="white"/>
<path d="M33.7382 10.7515C33.4649 11.051 33.1239 11.2645 32.8292 11.4007C32.5704 11.5214 32.2062 11.6074 31.8662 11.6074C31.6749 11.6074 31.3687 11.5871 31.0905 11.4954C30.8644 11.42 30.6819 11.3311 30.4974 11.1824C30.1448 10.8984 29.9893 10.5004 29.9893 10.1459H35.3968C35.4152 9.93336 35.4248 9.76721 35.4248 9.64936C35.4248 8.47183 35.023 7.5812 34.3391 6.87024C33.6474 6.15155 32.6544 5.71106 31.5957 5.71106C30.5949 5.71106 29.6251 6.09069 28.8832 6.83353C28.1404 7.57637 27.7607 8.5607 27.7607 9.53634C27.7607 10.512 28.1529 11.5437 28.9035 12.2739C29.2609 12.6207 29.6666 12.8883 30.1003 13.0728C30.5717 13.2728 31.1349 13.3751 31.6488 13.3751C32.3086 13.3751 32.9065 13.2998 33.4987 13.0429C34.1082 12.7782 34.6018 12.4517 35.0674 11.9194L33.7363 10.7525L33.7382 10.7515ZM29.9893 8.76549C29.9893 7.97145 30.707 7.47784 31.5928 7.47784C32.4786 7.47784 33.1963 7.97145 33.1963 8.76549C33.1963 8.76549 33.1963 8.76646 33.1963 8.76742H29.9883C29.9883 8.76742 29.9883 8.76646 29.9883 8.76549H29.9893Z" fill="white"/>
<path d="M22.6509 13.2574V5.82614C22.6509 5.82614 22.6509 5.34895 22.6509 4.91522C22.6509 4.60611 22.6992 4.08641 22.8711 3.63337C23.0363 3.19771 23.328 2.80938 23.5434 2.58431C24.0989 2.00569 25.0204 1.59998 25.9507 1.59998C26.6471 1.59998 27.3359 1.59998 27.3359 1.59998V3.52421C27.3359 3.52421 26.7824 3.53966 26.5322 3.53966C25.9014 3.53966 25.4783 3.85264 25.3324 4.01203C25.0687 4.30182 24.8639 4.64571 24.8639 5.21178C24.8639 5.4185 24.8639 5.82518 24.8639 5.82518H27.1813V7.87788H26.9051H24.8639V13.2565H22.6509V13.2574Z" fill="white"/>
<path d="M7.70025 10.8842C5.92768 10.8842 4.4903 9.44681 4.4903 7.67424C4.4903 5.90166 5.92768 4.46429 7.70025 4.46429C8.758 4.46429 9.69597 4.97626 10.2814 5.76546L12.1611 4.12329C11.1169 2.81343 9.50664 1.97302 7.70122 1.97302C4.55212 1.97302 2 4.52611 2 7.67424C2 10.8224 4.55309 13.3755 7.70122 13.3755C9.5076 13.3755 11.1169 12.536 12.1611 11.2252L10.2814 9.58302C9.69693 10.3722 8.758 10.8842 7.70025 10.8842Z" fill="white"/>
<path d="M33.722 1.60376H32.8758C30.9032 1.60376 29.6909 2.66054 29.6909 4.61182H30.5362C32.4932 4.61182 33.722 3.59175 33.722 1.60376Z" fill="white"/>
</g>
<defs>
<clipPath id="clip0_4821_112895">
<rect width="37" height="16" fill="white"/>
</clipPath>
</defs>
</svg>
