<svg width="68" height="24" viewBox="0 0 68 24" fill="none" xmlns="http://www.w3.org/2000/svg">
<path d="M34.1257 8.75978V9.83329C32.9145 9.01259 31.4486 8.53149 29.8694 8.53149C25.698 8.53149 22.3171 11.8822 22.3171 16.0159C22.3171 20.1495 25.698 23.5002 29.8694 23.5002C31.4486 23.5002 32.9126 23.0191 34.1257 22.1984V23.2719H37.9877V8.75978H34.1257ZM30.1524 19.6684C28.1167 19.6684 26.4659 18.0327 26.4659 16.0159C26.4659 13.999 28.1167 12.3633 30.1524 12.3633C32.1881 12.3633 33.8389 13.999 33.8389 16.0159C33.8389 18.0327 32.1881 19.6684 30.1524 19.6684Z" fill="white"/>
<path d="M62.9879 18.3741C62.4539 18.959 61.7879 19.3759 61.2125 19.6419C60.7069 19.8778 59.9956 20.0457 59.3315 20.0457C58.958 20.0457 58.3599 20.0061 57.8165 19.8268C57.3751 19.6797 57.0185 19.5061 56.6581 19.2156C55.9695 18.6609 55.6657 17.8836 55.6657 17.1912H66.2272C66.2631 16.7761 66.282 16.4516 66.282 16.2214C66.282 13.9216 65.4971 12.1821 64.1614 10.7935C62.8105 9.38986 60.871 8.52954 58.8033 8.52954C56.8487 8.52954 54.9545 9.271 53.5055 10.7218C52.0547 12.1727 51.3132 14.0952 51.3132 16.0007C51.3132 17.9062 52.0792 19.9212 53.5451 21.3475C54.2432 22.0248 55.0356 22.5474 55.8827 22.9077C56.8034 23.2983 57.9033 23.4983 58.907 23.4983C60.1956 23.4983 61.3634 23.3511 62.52 22.8493C63.7104 22.3323 64.6745 21.6946 65.5839 20.6551L62.9841 18.376L62.9879 18.3741ZM55.6657 14.4951C55.6657 12.9443 57.0675 11.9802 58.7976 11.9802C60.5277 11.9802 61.9294 12.9443 61.9294 14.4951C61.9294 14.4951 61.9294 14.497 61.9294 14.4989H55.6639C55.6639 14.4989 55.6639 14.497 55.6639 14.4951H55.6657Z" fill="white"/>
<path d="M41.3333 23.2682V8.75412C41.3333 8.75412 41.3333 7.82211 41.3333 6.975C41.3333 6.37127 41.4276 5.35625 41.7634 4.47141C42.086 3.62053 42.6558 2.86209 43.0765 2.4225C44.1613 1.2924 45.9612 0.5 47.7781 0.5C49.1383 0.5 50.4835 0.5 50.4835 0.5V4.25822C50.4835 4.25822 49.4025 4.28841 48.9138 4.28841C47.6818 4.28841 46.8555 4.89968 46.5706 5.21098C46.0556 5.77698 45.6556 6.44863 45.6556 7.55421C45.6556 7.95795 45.6556 8.75223 45.6556 8.75223H50.1817V12.7614H49.6421H45.6556V23.2663H41.3333V23.2682Z" fill="white"/>
<path d="M12.1332 18.6329C8.67114 18.6329 5.8638 15.8256 5.8638 12.3636C5.8638 8.90154 8.67114 6.0942 12.1332 6.0942C14.199 6.0942 16.031 7.09413 17.1743 8.63553L20.8457 5.42821C18.8063 2.86991 15.6612 1.22852 12.135 1.22852C5.98455 1.22852 1 6.21495 1 12.3636C1 18.5122 5.98643 23.4986 12.135 23.4986C15.6631 23.4986 18.8063 21.8591 20.8457 19.2989L17.1743 16.0916C16.0329 17.633 14.199 18.6329 12.1332 18.6329Z" fill="white"/>
<path d="M62.9558 0.507324H61.3031C57.4505 0.507324 55.0828 2.57133 55.0828 6.38237H56.7336C60.556 6.38237 62.9558 4.39006 62.9558 0.507324Z" fill="white"/>
</svg>
