<svg width="45" height="20" viewBox="0 0 45 20" fill="none" xmlns="http://www.w3.org/2000/svg">
<g clip-path="url(#clip0_3296_2546)">
<path d="M42.2374 6.09995L40.1508 10.8544L37.7909 6.09995H35.9749L39.3204 12.6946L37.9409 15.775H39.7034L43.9999 6.09995H42.2374ZM34.9704 13.45H33.2454V12.7642C32.624 13.3026 31.8766 13.6 30.9766 13.6C28.9115 13.6 27.299 11.9205 27.299 9.77495C27.299 7.62942 28.9141 5.94995 30.9766 5.94995C31.8766 5.94995 32.624 6.24727 33.2454 6.78567V6.09995H34.9704V13.45ZM33.449 9.77495C33.449 8.39013 32.482 7.33745 31.199 7.33745C29.9159 7.33745 28.949 8.39013 28.949 9.77495C28.949 11.1598 29.9159 12.2125 31.199 12.2125C32.482 12.2125 33.449 11.1598 33.449 9.77495ZM18.7275 15.775H20.5275V12.8258C21.1356 13.3241 21.8561 13.6 22.7213 13.6C24.7865 13.6 26.399 11.9205 26.399 9.77495C26.399 7.62942 24.7838 5.94995 22.7213 5.94995C21.8213 5.94995 21.074 6.24727 20.4525 6.78567V6.09995H18.7275V15.775ZM22.499 7.33745C23.782 7.33745 24.749 8.39013 24.749 9.77495C24.749 11.1598 23.782 12.2125 22.499 12.2125C21.2159 12.2125 20.249 11.1598 20.249 9.77495C20.249 8.39013 21.2159 7.33745 22.499 7.33745Z" fill="white"/>
<path d="M15.5 10C15.5 14.1411 12.1411 17.5 8 17.5C3.85893 17.5 0.5 14.1411 0.5 10C0.5 5.85893 3.85893 2.5 8 2.5C12.1411 2.5 15.5 5.85893 15.5 10ZM9.25357 6.475V10.2464L6.63393 6.475H4.47232V13.525H6.74375V9.75357L9.36339 13.525H11.525V6.475H9.25357Z" fill="white"/>
</g>
<defs>
<clipPath id="clip0_3296_2546">
<rect width="45" height="20" fill="white"/>
</clipPath>
</defs>
</svg>
