<svg width="40" height="16" viewBox="0 0 40 16" fill="none" xmlns="http://www.w3.org/2000/svg">
<path d="M37.0053 4.65373L35.2353 8.68683L33.2335 4.65373H31.693L34.5309 10.2478L33.3608 12.8608H34.8559L38.5004 4.65373H37.0053ZM30.8409 10.8886H29.3777V10.3069C28.8505 10.7636 28.2166 11.0158 27.4531 11.0158C25.7013 11.0158 24.3334 9.59116 24.3334 7.77115C24.3334 5.95114 25.7036 4.52649 27.4531 4.52649C28.2166 4.52649 28.8505 4.7787 29.3777 5.23541V4.65373H30.8409V10.8886ZM29.5503 7.77115C29.5503 6.59644 28.7301 5.70347 27.6417 5.70347C26.5534 5.70347 25.7331 6.59644 25.7331 7.77115C25.7331 8.94586 26.5534 9.83882 27.6417 9.83882C28.7301 9.83882 29.5503 8.94586 29.5503 7.77115ZM17.0625 12.8608H18.5894V10.3591C19.1052 10.7818 19.7164 11.0158 20.4503 11.0158C22.2021 11.0158 23.57 9.59116 23.57 7.77115C23.57 5.95114 22.1999 4.52649 20.4503 4.52649C19.6869 4.52649 19.0529 4.7787 18.5258 5.23541V4.65373H17.0625V12.8608ZM20.2617 5.70347C21.3501 5.70347 22.1703 6.59644 22.1703 7.77115C22.1703 8.94586 21.3501 9.83882 20.2617 9.83882C19.1733 9.83882 18.3531 8.94586 18.3531 7.77115C18.3531 6.59644 19.1733 5.70347 20.2617 5.70347Z" fill="white"/>
<path d="M14.3243 7.96205C14.3243 11.4748 11.4749 14.3241 7.96217 14.3241C4.4494 14.3241 1.6001 11.4748 1.6001 7.96205C1.6001 4.44928 4.4494 1.59998 7.96217 1.59998C11.4749 1.59998 14.3243 4.44928 14.3243 7.96205ZM9.02555 4.97188V8.17109L6.80337 4.97188H4.96973V10.9522H6.89653V7.75301L9.11871 10.9522H10.9524V4.97188H9.02555Z" fill="white"/>
</svg>
