<svg width="64" height="24" viewBox="0 0 64 24" fill="none" xmlns="http://www.w3.org/2000/svg">
<path d="M60.4326 7.04008L57.5113 13.6963L54.2076 7.04008H51.6651L56.3488 16.2726L54.4175 20.5851H56.885L62.9 7.04008H60.4326ZM50.2588 17.3301H47.8438V16.3701C46.9738 17.1238 45.9275 17.5401 44.6675 17.5401C41.7763 17.5401 39.5188 15.1888 39.5188 12.1851C39.5188 9.18133 41.78 6.83008 44.6675 6.83008C45.9275 6.83008 46.9738 7.24633 47.8438 8.00008V7.04008H50.2588V17.3301ZM48.1288 12.1851C48.1288 10.2463 46.775 8.77258 44.9788 8.77258C43.1825 8.77258 41.8288 10.2463 41.8288 12.1851C41.8288 14.1238 43.1825 15.5976 44.9788 15.5976C46.775 15.5976 48.1288 14.1238 48.1288 12.1851ZM27.5188 20.5851H30.0388V16.4563C30.89 17.1538 31.8988 17.5401 33.11 17.5401C36.0013 17.5401 38.2588 15.1888 38.2588 12.1851C38.2588 9.18133 35.9975 6.83008 33.11 6.83008C31.85 6.83008 30.8038 7.24633 29.9338 8.00008V7.04008H27.5188V20.5851ZM32.7988 8.77258C34.595 8.77258 35.9488 10.2463 35.9488 12.1851C35.9488 14.1238 34.595 15.5976 32.7988 15.5976C31.0025 15.5976 29.6488 14.1238 29.6488 12.1851C29.6488 10.2463 31.0025 8.77258 32.7988 8.77258Z" fill="white"/>
<path d="M23 12.5C23 18.2975 18.2975 23 12.5 23C6.7025 23 2 18.2975 2 12.5C2 6.7025 6.7025 2 12.5 2C18.2975 2 23 6.7025 23 12.5ZM14.255 7.565V12.845L10.5875 7.565H7.56125V17.435H10.7413V12.155L14.4088 17.435H17.435V7.565H14.255Z" fill="white"/>
</svg>
