<svg width="24" height="24" viewBox="0 0 24 24" fill="none" xmlns="http://www.w3.org/2000/svg">
<g clip-path="url(#clip0_133_8320)">
<path fill-rule="evenodd" clip-rule="evenodd" d="M5 6.5C4.44772 6.5 4 6.94772 4 7.5V9.5376C4 10.0899 4.44772 10.5376 5 10.5376H19C19.5523 10.5376 20 10.0899 20 9.5376V7.5C20 6.94772 19.5523 6.5 19 6.5H5ZM5 13.4624C4.44772 13.4624 4 13.9101 4 14.4624V16.5C4 17.0523 4.44772 17.5 5 17.5H19C19.5523 17.5 20 17.0523 20 16.5V14.4624C20 13.9101 19.5523 13.4624 19 13.4624H5Z" fill="white"/>
</g>
<defs>
<clipPath id="clip0_133_8320">
<rect width="24" height="24" fill="white"/>
</clipPath>
</defs>
</svg>
