<svg width="20" height="20" viewBox="0 0 20 20" fill="none" xmlns="http://www.w3.org/2000/svg">
<g clip-path="url(#clip0_3243_97467)">
<path fill-rule="evenodd" clip-rule="evenodd" d="M4.3 5.8999C3.85817 5.8999 3.5 6.25807 3.5 6.6999V8.0999C3.5 8.54173 3.85817 8.8999 4.3 8.8999H11.5C11.9418 8.8999 12.3 8.54173 12.3 8.0999V6.6999C12.3 6.25807 11.9418 5.8999 11.5 5.8999H4.3ZM15.7 5.8999C16.1418 5.8999 16.5 6.25807 16.5 6.6999V8.0999C16.5 8.54173 16.1418 8.8999 15.7 8.8999H14.3C13.8582 8.8999 13.5 8.54173 13.5 8.0999V6.6999C13.5 6.25807 13.8582 5.8999 14.3 5.8999H15.7ZM3.5 11.9499C3.5 11.5081 3.85817 11.1499 4.3 11.1499H11.5C11.9418 11.1499 12.3 11.5081 12.3 11.9499V13.3499C12.3 13.7917 11.9418 14.1499 11.5 14.1499H4.3C3.85817 14.1499 3.5 13.7917 3.5 13.3499V11.9499ZM15.7 11.1499C16.1418 11.1499 16.5 11.5081 16.5 11.9499V13.3499C16.5 13.7917 16.1418 14.1499 15.7 14.1499H14.3C13.8582 14.1499 13.5 13.7917 13.5 13.3499V11.9499C13.5 11.5081 13.8582 11.1499 14.3 11.1499H15.7Z" fill="white"/>
</g>
<defs>
<clipPath id="clip0_3243_97467">
<rect width="20" height="20" fill="white"/>
</clipPath>
</defs>
</svg>
