<svg width="24" height="24" viewBox="0 0 24 24" fill="none" xmlns="http://www.w3.org/2000/svg">
<g clip-path="url(#clip0_713_151665)">
<path fill-rule="evenodd" clip-rule="evenodd" d="M14.1786 5.06006C13.6263 5.06006 13.1786 5.50777 13.1786 6.06006V9.76006C13.1786 10.3123 13.6263 10.7601 14.1786 10.7601H17.8786C18.4309 10.7601 18.8786 10.3123 18.8786 9.76006V6.06006C18.8786 5.50777 18.4309 5.06006 17.8786 5.06006H14.1786ZM6.12 5.18066C5.56771 5.18066 5.12 5.62838 5.12 6.18066V9.88066C5.12 10.4329 5.56771 10.8807 6.12 10.8807H9.81999C10.3723 10.8807 10.82 10.4329 10.82 9.88066V6.18066C10.82 5.62838 10.3723 5.18066 9.81999 5.18066H6.12ZM5.12 14.2432C5.12 13.6909 5.56771 13.2432 6.12 13.2432H9.81999C10.3723 13.2432 10.82 13.6909 10.82 14.2432V17.9432C10.82 18.4954 10.3723 18.9432 9.81999 18.9432H6.12C5.56771 18.9432 5.12 18.4954 5.12 17.9432V14.2432ZM14.1786 13.2432C13.6263 13.2432 13.1786 13.6909 13.1786 14.2432V17.9432C13.1786 18.4954 13.6263 18.9432 14.1786 18.9432H17.8786C18.4309 18.9432 18.8786 18.4954 18.8786 17.9432V14.2432C18.8786 13.6909 18.4309 13.2432 17.8786 13.2432H14.1786Z" fill="white"/>
</g>
<defs>
<clipPath id="clip0_713_151665">
<rect width="24" height="24" fill="white"/>
</clipPath>
</defs>
</svg>
