<svg width="20" height="20" viewBox="0 0 20 20" fill="none" xmlns="http://www.w3.org/2000/svg">
<g clip-path="url(#clip0_3243_97611)">
<path fill-rule="evenodd" clip-rule="evenodd" d="M5.69999 4.8999C5.25817 4.8999 4.89999 5.25807 4.89999 5.6999V8.5999C4.89999 9.04173 5.25817 9.3999 5.69999 9.3999H8.59999C9.04182 9.3999 9.39999 9.04173 9.39999 8.5999V5.6999C9.39999 5.25807 9.04182 4.8999 8.59999 4.8999H5.69999ZM11.4 4.8999C10.9582 4.8999 10.6 5.25807 10.6 5.6999V8.5999C10.6 9.04173 10.9582 9.3999 11.4 9.3999H14.3C14.7418 9.3999 15.1 9.04173 15.1 8.5999V5.6999C15.1 5.25807 14.7418 4.8999 14.3 4.8999H11.4ZM4.89999 11.3999C4.89999 10.958 5.25817 10.5999 5.69999 10.5999H8.59999C9.04182 10.5999 9.39999 10.958 9.39999 11.3999V14.2999C9.39999 14.7417 9.04182 15.0999 8.59999 15.0999H5.69999C5.25817 15.0999 4.89999 14.7417 4.89999 14.2999V11.3999ZM11.4 10.5999C10.9582 10.5999 10.6 10.958 10.6 11.3999V14.2999C10.6 14.7417 10.9582 15.0999 11.4 15.0999H14.3C14.7418 15.0999 15.1 14.7417 15.1 14.2999V11.3999C15.1 10.958 14.7418 10.5999 14.3 10.5999H11.4Z" fill="white"/>
</g>
<defs>
<clipPath id="clip0_3243_97611">
<rect width="20" height="20" fill="white"/>
</clipPath>
</defs>
</svg>
