<svg width="20" height="20" viewBox="0 0 20 20" fill="none" xmlns="http://www.w3.org/2000/svg">
<g clip-path="url(#clip0_3243_97540)">
<path fill-rule="evenodd" clip-rule="evenodd" d="M4.3 5.8999C3.85817 5.8999 3.5 6.25807 3.5 6.6999V8.0999C3.5 8.54173 3.85817 8.8999 4.3 8.8999H15.7C16.1418 8.8999 16.5 8.54173 16.5 8.0999V6.6999C16.5 6.25807 16.1418 5.8999 15.7 5.8999H4.3ZM4.3 11.1499C3.85817 11.1499 3.5 11.5081 3.5 11.9499V13.3499C3.5 13.7917 3.85817 14.1499 4.3 14.1499L15.7 14.1499C16.1418 14.1499 16.5 13.7917 16.5 13.3499V11.9499C16.5 11.5081 16.1418 11.1499 15.7 11.1499L4.3 11.1499Z" fill="white"/>
</g>
<defs>
<clipPath id="clip0_3243_97540">
<rect width="20" height="20" fill="white"/>
</clipPath>
</defs>
</svg>
