<svg width="16" height="16" viewBox="0 0 16 16" fill="none" xmlns="http://www.w3.org/2000/svg">
<g clip-path="url(#clip0_3292_6496)">
<path fill-rule="evenodd" clip-rule="evenodd" d="M3.6 4.59998C3.26863 4.59998 3 4.8686 3 5.19998V6.49998C3 6.83135 3.26863 7.09998 3.6 7.09998H12.4C12.7314 7.09998 13 6.83135 13 6.49998V5.19998C13 4.8686 12.7314 4.59998 12.4 4.59998H3.6ZM3.6 8.97498C3.26863 8.97498 3 9.2436 3 9.57498V10.875C3 11.2063 3.26863 11.475 3.6 11.475H12.4C12.7314 11.475 13 11.2063 13 10.875V9.57498C13 9.2436 12.7314 8.97498 12.4 8.97498H3.6Z" fill="white"/>
</g>
<defs>
<clipPath id="clip0_3292_6496">
<rect width="16" height="16" fill="white"/>
</clipPath>
</defs>
</svg>
