<svg width="24" height="24" viewBox="0 0 24 24" fill="none" xmlns="http://www.w3.org/2000/svg">
<g clip-path="url(#clip0_713_151594)">
<path fill-rule="evenodd" clip-rule="evenodd" d="M5 6.5C4.44772 6.5 4 6.94772 4 7.5V9.5C4 10.0523 4.44771 10.5 5 10.5H12.7C13.2523 10.5 13.7 10.0523 13.7 9.5V7.5C13.7 6.94772 13.2523 6.5 12.7 6.5H5ZM19 6.5C19.5523 6.5 20 6.94772 20 7.5V9.5C20 10.0523 19.5523 10.5 19 10.5H17C16.4477 10.5 16 10.0523 16 9.5V7.5C16 6.94772 16.4477 6.5 17 6.5H19ZM4 14.5C4 13.9477 4.44772 13.5 5 13.5H12.7C13.2523 13.5 13.7 13.9477 13.7 14.5V16.5C13.7 17.0523 13.2523 17.5 12.7 17.5H5C4.44771 17.5 4 17.0523 4 16.5V14.5ZM19 13.5C19.5523 13.5 20 13.9477 20 14.5V16.5C20 17.0523 19.5523 17.5 19 17.5H17C16.4477 17.5 16 17.0523 16 16.5V14.5C16 13.9477 16.4477 13.5 17 13.5H19Z" fill="white"/>
</g>
<defs>
<clipPath id="clip0_713_151594">
<rect width="24" height="24" fill="white"/>
</clipPath>
</defs>
</svg>
