<svg width="16" height="16" viewBox="0 0 16 16" fill="none" xmlns="http://www.w3.org/2000/svg">
<g clip-path="url(#clip0_3292_6423)">
<path fill-rule="evenodd" clip-rule="evenodd" d="M3.6 4.59998C3.26863 4.59998 3 4.8686 3 5.19998V6.49998C3 6.83135 3.26863 7.09998 3.6 7.09998H8.4625C8.79387 7.09998 9.0625 6.83135 9.0625 6.49998V5.19998C9.0625 4.8686 8.79387 4.59998 8.4625 4.59998H3.6ZM12.4 4.59998C12.7314 4.59998 13 4.8686 13 5.19998V6.49998C13 6.83135 12.7314 7.09998 12.4 7.09998H11.1C10.7686 7.09998 10.5 6.83135 10.5 6.49998V5.19998C10.5 4.8686 10.7686 4.59998 11.1 4.59998H12.4ZM3 9.57498C3 9.2436 3.26863 8.97498 3.6 8.97498H8.4625C8.79387 8.97498 9.0625 9.2436 9.0625 9.57498V10.875C9.0625 11.2063 8.79387 11.475 8.4625 11.475H3.6C3.26863 11.475 3 11.2063 3 10.875V9.57498ZM12.4 8.97498C12.7314 8.97498 13 9.2436 13 9.57498V10.875C13 11.2063 12.7314 11.475 12.4 11.475H11.1C10.7686 11.475 10.5 11.2063 10.5 10.875V9.57498C10.5 9.2436 10.7686 8.97498 11.1 8.97498H12.4Z" fill="white"/>
</g>
<defs>
<clipPath id="clip0_3292_6423">
<rect width="16" height="16" fill="white"/>
</clipPath>
</defs>
</svg>
