<svg width="24" height="24" viewBox="0 0 24 24" fill="none" xmlns="http://www.w3.org/2000/svg">
<path fill-rule="evenodd" clip-rule="evenodd" d="M2.84976 5.20752C2.84976 4.57239 3.36463 4.05752 3.99976 4.05752H13.7002C14.3354 4.05752 14.8502 4.57239 14.8502 5.20752V6.20752C14.8502 6.67696 15.2308 7.05752 15.7002 7.05752C16.1697 7.05752 16.5502 6.67696 16.5502 6.20752V5.20752C16.5502 3.63351 15.2743 2.35752 13.7002 2.35752H3.99976C2.42574 2.35752 1.14976 3.63351 1.14976 5.20752V19.2075C1.14976 20.7815 2.42574 22.0575 3.99976 22.0575H13.7002C15.2743 22.0575 16.5502 20.7815 16.5502 19.2075V18.5C16.5502 18.0306 16.1697 17.65 15.7002 17.65C15.2308 17.65 14.8502 18.0306 14.8502 18.5V19.2075C14.8502 19.8426 14.3354 20.3575 13.7002 20.3575H3.99976C3.36463 20.3575 2.84976 19.8426 2.84976 19.2075V5.20752ZM18.299 7.89899C18.631 7.56705 19.1691 7.56705 19.5011 7.89899L22.9304 11.3283C23.3014 11.6993 23.3014 12.3008 22.9304 12.6718L19.5011 16.1011C19.1691 16.433 18.631 16.433 18.299 16.1011C17.9671 15.7691 17.9671 15.2309 18.299 14.899L20.348 12.85H11C10.5306 12.85 10.15 12.4695 10.15 12C10.15 11.5306 10.5306 11.15 11 11.15H20.348L18.299 9.10108C17.9671 8.76913 17.9671 8.23094 18.299 7.89899Z" fill="white"/>
</svg>
