<svg width="20" height="20" viewBox="0 0 20 20" fill="none" xmlns="http://www.w3.org/2000/svg">
<path fill-rule="evenodd" clip-rule="evenodd" d="M2.8501 5.03213C2.8501 4.28654 3.45451 3.68213 4.2001 3.68213H10.6987C11.4442 3.68213 12.0487 4.28654 12.0487 5.03213V5.331C12.0487 5.68999 12.3397 5.981 12.6987 5.981C13.0576 5.981 13.3487 5.68999 13.3487 5.331V5.03213C13.3487 3.56858 12.1622 2.38213 10.6987 2.38213H4.2001C2.73654 2.38213 1.5501 3.56857 1.5501 5.03213V14.8254C1.5501 16.2889 2.73654 17.4754 4.2001 17.4754H10.6987C12.1622 17.4754 13.3487 16.2889 13.3487 14.8254V14.7506C13.3487 14.3916 13.0576 14.1006 12.6987 14.1006C12.3397 14.1006 12.0487 14.3916 12.0487 14.7506V14.8254C12.0487 15.5709 11.4442 16.1754 10.6987 16.1754H4.2001C3.45451 16.1754 2.8501 15.5709 2.8501 14.8254V5.03213ZM14.691 6.6281C14.9448 6.37426 15.3564 6.37426 15.6102 6.6281L18.2215 9.23941C18.5144 9.5323 18.5144 10.0072 18.2215 10.3001L15.6102 12.9114C15.3564 13.1652 14.9448 13.1652 14.691 12.9114C14.4371 12.6575 14.4371 12.246 14.691 11.9921L16.2634 10.4197H9.09698C8.738 10.4197 8.44698 10.1287 8.44698 9.76974C8.44698 9.41075 8.738 9.11974 9.09698 9.11974H16.2634L14.691 7.54734C14.4371 7.2935 14.4371 6.88194 14.691 6.6281Z" fill="white"/>
</svg>
