<svg width="16" height="16" viewBox="0 0 16 16" fill="none" xmlns="http://www.w3.org/2000/svg">
<path fill-rule="evenodd" clip-rule="evenodd" d="M2.4 4.45C2.4 3.59396 3.09396 2.9 3.95 2.9H8.51271C9.28034 2.9 9.90264 3.52229 9.90264 4.28993C9.90264 4.53846 10.1041 4.73993 10.3526 4.73993C10.6012 4.73993 10.8026 4.53846 10.8026 4.28993C10.8026 3.02524 9.7774 2 8.51271 2H3.95C2.5969 2 1.5 3.0969 1.5 4.45V11.4896C1.5 12.8427 2.5969 13.9396 3.95 13.9396H8.69209C9.85771 13.9396 10.8026 12.9946 10.8026 11.829C10.8026 11.5805 10.6012 11.379 10.3526 11.379C10.1041 11.379 9.90264 11.5805 9.90264 11.829C9.90264 12.4976 9.36066 13.0396 8.69209 13.0396H3.95C3.09396 13.0396 2.4 12.3456 2.4 11.4896V4.45ZM11.9968 5.37773C12.1725 5.20199 12.4574 5.20199 12.6332 5.37773L14.709 7.4536C14.9238 7.66839 14.9238 8.01663 14.709 8.23142L12.6332 10.3073C12.4574 10.483 12.1725 10.483 11.9968 10.3073C11.821 10.1316 11.821 9.84663 11.9968 9.67089L13.3752 8.2925H7.4698C7.22127 8.2925 7.0198 8.09103 7.0198 7.8425C7.0198 7.59397 7.22127 7.3925 7.4698 7.3925H13.3751L11.9968 6.01413C11.821 5.83839 11.821 5.55347 11.9968 5.37773Z" fill="white"/>
</svg>
