<svg width="24" height="24" viewBox="0 0 24 24" fill="none" xmlns="http://www.w3.org/2000/svg">
<g clip-path="url(#clip0_162_21402)">
<path d="M12.0001 20H21.5001" stroke="white" stroke-width="1.7" stroke-linecap="round"/>
<path d="M16.7858 3.64386C15.8752 2.73592 14.4009 2.73814 13.493 3.64881C10.4006 6.7505 4.76307 12.3822 2.77251 14.3702C2.30551 14.8366 2.00625 15.4428 1.91769 16.0968C1.80949 16.8959 1.68398 17.8117 1.57588 18.5973C1.44805 19.5263 2.25097 20.3168 3.17841 20.1783C3.95686 20.062 4.85884 19.9297 5.6333 19.8227C6.29383 19.7314 6.90891 19.4328 7.38146 18.9624C9.38223 16.9704 15.0152 11.361 18.1054 8.27085C19.0112 7.36508 19.0152 5.89778 18.1144 4.98704L16.7858 3.64386Z" stroke="white" stroke-width="1.7"/>
<path d="M11.6685 5.56153L16.2843 10.1764" stroke="white" stroke-width="1.7"/>
</g>
<defs>
<clipPath id="clip0_162_21402">
<rect width="24" height="24" fill="white"/>
</clipPath>
</defs>
</svg>
