<svg width="16" height="16" viewBox="0 0 16 16" fill="none" xmlns="http://www.w3.org/2000/svg">
<g clip-path="url(#clip0_3292_5711)">
<path d="M8.00012 11.6H12.8001" stroke="white" stroke-width="0.9" stroke-linecap="round"/>
<path d="M10.5828 3.58358C10.1488 3.15085 9.44616 3.1519 9.01343 3.58594C7.70328 4.90003 5.43459 7.16696 4.28038 8.31989C3.81342 8.78634 3.51407 9.39287 3.42469 10.0468L3.33965 10.6669C3.27576 11.1314 3.67705 11.5267 4.14079 11.4575C4.32986 11.4293 4.5327 11.3994 4.73401 11.3703C5.39393 11.2746 6.00922 10.9756 6.48173 10.5051C7.63998 9.35175 9.90379 7.09681 11.2118 5.78884C11.6435 5.35714 11.6454 4.65781 11.2161 4.22375L10.5828 3.58358Z" stroke="white" stroke-width="0.9"/>
<path d="M8.14393 4.49743L10.3439 6.6969" stroke="white" stroke-width="0.9"/>
</g>
<defs>
<clipPath id="clip0_3292_5711">
<rect width="16" height="16" fill="white"/>
</clipPath>
</defs>
</svg>
