<svg width="20" height="20" viewBox="0 0 20 20" fill="none" xmlns="http://www.w3.org/2000/svg">
<g clip-path="url(#clip0_3243_96812)">
<path d="M11 15.6665H18" stroke="white" stroke-width="1.3" stroke-linecap="round"/>
<path fill-rule="evenodd" clip-rule="evenodd" d="M11.6543 2.32781C12.3855 1.59444 13.5727 1.59265 14.3061 2.32382L15.376 3.40551C16.1015 4.13894 16.0982 5.32058 15.3688 6.05001C15.0715 6.34727 14.745 6.67348 14.3978 7.02021L10.681 3.30336C11.0291 2.95469 11.3564 2.62667 11.6543 2.32781ZM9.62094 4.36465C7.27704 6.71046 4.45669 9.52798 3.15899 10.8241C2.692 11.2905 2.39475 11.8947 2.30596 12.5487C2.21716 13.2028 2.11744 13.9296 2.03397 14.5357C1.94259 15.1993 2.51612 15.7639 3.17852 15.6646C3.77762 15.5747 4.49166 15.4694 5.12622 15.3805C5.78658 15.288 6.39957 14.9917 6.87212 14.5212C8.17565 13.2234 10.9943 10.4164 13.3362 8.07987L9.62094 4.36465Z" fill="white"/>
</g>
<defs>
<clipPath id="clip0_3243_96812">
<rect width="20" height="20" fill="white"/>
</clipPath>
</defs>
</svg>
