<svg width="24" height="24" viewBox="0 0 24 24" fill="none" xmlns="http://www.w3.org/2000/svg">
<g clip-path="url(#clip0_236_29340)">
<path d="M12.0001 20H21.5001" stroke="white" stroke-width="1.7" stroke-linecap="round"/>
<path fill-rule="evenodd" clip-rule="evenodd" d="M13.0681 3.22533C14.21 2.08 16.0641 2.07721 17.2095 3.2191L17.2124 3.22205L17.2124 3.22206L18.541 4.56526C19.6739 5.71068 19.6688 7.55608 18.5297 8.69526C18.1443 9.08065 17.7194 9.5052 17.2669 9.95702L11.803 4.49317C12.2564 4.03913 12.682 3.61251 13.0681 3.22533ZM10.6017 5.69597C7.57249 8.72771 3.8806 12.4157 2.34852 13.9458C1.78799 14.5057 1.42922 15.2329 1.32312 16.0165C1.21501 16.8149 1.08957 17.7302 0.981492 18.5157C0.798856 19.843 1.9455 20.9692 3.26706 20.7718C4.0447 20.6557 4.9442 20.5238 5.71547 20.4172C6.50141 20.3085 7.23732 19.9527 7.8048 19.3877C9.34445 17.8549 13.0357 14.1792 16.0637 11.158L10.6017 5.69597Z" fill="white"/>
</g>
<defs>
<clipPath id="clip0_236_29340">
<rect width="24" height="24" fill="white"/>
</clipPath>
</defs>
</svg>
