<svg width="20" height="20" viewBox="0 0 20 20" fill="none" xmlns="http://www.w3.org/2000/svg">
<g clip-path="url(#clip0_3243_96740)">
<g clip-path="url(#clip1_3243_96740)">
<path d="M11 15.6665H18" stroke="white" stroke-width="1.3" stroke-linecap="round"/>
<path d="M14.3061 2.32388C13.5727 1.5927 12.3855 1.59449 11.6543 2.32787C9.23209 4.75739 4.8708 9.11443 3.15899 10.8241C2.692 11.2906 2.39475 11.8948 2.30596 12.5488C2.21716 13.2029 2.11744 13.9296 2.03397 14.5358C1.94259 15.1993 2.51612 15.7639 3.17852 15.6646C3.77762 15.5748 4.49166 15.4695 5.12622 15.3806C5.78658 15.288 6.39957 14.9917 6.87211 14.5212C8.59186 12.809 12.9487 8.47018 15.3688 6.05006C16.0982 5.32063 16.1015 4.13899 15.376 3.40556L14.3061 2.32388Z" stroke="white" stroke-width="1.3"/>
<path d="M10.1851 3.86807L13.9023 7.58447" stroke="white" stroke-width="1.3"/>
</g>
</g>
<defs>
<clipPath id="clip0_3243_96740">
<rect width="20" height="20" fill="white"/>
</clipPath>
<clipPath id="clip1_3243_96740">
<rect width="20" height="20" fill="white"/>
</clipPath>
</defs>
</svg>
