<svg width="16" height="16" viewBox="0 0 16 16" fill="none" xmlns="http://www.w3.org/2000/svg">
<g clip-path="url(#clip0_3292_5782)">
<path d="M8.00012 11.6H12.8001" stroke="white" stroke-width="0.9" stroke-linecap="round"/>
<path fill-rule="evenodd" clip-rule="evenodd" d="M4.1408 11.4575C3.67707 11.5266 3.27578 11.1313 3.33966 10.6669L3.42471 10.0467C3.51408 9.39279 3.81343 8.78626 4.2804 8.31981C5.12816 7.47299 6.57717 6.02518 7.80599 4.79537L10.0048 6.99414C8.77835 8.21776 7.3321 9.65826 6.48175 10.505C6.00923 10.9755 5.39394 11.2746 4.73402 11.3702C4.53271 11.3993 4.32988 11.4293 4.1408 11.4575ZM10.6418 6.35834C10.8455 6.15485 11.0372 5.96337 11.2118 5.78876C11.6435 5.35706 11.6454 4.65774 11.2161 4.22367L10.5829 3.5835C10.1488 3.15077 9.44617 3.15183 9.01344 3.58586C8.83842 3.76141 8.6463 3.95396 8.44201 4.15859L10.6418 6.35834Z" fill="white"/>
</g>
<defs>
<clipPath id="clip0_3292_5782">
<rect width="16" height="16" fill="white"/>
</clipPath>
</defs>
</svg>
