<svg width="24" height="24" viewBox="0 0 24 24" fill="none" xmlns="http://www.w3.org/2000/svg">
<path fill-rule="evenodd" clip-rule="evenodd" d="M2.19995 6.99995C2.19995 4.34898 4.34898 2.19995 6.99995 2.19995H17C19.6509 2.19995 21.7999 4.34898 21.7999 6.99995V17C21.7999 19.6509 19.6509 21.7999 17 21.7999H6.99995C4.34898 21.7999 2.19995 19.6509 2.19995 17V6.99995ZM20.4998 16.2662V16.5C20.4998 18.7091 18.7089 20.5 16.4998 20.5H7.49976C5.29062 20.5 3.49976 18.7091 3.49976 16.5V14.8183L8.00122 9.13223C8.40159 8.6265 9.16894 8.6265 9.56931 9.13223L13.9728 14.6945L15.77 12.7775C16.1651 12.3561 16.834 12.3561 17.2291 12.7775L20.4998 16.2662ZM16.8213 9.42852C17.7089 9.42852 18.4284 8.70898 18.4284 7.82138C18.4284 6.93378 17.7089 6.21423 16.8213 6.21423C15.9337 6.21423 15.2141 6.93378 15.2141 7.82138C15.2141 8.70898 15.9337 9.42852 16.8213 9.42852Z" fill="white"/>
</svg>
