<svg width="20" height="20" viewBox="0 0 20 20" fill="none" xmlns="http://www.w3.org/2000/svg">
<path fill-rule="evenodd" clip-rule="evenodd" d="M3 6.42857C3 4.53502 4.53502 3 6.42857 3H13.5714C15.465 3 17 4.53502 17 6.42857V13.5714C17 13.8728 16.9611 14.1651 16.8881 14.4436L13.7526 10.8601C13.3542 10.4048 12.6458 10.4048 12.2474 10.8601L11.0725 12.2029L8.26194 8.89642C7.86261 8.42662 7.13739 8.42662 6.73806 8.89642L3 13.2941V6.42857ZM13.25 8C13.9404 8 14.5 7.44036 14.5 6.75C14.5 6.05964 13.9404 5.5 13.25 5.5C12.5596 5.5 12 6.05964 12 6.75C12 7.44036 12.5596 8 13.25 8Z" fill="white"/>
<rect x="3" y="3" width="14" height="14" rx="3.5" stroke="white" stroke-width="1.2"/>
</svg>
