<svg width="16" height="16" viewBox="0 0 16 16" fill="none" xmlns="http://www.w3.org/2000/svg">
<path fill-rule="evenodd" clip-rule="evenodd" d="M2.3999 5.14288C2.3999 3.62804 3.62792 2.40002 5.14276 2.40002H10.857C12.3719 2.40002 13.5999 3.62804 13.5999 5.14288V10.8572C13.5999 11.0983 13.5688 11.3321 13.5104 11.5549L11.1525 8.86013C10.7541 8.4048 10.0457 8.4048 9.64733 8.86013L8.85787 9.76236L6.76184 7.29644C6.36251 6.82664 5.63729 6.82664 5.23796 7.29644L2.3999 10.6353V5.14288ZM10.5999 6.40002C11.1522 6.40002 11.5999 5.95231 11.5999 5.40002C11.5999 4.84774 11.1522 4.40002 10.5999 4.40002C10.0476 4.40002 9.5999 4.84774 9.5999 5.40002C9.5999 5.95231 10.0476 6.40002 10.5999 6.40002Z" fill="white"/>
<rect x="2.3999" y="2.40002" width="11.2" height="11.2" rx="3.3" stroke="white" stroke-width="1.2"/>
</svg>
