<svg width="20" height="20" viewBox="0 0 20 20" fill="none" xmlns="http://www.w3.org/2000/svg">
<g clip-path="url(#clip0_3905_94768)">
<path fill-rule="evenodd" clip-rule="evenodd" d="M9.99254 1.8999C6.09751 1.8999 2.87988 5.18586 2.87988 8.97237C2.87988 10.5462 3.57036 12.0351 4.61125 13.4202C5.6534 14.8069 7.08956 16.1465 8.68224 17.4353C9.44625 18.0536 10.5377 18.0548 11.3032 17.4386C12.9169 16.1397 14.357 14.7999 15.3977 13.4147C16.4379 12.0302 17.1197 10.546 17.1197 8.97237C17.1197 5.20424 13.8581 1.8999 9.99254 1.8999ZM10.0102 6.3501C8.60188 6.3501 7.46021 7.49177 7.46021 8.9001C7.46021 10.3084 8.60188 11.4501 10.0102 11.4501C11.4185 11.4501 12.5602 10.3084 12.5602 8.9001C12.5602 7.49177 11.4185 6.3501 10.0102 6.3501Z" fill="white"/>
</g>
<defs>
<clipPath id="clip0_3905_94768">
<rect width="20" height="20" fill="white"/>
</clipPath>
</defs>
</svg>
