<svg width="24" height="24" viewBox="0 0 24 24" fill="none" xmlns="http://www.w3.org/2000/svg">
<g clip-path="url(#clip0_3905_94617)">
<path fill-rule="evenodd" clip-rule="evenodd" d="M12.0022 0.75C6.52479 0.75 2 5.37087 2 10.6957C2 12.9089 2.97098 15.0027 4.43473 16.9504C5.90026 18.9004 7.91986 20.7842 10.1596 22.5967C11.234 23.4661 12.7688 23.4679 13.8453 22.6013C16.1146 20.7747 18.1397 18.8906 19.6031 16.9427C21.0659 14.9957 22.0248 12.9086 22.0248 10.6957C22.0248 5.39673 17.4381 0.75 12.0022 0.75ZM12.01 6.75C9.93894 6.75 8.26001 8.42893 8.26001 10.5C8.26001 12.5711 9.93894 14.25 12.01 14.25C14.0811 14.25 15.76 12.5711 15.76 10.5C15.76 8.42893 14.0811 6.75 12.01 6.75Z" fill="white"/>
</g>
<defs>
<clipPath id="clip0_3905_94617">
<rect width="24" height="24" fill="white"/>
</clipPath>
</defs>
</svg>
