<svg width="16" height="16" viewBox="0 0 16 16" fill="none" xmlns="http://www.w3.org/2000/svg">
<g clip-path="url(#clip0_3905_94915)">
<path fill-rule="evenodd" clip-rule="evenodd" d="M7.99408 1.52002C4.87806 1.52002 2.30396 4.14878 2.30396 7.178C2.30396 8.43708 2.85634 9.62821 3.68905 10.7362C4.52277 11.8456 5.6717 12.9173 6.94584 13.9483C7.55705 14.443 8.43022 14.444 9.04263 13.951C10.3336 12.9119 11.4856 11.84 12.3182 10.7319C13.1504 9.62424 13.6958 8.43692 13.6958 7.178C13.6958 4.16349 11.0865 1.52002 7.99408 1.52002ZM8 4.90002C6.89543 4.90002 6 5.79545 6 6.90002C6 8.00459 6.89543 8.90002 8 8.90002C9.10457 8.90002 10 8.00459 10 6.90002C10 5.79545 9.10457 4.90002 8 4.90002Z" fill="white"/>
</g>
<defs>
<clipPath id="clip0_3905_94915">
<rect width="16" height="16" fill="white"/>
</clipPath>
</defs>
</svg>
