<svg width="16" height="16" viewBox="0 0 16 16" fill="none" xmlns="http://www.w3.org/2000/svg">
<g clip-path="url(#clip0_3292_8306)">
<rect x="2.45" y="2.45" width="4.7" height="4.7" rx="1.75" stroke="white" stroke-width="0.9"/>
<rect x="2.45" y="8.85002" width="4.7" height="4.7" rx="1.75" stroke="white" stroke-width="0.9"/>
<rect x="8.85002" y="2.45" width="4.7" height="4.7" rx="1.75" stroke="white" stroke-width="0.9"/>
<path fill-rule="evenodd" clip-rule="evenodd" d="M8.96313 8.46313C8.68699 8.46313 8.46313 8.68699 8.46313 8.96314V9.33969C8.46313 9.61583 8.68699 9.83969 8.96314 9.83969H9.80911V11.2162H11.2162V9.83969H12.5928V11.2162H13.4999C13.7761 11.2162 13.9999 10.9924 13.9999 10.7162V10.3091C13.9999 10.0329 13.7761 9.80907 13.4999 9.80907H12.5928V8.96313C12.5928 8.68699 12.3689 8.46313 12.0928 8.46313H11.7162C11.4401 8.46313 11.2162 8.68699 11.2162 8.96314V9.80907H9.83969V8.96313C9.83969 8.68699 9.61583 8.46313 9.33969 8.46313H8.96313ZM8.96313 11.2162C8.68699 11.2162 8.46313 11.4401 8.46313 11.7162V12.0928C8.46313 12.3689 8.68699 12.5928 8.96314 12.5928H9.80911V13.4999C9.80911 13.7761 10.033 13.9999 10.3091 13.9999H10.7162C10.9924 13.9999 11.2162 13.7761 11.2162 13.4999V12.6234H12.5928V13.4999C12.5928 13.7761 12.8167 13.9999 13.0928 13.9999H13.4999C13.7761 13.9999 13.9999 13.7761 13.9999 13.4999V13.0928C13.9999 12.8167 13.7761 12.5928 13.4999 12.5928H12.6234V11.2162H11.2162V12.5928H9.83969V11.2162H8.96313Z" fill="white"/>
</g>
<defs>
<clipPath id="clip0_3292_8306">
<rect width="16" height="16" fill="white"/>
</clipPath>
</defs>
</svg>
