<svg width="24" height="24" viewBox="0 0 24 24" fill="none" xmlns="http://www.w3.org/2000/svg">
<g clip-path="url(#clip0_369_38796)">
<path d="M14.75 13C15.0261 13 15.25 13.2239 15.25 13.5V15.2002H17.5V13.5C17.5 13.2239 17.7239 13 18 13H19.25C19.5261 13 19.75 13.2239 19.75 13.5V15.2002H21.5498C21.8259 15.2002 22.0498 15.4241 22.0498 15.7002V17C22.0498 17.2761 21.8259 17.5 21.5498 17.5H19.7998V19.75H21.5498C21.8259 19.75 22.0498 19.9739 22.0498 20.25V21.5498C22.0498 21.8259 21.8259 22.0498 21.5498 22.0498H20.25C19.9739 22.0498 19.75 21.8259 19.75 21.5498V19.7998H17.5V21.5498C17.5 21.8259 17.2761 22.0498 17 22.0498H15.7002C15.4241 22.0498 15.2002 21.8259 15.2002 21.5498V19.75H13.5C13.2239 19.75 13 19.5261 13 19.25V18C13 17.7239 13.2239 17.5 13.5 17.5H15.2002V15.25H13.5C13.2239 15.25 13 15.0261 13 14.75V13.5C13 13.2239 13.2239 13 13.5 13H14.75ZM8 13C9.65685 13 11 14.3431 11 16V19C11 20.6051 9.73945 21.9158 8.1543 21.9961L8 22H5L4.8457 21.9961C3.31166 21.9184 2.08163 20.6883 2.00391 19.1543L2 19V16C2 14.3431 3.34315 13 5 13H8ZM5 14.7002C4.28203 14.7002 3.7002 15.282 3.7002 16V19C3.7002 19.718 4.28203 20.2998 5 20.2998H8C8.71797 20.2998 9.2998 19.718 9.2998 19V16C9.2998 15.282 8.71797 14.7002 8 14.7002H5ZM17.5 17.5H15.25V19.75H17.5V17.5H19.75V15.25H17.5V17.5ZM8 2C9.65685 2 11 3.34315 11 5V8C11 9.60511 9.73945 10.9158 8.1543 10.9961L8 11H5L4.8457 10.9961C3.31166 10.9184 2.08163 9.68834 2.00391 8.1543L2 8V5C2 3.34315 3.34315 2 5 2H8ZM19 2C20.6569 2 22 3.34315 22 5V8C22 9.60511 20.7394 10.9158 19.1543 10.9961L19 11H16L15.8457 10.9961C14.3117 10.9184 13.0816 9.68834 13.0039 8.1543L13 8V5C13 3.34315 14.3431 2 16 2H19ZM5 3.7002C4.28203 3.7002 3.7002 4.28203 3.7002 5V8C3.7002 8.71797 4.28203 9.2998 5 9.2998H8C8.71797 9.2998 9.2998 8.71797 9.2998 8V5C9.2998 4.28203 8.71797 3.7002 8 3.7002H5ZM16 3.7002C15.282 3.7002 14.7002 4.28203 14.7002 5V8C14.7002 8.71797 15.282 9.2998 16 9.2998H19C19.718 9.2998 20.2998 8.71797 20.2998 8V5C20.2998 4.28203 19.718 3.7002 19 3.7002H16Z" fill="white"/>
</g>
<defs>
<clipPath id="clip0_369_38796">
<rect width="24" height="24" fill="white"/>
</clipPath>
</defs>
</svg>
