<svg width="20" height="20" viewBox="0 0 20 20" fill="none" xmlns="http://www.w3.org/2000/svg">
<g clip-path="url(#clip0_3243_99366)">
<rect x="3.1" y="3.1" width="5.8" height="5.8" rx="1.8" stroke="white" stroke-width="1.2"/>
<rect x="3.1" y="11.1" width="5.8" height="5.8" rx="1.8" stroke="white" stroke-width="1.2"/>
<rect x="11.1" y="3.1" width="5.8" height="5.8" rx="1.8" stroke="white" stroke-width="1.2"/>
<path fill-rule="evenodd" clip-rule="evenodd" d="M11.0789 10.5789C10.8028 10.5789 10.5789 10.8027 10.5789 11.0789V11.7995C10.5789 12.0757 10.8028 12.2995 11.0789 12.2995H12.2614V14.0202H14.0203V12.2995H15.741V14.0202H16.9999C17.2761 14.0202 17.4999 13.7963 17.4999 13.5202V12.7613C17.4999 12.4851 17.2761 12.2613 16.9999 12.2613H15.741V11.0789C15.741 10.8027 15.5171 10.5789 15.241 10.5789H14.5203C14.2442 10.5789 14.0203 10.8027 14.0203 11.0789V12.2613H12.2996V11.0789C12.2996 10.8027 12.0758 10.5789 11.7996 10.5789H11.0789ZM11.0789 14.0202C10.8028 14.0202 10.5789 14.2441 10.5789 14.5202V15.2409C10.5789 15.5171 10.8028 15.7409 11.0789 15.7409H12.2614V16.9999C12.2614 17.276 12.4852 17.4999 12.7614 17.4999H13.5203C13.7965 17.4999 14.0203 17.276 14.0203 16.9999V15.7792H15.741V16.9999C15.741 17.276 15.9649 17.4999 16.241 17.4999H16.9999C17.2761 17.4999 17.4999 17.276 17.4999 16.9999V16.2409C17.4999 15.9648 17.2761 15.7409 16.9999 15.7409H15.7792V14.0202H14.0203V15.7409H12.2996V14.0202H11.0789Z" fill="white"/>
</g>
<defs>
<clipPath id="clip0_3243_99366">
<rect width="20" height="20" fill="white"/>
</clipPath>
</defs>
</svg>
