<svg width="20" height="20" viewBox="0 0 20 20" fill="none" xmlns="http://www.w3.org/2000/svg">
<path fill-rule="evenodd" clip-rule="evenodd" d="M10 2C5.58172 2 2 5.58172 2 10C2 14.4183 5.58172 18 10 18C14.4183 18 18 14.4183 18 10C18 5.58172 14.4183 2 10 2ZM8.95898 11.0659C8.95898 11.5293 9.22559 11.8721 9.70801 11.8721C10.1396 11.8721 10.3555 11.6118 10.4189 11.1929C10.4697 10.6152 10.6729 10.3105 11.5044 9.82812C12.3677 9.31396 12.8501 8.64746 12.8501 7.67627C12.8501 6.2417 11.6694 5.26416 9.94922 5.26416C8.6416 5.26416 7.65137 5.79736 7.25781 6.66064C7.13721 6.90186 7.08008 7.13672 7.08008 7.40967C7.08008 7.83496 7.34033 8.10156 7.77832 8.10156C8.12744 8.10156 8.3623 7.94287 8.50195 7.54932C8.70508 6.9082 9.1748 6.55908 9.87939 6.55908C10.6602 6.55908 11.1997 7.0415 11.1997 7.7334C11.1997 8.34277 10.9331 8.69189 10.146 9.16797C9.35254 9.6377 8.95898 10.1582 8.95898 10.9453V11.0659ZM8.79395 13.7256C8.79395 14.2271 9.20654 14.627 9.7207 14.627C10.2349 14.627 10.6411 14.2271 10.6411 13.7256C10.6411 13.2241 10.2349 12.8306 9.7207 12.8306C9.20654 12.8306 8.79395 13.2241 8.79395 13.7256Z" fill="white"/>
</svg>
