<svg width="16" height="16" viewBox="0 0 16 16" fill="none" xmlns="http://www.w3.org/2000/svg">
<path fill-rule="evenodd" clip-rule="evenodd" d="M7.99998 1.59998C4.46535 1.59998 1.59998 4.46535 1.59998 7.99998C1.59998 11.5346 4.46535 14.4 7.99998 14.4C11.5346 14.4 14.4 11.5346 14.4 7.99998C14.4 4.46535 11.5346 1.59998 7.99998 1.59998ZM7.11902 8.89421C7.11902 9.2863 7.3446 9.57634 7.75281 9.57634C8.11804 9.57634 8.30066 9.35612 8.35437 9.00163C8.39734 8.51286 8.56921 8.25505 9.27283 7.84684C10.0033 7.41179 10.4115 6.84782 10.4115 6.02604C10.4115 4.81218 9.41248 3.98503 7.95691 3.98503C6.85046 3.98503 6.01257 4.4362 5.67957 5.16667C5.57751 5.37077 5.52917 5.5695 5.52917 5.80046C5.52917 6.16032 5.74939 6.38591 6.12 6.38591C6.41541 6.38591 6.61414 6.25163 6.7323 5.91862C6.90417 5.37614 7.30164 5.08073 7.89783 5.08073C8.55847 5.08073 9.01501 5.48893 9.01501 6.07438C9.01501 6.59001 8.78943 6.88542 8.12341 7.28825C7.45203 7.68571 7.11902 8.12614 7.11902 8.79216V8.89421ZM6.97937 11.1447C6.97937 11.569 7.32849 11.9074 7.76355 11.9074C8.19861 11.9074 8.54236 11.569 8.54236 11.1447C8.54236 10.7204 8.19861 10.3874 7.76355 10.3874C7.32849 10.3874 6.97937 10.7204 6.97937 11.1447Z" fill="white"/>
</svg>
