<svg width="24" height="24" viewBox="0 0 24 24" fill="none" xmlns="http://www.w3.org/2000/svg">
<path fill-rule="evenodd" clip-rule="evenodd" d="M12 1.25C6.06294 1.25 1.25 6.06294 1.25 12C1.25 17.9371 6.06294 22.75 12 22.75C17.9371 22.75 22.75 17.9371 22.75 12C22.75 6.06294 17.9371 1.25 12 1.25ZM10.7988 13.5376C10.7988 14.0723 11.1064 14.4678 11.6631 14.4678C12.1611 14.4678 12.4102 14.1675 12.4834 13.6841C12.542 13.0176 12.7764 12.666 13.7358 12.1094C14.7319 11.5161 15.2886 10.7471 15.2886 9.62646C15.2886 7.97119 13.9263 6.84326 11.9414 6.84326C10.4326 6.84326 9.29004 7.4585 8.83594 8.45459C8.69678 8.73291 8.63086 9.00391 8.63086 9.31885C8.63086 9.80957 8.93115 10.1172 9.43652 10.1172C9.83936 10.1172 10.1104 9.93408 10.2715 9.47998C10.5059 8.74023 11.0479 8.3374 11.8608 8.3374C12.7617 8.3374 13.3843 8.89404 13.3843 9.69238C13.3843 10.3955 13.0767 10.7983 12.1685 11.3477C11.2529 11.8896 10.7988 12.4902 10.7988 13.3984V13.5376ZM10.6084 16.6064C10.6084 17.1851 11.0845 17.6465 11.6777 17.6465C12.271 17.6465 12.7397 17.1851 12.7397 16.6064C12.7397 16.0278 12.271 15.5737 11.6777 15.5737C11.0845 15.5737 10.6084 16.0278 10.6084 16.6064Z" fill="white"/>
</svg>
