<svg width="16" height="16" viewBox="0 0 16 16" fill="none" xmlns="http://www.w3.org/2000/svg">
<path d="M8.00037 2.05017C11.2863 2.05038 13.9496 4.7144 13.9496 8.00037C13.9494 11.2862 11.2862 13.9494 8.00037 13.9496C4.7144 13.9496 2.05038 11.2863 2.05017 8.00037C2.05017 4.71427 4.71427 2.05017 8.00037 2.05017Z" stroke="white" stroke-width="0.9"/>
<path d="M7.7583 9.5979C7.38232 9.5979 7.19434 9.32397 7.19434 8.96948V8.84595C7.19434 8.15845 7.52734 7.7019 8.22559 7.28296C8.87549 6.89087 9.10645 6.5686 9.10645 6.04224C9.10645 5.40845 8.61768 4.97339 7.90332 4.97339C7.25342 4.97339 6.82373 5.29565 6.65186 5.8811C6.54443 6.21411 6.37793 6.33228 6.10938 6.33228C5.77637 6.33228 5.58838 6.13354 5.58838 5.80591C5.58838 5.57495 5.63672 5.38696 5.7334 5.17749C6.06104 4.43628 6.87744 3.98511 7.95166 3.98511C9.35352 3.98511 10.3257 4.80688 10.3257 5.9939C10.3257 6.82642 9.90674 7.39575 9.19775 7.82007C8.50488 8.22827 8.32227 8.5022 8.29541 9.02856C8.26855 9.37231 8.10742 9.5979 7.7583 9.5979ZM7.7583 11.8806C7.36621 11.8806 7.05469 11.5798 7.05469 11.1877C7.05469 10.7957 7.36621 10.4949 7.7583 10.4949C8.16113 10.4949 8.46729 10.7957 8.46729 11.1877C8.46729 11.5798 8.16113 11.8806 7.7583 11.8806Z" fill="white"/>
</svg>
