<svg width="24" height="24" viewBox="0 0 24 24" fill="none" xmlns="http://www.w3.org/2000/svg">
<path d="M12 22C17.5228 22 22 17.5228 22 12C22 6.47715 17.5228 2 12 2C6.47715 2 2 6.47715 2 12C2 17.5228 6.47715 22 12 22Z" stroke="white" stroke-width="1.7"/>
<path d="M11.6631 13.9678C11.1064 13.9678 10.7988 13.5723 10.7988 13.0376V12.8984C10.7988 11.9902 11.2529 11.3896 12.1685 10.8477C13.0767 10.2983 13.3843 9.89551 13.3843 9.19238C13.3843 8.39404 12.7617 7.8374 11.8608 7.8374C11.0479 7.8374 10.5059 8.24023 10.2715 8.97998C10.1104 9.43408 9.83936 9.61719 9.43652 9.61719C8.93115 9.61719 8.63086 9.30957 8.63086 8.81885C8.63086 8.50391 8.69678 8.23291 8.83594 7.95459C9.29004 6.9585 10.4326 6.34326 11.9414 6.34326C13.9263 6.34326 15.2886 7.47119 15.2886 9.12646C15.2886 10.2471 14.7319 11.0161 13.7358 11.6094C12.7764 12.166 12.542 12.5176 12.4834 13.1841C12.4102 13.6675 12.1611 13.9678 11.6631 13.9678ZM11.6777 17.1465C11.0845 17.1465 10.6084 16.6851 10.6084 16.1064C10.6084 15.5278 11.0845 15.0737 11.6777 15.0737C12.271 15.0737 12.7397 15.5278 12.7397 16.1064C12.7397 16.6851 12.271 17.1465 11.6777 17.1465Z" fill="white"/>
</svg>
