<svg width="20" height="20" viewBox="0 0 20 20" fill="none" xmlns="http://www.w3.org/2000/svg">
<path d="M10 2.65039C14.0593 2.65039 17.3496 5.94071 17.3496 10C17.3496 14.0593 14.0593 17.3496 10 17.3496C5.94071 17.3496 2.65039 14.0593 2.65039 10C2.65039 5.94071 5.94071 2.65039 10 2.65039Z" stroke="white" stroke-width="1.3"/>
<path d="M9.71436 11.8975C9.27002 11.8975 9.04785 11.5737 9.04785 11.1548V11.0088C9.04785 10.1963 9.44141 9.65674 10.2666 9.16162C11.0347 8.69824 11.3076 8.31738 11.3076 7.69531C11.3076 6.94629 10.73 6.43213 9.88574 6.43213C9.11768 6.43213 8.60986 6.81299 8.40674 7.50488C8.27979 7.89844 8.08301 8.03809 7.76562 8.03809C7.37207 8.03809 7.1499 7.80322 7.1499 7.41602C7.1499 7.14307 7.20703 6.9209 7.32129 6.67334C7.7085 5.79736 8.67334 5.26416 9.94287 5.26416C11.5996 5.26416 12.7485 6.23535 12.7485 7.63818C12.7485 8.62207 12.2534 9.29492 11.4155 9.79639C10.5967 10.2788 10.3809 10.6025 10.3491 11.2246C10.3174 11.6309 10.127 11.8975 9.71436 11.8975ZM9.71436 14.5952C9.25098 14.5952 8.88281 14.2397 8.88281 13.7764C8.88281 13.313 9.25098 12.9575 9.71436 12.9575C10.1904 12.9575 10.5522 13.313 10.5522 13.7764C10.5522 14.2397 10.1904 14.5952 9.71436 14.5952Z" fill="white"/>
</svg>
