<svg width="24" height="24" viewBox="0 0 24 24" fill="none" xmlns="http://www.w3.org/2000/svg">
<path d="M3.30005 19.4255V12.8994V6.1001C3.30005 4.1671 4.86705 2.6001 6.80005 2.6001H11.9977H17.1953C19.1283 2.6001 20.6953 4.1671 20.6953 6.1001V12.8994V19.4255C20.6953 20.2485 19.7565 20.7191 19.097 20.2268L17.9591 19.3773C17.5974 19.1073 17.0998 19.113 16.7445 19.3912L15.3811 20.4584C15.0316 20.732 14.5435 20.7424 14.1826 20.4841L12.5891 19.3433C12.2365 19.0909 11.7614 19.0945 11.4127 19.3522L9.89292 20.4754C9.5363 20.739 9.04869 20.7362 8.6951 20.4686L7.24822 19.3735C6.89319 19.1048 6.4033 19.1032 6.04651 19.3696L4.89827 20.2268C4.23876 20.7191 3.30005 20.2485 3.30005 19.4255Z" stroke="white" stroke-width="1.7" stroke-linecap="round"/>
<path d="M8.78833 6.94581C8.37412 6.94581 8.03833 7.2816 8.03833 7.69581C8.03833 8.11003 8.37412 8.44581 8.78833 8.44581L8.78833 6.94581ZM15.1861 8.4458C15.6003 8.4458 15.9361 8.11001 15.9361 7.6958C15.9361 7.28159 15.6003 6.9458 15.1861 6.9458L15.1861 8.4458ZM8.78833 10.5761C8.37412 10.5761 8.03833 10.9119 8.03833 11.3261C8.03833 11.7404 8.37412 12.0761 8.78833 12.0761V10.5761ZM15.205 12.0761C15.6192 12.0761 15.955 11.7404 15.955 11.3261C15.955 10.9119 15.6192 10.5761 15.205 10.5761V12.0761ZM8.78833 14.2066C8.37412 14.2066 8.03833 14.5424 8.03833 14.9566C8.03833 15.3708 8.37412 15.7066 8.78833 15.7066V14.2066ZM11.9878 15.7066C12.4021 15.7066 12.7378 15.3708 12.7378 14.9566C12.7378 14.5424 12.4021 14.2066 11.9878 14.2066V15.7066ZM8.78833 8.44581L15.1861 8.4458L15.1861 6.9458L8.78833 6.94581L8.78833 8.44581ZM8.78833 12.0761H15.205V10.5761H8.78833V12.0761ZM8.78833 15.7066H11.9878V14.2066H8.78833V15.7066Z" fill="white"/>
</svg>
