<svg width="24" height="24" viewBox="0 0 24 24" fill="none" xmlns="http://www.w3.org/2000/svg">
<g clip-path="url(#clip0_3236_70460)">
<path d="M13 20.4724C11.5874 20.5512 10.0885 20.4614 8.87267 20.203C6.32693 19.6619 4.33815 17.6731 3.79703 15.1273C3.40099 13.2641 3.40099 10.7359 3.79703 8.87267C4.33815 6.32692 6.32692 4.33815 8.87267 3.79703C10.7359 3.40099 13.2641 3.40099 15.1273 3.79703C17.6731 4.33815 19.6619 6.32692 20.203 8.87267C20.3098 9.37541 20.3879 9.92656 20.437 10.5" stroke="white" stroke-width="1.6" stroke-linecap="round" stroke-linejoin="round"/>
<path d="M8.66388 8.6609L15.3218 8.66089" stroke="white" stroke-width="1.6" stroke-linecap="round"/>
<path d="M8.66388 12.0354H15.3415" stroke="white" stroke-width="1.6" stroke-linecap="round"/>
<path d="M8.66388 15.4099H11.9935" stroke="white" stroke-width="1.6" stroke-linecap="round"/>
<path fill-rule="evenodd" clip-rule="evenodd" d="M19 21C21.2091 21 23 19.2091 23 17C23 14.7909 21.2091 13 19 13C16.7909 13 15 14.7909 15 17C15 19.2091 16.7909 21 19 21ZM19.4 15.5C19.4 15.1134 19.0866 14.8 18.7 14.8C18.3134 14.8 18 15.1134 18 15.5V17.4181C18 17.6829 18.1495 17.9251 18.3863 18.0438L19.9215 18.8136C20.2671 18.9869 20.6877 18.8472 20.861 18.5016C21.0343 18.156 20.8946 17.7354 20.549 17.5621L19.4 16.986V15.5Z" fill="white"/>
</g>
<defs>
<clipPath id="clip0_3236_70460">
<rect width="24" height="24" fill="white"/>
</clipPath>
</defs>
</svg>
