<svg width="20" height="20" viewBox="0 0 20 20" fill="none" xmlns="http://www.w3.org/2000/svg">
<g clip-path="url(#clip0_3243_98919)">
<path d="M10.0514 16.9417C8.8245 17.0101 7.52256 16.9321 6.46653 16.7077C4.25537 16.2377 2.52798 14.5103 2.05798 12.2991C1.71399 10.6808 1.71399 8.48486 2.05798 6.8665C2.52798 4.65534 4.25537 2.92794 6.46653 2.45795C8.0849 2.11395 10.2808 2.11395 11.8992 2.45795C14.1103 2.92794 15.8377 4.65534 16.3077 6.8665C16.4005 7.30316 16.4683 7.78188 16.511 8.27995" stroke="white" stroke-width="1.3" stroke-linecap="round" stroke-linejoin="round"/>
<path d="M6.28516 6.68263L12.068 6.68262" stroke="white" stroke-width="1.3" stroke-linecap="round"/>
<path d="M6.28516 9.61353H12.0851" stroke="white" stroke-width="1.3" stroke-linecap="round"/>
<path d="M6.28516 12.5444H9.17716" stroke="white" stroke-width="1.3" stroke-linecap="round"/>
<path fill-rule="evenodd" clip-rule="evenodd" d="M15.2628 17.4C17.1816 17.4 18.7371 15.8445 18.7371 13.9257C18.7371 12.0069 17.1816 10.4514 15.2628 10.4514C13.344 10.4514 11.7885 12.0069 11.7885 13.9257C11.7885 15.8445 13.344 17.4 15.2628 17.4ZM15.5522 12.6227C15.5522 12.319 15.306 12.0727 15.0022 12.0727C14.6984 12.0727 14.4522 12.319 14.4522 12.6227V14.2887C14.4522 14.4968 14.5697 14.6871 14.7557 14.7804L16.0892 15.449C16.3607 15.5851 16.6912 15.4754 16.8273 15.2038C16.9635 14.9323 16.8537 14.6018 16.5822 14.4656L15.5522 13.9492V12.6227Z" fill="white"/>
</g>
<defs>
<clipPath id="clip0_3243_98919">
<rect width="20" height="20" fill="white"/>
</clipPath>
</defs>
</svg>
