<svg width="20" height="20" viewBox="0 0 20 20" fill="none" xmlns="http://www.w3.org/2000/svg">
<path d="M2.80005 16.6039V10.9825V5.5C2.80005 3.84315 4.14319 2.5 5.80005 2.5H9.96339H14.1267C15.7836 2.5 17.1267 3.84315 17.1267 5.5V10.9825V16.6039C17.1267 17.18 16.4696 17.5095 16.008 17.1648L14.7975 16.2611C14.5444 16.0722 14.196 16.0761 13.9473 16.2709L12.6771 17.2651C12.4324 17.4566 12.0908 17.464 11.8382 17.2831L10.3774 16.2374C10.1306 16.0607 9.79802 16.0632 9.55391 16.2436L8.1556 17.277C7.90596 17.4615 7.56464 17.4596 7.31712 17.2723L5.97768 16.2585C5.72916 16.0704 5.38623 16.0693 5.13649 16.2558L3.9188 17.1648C3.45714 17.5095 2.80005 17.18 2.80005 16.6039Z" stroke="white" stroke-width="1.3" stroke-linecap="round"/>
<path d="M7.32031 6.09679C6.98894 6.09679 6.72031 6.36542 6.72031 6.69679C6.72031 7.02816 6.98894 7.29679 7.32031 7.29679L7.32031 6.09679ZM12.5895 7.29678C12.9209 7.29678 13.1895 7.02815 13.1895 6.69678C13.1895 6.36541 12.9209 6.09678 12.5895 6.09678L12.5895 7.29678ZM7.32031 9.08673C6.98894 9.08673 6.72031 9.35536 6.72031 9.68673C6.72031 10.0181 6.98894 10.2867 7.32031 10.2867V9.08673ZM12.6051 10.2867C12.9364 10.2867 13.2051 10.0181 13.2051 9.68673C13.2051 9.35536 12.9364 9.08673 12.6051 9.08673V10.2867ZM7.32031 12.0768C6.98894 12.0768 6.72031 12.3454 6.72031 12.6768C6.72031 13.0081 6.98894 13.2768 7.32031 13.2768V12.0768ZM9.95543 13.2768C10.2868 13.2768 10.5554 13.0081 10.5554 12.6768C10.5554 12.3454 10.2868 12.0768 9.95543 12.0768V13.2768ZM7.32031 7.29679L12.5895 7.29678L12.5895 6.09678L7.32031 6.09679L7.32031 7.29679ZM7.32031 10.2867H12.6051V9.08673H7.32031V10.2867ZM7.32031 13.2768H9.95543V12.0768H7.32031V13.2768Z" fill="white"/>
</svg>
