<svg width="20" height="20" viewBox="0 0 20 20" fill="none" xmlns="http://www.w3.org/2000/svg">
<g clip-path="url(#clip0_3243_98995)">
<path fill-rule="evenodd" clip-rule="evenodd" d="M15.2629 17.3997C17.1817 17.3997 18.7371 15.8443 18.7371 13.9255C18.7371 12.0067 17.1817 10.4512 15.2629 10.4512C13.3441 10.4512 11.7886 12.0067 11.7886 13.9255C11.7886 15.8443 13.3441 17.3997 15.2629 17.3997ZM15.5523 12.6225C15.5523 12.3187 15.306 12.0725 15.0023 12.0725C14.6985 12.0725 14.4523 12.3187 14.4523 12.6225V14.2885C14.4523 14.4966 14.5697 14.6869 14.7557 14.7801L16.0892 15.4487C16.3608 15.5849 16.6913 15.4751 16.8274 15.2036C16.9635 14.932 16.8538 14.6015 16.5823 14.4654L15.5523 13.949V12.6225Z" fill="white"/>
<path fill-rule="evenodd" clip-rule="evenodd" d="M12.1434 17.3203C10.3897 17.693 8.01029 17.693 6.25664 17.3203C3.86065 16.811 1.98886 14.9392 1.47957 12.5432C1.10682 10.7896 1.10682 8.41013 1.47957 6.65648C1.98886 4.26049 3.86065 2.3887 6.25664 1.87942C8.01029 1.50667 10.3897 1.50667 12.1434 1.87941C14.5394 2.3887 16.4112 4.26049 16.9205 6.65648C17.1376 7.67792 17.2282 8.91167 17.1924 10.1104C16.6128 9.81666 15.9572 9.65112 15.2629 9.65112C12.9022 9.65112 10.9886 11.5648 10.9886 13.9254C10.9886 15.2522 11.5931 16.4378 12.5418 17.2218C12.4107 17.2588 12.2779 17.2917 12.1434 17.3203ZM12.068 7.33237L6.28516 7.33239C5.92617 7.33239 5.63516 7.04137 5.63516 6.68239C5.63516 6.3234 5.92617 6.03239 6.28516 6.03239L12.068 6.03237C12.427 6.03237 12.718 6.32339 12.718 6.68237C12.718 7.04136 12.427 7.33237 12.068 7.33237ZM6.28516 9.03239C5.92617 9.03239 5.63516 9.3234 5.63516 9.68239C5.63516 10.0414 5.92617 10.3324 6.28516 10.3324H12.0851C12.4441 10.3324 12.7351 10.0414 12.7351 9.68239C12.7351 9.3234 12.4441 9.03239 12.0851 9.03239H6.28516ZM5.63516 12.6824C5.63516 12.3234 5.92617 12.0324 6.28516 12.0324H9.17716C9.53614 12.0324 9.82716 12.3234 9.82716 12.6824C9.82716 13.0414 9.53614 13.3324 9.17716 13.3324H6.28516C5.92617 13.3324 5.63516 13.0414 5.63516 12.6824Z" fill="white"/>
</g>
<defs>
<clipPath id="clip0_3243_98995">
<rect width="20" height="20" fill="white"/>
</clipPath>
</defs>
</svg>
