<svg width="16" height="16" viewBox="0 0 16 16" fill="none" xmlns="http://www.w3.org/2000/svg">
<path d="M2.92432 12.6022V8.41985V4.90002C2.92432 3.51931 4.0436 2.40002 5.42432 2.40002H8.00798H10.5916C11.9724 2.40002 13.0916 3.51931 13.0916 4.90002V8.41985V12.6022C13.0916 12.9314 12.7162 13.1197 12.4524 12.9228L11.3793 12.1217C11.2347 12.0137 11.0356 12.016 10.8935 12.1273L9.87678 12.9232C9.73697 13.0326 9.54175 13.0368 9.39739 12.9334L8.24456 12.1082C8.10352 12.0072 7.91348 12.0086 7.77399 12.1117L6.66682 12.93C6.52417 13.0354 6.32913 13.0343 6.18769 12.9272L5.1214 12.1202C4.9794 12.0128 4.78344 12.0121 4.64072 12.1187L3.56361 12.9228C3.2998 13.1197 2.92432 12.9314 2.92432 12.6022Z" stroke="white" stroke-width="0.9" stroke-linecap="round"/>
<path d="M6.13208 4.9283C5.88355 4.9283 5.68208 5.12978 5.68208 5.3783C5.68208 5.62683 5.88355 5.8283 6.13208 5.8283L6.13208 4.9283ZM9.87152 5.8283C10.12 5.8283 10.3215 5.62682 10.3215 5.3783C10.3215 5.12977 10.12 4.9283 9.87152 4.9283L9.87152 5.8283ZM6.13208 7.0502C5.88355 7.0502 5.68208 7.25167 5.68208 7.5002C5.68208 7.74873 5.88355 7.9502 6.13208 7.9502V7.0502ZM9.88256 7.9502C10.1311 7.9502 10.3326 7.74873 10.3326 7.5002C10.3326 7.25167 10.1311 7.0502 9.88256 7.0502V7.9502ZM6.13208 9.17217C5.88355 9.17217 5.68208 9.37364 5.68208 9.62217C5.68208 9.8707 5.88355 10.0722 6.13208 10.0722V9.17217ZM8.00216 10.0722C8.25069 10.0722 8.45216 9.8707 8.45216 9.62217C8.45216 9.37364 8.25069 9.17217 8.00216 9.17217V10.0722ZM6.13208 5.8283L9.87152 5.8283L9.87152 4.9283L6.13208 4.9283L6.13208 5.8283ZM6.13208 7.9502H9.88256V7.0502H6.13208V7.9502ZM6.13208 10.0722H8.00216V9.17217H6.13208V10.0722Z" fill="white"/>
</svg>
