<svg width="24" height="24" viewBox="0 0 24 24" fill="none" xmlns="http://www.w3.org/2000/svg">
<g clip-path="url(#clip0_236_31188)">
<path fill-rule="evenodd" clip-rule="evenodd" d="M15.1273 20.203C13.2641 20.599 10.7359 20.599 8.87267 20.203C6.32693 19.6619 4.33815 17.6731 3.79703 15.1273C3.40099 13.2641 3.40099 10.7359 3.79703 8.87267C4.33815 6.32692 6.32692 4.33815 8.87267 3.79703C10.7359 3.40099 13.2641 3.40099 15.1273 3.79703C17.6731 4.33815 19.6619 6.32692 20.203 8.87267C20.4147 9.86893 20.5133 11.0553 20.4986 12.2285C20.0255 12.08 19.5221 12 19 12C16.2386 12 14 14.2386 14 17C14 18.2158 14.434 19.3303 15.1554 20.1969C15.1461 20.199 15.1367 20.201 15.1273 20.203ZM15.3218 9.46101L8.66388 9.46102C8.22205 9.46102 7.86388 9.10285 7.86388 8.66102C7.86388 8.2192 8.22205 7.86102 8.66388 7.86102L15.3218 7.86101C15.7636 7.86101 16.1218 8.21918 16.1218 8.66101C16.1218 9.10284 15.7636 9.46101 15.3218 9.46101ZM8.66388 11.2354C8.22205 11.2354 7.86388 11.5936 7.86388 12.0354C7.86388 12.4772 8.22205 12.8354 8.66388 12.8354H15.3415C15.7833 12.8354 16.1415 12.4772 16.1415 12.0354C16.1415 11.5936 15.7833 11.2354 15.3415 11.2354H8.66388ZM7.86388 15.4098C7.86388 14.968 8.22205 14.6098 8.66388 14.6098H11.9935C12.4353 14.6098 12.7935 14.968 12.7935 15.4098C12.7935 15.8516 12.4353 16.2098 11.9935 16.2098H8.66388C8.22205 16.2098 7.86388 15.8516 7.86388 15.4098Z" fill="white"/>
<path fill-rule="evenodd" clip-rule="evenodd" d="M19 21C21.2091 21 23 19.2091 23 17C23 14.7909 21.2091 13 19 13C16.7909 13 15 14.7909 15 17C15 19.2091 16.7909 21 19 21ZM19.4 15.5C19.4 15.1134 19.0866 14.8 18.7 14.8C18.3134 14.8 18 15.1134 18 15.5V17.4181C18 17.6829 18.1495 17.9251 18.3863 18.0438L19.9215 18.8136C20.2671 18.9869 20.6877 18.8472 20.861 18.5016C21.0343 18.156 20.8946 17.7354 20.549 17.5621L19.4 16.986V15.5Z" fill="white"/>
</g>
<defs>
<clipPath id="clip0_236_31188">
<rect width="24" height="24" fill="white"/>
</clipPath>
</defs>
</svg>
