<svg width="16" height="16" viewBox="0 0 16 16" fill="none" xmlns="http://www.w3.org/2000/svg">
<g clip-path="url(#clip0_3292_7939)">
<path fill-rule="evenodd" clip-rule="evenodd" d="M10.0849 13.4687C8.84273 13.7327 7.15729 13.7327 5.91512 13.4687C4.21796 13.1079 2.89211 11.7821 2.53137 10.0849C2.26734 8.84276 2.26734 7.15732 2.53137 5.91515C2.89211 4.21799 4.21796 2.89214 5.91512 2.5314C7.15729 2.26737 8.84273 2.26737 10.0849 2.5314C11.7821 2.89214 13.1079 4.21799 13.4687 5.91515C13.6098 6.57933 13.6755 7.37023 13.6657 8.15235C13.3503 8.05339 13.0147 8.00004 12.6667 8.00004C10.8257 8.00004 9.33334 9.49242 9.33334 11.3334C9.33334 12.1439 9.62265 12.8869 10.1036 13.4647C10.0974 13.466 10.0911 13.4674 10.0849 13.4687ZM10.2145 6.27405L5.77593 6.27406C5.49979 6.27406 5.27593 6.0502 5.27593 5.77406C5.27593 5.49792 5.49979 5.27406 5.77593 5.27406L10.2145 5.27405C10.4907 5.27405 10.7145 5.4979 10.7145 5.77405C10.7145 6.05019 10.4907 6.27405 10.2145 6.27405ZM5.77593 7.52364C5.49979 7.52364 5.27593 7.7475 5.27593 8.02364C5.27593 8.29978 5.49979 8.52364 5.77593 8.52364H10.2276C10.5038 8.52364 10.7276 8.29978 10.7276 8.02364C10.7276 7.7475 10.5038 7.52364 10.2276 7.52364H5.77593ZM5.27593 10.2732C5.27593 9.99709 5.49979 9.77323 5.77593 9.77323H7.99567C8.27181 9.77323 8.49567 9.99709 8.49567 10.2732C8.49567 10.5494 8.27181 10.7732 7.99567 10.7732H5.77593C5.49979 10.7732 5.27593 10.5494 5.27593 10.2732Z" fill="white"/>
<path fill-rule="evenodd" clip-rule="evenodd" d="M12.6667 14C14.1394 14 15.3333 12.8061 15.3333 11.3333C15.3333 9.86053 14.1394 8.66663 12.6667 8.66663C11.1939 8.66663 10 9.86053 10 11.3333C10 12.8061 11.1939 14 12.6667 14ZM12.9667 10.3333C12.9667 10.0572 12.7428 9.83329 12.4667 9.83329C12.1905 9.83329 11.9667 10.0572 11.9667 10.3333V11.612C11.9667 11.8012 12.0734 11.9742 12.2426 12.059L13.2661 12.5721C13.5129 12.6959 13.8134 12.5961 13.9371 12.3493C14.0609 12.1024 13.9611 11.802 13.7143 11.6782L12.9667 11.3034V10.3333Z" fill="white"/>
</g>
<defs>
<clipPath id="clip0_3292_7939">
<rect width="16" height="16" fill="white"/>
</clipPath>
</defs>
</svg>
