<svg width="16" height="16" viewBox="0 0 16 16" fill="none" xmlns="http://www.w3.org/2000/svg">
<g clip-path="url(#clip0_3292_7863)">
<path d="M8.66668 13.6483C7.72496 13.7008 6.72567 13.641 5.91512 13.4687C4.21796 13.1079 2.89211 11.7821 2.53137 10.0849C2.26734 8.84276 2.26734 7.15732 2.53137 5.91515C2.89211 4.21799 4.21796 2.89214 5.91512 2.5314C7.15729 2.26737 8.84273 2.26737 10.0849 2.5314C11.7821 2.89214 13.1079 4.21799 13.4687 5.91515C13.5399 6.25031 13.5919 6.61775 13.6247 7.00004" stroke="white" stroke-width="0.9" stroke-linecap="round" stroke-linejoin="round"/>
<path d="M5.77591 5.77406L10.2145 5.77405" stroke="white" stroke-width="0.9" stroke-linecap="round"/>
<path d="M5.77591 8.02368H10.2276" stroke="white" stroke-width="0.9" stroke-linecap="round"/>
<path d="M5.77591 10.2733H7.99565" stroke="white" stroke-width="0.9" stroke-linecap="round"/>
<path fill-rule="evenodd" clip-rule="evenodd" d="M12.6667 14.0001C14.1394 14.0001 15.3333 12.8062 15.3333 11.3334C15.3333 9.86066 14.1394 8.66675 12.6667 8.66675C11.1939 8.66675 10 9.86066 10 11.3334C10 12.8062 11.1939 14.0001 12.6667 14.0001ZM12.9167 10.3334C12.9167 10.0849 12.7152 9.88341 12.4667 9.88341C12.2181 9.88341 12.0167 10.0849 12.0167 10.3334V11.6121C12.0167 11.7824 12.1128 11.9381 12.265 12.0144L13.2885 12.5276C13.5106 12.639 13.781 12.5492 13.8924 12.327C14.0038 12.1048 13.914 11.8344 13.6919 11.723L12.9167 11.3344V10.3334Z" fill="white"/>
</g>
<defs>
<clipPath id="clip0_3292_7863">
<rect width="16" height="16" fill="white"/>
</clipPath>
</defs>
</svg>
