<svg width="16" height="16" viewBox="0 0 16 16" fill="none" xmlns="http://www.w3.org/2000/svg">
<g clip-path="url(#clip0_3292_10528)">
<path d="M8.01099 1.19995V3.47022" stroke="white" stroke-width="0.9" stroke-linecap="round"/>
<path d="M14.8215 4.22705L13.2162 5.83238" stroke="white" stroke-width="0.9" stroke-linecap="round"/>
<path d="M1.19995 4.22705L2.80528 5.83238" stroke="white" stroke-width="0.9" stroke-linecap="round"/>
<path d="M8.01123 5.43396C10.2702 5.43421 12.1011 7.26579 12.1011 9.52478V12.1791H3.92041V9.52478C3.92041 7.26564 5.75209 5.43396 8.01123 5.43396Z" stroke="white" stroke-width="0.9"/>
<path d="M3.71851 12.1259H12.3025C13.027 12.1259 13.6147 12.7129 13.615 13.4374C13.615 14.1621 13.0272 14.7499 12.3025 14.7499H3.71851C2.99402 14.7496 2.40698 14.1619 2.40698 13.4374C2.40723 12.713 2.99417 12.1261 3.71851 12.1259Z" stroke="white" stroke-width="0.9"/>
</g>
<defs>
<clipPath id="clip0_3292_10528">
<rect width="16" height="16" fill="white"/>
</clipPath>
</defs>
</svg>
