<svg width="20" height="20" viewBox="0 0 20 20" fill="none" xmlns="http://www.w3.org/2000/svg">
<g clip-path="url(#clip0_3271_5159)">
<path d="M10.0015 0.899902V3.89943" stroke="white" stroke-width="1.3" stroke-linecap="round"/>
<path d="M19.0002 4.89941L16.8793 7.0204" stroke="white" stroke-width="1.3" stroke-linecap="round"/>
<path d="M1.00293 4.89941L3.12391 7.0204" stroke="white" stroke-width="1.3" stroke-linecap="round"/>
<path d="M10.0015 6.54956C12.9557 6.54956 15.3501 8.94401 15.3501 11.8982V15.3503H4.65283V11.8982C4.65285 8.94402 7.04729 6.54957 10.0015 6.54956Z" stroke="white" stroke-width="1.3"/>
<path d="M4.33105 15.3909H15.6719C16.5987 15.3909 17.3505 16.1418 17.3506 17.0686C17.3506 17.9955 16.5987 18.7473 15.6719 18.7473H4.33105C3.40424 18.7473 2.65332 17.9954 2.65332 17.0686C2.65337 16.1418 3.40427 15.3909 4.33105 15.3909Z" stroke="white" stroke-width="1.3"/>
</g>
<defs>
<clipPath id="clip0_3271_5159">
<rect width="20" height="20" fill="white"/>
</clipPath>
</defs>
</svg>
