<svg width="37" height="22" viewBox="0 0 37 22" fill="none" xmlns="http://www.w3.org/2000/svg">
<path fill-rule="evenodd" clip-rule="evenodd" d="M13.361 4.08001C13.9746 3.81192 14.4033 3.19968 14.4033 2.48729C14.4033 1.52781 13.6255 0.75 12.6661 0.75C11.7066 0.75 10.9288 1.52781 10.9288 2.48729C10.9288 3.19969 11.3576 3.81195 11.9712 4.08003V5.96186H7.32707C5.67022 5.96186 4.32707 7.30501 4.32707 8.96186V16.1653L4.32708 16.1714V21.25L7.76069 19.1653H18.005C19.6619 19.1653 21.005 17.8221 21.005 16.1653V8.96186C21.005 7.30501 19.6619 5.96186 18.005 5.96186H13.361V4.08001ZM9.71267 10.4788C9.23293 10.4788 8.84403 10.8677 8.84403 11.3475V13.7797C8.84403 14.2594 9.23293 14.6483 9.71267 14.6483C10.1924 14.6483 10.5813 14.2594 10.5813 13.7797V11.3475C10.5813 10.8677 10.1924 10.4788 9.71267 10.4788ZM15.0983 11.3475C15.0983 10.8677 15.4872 10.4788 15.9669 10.4788C16.4466 10.4788 16.8356 10.8677 16.8356 11.3475V13.7797C16.8356 14.2594 16.4466 14.6483 15.9669 14.6483C15.4872 14.6483 15.0983 14.2594 15.0983 13.7797V11.3475ZM1.19995 11.5212C1.19995 10.3698 2.13332 9.43644 3.2847 9.43644V16.3856C2.13332 16.3856 1.19995 15.4522 1.19995 14.3008V11.5212ZM24.1322 14.3008C24.1322 15.4522 23.1988 16.3856 22.0474 16.3856V9.43644C23.1988 9.43644 24.1322 10.3698 24.1322 11.5212V14.3008Z" fill="#00AB58"/>
<path d="M22.308 7.44L23.262 2.91C23.338 2.546 23.442 2.256 23.574 2.04C23.706 1.82 23.876 1.66 24.084 1.56C24.292 1.46 24.548 1.41 24.852 1.41C25.1 1.41 25.316 1.448 25.5 1.524C25.684 1.6 25.826 1.712 25.926 1.86C26.026 2.008 26.076 2.188 26.076 2.4C26.076 2.628 26.036 2.826 25.956 2.994C25.876 3.162 25.76 3.298 25.608 3.402C25.46 3.506 25.282 3.576 25.074 3.612C25.31 3.652 25.5 3.756 25.644 3.924C25.788 4.088 25.86 4.304 25.86 4.572C25.86 4.712 25.838 4.868 25.794 5.04C25.754 5.208 25.68 5.37 25.572 5.526C25.464 5.682 25.314 5.81 25.122 5.91C24.93 6.01 24.684 6.06 24.384 6.06C24.172 6.06 23.998 6.036 23.862 5.988C23.726 5.936 23.616 5.886 23.532 5.838L23.19 7.44H22.308ZM24.216 5.346C24.336 5.346 24.44 5.326 24.528 5.286C24.616 5.242 24.69 5.184 24.75 5.112C24.81 5.036 24.854 4.95 24.882 4.854C24.914 4.754 24.93 4.648 24.93 4.536C24.934 4.396 24.91 4.286 24.858 4.206C24.81 4.122 24.74 4.062 24.648 4.026C24.56 3.986 24.456 3.966 24.336 3.966H24.198L24.336 3.294H24.516C24.62 3.294 24.712 3.278 24.792 3.246C24.872 3.21 24.94 3.162 24.996 3.102C25.052 3.038 25.094 2.962 25.122 2.874C25.154 2.782 25.17 2.682 25.17 2.574C25.17 2.41 25.13 2.292 25.05 2.22C24.974 2.144 24.884 2.106 24.78 2.106C24.688 2.106 24.604 2.128 24.528 2.172C24.452 2.212 24.386 2.284 24.33 2.388C24.274 2.492 24.226 2.636 24.186 2.82L23.676 5.166C23.732 5.222 23.814 5.266 23.922 5.298C24.03 5.33 24.128 5.346 24.216 5.346ZM27.7281 6.084C27.3881 6.084 27.0941 6.03 26.8461 5.922C26.6021 5.814 26.4141 5.658 26.2821 5.454C26.1501 5.246 26.0841 5.002 26.0841 4.722C26.0841 4.414 26.1341 4.128 26.2341 3.864C26.3341 3.596 26.4781 3.362 26.6661 3.162C26.8581 2.958 27.0881 2.8 27.3561 2.688C27.6281 2.572 27.9321 2.514 28.2681 2.514C28.5681 2.514 28.8121 2.556 29.0001 2.64C29.1921 2.724 29.3321 2.834 29.4201 2.97C29.5081 3.106 29.5521 3.258 29.5521 3.426C29.5521 3.646 29.4921 3.834 29.3721 3.99C29.2561 4.146 29.0861 4.274 28.8621 4.374C28.6381 4.474 28.3681 4.55 28.0521 4.602C27.7361 4.65 27.3781 4.68 26.9781 4.692L26.9601 4.248C27.2201 4.24 27.4481 4.222 27.6441 4.194C27.8441 4.166 28.0101 4.124 28.1421 4.068C28.2741 4.012 28.3741 3.936 28.4421 3.84C28.5101 3.744 28.5441 3.624 28.5441 3.48C28.5441 3.388 28.5301 3.314 28.5021 3.258C28.4781 3.198 28.4361 3.154 28.3761 3.126C28.3201 3.094 28.2461 3.078 28.1541 3.078C28.0021 3.078 27.8661 3.12 27.7461 3.204C27.6301 3.284 27.5321 3.398 27.4521 3.546C27.3721 3.69 27.3121 3.856 27.2721 4.044C27.2321 4.232 27.2121 4.432 27.2121 4.644C27.2121 4.848 27.2401 5.01 27.2961 5.13C27.3561 5.25 27.4401 5.336 27.5481 5.388C27.6601 5.436 27.8001 5.46 27.9681 5.46C28.1241 5.46 28.2621 5.43 28.3821 5.37C28.5021 5.31 28.6061 5.232 28.6941 5.136C28.7861 5.04 28.8661 4.946 28.9341 4.854L29.3721 5.196C29.2521 5.38 29.1141 5.54 28.9581 5.676C28.8061 5.808 28.6281 5.91 28.4241 5.982C28.2241 6.05 27.9921 6.084 27.7281 6.084ZM30.6013 6C30.4173 6 30.2613 5.978 30.1333 5.934C30.0093 5.89 29.9153 5.82 29.8513 5.724C29.7873 5.628 29.7553 5.506 29.7553 5.358C29.7553 5.27 29.7633 5.178 29.7793 5.082C29.7993 4.982 29.8213 4.882 29.8453 4.782L30.3613 2.688L31.1053 2.58H32.5153L32.3713 3.156H29.6893L29.8273 2.61H29.8933C30.0013 2.61 30.0973 2.602 30.1813 2.586C30.2653 2.57 30.3373 2.532 30.3973 2.472C30.4573 2.412 30.5013 2.32 30.5293 2.196L30.6793 1.59H31.8073L30.9973 4.848C30.9853 4.896 30.9753 4.94 30.9673 4.98C30.9593 5.02 30.9533 5.054 30.9493 5.082C30.9453 5.11 30.9433 5.136 30.9433 5.16C30.9433 5.232 30.9653 5.282 31.0093 5.31C31.0533 5.338 31.1133 5.352 31.1893 5.352C31.2853 5.352 31.3753 5.352 31.4593 5.352C31.5473 5.352 31.6233 5.352 31.6873 5.352C31.7553 5.352 31.8033 5.352 31.8313 5.352L31.6753 6C31.5713 6 31.4333 6 31.2613 6C31.0933 6 30.8733 6 30.6013 6ZM34.9545 3.81L34.8525 3.996C34.8085 3.84 34.7625 3.702 34.7145 3.582C34.6705 3.458 34.6125 3.362 34.5405 3.294C34.4685 3.226 34.3665 3.192 34.2345 3.192C34.1145 3.192 34.0065 3.232 33.9105 3.312C33.8145 3.388 33.7285 3.49 33.6525 3.618C33.5765 3.746 33.5125 3.886 33.4605 4.038C33.4085 4.19 33.3685 4.34 33.3405 4.488C33.3165 4.636 33.3045 4.768 33.3045 4.884C33.3045 5 33.3185 5.096 33.3465 5.172C33.3745 5.248 33.4145 5.306 33.4665 5.346C33.5225 5.382 33.5905 5.4 33.6705 5.4C33.7785 5.4 33.8805 5.368 33.9765 5.304C34.0725 5.24 34.1765 5.144 34.2885 5.016C34.4045 4.884 34.5445 4.716 34.7085 4.512L34.7265 4.782C34.5585 5.062 34.3965 5.298 34.2405 5.49C34.0885 5.682 33.9285 5.828 33.7605 5.928C33.5965 6.024 33.4105 6.072 33.2025 6.072C32.9745 6.072 32.7805 6.024 32.6205 5.928C32.4605 5.828 32.3385 5.684 32.2545 5.496C32.1745 5.308 32.1345 5.08 32.1345 4.812C32.1345 4.596 32.1605 4.38 32.2125 4.164C32.2645 3.948 32.3405 3.742 32.4405 3.546C32.5445 3.346 32.6685 3.17 32.8125 3.018C32.9565 2.862 33.1205 2.74 33.3045 2.652C33.4885 2.56 33.6905 2.514 33.9105 2.514C34.1545 2.514 34.3505 2.564 34.4985 2.664C34.6465 2.764 34.7545 2.91 34.8225 3.102C34.8945 3.294 34.9385 3.53 34.9545 3.81ZM36.1965 2.58L35.7165 4.494C35.6765 4.658 35.6425 4.792 35.6145 4.896C35.5865 4.996 35.5665 5.074 35.5545 5.13C35.5425 5.182 35.5365 5.222 35.5365 5.25C35.5365 5.298 35.5485 5.332 35.5725 5.352C35.6005 5.372 35.6425 5.382 35.6985 5.382C35.7505 5.382 35.8025 5.382 35.8545 5.382C35.9065 5.382 35.9565 5.382 36.0045 5.382L35.8665 6C35.7785 6 35.6885 6 35.5965 6C35.5085 6 35.4185 6 35.3265 6C35.2385 6 35.1485 6 35.0565 6C34.9285 6 34.8165 5.98 34.7205 5.94C34.6285 5.9 34.5585 5.844 34.5105 5.772C34.4625 5.696 34.4385 5.602 34.4385 5.49C34.4385 5.458 34.4385 5.412 34.4385 5.352C34.4425 5.292 34.4445 5.22 34.4445 5.136L34.3965 5.076L34.7745 3.57L34.8585 3.408L35.4105 2.58H36.1965Z" fill="#F53535"/>
</svg>
