<svg width="24" height="24" viewBox="0 0 24 24" fill="none" xmlns="http://www.w3.org/2000/svg">
<path fill-rule="evenodd" clip-rule="evenodd" d="M4.05001 10.7001C4.05001 7.0274 7.02731 4.0501 10.7 4.0501C14.3727 4.0501 17.35 7.0274 17.35 10.7001C17.35 12.5062 16.63 14.1441 15.4614 15.3425C15.4399 15.3602 15.419 15.379 15.399 15.3991C15.3789 15.4192 15.36 15.44 15.3424 15.4615C14.144 16.6301 12.5061 17.3501 10.7 17.3501C7.02731 17.3501 4.05001 14.3728 4.05001 10.7001ZM15.9728 17.175C14.5351 18.3472 12.6996 19.0501 10.7 19.0501C6.08843 19.0501 2.35001 15.3117 2.35001 10.7001C2.35001 6.08852 6.08843 2.3501 10.7 2.3501C15.3116 2.3501 19.05 6.08852 19.05 10.7001C19.05 12.6998 18.3471 14.5352 17.1749 15.9729L21.101 19.8991C21.433 20.2311 21.433 20.7692 21.101 21.1012C20.7691 21.4331 20.2309 21.4331 19.899 21.1012L15.9728 17.175Z" fill="white"/>
</svg>
