<svg width="20" height="20" viewBox="0 0 20 20" fill="none" xmlns="http://www.w3.org/2000/svg">
<path fill-rule="evenodd" clip-rule="evenodd" d="M3.4 9C3.4 5.90721 5.90721 3.4 9 3.4C12.0928 3.4 14.6 5.90721 14.6 9C14.6 12.0928 12.0928 14.6 9 14.6C5.90721 14.6 3.4 12.0928 3.4 9ZM9 2.1C5.18924 2.1 2.1 5.18924 2.1 9C2.1 12.8108 5.18924 15.9 9 15.9C10.6713 15.9 12.2038 15.3058 13.3979 14.3171L16.5404 17.4596C16.7942 17.7135 17.2058 17.7135 17.4596 17.4596C17.7135 17.2058 17.7135 16.7942 17.4596 16.5404L14.3171 13.3979C15.3058 12.2038 15.9 10.6713 15.9 9C15.9 5.18924 12.8108 2.1 9 2.1Z" fill="white"/>
</svg>
