<svg width="16" height="16" viewBox="0 0 16 16" fill="none" xmlns="http://www.w3.org/2000/svg">
<path fill-rule="evenodd" clip-rule="evenodd" d="M2.85917 7.36015C2.85917 4.87429 4.87435 2.85911 7.36021 2.85911C9.84606 2.85911 11.8612 4.87429 11.8612 7.36015C11.8612 9.846 9.84606 11.8612 7.36021 11.8612C4.87435 11.8612 2.85917 9.846 2.85917 7.36015ZM7.36021 1.95911C4.3773 1.95911 1.95917 4.37723 1.95917 7.36015C1.95917 10.3431 4.3773 12.7612 7.36021 12.7612C8.68965 12.7612 9.90691 12.2809 10.8479 11.4843L13.3793 14.0157C13.555 14.1914 13.84 14.1914 14.0157 14.0157C14.1914 13.8399 14.1914 13.555 14.0157 13.3793L11.4843 10.8479C12.2809 9.90688 12.7612 8.68961 12.7612 7.36015C12.7612 4.37723 10.3431 1.95911 7.36021 1.95911Z" fill="white"/>
</svg>
