<svg width="20" height="20" viewBox="0 0 20 20" fill="none" xmlns="http://www.w3.org/2000/svg">
<g clip-path="url(#clip0_3243_99218)">
<path d="M8.83885 2.25L8.8362 2.9L8.83627 2.9L8.83885 2.25ZM11.03 2.25871L11.0327 1.60871L11.0326 1.60871L11.03 2.25871ZM7.97241 3.09956L7.40622 2.7803L7.37313 2.83898L7.35278 2.9032L7.97241 3.09956ZM7.85257 3.47774L8.4722 3.6741L8.4722 3.6741L7.85257 3.47774ZM6.89874 4.66762L7.22467 5.23V5.23L6.89874 4.66762ZM5.39529 4.90188L5.53486 4.26705V4.26705L5.39529 4.90188ZM5.0091 4.81698L5.14868 4.18214L5.08246 4.16759L5.01467 4.167L5.0091 4.81698ZM3.84296 5.14544L4.40769 5.46728L4.40772 5.46722L3.84296 5.14544ZM2.75487 7.05469L2.19014 6.73285L2.19011 6.7329L2.75487 7.05469ZM3.05738 8.24202L2.49535 8.56856L2.52879 8.62612L2.5732 8.6757L3.05738 8.24202ZM3.322 8.53745L2.83783 8.97113L2.83783 8.97113L3.322 8.53745ZM3.87451 9.97527L4.52451 9.97269V9.97269L3.87451 9.97527ZM3.32911 11.4136L2.84452 10.9804H2.84452L3.32911 11.4136ZM3.07162 11.7016L2.58704 11.2684L2.54201 11.3188L2.5083 11.3773L3.07162 11.7016ZM2.77855 12.8867L2.2151 13.2108H2.2151L2.77855 12.8867ZM3.88166 14.8047L4.44511 14.4806V14.4806L3.88166 14.8047ZM5.0506 15.1425L5.05087 15.7925L5.11877 15.7924L5.18519 15.7784L5.0506 15.1425ZM5.42782 15.0626L5.29324 14.4267L5.29323 14.4267L5.42782 15.0626ZM6.94141 15.3076L7.26958 14.7466H7.26958L6.94141 15.3076ZM7.90559 16.5069L7.28732 16.7075V16.7075L7.90559 16.5069ZM8.02815 16.8846L7.40988 17.0852L7.43039 17.1485L7.46328 17.2062L8.02815 16.8846ZM8.90124 17.7413L8.89858 18.3913H8.89865L8.90124 17.7413ZM11.0924 17.75L11.0951 17.1H11.095L11.0924 17.75ZM11.9589 16.9004L12.5251 17.2197L12.5581 17.161L12.5785 17.0968L11.9589 16.9004ZM12.0787 16.5223L11.4591 16.3259L11.4591 16.3259L12.0787 16.5223ZM13.0325 15.3324L13.3585 15.8948H13.3585L13.0325 15.3324ZM14.536 15.0981L14.3964 15.733V15.733L14.536 15.0981ZM14.9222 15.183L14.7826 15.8179L14.8488 15.8324L14.9166 15.833L14.9222 15.183ZM16.0883 14.8546L15.5236 14.5327L15.5236 14.5328L16.0883 14.8546ZM17.1764 12.9453L17.7411 13.2672L17.7412 13.2671L17.1764 12.9453ZM16.8739 11.758L17.4359 11.4314L17.4025 11.3739L17.3581 11.3243L16.8739 11.758ZM16.6093 11.4626L16.1251 11.8962H16.1251L16.6093 11.4626ZM16.0568 10.0247L15.4068 10.0273V10.0273L16.0568 10.0247ZM16.6022 8.58639L17.0868 9.01961L17.0868 9.01961L16.6022 8.58639ZM16.8597 8.29838L17.3442 8.73159L17.3893 8.68123L17.423 8.62268L16.8597 8.29838ZM17.1527 7.11327L17.7162 6.78921V6.7892L17.1527 7.11327ZM16.0496 5.19532L15.4862 5.51939V5.51939L16.0496 5.19532ZM14.8807 4.85754L14.8804 4.20754L14.8125 4.20757L14.7461 4.22163L14.8807 4.85754ZM14.5035 4.93738L14.638 5.57329V5.57329L14.5035 4.93738ZM12.9899 4.69235L13.318 4.13128L13.318 4.13128L12.9899 4.69235ZM12.0257 3.49312L12.644 3.29252V3.29252L12.0257 3.49312ZM11.9031 3.11536L12.5214 2.91476L12.5009 2.85154L12.468 2.79377L11.9031 3.11536ZM7.31218 9.98814L6.66219 9.99085L6.66219 9.99087L7.31218 9.98814ZM9.97379 7.31633L9.97653 6.66634H9.97651L9.97379 7.31633ZM9.99626 12.6824L9.99351 13.3324H9.99353L9.99626 12.6824ZM12.6578 10.0106L13.3078 10.0079V10.0079L12.6578 10.0106ZM8.83627 2.9L11.0275 2.9087L11.0326 1.60871L8.84143 1.60001L8.83627 2.9ZM8.5386 3.41882C8.62422 3.26699 8.72473 3.10235 8.82936 2.98108C8.881 2.92124 8.9165 2.8924 8.93224 2.88212C8.94753 2.87212 8.91193 2.90031 8.8362 2.9L8.84149 1.60001C8.35168 1.59802 8.00929 1.94154 7.84509 2.13184C7.65065 2.3572 7.49769 2.61808 7.40622 2.7803L8.5386 3.41882ZM8.4722 3.6741L8.59204 3.29592L7.35278 2.9032L7.23293 3.28138L8.4722 3.6741ZM7.22467 5.23C7.81968 4.88515 8.26432 4.33008 8.4722 3.6741L7.23294 3.28138C7.12259 3.62958 6.8869 3.9232 6.5728 4.10524L7.22467 5.23ZM5.25571 5.53672C5.92734 5.68438 6.62959 5.57488 7.22467 5.23L6.5728 4.10524C6.25877 4.28724 5.88867 4.34483 5.53486 4.26705L5.25571 5.53672ZM4.86953 5.45182L5.25571 5.53672L5.53486 4.26705L5.14868 4.18214L4.86953 5.45182ZM4.40772 5.46722C4.37078 5.53205 4.32931 5.54869 4.34531 5.54053C4.36191 5.53206 4.40431 5.51569 4.48148 5.50078C4.63796 5.47054 4.82983 5.46547 5.00354 5.46696L5.01467 4.167C4.82889 4.16541 4.52693 4.16795 4.23483 4.22439C3.98726 4.27223 3.52043 4.3985 3.27819 4.82365L4.40772 5.46722ZM3.3196 7.37653L4.40769 5.46728L3.27823 4.8236L2.19014 6.73285L3.3196 7.37653ZM3.6194 7.91547C3.53115 7.76359 3.43862 7.59124 3.38545 7.43668C3.3592 7.36035 3.35137 7.31288 3.35015 7.29147C3.34894 7.27006 3.35615 7.31238 3.31963 7.37647L2.19011 6.7329C1.94977 7.15473 2.0741 7.62101 2.15615 7.85953C2.25325 8.14184 2.40121 8.40653 2.49535 8.56856L3.6194 7.91547ZM3.80617 8.10377L3.54155 7.80834L2.5732 8.6757L2.83783 8.97113L3.80617 8.10377ZM4.52451 9.97269C4.52178 9.28273 4.26631 8.61748 3.80617 8.10377L2.83783 8.97113C3.08519 9.24729 3.22305 9.60559 3.22452 9.97784L4.52451 9.97269ZM3.81369 11.8468C4.27414 11.3318 4.52724 10.6638 4.52451 9.97269L3.22452 9.97784C3.22598 10.3482 3.09034 10.7054 2.84452 10.9804L3.81369 11.8468ZM3.55621 12.1348L3.81369 11.8468L2.84452 10.9804L2.58704 11.2684L3.55621 12.1348ZM3.34201 12.5627C3.37748 12.6243 3.37091 12.6651 3.37192 12.6443C3.37295 12.6233 3.38029 12.5764 3.40574 12.5009C3.45734 12.3477 3.54803 12.1769 3.63494 12.0259L2.5083 11.3773C2.41535 11.5388 2.269 11.8032 2.17378 12.0858C2.09266 12.3266 1.9736 12.7909 2.2151 13.2108L3.34201 12.5627ZM4.44511 14.4806L3.34201 12.5627L2.2151 13.2108L3.3182 15.1287L4.44511 14.4806ZM5.05033 14.4925C4.87666 14.4925 4.68447 14.486 4.52719 14.4544C4.44967 14.4388 4.40617 14.4219 4.38816 14.4126C4.37061 14.4036 4.40951 14.4187 4.44511 14.4806L3.3182 15.1287C3.56026 15.5496 4.02215 15.6789 4.27122 15.7289C4.5633 15.7876 4.86507 15.7925 5.05087 15.7925L5.05033 14.4925ZM5.29323 14.4267L4.91601 14.5065L5.18519 15.7784L5.56241 15.6985L5.29323 14.4267ZM7.26958 14.7466C6.6733 14.3978 5.96891 14.2837 5.29324 14.4267L5.56241 15.6985C5.92142 15.6226 6.29587 15.6831 6.61325 15.8687L7.26958 14.7466ZM8.52386 16.3063C8.31094 15.65 7.86475 15.0947 7.26958 14.7466L6.61325 15.8687C6.93237 16.0554 7.17255 16.3537 7.28732 16.7075L8.52386 16.3063ZM8.64643 16.684L8.52386 16.3063L7.28732 16.7075L7.40988 17.0852L8.64643 16.684ZM8.90389 17.0913C8.97901 17.0916 9.01311 17.1196 8.99579 17.1082C8.97843 17.0968 8.94165 17.0666 8.88898 17.0057C8.78235 16.8823 8.67996 16.7158 8.59303 16.5631L7.46328 17.2062C7.55597 17.369 7.71038 17.6301 7.90551 17.8558C8.06993 18.046 8.4115 18.3893 8.89858 18.3913L8.90389 17.0913ZM11.095 17.1L8.90382 17.0913L8.89865 18.3913L11.0898 18.4L11.095 17.1ZM11.3927 16.5812C11.3071 16.733 11.2065 16.8976 11.1019 17.0189C11.0503 17.0788 11.0148 17.1076 10.999 17.1179C10.9837 17.1279 11.0193 17.0997 11.0951 17.1L11.0898 18.4C11.5796 18.402 11.922 18.0585 12.0862 17.8682C12.2806 17.6428 12.4336 17.3819 12.5251 17.2197L11.3927 16.5812ZM11.4591 16.3259L11.3392 16.7041L12.5785 17.0968L12.6983 16.7186L11.4591 16.3259ZM12.7066 14.77C12.1116 15.1148 11.667 15.6699 11.4591 16.3259L12.6983 16.7186C12.8087 16.3704 13.0444 16.0768 13.3585 15.8948L12.7066 14.77ZM14.6756 14.4633C14.0039 14.3156 13.3017 14.4251 12.7066 14.77L13.3585 15.8948C13.6725 15.7128 14.0426 15.6552 14.3964 15.733L14.6756 14.4633ZM15.0617 14.5482L14.6756 14.4633L14.3964 15.733L14.7826 15.8179L15.0617 14.5482ZM15.5236 14.5328C15.5605 14.4679 15.602 14.4513 15.586 14.4595C15.5694 14.4679 15.527 14.4843 15.4498 14.4992C15.2933 14.5295 15.1014 14.5345 14.9277 14.533L14.9166 15.833C15.1024 15.8346 15.4043 15.8321 15.6964 15.7756C15.944 15.7278 16.4108 15.6015 16.6531 15.1763L15.5236 14.5328ZM16.6117 12.6235L15.5236 14.5327L16.653 15.1764L17.7411 13.2672L16.6117 12.6235ZM16.3119 12.0845C16.4001 12.2364 16.4927 12.4088 16.5458 12.5633C16.5721 12.6396 16.5799 12.6871 16.5811 12.7085C16.5823 12.7299 16.5751 12.6876 16.6116 12.6235L17.7412 13.2671C17.9815 12.8453 17.8572 12.379 17.7751 12.1405C17.678 11.8582 17.5301 11.5935 17.4359 11.4314L16.3119 12.0845ZM16.1251 11.8962L16.3897 12.1917L17.3581 11.3243L17.0934 11.0289L16.1251 11.8962ZM15.4068 10.0273C15.4095 10.7173 15.665 11.3825 16.1251 11.8962L17.0934 11.0289C16.8461 10.7527 16.7082 10.3944 16.7068 10.0222L15.4068 10.0273ZM16.1176 8.15317C15.6571 8.66822 15.404 9.33615 15.4068 10.0273L16.7068 10.0222C16.7053 9.65184 16.8409 9.29457 17.0868 9.01961L16.1176 8.15317ZM16.3751 7.86516L16.1176 8.15317L17.0868 9.01961L17.3442 8.73159L16.3751 7.86516ZM16.5893 7.43734C16.5538 7.37566 16.5604 7.33495 16.5594 7.35567C16.5583 7.37674 16.551 7.42362 16.5255 7.49914C16.4739 7.65229 16.3832 7.8231 16.2963 7.97407L17.423 8.62268C17.5159 8.46122 17.6623 8.19683 17.7575 7.91422C17.8386 7.67345 17.9577 7.2091 17.7162 6.78921L16.5893 7.43734ZM15.4862 5.51939L16.5893 7.43734L17.7162 6.7892L16.6131 4.87125L15.4862 5.51939ZM14.8809 5.50754C15.0546 5.50747 15.2468 5.51405 15.4041 5.54563C15.4816 5.5612 15.5251 5.5781 15.5431 5.5874C15.5607 5.59645 15.5218 5.58128 15.4862 5.51939L16.6131 4.87125C16.371 4.4504 15.9091 4.32111 15.6601 4.27108C15.368 4.21242 15.0662 4.20747 14.8804 4.20754L14.8809 5.50754ZM14.638 5.57329L15.0153 5.49346L14.7461 4.22163L14.3689 4.30147L14.638 5.57329ZM12.6617 5.25343C13.258 5.60219 13.9624 5.7163 14.638 5.57329L14.3689 4.30147C14.0099 4.37745 13.6354 4.31691 13.318 4.13128L12.6617 5.25343ZM11.4074 3.69371C11.6203 4.34997 12.0665 4.90532 12.6617 5.25343L13.318 4.13128C12.9989 3.94463 12.7587 3.64627 12.644 3.29252L11.4074 3.69371ZM11.2848 3.31595L11.4074 3.69371L12.644 3.29252L12.5214 2.91476L11.2848 3.31595ZM11.0274 2.9087C10.9523 2.9084 10.9182 2.88035 10.9355 2.89175C10.9528 2.90318 10.9896 2.93343 11.0423 2.99435C11.1489 3.1177 11.2513 3.28424 11.3382 3.43694L12.468 2.79377C12.3753 2.63096 12.2209 2.36991 12.0258 2.14418C11.8613 1.95398 11.5198 1.6107 11.0327 1.60871L11.0274 2.9087ZM7.96218 9.98543C7.95749 8.86238 8.85834 7.96166 9.97107 7.96633L9.97651 6.66634C8.13683 6.65863 6.65451 8.15035 6.66219 9.99085L7.96218 9.98543ZM9.999 12.0324C8.88201 12.0277 7.96691 11.1127 7.96218 9.98541L6.66219 9.99087C6.66991 11.8272 8.15822 13.3247 9.99351 13.3324L9.999 12.0324ZM12.0078 10.0133C12.0125 11.1364 11.1116 12.0371 9.99898 12.0324L9.99353 13.3324C11.8332 13.3401 13.3155 11.8484 13.3078 10.0079L12.0078 10.0133ZM9.97105 7.96633C11.0881 7.97104 12.0031 8.88603 12.0078 10.0134L13.3078 10.0079C13.3001 8.17153 11.8119 6.67408 9.97653 6.66634L9.97105 7.96633Z" fill="white"/>
</g>
<defs>
<clipPath id="clip0_3243_99218">
<rect width="20" height="20" fill="white"/>
</clipPath>
</defs>
</svg>
