<svg width="24" height="24" viewBox="0 0 24 24" fill="none" xmlns="http://www.w3.org/2000/svg">
<g clip-path="url(#clip0_133_15638)">
<path fill-rule="evenodd" clip-rule="evenodd" d="M14.0136 5.02716C13.2751 4.744 12.4526 4.59885 11.5888 4.60011C9.96079 4.60247 8.48734 5.12287 7.42936 6.1044C6.38276 7.07537 5.67139 8.56307 5.67139 10.6512V10.6575L5.67136 10.6575L5.6504 13.475C5.64579 14.094 5.52172 14.7063 5.28498 15.2782L4.83043 16.3764H4.84985H4.87652H4.90319H4.92987H4.95654H4.98321H5.00989H5.03656H5.06323H5.08991H5.11658H5.14325H5.16992H5.1966H5.22327H5.24994H5.27662H5.30329H5.32996H5.35664H5.38331H5.40998H5.43666H5.46333H5.49H5.51668H5.54335H5.57002H5.5967H5.62337H5.65004H5.67672H5.70339H5.73006H5.75674H5.78341H5.81008H5.83676H5.86343H5.8901H5.91678H5.94345H5.97012H5.9968H6.02347H6.05014H6.07682H6.10349H6.13016H6.15684H6.18351H6.21018H6.23686H6.26353H6.2902H6.31688H6.34355H6.37022H6.3969H6.42357H6.45024H6.47692H6.50359H6.53026H6.55694H6.58361H6.61028H6.63696H6.66363H6.6903H6.71698H6.74365H6.77032H6.79699H6.82367H6.85034H6.87701H6.90369H6.93036H6.95703H6.98371H7.01038H7.03705H7.06373H7.0904H7.11707H7.14375H7.17042H7.19709H7.22377H7.25044H7.27711H7.30379H7.33046H7.35713H7.38381H7.41048H7.43715H7.46383H7.4905H7.51717H7.54385H7.57052H7.59719H7.62387H7.65054H7.67721H7.70389H7.73056H7.75723H7.78391H7.81058H7.83725H7.86393H7.8906H7.91727H7.94395H7.97062H7.99729H8.02397H8.05064H8.07731H8.10399H8.13066H8.15733H8.18401H8.21068H8.23735H8.26403H8.2907H8.31737H8.34404H8.37072H8.39739H8.42406H8.45074H8.47741H8.50408H8.53076H8.55743H8.5841H8.61078H8.63745H8.66412H8.6908H8.71747H8.74414H8.77082H8.79749H8.82416H8.85084H8.87751H8.90418H8.93086H8.95753H8.9842H9.01088H9.03755H9.06422H9.0909H9.11757H9.14424H9.17092H9.19759H9.22426H9.25094H9.27761H9.30428H9.33096H9.35763H9.3843H9.41098H9.43765H9.46432H9.491H9.51767H9.54434H9.57102H9.59769H9.62436H9.65104H9.67771H9.70438H9.73106H9.75773H9.7844H9.81108H9.83775H9.86442H9.8911H9.91777H9.94444H9.97112H9.99779H10.0245H10.0511H10.0778H10.1045H10.1312H10.1578H10.1845H10.2112H10.2378H10.2645H10.2912H10.3179H10.3445H10.3712H10.3979H10.4246H10.4512H10.4779H10.5046H10.5313H10.5579H10.5846H10.6113H10.6379H10.6646H10.6913H10.718H10.7446H10.7713H10.798H10.8247H10.8513H10.878H10.9047H10.9314H10.958H10.9847H11.0114H11.038H11.0647H11.0914H11.1181H11.1447H11.1714H11.1981H11.2248H11.2514H11.2781H11.3048H11.3315H11.3581H11.3848H11.4115H11.4381H11.4648H11.4915H11.5182H11.5448H11.5715H11.5982H11.6249H11.6515H11.6782H11.7049H11.7316H11.7582H11.7849H11.8116H11.8382H11.8649H11.8916H11.9183H11.9449H11.9716H11.9983H12.025H12.0516H12.0783H12.105H12.1317H12.1583H12.185H12.2117H12.2383H12.265H12.2917H12.3184H12.345H12.3717H12.3984H12.4251H12.4517H12.4784H12.5051H12.5317H12.5584H12.5851H12.6118H12.6384H12.6651H12.6918H12.7185H12.7451H12.7718H12.7985H12.8252H12.8518H12.8785H12.9052H12.9318H12.9585H12.9852H13.0119H13.0385H13.0652H13.0919H13.1186H13.1452H13.1719H13.1986H13.2253H13.2519H13.2786H13.3053H13.3319H13.3586H13.3853H13.412H13.4386H13.4653H13.492H13.5187H13.5453H13.572H13.5987H13.6254H13.652H13.6787H13.7054H13.732H13.7587H13.7854H13.8121H13.8387H13.8654H13.8921H13.9188H13.9454H13.9721H13.9988H14.0255H14.0521H14.0788H14.1055H14.1321H14.1588H14.1855H14.2122H14.2388H14.2655H14.2922H14.3189H14.3455H14.3722H14.3989H14.4256H14.4522H14.4789H14.5056H14.5322H14.5589H14.5856H14.6123H14.6389H14.6656H14.6923H14.719H14.7456H14.7723H14.799H14.8257H14.8523H14.879H14.9057H14.9323H14.959H14.9857H15.0124H15.039H15.0657H15.0924H15.1191H15.1457H15.1724H15.1991H15.2258H15.2524H15.2791H15.3058H15.3324H15.3591H15.3858H15.4125H15.4391H15.4658H15.4925H15.5192H15.5458H15.5725H15.5992H15.6259H15.6525H15.6792H15.7059H15.7325H15.7592H15.7859H15.8126H15.8392H15.8659H15.8926H15.9193H15.9459H15.9726H15.9993H16.0259H16.0526H16.0793H16.106H16.1326H16.1593H16.186H16.2127H16.2393H16.266H16.2927H16.3194H16.346H16.3727H16.3994H16.426H16.4527H16.4794H16.5061H16.5327H16.5594H16.5861H16.6128H16.6394H16.6661H16.6928H16.7195H16.7461H16.7728H16.7995H16.8261H16.8528H16.8795H16.9062H16.9328H16.9595H16.9862H17.0129H17.0395H17.0662H17.0929H17.1196H17.1462H17.1729H17.1996H17.2262H17.2529H17.2796H17.3063H17.3329H17.3596H17.3863H17.413H17.4396H17.4663H17.493H17.5197H17.5463H17.573H17.5997H17.6263H17.653H17.6797H17.7064H17.733H17.7597H17.7864H17.8131H17.8397H17.8664H17.8931H17.9198H17.9464H17.9731H17.9998H18.0264H18.0531H18.0798H18.1065H18.1331H18.1598H18.1865H18.2132H18.2398H18.2665H18.2932H18.3104L17.8562 15.3458C17.5869 14.7348 17.4478 14.0744 17.4478 13.4067V13.3104C17.4478 12.8409 17.8284 12.4604 18.2978 12.4604C18.7673 12.4604 19.1479 12.8409 19.1479 13.3104V13.4067C19.1479 13.8383 19.2378 14.2652 19.4118 14.6602L19.9021 15.7726C20.3803 16.8577 19.5857 18.0764 18.3999 18.0764H18.3732H18.3465H18.3199H18.2932H18.2665H18.2398H18.2132H18.1865H18.1598H18.1331H18.1065H18.0798H18.0531H18.0264H17.9998H17.9731H17.9464H17.9198H17.8931H17.8664H17.8397H17.8131H17.7864H17.7597H17.733H17.7064H17.6797H17.653H17.6263H17.5997H17.573H17.5463H17.5197H17.493H17.4663H17.4396H17.413H17.3863H17.3596H17.3329H17.3063H17.2796H17.2529H17.2262H17.1996H17.1729H17.1462H17.1196H17.0929H17.0662H17.0395H17.0129H16.9862H16.9595H16.9328H16.9062H16.8795H16.8528H16.8261H16.7995H16.7728H16.7461H16.7195H16.6928H16.6661H16.6394H16.6128H16.5861H16.5594H16.5327H16.5061H16.4794H16.4527H16.426H16.3994H16.3727H16.346H16.3194H16.2927H16.266H16.2393H16.2127H16.186H16.1593H16.1326H16.106H16.0793H16.0526H16.0259H15.9993H15.9726H15.9459H15.9193H15.8926H15.8659H15.8392H15.8126H15.7859H15.7592H15.7325H15.7059H15.6792H15.6525H15.6259H15.5992H15.5725H15.5458H15.5192H15.4925H15.4658H15.4391H15.4125H15.3858H15.3591H15.3324H15.3058H15.2791H15.2524H15.2258H15.1991H15.1724H15.1457H15.1191H15.0924H15.0657H15.039H15.015C14.9334 18.92 14.587 19.6482 14.0213 20.184C13.376 20.7953 12.5074 21.0981 11.5873 21.0981C9.78664 21.0981 8.3545 19.7792 8.16194 18.0764H8.15733H8.13066H8.10399H8.07731H8.05064H8.02397H7.99729H7.97062H7.94395H7.91727H7.8906H7.86393H7.83725H7.81058H7.78391H7.75723H7.73056H7.70389H7.67721H7.65054H7.62387H7.59719H7.57052H7.54385H7.51717H7.4905H7.46383H7.43715H7.41048H7.38381H7.35713H7.33046H7.30379H7.27711H7.25044H7.22377H7.19709H7.17042H7.14375H7.11707H7.0904H7.06373H7.03705H7.01038H6.98371H6.95703H6.93036H6.90369H6.87701H6.85034H6.82367H6.79699H6.77032H6.74365H6.71698H6.6903H6.66363H6.63696H6.61028H6.58361H6.55694H6.53026H6.50359H6.47692H6.45024H6.42357H6.3969H6.37022H6.34355H6.31688H6.2902H6.26353H6.23686H6.21018H6.18351H6.15684H6.13016H6.10349H6.07682H6.05014H6.02347H5.9968H5.97012H5.94345H5.91678H5.8901H5.86343H5.83676H5.81008H5.78341H5.75674H5.73006H5.70339H5.67672H5.65004H5.62337H5.5967H5.57002H5.54335H5.51668H5.49H5.46333H5.43666H5.40998H5.38331H5.35664H5.32996H5.30329H5.27662H5.24994H5.22327H5.1966H5.16992H5.14325H5.11658H5.08991H5.06323H5.03656H5.00989H4.98321H4.95654H4.92987H4.90319H4.87652H4.84985H4.82317H4.7965H4.76983H4.74315C3.57335 18.0764 2.7789 16.8877 3.22629 15.8069L3.71422 14.628C3.86726 14.2583 3.94747 13.8625 3.95044 13.4624L3.97139 10.648C3.97213 8.14739 4.83942 6.18826 6.27315 4.85813C7.69611 3.53799 9.60576 2.90298 11.5864 2.90011C12.6403 2.89858 13.6719 3.07549 14.6222 3.43982C15.0605 3.60788 15.2796 4.09945 15.1116 4.53778C14.9435 4.97611 14.4519 5.19521 14.0136 5.02716ZM13.2786 18.0764H13.3009C13.2329 18.4629 13.0647 18.7486 12.8522 18.9498C12.5669 19.2201 12.1374 19.3981 11.5873 19.3981C10.7275 19.3981 10.058 18.8325 9.88414 18.0764H9.8911H9.91777H9.94444H9.97112H9.99779H10.0245H10.0511H10.0778H10.1045H10.1312H10.1578H10.1845H10.2112H10.2378H10.2645H10.2912H10.3179H10.3445H10.3712H10.3979H10.4246H10.4512H10.4779H10.5046H10.5313H10.5579H10.5846H10.6113H10.6379H10.6646H10.6913H10.718H10.7446H10.7713H10.798H10.8247H10.8513H10.878H10.9047H10.9314H10.958H10.9847H11.0114H11.038H11.0647H11.0914H11.1181H11.1447H11.1714H11.1981H11.2248H11.2514H11.2781H11.3048H11.3315H11.3581H11.3848H11.4115H11.4381H11.4648H11.4915H11.5182H11.5448H11.5715H11.5982H11.6249H11.6515H11.6782H11.7049H11.7316H11.7582H11.7849H11.8116H11.8382H11.8649H11.8916H11.9183H11.9449H11.9716H11.9983H12.025H12.0516H12.0783H12.105H12.1317H12.1583H12.185H12.2117H12.2383H12.265H12.2917H12.3184H12.345H12.3717H12.3984H12.4251H12.4517H12.4784H12.5051H12.5317H12.5584H12.5851H12.6118H12.6384H12.6651H12.6918H12.7185H12.7451H12.7718H12.7985H12.8252H12.8518H12.8785H12.9052H12.9318H12.9585H12.9852H13.0119H13.0385H13.0652H13.0919H13.1186H13.1452H13.1719H13.1986H13.2253H13.2519H13.2786ZM16.606 4.56083L17.6748 4.56501C17.8502 4.56571 18.0131 4.82469 18.1007 4.9761L18.1605 5.15738C18.2404 5.39972 18.4078 5.60456 18.6308 5.73287C18.8536 5.86109 19.1167 5.90299 19.3691 5.85045L19.5531 5.81214C19.7284 5.81207 20.035 5.82321 20.1232 5.97423L20.6613 6.89462C20.7496 7.04565 20.6061 7.3134 20.5184 7.46333L20.3928 7.60154C20.2205 7.7911 20.1257 8.03709 20.1267 8.29178C20.1278 8.54665 20.2237 8.79224 20.3962 8.98176L20.5253 9.12353C20.6143 9.27417 20.7599 9.54299 20.6729 9.69331L20.1421 10.6095C20.0551 10.7598 19.7487 10.7686 19.5733 10.7671L19.3849 10.7264C19.1349 10.6723 18.8733 10.7124 18.6516 10.8388C18.4299 10.9652 18.264 11.1689 18.1864 11.4098L18.1279 11.5913C18.0415 11.742 17.8806 11.9997 17.7053 11.999L16.6365 11.9948C16.4611 11.9941 16.2982 11.7351 16.2106 11.5837L16.1508 11.4024C16.0709 11.1601 15.9035 10.9553 15.6805 10.8269C15.4577 10.6987 15.1946 10.6568 14.9422 10.7094L14.7583 10.7477C14.5829 10.7477 14.2764 10.7366 14.1881 10.5856L13.65 9.66519C13.5617 9.51417 13.7052 9.24642 13.793 9.09649L13.9186 8.95827C14.0908 8.76872 14.1856 8.52273 14.1846 8.26804C14.1836 8.01317 14.0876 7.76758 13.9151 7.57806L13.786 7.43628C13.6971 7.28565 13.5514 7.01683 13.6385 6.86651L14.1692 5.95029C14.2563 5.79997 14.5627 5.7912 14.738 5.79267L14.9264 5.83342C15.1765 5.88751 15.438 5.84742 15.6597 5.721C15.8814 5.59458 16.0474 5.39094 16.125 5.15L16.1834 4.96852C16.2698 4.81781 16.4307 4.56013 16.606 4.56083ZM15.8614 8.2742C15.8584 7.56313 16.4396 6.98909 17.1596 6.99205C17.8797 6.99504 18.4658 7.57388 18.4688 8.28499C18.4718 8.99607 17.8906 9.57011 17.1706 9.56714C16.4506 9.56415 15.8644 8.98528 15.8614 8.2742Z" fill="white"/>
</g>
<defs>
<clipPath id="clip0_133_15638">
<rect width="24" height="24" fill="white"/>
</clipPath>
</defs>
</svg>
