<svg width="16" height="16" viewBox="0 0 16 16" fill="none" xmlns="http://www.w3.org/2000/svg">
<g clip-path="url(#clip0_3292_6786)">
<path fill-rule="evenodd" clip-rule="evenodd" d="M11.5467 9.81361L10.8768 9.80809C10.7669 9.80718 10.6653 9.9703 10.6108 10.0657L10.5737 10.1808C10.5244 10.3335 10.4198 10.4623 10.2805 10.5419C10.1412 10.6216 9.97716 10.6463 9.82055 10.6113L9.7026 10.585C9.5927 10.5835 9.40062 10.5883 9.34565 10.6835L9.0105 11.2636C8.95553 11.3588 9.04608 11.5298 9.10143 11.6256L9.18195 11.716C9.28959 11.8367 9.34904 11.9929 9.34899 12.1546C9.34894 12.3163 9.28885 12.4722 9.18037 12.592L9.10127 12.6794C9.04588 12.7743 8.9552 12.9439 9.01013 13.04L9.34487 13.6256C9.3998 13.7217 9.59191 13.7296 9.70181 13.73L9.81724 13.7062C9.97555 13.6735 10.1403 13.7008 10.2797 13.7828C10.4191 13.8649 10.5234 13.9953 10.5729 14.1494L10.6098 14.2646C10.6643 14.3609 10.7658 14.5257 10.8757 14.5267L11.5455 14.5322C11.6554 14.5331 11.757 14.37 11.8115 14.2746L11.8487 14.1595C11.898 14.0068 12.0025 13.878 12.1418 13.7983C12.2812 13.7187 12.4452 13.694 12.6018 13.729L12.7197 13.7553C12.8296 13.7567 13.0217 13.752 13.0767 13.6568L13.4118 13.0767C13.4668 12.9815 13.3763 12.8105 13.3209 12.7147L13.2404 12.6243C13.1328 12.5036 13.0733 12.3474 13.0733 12.1857C13.0734 12.024 13.1335 11.8681 13.242 11.7483L13.3211 11.6609C13.3765 11.5659 13.4671 11.3964 13.4122 11.3003L13.0775 10.7147C13.0225 10.6186 12.8304 10.6107 12.7205 10.6102L12.6051 10.6341C12.4468 10.6667 12.282 10.6394 12.1427 10.5574C12.0033 10.4754 11.8989 10.3449 11.8495 10.1909L11.8125 10.0757C11.758 9.97935 11.6566 9.81453 11.5467 9.81361ZM11.2172 11.3528C10.7659 11.3489 10.4001 11.7117 10.4 12.1631C10.4 12.6144 10.7658 12.9834 11.2171 12.9872C11.6684 12.9911 12.0342 12.6283 12.0343 12.1769C12.0343 11.7256 11.6685 11.3566 11.2172 11.3528Z" fill="white"/>
<path d="M12 8.79994V6.70241C12 6.70176 11.9997 6.70113 11.9993 6.70067C11.9988 6.70021 11.9982 6.69995 11.9975 6.69995H2.40245C2.4018 6.69995 2.40117 6.70021 2.40071 6.70067C2.40025 6.70113 2.39999 6.70176 2.39999 6.70241V9.09994C2.39999 11.7509 4.54903 13.8999 7.19999 13.8999C7.48849 13.8999 7.77104 13.8745 8.04552 13.8257" stroke="white" stroke-width="0.9" stroke-linecap="round"/>
<path d="M14 8.59995C14 8.84848 14.2015 9.04995 14.45 9.04995C14.6985 9.04995 14.9 8.84848 14.9 8.59995H14ZM12 7.14995H12.55V6.24995H12V7.14995ZM12.55 7.14995C13.3508 7.14995 14 7.79914 14 8.59995H14.9C14.9 7.30208 13.8479 6.24995 12.55 6.24995V7.14995Z" fill="white"/>
<path d="M8.09439 1.9502H10.3639C10.3227 3.55869 9.00675 4.84959 7.38834 4.84961H5.1188C5.1601 3.2412 6.47603 1.9502 8.09439 1.9502Z" stroke="white" stroke-width="0.9"/>
</g>
<defs>
<clipPath id="clip0_3292_6786">
<rect width="16" height="16" fill="white"/>
</clipPath>
</defs>
</svg>
