<svg width="24" height="24" viewBox="0 0 24 24" fill="none" xmlns="http://www.w3.org/2000/svg">
<g clip-path="url(#clip0_1394_56035)">
<path d="M10.525 2.5L10.5216 3.35L10.5216 3.35L10.525 2.5ZM13.211 2.51068L13.2145 1.66068L13.2144 1.66068L13.211 2.51068ZM9.46294 3.5414L8.72253 3.12391L8.67926 3.20064L8.65265 3.28462L9.46294 3.5414ZM9.31603 4.00497L10.1263 4.26175L10.1263 4.26174L9.31603 4.00497ZM8.14682 5.46353L8.57304 6.19895L8.57304 6.19895L8.14682 5.46353ZM6.30388 5.7507L6.4864 4.92052L6.4864 4.92052L6.30388 5.7507ZM5.8305 5.64662L6.01302 4.81645L5.92643 4.79741L5.83778 4.79665L5.8305 5.64662ZM4.40103 6.04924L5.13952 6.47011L5.13956 6.47004L4.40103 6.04924ZM3.06724 8.38962L2.32875 7.96875L2.32871 7.96882L3.06724 8.38962ZM3.43806 9.84505L2.70311 10.2721L2.74684 10.3473L2.80491 10.4122L3.43806 9.84505ZM3.76243 10.2072L3.12929 10.7743H3.12929L3.76243 10.2072ZM4.43971 11.9697L5.2897 11.9663L4.43971 11.9697ZM3.77115 13.7328L3.13746 13.1663L3.13746 13.1663L3.77115 13.7328ZM3.45552 14.0859L2.82183 13.5193L2.76295 13.5852L2.71887 13.6618L3.45552 14.0859ZM3.09628 15.5386L2.35945 15.9624L2.35945 15.9624L3.09628 15.5386ZM4.44847 17.8896L5.18529 17.4658V17.4658L4.44847 17.8896ZM5.88137 18.3037L5.88172 19.1537L5.97051 19.1536L6.05737 19.1352L5.88137 18.3037ZM6.34377 18.2058L6.16777 17.3742L6.16777 17.3742L6.34377 18.2058ZM8.19914 18.5061L7.76999 19.2399H7.77L8.19914 18.5061ZM9.38103 19.9762L10.1895 19.7139L10.1895 19.7139L9.38103 19.9762ZM9.53127 20.4392L8.72276 20.7016L8.74958 20.7842L8.79259 20.8598L9.53127 20.4392ZM10.6015 21.4893L10.598 22.3393H10.5981L10.6015 21.4893ZM13.2875 21.5L13.2909 20.65H13.2909L13.2875 21.5ZM14.3496 20.4586L15.09 20.8761L15.1332 20.7994L15.1598 20.7154L14.3496 20.4586ZM14.4965 19.995L15.3068 20.2518V20.2518L14.4965 19.995ZM15.6657 18.5365L16.0919 19.2719H16.0919L15.6657 18.5365ZM17.5086 18.2493L17.6911 17.4191H17.6911L17.5086 18.2493ZM17.982 18.3534L17.7995 19.1835L17.8861 19.2026L17.9747 19.2033L17.982 18.3534ZM19.4115 17.9508L18.673 17.5299L18.6729 17.53L19.4115 17.9508ZM20.7453 15.6104L21.4837 16.0313L21.4838 16.0312L20.7453 15.6104ZM20.3744 14.1549L21.1094 13.7279L21.0657 13.6527L21.0076 13.5878L20.3744 14.1549ZM20.0501 13.7928L19.4169 14.3599V14.3599L20.0501 13.7928ZM19.3728 12.0303L18.5228 12.0337V12.0337L19.3728 12.0303ZM20.0414 10.2672L20.675 10.8337L20.675 10.8337L20.0414 10.2672ZM20.357 9.91414L20.9907 10.4807L21.0495 10.4148L21.0936 10.3382L20.357 9.91414ZM20.7162 8.46143L21.453 8.03765V8.03765L20.7162 8.46143ZM19.364 6.11039L18.6272 6.53417V6.53417L19.364 6.11039ZM17.9311 5.69635L17.9308 4.84635L17.842 4.84638L17.7551 4.86477L17.9311 5.69635ZM17.4687 5.79421L17.6447 6.62579V6.62579L17.4687 5.79421ZM15.6134 5.49385L16.0425 4.76014L16.0425 4.76014L15.6134 5.49385ZM14.4315 4.02382L13.623 4.28614L13.623 4.28614L14.4315 4.02382ZM14.2812 3.56076L15.0897 3.29844L15.0629 3.21576L15.0199 3.14023L14.2812 3.56076ZM8.65367 11.9856L7.80368 11.9891V11.9891L8.65367 11.9856ZM11.9163 8.71044L11.9199 7.86045L11.9198 7.86045L11.9163 8.71044ZM11.9438 15.2882L11.9402 16.1382H11.9403L11.9438 15.2882ZM15.2064 12.0131L16.0564 12.0096V12.0095L15.2064 12.0131ZM10.5216 3.35L13.2076 3.36067L13.2144 1.66068L10.5284 1.65001L10.5216 3.35ZM10.2033 3.95889C10.308 3.7732 10.4291 3.57533 10.5537 3.43094C10.6151 3.35977 10.6549 3.32835 10.6686 3.31941C10.6817 3.31085 10.628 3.35043 10.5216 3.35L10.5285 1.65001C9.90267 1.64746 9.46905 2.08572 9.26658 2.32039C9.02455 2.6009 8.8349 2.92462 8.72253 3.12391L10.2033 3.95889ZM10.1263 4.26174L10.2732 3.79817L8.65265 3.28462L8.50575 3.74819L10.1263 4.26174ZM8.57304 6.19895C9.31391 5.76957 9.86751 5.07846 10.1263 4.26175L8.50575 3.74819C8.37448 4.16242 8.09413 4.51164 7.7206 4.72812L8.57304 6.19895ZM6.12137 6.58087C6.95767 6.76473 7.83208 6.62838 8.57304 6.19895L7.7206 4.72812C7.34717 4.94454 6.90709 5.01301 6.4864 4.92052L6.12137 6.58087ZM5.64798 6.4768L6.12137 6.58087L6.4864 4.92052L6.01302 4.81645L5.64798 6.4768ZM5.13956 6.47004C5.08761 6.56123 5.02741 6.5879 5.041 6.58096C5.05538 6.57363 5.1021 6.55481 5.19383 6.53709C5.38009 6.50109 5.61078 6.49477 5.82322 6.49659L5.83778 4.79665C5.60956 4.7947 5.2349 4.7977 4.87129 4.86796C4.56591 4.92698 3.97196 5.08531 3.66249 5.62845L5.13956 6.47004ZM3.80574 8.81048L5.13952 6.47011L3.66254 5.62838L2.32875 7.96875L3.80574 8.81048ZM4.17301 9.41803C4.06508 9.23228 3.95392 9.02478 3.89055 8.84055C3.85929 8.74969 3.8512 8.69655 3.85009 8.67686C3.84897 8.65717 3.85719 8.72018 3.80578 8.81041L2.32871 7.96882C2.02173 8.50761 2.18186 9.09949 2.28299 9.39351C2.40383 9.7448 2.58746 10.073 2.70311 10.2721L4.17301 9.41803ZM4.39558 9.64007L4.07121 9.27793L2.80491 10.4122L3.12929 10.7743L4.39558 9.64007ZM5.2897 11.9663C5.28631 11.1075 4.96834 10.2795 4.39558 9.64007L3.12929 10.7743C3.42379 11.1031 3.58796 11.5297 3.58972 11.973L5.2897 11.9663ZM4.40483 14.2993C4.97805 13.6581 5.29311 12.8267 5.2897 11.9663L3.58972 11.973C3.59146 12.4139 3.42999 12.8391 3.13746 13.1663L4.40483 14.2993ZM4.08921 14.6524L4.40484 14.2993L3.13746 13.1663L2.82183 13.5193L4.08921 14.6524ZM3.8331 15.1148C3.8832 15.2019 3.87588 15.2628 3.87679 15.244C3.87773 15.2248 3.88526 15.1724 3.91552 15.0826C3.97699 14.9001 4.08588 14.6946 4.19217 14.5099L2.71887 13.6618C2.60469 13.8601 2.42301 14.188 2.30451 14.5398C2.20444 14.8368 2.05106 15.4261 2.35945 15.9624L3.8331 15.1148ZM5.18529 17.4658L3.8331 15.1148L2.35945 15.9624L3.71165 18.3134L5.18529 17.4658ZM5.88102 17.4537C5.66862 17.4537 5.43752 17.4456 5.25025 17.408C5.15807 17.3895 5.10994 17.3701 5.09374 17.3617C5.07817 17.3537 5.13504 17.3784 5.18529 17.4658L3.71165 18.3134C4.02076 18.8508 4.6082 19.013 4.91551 19.0747C5.27907 19.1477 5.65347 19.1537 5.88172 19.1537L5.88102 17.4537ZM6.16777 17.3742L5.70537 17.4721L6.05737 19.1352L6.51977 19.0374L6.16777 17.3742ZM8.62828 17.7724C7.88594 17.3382 7.00898 17.1962 6.16777 17.3742L6.51976 19.0374C6.94688 18.947 7.39237 19.019 7.76999 19.2399L8.62828 17.7724ZM10.1895 19.7139C9.92453 18.897 9.36915 18.2058 8.62828 17.7724L7.77 19.2399C8.14987 19.462 8.43585 19.8173 8.57252 20.2385L10.1895 19.7139ZM10.3398 20.1769L10.1895 19.7139L8.57252 20.2385L8.72276 20.7016L10.3398 20.1769ZM10.605 20.6393C10.7106 20.6398 10.7624 20.6792 10.7467 20.6689C10.7309 20.6585 10.6894 20.6253 10.6267 20.5528C10.4997 20.4057 10.3763 20.2055 10.27 20.0187L8.79259 20.8598C8.90644 21.0598 9.09785 21.3836 9.34067 21.6645C9.54333 21.899 9.97579 22.3368 10.598 22.3393L10.605 20.6393ZM13.2909 20.65L10.6049 20.6393L10.5981 22.3393L13.2841 22.35L13.2909 20.65ZM13.6092 20.0411C13.5044 20.2268 13.3834 20.4247 13.2588 20.5691C13.1974 20.6402 13.1576 20.6716 13.1439 20.6806C13.1308 20.6891 13.1845 20.6496 13.2909 20.65L13.284 22.35C13.9098 22.3525 14.3434 21.9143 14.5459 21.6796C14.788 21.3991 14.9776 21.0754 15.09 20.8761L13.6092 20.0411ZM13.6862 19.7383L13.5393 20.2018L15.1598 20.7154L15.3068 20.2518L13.6862 19.7383ZM15.2395 17.8011C14.4986 18.2304 13.945 18.9215 13.6862 19.7383L15.3068 20.2518C15.438 19.8376 15.7184 19.4884 16.0919 19.2719L15.2395 17.8011ZM17.6911 17.4191C16.8548 17.2353 15.9804 17.3716 15.2395 17.8011L16.0919 19.2719C16.4653 19.0555 16.9054 18.987 17.3261 19.0795L17.6911 17.4191ZM18.1645 17.5232L17.6911 17.4191L17.3261 19.0795L17.7995 19.1835L18.1645 17.5232ZM18.6729 17.53C18.7249 17.4388 18.7851 17.4121 18.7715 17.419C18.7571 17.4264 18.7104 17.4452 18.6187 17.4629C18.4324 17.4989 18.2017 17.5052 17.9893 17.5034L17.9747 19.2033C18.2029 19.2053 18.5776 19.2023 18.9412 19.132C19.2466 19.073 19.8405 18.9147 20.15 18.3715L18.6729 17.53ZM20.0068 15.1895L18.673 17.5299L20.15 18.3716L21.4837 16.0313L20.0068 15.1895ZM19.6395 14.582C19.7474 14.7677 19.8586 14.9752 19.922 15.1595C19.9532 15.2503 19.9613 15.3035 19.9624 15.3231C19.9635 15.3428 19.9553 15.2798 20.0067 15.1896L21.4838 16.0312C21.7908 15.4924 21.6306 14.9005 21.5295 14.6065C21.4087 14.2552 21.225 13.927 21.1094 13.7279L19.6395 14.582ZM19.4169 14.3599L19.7413 14.7221L21.0076 13.5878L20.6832 13.2257L19.4169 14.3599ZM18.5228 12.0337C18.5262 12.8925 18.8442 13.7205 19.4169 14.3599L20.6832 13.2257C20.3887 12.8969 20.2245 12.4703 20.2228 12.027L18.5228 12.0337ZM19.4077 9.70067C18.8344 10.3419 18.5194 11.1733 18.5228 12.0337L20.2228 12.027C20.221 11.5861 20.3825 11.1609 20.675 10.8337L19.4077 9.70067ZM19.7233 9.34762L19.4077 9.70067L20.675 10.8337L20.9907 10.4807L19.7233 9.34762ZM19.9794 8.88521C19.9293 8.79811 19.9366 8.73718 19.9357 8.75598C19.9348 8.77523 19.9272 8.8276 19.897 8.91744C19.8355 9.09987 19.7266 9.30542 19.6203 9.49005L21.0936 10.3382C21.2078 10.1399 21.3895 9.81196 21.508 9.46023C21.6081 9.16322 21.7614 8.57386 21.453 8.03765L19.9794 8.88521ZM18.6272 6.53417L19.9794 8.88521L21.453 8.03765L20.1009 5.68661L18.6272 6.53417ZM17.9315 6.54635C18.1439 6.54626 18.375 6.55438 18.5622 6.59199C18.6544 6.61051 18.7026 6.62995 18.7188 6.6383C18.7343 6.64634 18.6775 6.62155 18.6272 6.53417L20.1009 5.68661C19.7917 5.14915 19.2043 4.98699 18.897 4.92527C18.5334 4.85226 18.159 4.84625 17.9308 4.84635L17.9315 6.54635ZM17.6447 6.62579L18.1071 6.52792L17.7551 4.86477L17.2927 4.96263L17.6447 6.62579ZM15.1842 6.22757C15.9266 6.66176 16.8035 6.80383 17.6447 6.62579L17.2927 4.96263C16.8656 5.05302 16.4201 4.98101 16.0425 4.76014L15.1842 6.22757ZM13.623 4.28614C13.888 5.10297 14.4434 5.79424 15.1842 6.22757L16.0425 4.76014C15.6626 4.53795 15.3766 4.18274 15.24 3.7615L13.623 4.28614ZM13.4727 3.82307L13.623 4.28614L15.24 3.76151L15.0897 3.29844L13.4727 3.82307ZM13.2075 3.36067C13.1019 3.36024 13.0501 3.32078 13.0658 3.33112C13.0816 3.3415 13.1231 3.37471 13.1858 3.44724C13.3128 3.59425 13.4362 3.79452 13.5425 3.98129L15.0199 3.14023C14.9061 2.94024 14.7146 2.61637 14.4718 2.33548C14.2692 2.10105 13.8367 1.66322 13.2145 1.66068L13.2075 3.36067ZM9.50366 11.982C9.49804 10.6347 10.5785 9.55484 11.9127 9.56043L11.9198 7.86045C9.63499 7.85087 7.79414 9.70363 7.80368 11.9891L9.50366 11.982ZM11.9474 14.4382C10.6076 14.4326 9.50935 13.3347 9.50366 11.982L7.80368 11.9891C7.81326 14.2691 9.66112 16.1286 11.9402 16.1382L11.9474 14.4382ZM14.3564 12.0167C14.362 13.3639 13.2815 14.4438 11.9474 14.4382L11.9403 16.1382C14.2251 16.1478 16.0659 14.295 16.0564 12.0096L14.3564 12.0167ZM11.9127 9.56043C13.2526 9.56609 14.3507 10.6638 14.3564 12.0167L16.0564 12.0095C16.0468 9.72949 14.1991 7.87007 11.9199 7.86045L11.9127 9.56043Z" fill="white"/>
</g>
<defs>
<clipPath id="clip0_1394_56035">
<rect width="24" height="24" fill="white"/>
</clipPath>
</defs>
</svg>
