<svg width="20" height="20" viewBox="0 0 20 20" fill="none" xmlns="http://www.w3.org/2000/svg">
<g clip-path="url(#clip0_3243_99293)">
<path fill-rule="evenodd" clip-rule="evenodd" d="M11.1662 1.50955L8.76295 1.5C8.36867 1.4984 8.00688 2.08733 7.81266 2.43178L7.68122 2.84655C7.50671 3.39723 7.13363 3.86265 6.63508 4.15158C6.13654 4.44052 5.54848 4.53215 4.98614 4.40852L4.56258 4.3154C4.16831 4.31202 3.47933 4.33208 3.28358 4.67564L2.0902 6.76966C1.89445 7.11322 2.22194 7.7276 2.42198 8.07189L2.71221 8.39591C3.10019 8.82907 3.31589 9.39037 3.31819 9.97287C3.3205 10.555 3.10731 11.1172 2.72 11.5504L2.4376 11.8663C2.24033 12.209 1.91765 12.8209 2.11617 13.1661L3.32603 15.2696C3.52455 15.6148 4.21384 15.6403 4.6081 15.6401L5.02182 15.5525C5.58923 15.4325 6.18085 15.5282 6.68189 15.8213C7.18328 16.1145 7.55967 16.5827 7.73937 17.1366L7.8738 17.5509C8.0708 17.8969 8.4371 18.4888 8.83137 18.4904L11.2346 18.5C11.6289 18.5016 11.9907 17.9127 12.1849 17.5682L12.3163 17.1535C12.4908 16.6028 12.8639 16.1374 13.3625 15.8484C13.861 15.5595 14.4491 15.4678 15.0114 15.5915L15.435 15.6846C15.8293 15.688 16.5182 15.6679 16.714 15.3244L17.9074 13.2303C18.1031 12.8868 17.7756 12.2724 17.5756 11.9281L17.2854 11.6041C16.8974 11.1709 16.6817 10.6096 16.6794 10.0271C16.6771 9.44503 16.8902 8.88282 17.2776 8.44959L17.56 8.1337C17.7572 7.79103 18.0799 7.17908 17.8814 6.83391L16.6715 4.73035C16.473 4.38518 15.7837 4.35972 15.3895 4.35989L14.9757 4.44745C14.4083 4.56754 13.8167 4.47176 13.3157 4.17871C12.8143 3.88545 12.4379 3.41729 12.2582 2.86342L12.1238 2.4491C11.9268 2.10306 11.5605 1.51116 11.1662 1.50955ZM10.0459 7.16669C8.48109 7.16016 7.21795 8.42337 7.2245 9.98813C7.2311 11.5529 8.50497 12.8267 10.0697 12.8333C11.6345 12.8398 12.8977 11.5766 12.8911 10.0119C12.8845 8.44704 11.6108 7.17327 10.0459 7.16669Z" fill="white"/>
</g>
<defs>
<clipPath id="clip0_3243_99293">
<rect width="20" height="20" fill="white"/>
</clipPath>
</defs>
</svg>
