<svg width="20" height="20" viewBox="0 0 20 20" fill="none" xmlns="http://www.w3.org/2000/svg">
<g clip-path="url(#clip0_3243_97830)">
<path fill-rule="evenodd" clip-rule="evenodd" d="M14.5065 12.017L13.6692 12.0101C13.5318 12.0089 13.4049 12.2128 13.3367 12.3321L13.2903 12.4759C13.2286 12.6668 13.0979 12.8278 12.9238 12.9274C12.7497 13.0269 12.5446 13.0578 12.3489 13.0141L12.2014 12.9811C12.0641 12.9794 11.824 12.9853 11.7552 13.1043L11.3363 13.8294C11.2676 13.9484 11.3808 14.1622 11.45 14.282L11.5506 14.3949C11.6852 14.5458 11.7595 14.741 11.7594 14.9432C11.7594 15.1453 11.6842 15.3401 11.5486 15.49L11.4498 15.5992C11.3805 15.7179 11.2672 15.9298 11.3358 16.0499L11.7543 16.782C11.8229 16.9021 12.0631 16.912 12.2004 16.9125L12.3447 16.8827C12.5426 16.8419 12.7486 16.876 12.9228 16.9785C13.097 17.081 13.2275 17.2441 13.2893 17.4367L13.3355 17.5807C13.4036 17.7011 13.5304 17.9071 13.6677 17.9083L14.5051 17.9152C14.6425 17.9163 14.7694 17.7124 14.8376 17.5931L14.884 17.4493C14.9457 17.2584 15.0763 17.0974 15.2505 16.9979C15.4246 16.8983 15.6297 16.8674 15.8254 16.9111L15.9729 16.9441C16.1102 16.9459 16.3503 16.9399 16.419 16.821L16.838 16.0958C16.9067 15.9768 16.7935 15.7631 16.7243 15.6433L16.6237 15.5303C16.4891 15.3794 16.4148 15.1842 16.4149 14.982C16.4149 14.7799 16.49 14.5851 16.6256 14.4353L16.7245 14.326C16.7938 14.2074 16.9071 13.9954 16.8384 13.8753L16.42 13.1433C16.3514 13.0231 16.1112 13.0133 15.9738 13.0127L15.8296 13.0425C15.6317 13.0834 15.4257 13.0492 15.2515 12.9467C15.0773 12.8442 14.9468 12.6811 14.885 12.4886L14.8388 12.3445C14.7707 12.2241 14.6439 12.0181 14.5065 12.017ZM14.0947 13.9409C13.5306 13.9361 13.0733 14.3896 13.0732 14.9538C13.0732 15.518 13.5304 15.9792 14.0946 15.984C14.6587 15.9888 15.116 15.5353 15.116 14.9711C15.1161 14.4069 14.6589 13.9457 14.0947 13.9409Z" fill="white"/>
<path d="M14.5714 11V8.87446C14.5714 8.87363 14.5711 8.87284 14.5705 8.87225C14.5699 8.87167 14.5691 8.87134 14.5683 8.87134H2.00312C2.00229 8.87134 2.0015 8.87167 2.00091 8.87225C2.00033 8.87284 2 8.87363 2 8.87446V11.7285C2 15.2 4.81421 18.0142 8.28571 18.0142C9.17182 18.0142 10.0151 17.8308 10.7797 17.5" stroke="white" stroke-width="1.3" stroke-linecap="round"/>
<path d="M17.35 11.1571C17.35 11.516 17.641 11.8071 18 11.8071C18.359 11.8071 18.65 11.516 18.65 11.1571H17.35ZM12.2857 9.52134H15.7143V8.22134H12.2857V9.52134ZM15.7143 9.52134C16.6177 9.52134 17.35 10.2537 17.35 11.1571H18.65C18.65 9.5357 17.3356 8.22134 15.7143 8.22134V9.52134Z" fill="white"/>
<path d="M9.83768 2.43604H13.0642C13.0576 4.61191 11.2915 6.37354 9.11405 6.37354H5.88847C5.895 4.19771 7.66038 2.43625 9.83768 2.43604Z" stroke="white" stroke-width="1.3"/>
</g>
<defs>
<clipPath id="clip0_3243_97830">
<rect width="20" height="20" fill="white"/>
</clipPath>
</defs>
</svg>
