<svg width="24" height="24" viewBox="0 0 24 24" fill="none" xmlns="http://www.w3.org/2000/svg">
<g clip-path="url(#clip0_369_41942)">
<path fill-rule="evenodd" clip-rule="evenodd" d="M10.525 2.5L13.211 2.51067C13.6517 2.51247 14.061 3.174 14.2812 3.56076L14.4315 4.02382C14.6323 4.64286 15.053 5.1661 15.6134 5.49385C16.1733 5.82138 16.8346 5.92842 17.4687 5.79421L17.9311 5.69634C18.3718 5.69616 19.1422 5.72461 19.364 6.11039L20.7162 8.46143C20.9381 8.84721 20.5775 9.53116 20.357 9.91414L20.0414 10.2672C19.6085 10.7514 19.3702 11.3797 19.3728 12.0303C19.3754 12.6814 19.6164 13.3087 20.0501 13.7928L20.3744 14.1549C20.598 14.5397 20.964 15.2264 20.7453 15.6104L19.4115 17.9508C19.1927 18.3347 18.4227 18.3572 17.982 18.3534L17.5086 18.2493C16.8801 18.1111 16.2229 18.2135 15.6657 18.5365C15.1085 18.8594 14.6915 19.3796 14.4965 19.995L14.3496 20.4586C14.1325 20.8436 13.7281 21.5018 13.2875 21.5L10.6015 21.4893C10.1608 21.4875 9.75145 20.826 9.53127 20.4392L9.38103 19.9762C9.18019 19.3571 8.75951 18.8339 8.19914 18.5061C7.63915 18.1786 6.97793 18.0716 6.34377 18.2058L5.88137 18.3037C5.44072 18.3038 4.67035 18.2754 4.44847 17.8896L3.09628 15.5386C2.8744 15.1528 3.23504 14.4688 3.45552 14.0859L3.77115 13.7328C4.20402 13.2486 4.44229 12.6203 4.43971 11.9697C4.43713 11.3186 4.19607 10.6913 3.76243 10.2072L3.43806 9.84505C3.21449 9.46026 2.84847 8.7736 3.06724 8.38962L4.40103 6.04924C4.61981 5.66526 5.38984 5.64285 5.8305 5.64662L6.30388 5.7507C6.93238 5.88887 7.58963 5.78646 8.14682 5.46353C8.70402 5.1406 9.12099 4.62044 9.31603 4.00497L9.46294 3.5414C9.68001 3.15642 10.0844 2.49821 10.525 2.5ZM12.0096 8.87698C10.2826 8.86975 8.88855 10.2692 8.89578 12.0027C8.90307 13.7362 10.3089 15.1474 12.0359 15.1547C13.7628 15.162 15.1568 13.7625 15.1496 12.029C15.1423 10.2954 13.7366 8.88427 12.0096 8.87698Z" fill="white"/>
</g>
<defs>
<clipPath id="clip0_369_41942">
<rect width="24" height="24" fill="white"/>
</clipPath>
</defs>
</svg>
