<svg width="16" height="16" viewBox="0 0 16 16" fill="none" xmlns="http://www.w3.org/2000/svg">
<g clip-path="url(#clip0_3292_8162)">
<path d="M7.0637 1.59461L7.06187 2.0446L7.06191 2.0446L7.0637 1.59461ZM8.8747 1.6018L8.87654 1.15181L8.87649 1.15181L8.8747 1.6018ZM6.34759 2.29676L5.95561 2.07574L5.93271 2.11636L5.91862 2.16082L6.34759 2.29676ZM6.24854 2.60932L6.67752 2.74526V2.74526L6.24854 2.60932ZM5.46021 3.59275L5.68585 3.98209H5.68585L5.46021 3.59275ZM4.21762 3.78637L4.31424 3.34687V3.34687L4.21762 3.78637ZM3.89844 3.7162L3.99507 3.27669L3.94923 3.26662L3.9023 3.26621L3.89844 3.7162ZM2.93463 3.98766L3.32559 4.21048L3.32562 4.21044L2.93463 3.98766ZM2.03533 5.56565L1.64436 5.34283L1.64434 5.34287L2.03533 5.56565ZM2.28535 6.54697L1.89626 6.77304L1.91941 6.81288L1.95015 6.84721L2.28535 6.54697ZM2.50406 6.79114L2.16886 7.09138L2.16886 7.09138L2.50406 6.79114ZM2.96071 7.97949L2.51071 7.98127V7.98127L2.96071 7.97949ZM2.50993 9.16827L2.17445 8.86835L2.17445 8.86835L2.50993 9.16827ZM2.29712 9.40631L1.96164 9.10639L1.93047 9.14126L1.90713 9.1818L2.29712 9.40631ZM2.05491 10.3858L1.66482 10.6101L1.66482 10.6101L2.05491 10.3858ZM2.96661 11.971L3.3567 11.7466H3.3567L2.96661 11.971ZM3.93274 12.2501L3.93293 12.7001L3.97993 12.7001L4.02592 12.6904L3.93274 12.2501ZM4.24451 12.1842L4.15133 11.7439H4.15133L4.24451 12.1842ZM5.49548 12.3867L5.72268 11.9982H5.72268L5.49548 12.3867ZM6.29237 13.3778L6.7204 13.239V13.239L6.29237 13.3778ZM6.39366 13.69L5.96563 13.8289L5.97983 13.8727L6.0026 13.9127L6.39366 13.69ZM7.11526 14.3981L7.11343 14.8481L7.11347 14.8481L7.11526 14.3981ZM8.92627 14.4053L8.9281 13.9553H8.92805L8.92627 14.4053ZM9.64237 13.7031L10.0344 13.9241L10.0573 13.8835L10.0713 13.839L9.64237 13.7031ZM9.74142 13.3905L9.31245 13.2546L9.31245 13.2546L9.74142 13.3905ZM10.5298 12.4071L10.3041 12.0178V12.0178L10.5298 12.4071ZM11.7723 12.2135L11.869 11.774H11.869L11.7723 12.2135ZM12.0915 12.2837L11.9949 12.7232L12.0407 12.7332L12.0877 12.7336L12.0915 12.2837ZM13.0553 12.0122L12.6644 11.7894L12.6643 11.7894L13.0553 12.0122ZM13.9546 10.4342L14.3456 10.657L14.3456 10.657L13.9546 10.4342ZM13.7046 9.45289L14.0937 9.22682L14.0706 9.18698L14.0398 9.15265L13.7046 9.45289ZM13.4859 9.20872L13.1507 9.50896V9.50896L13.4859 9.20872ZM13.0293 8.02037L13.4793 8.01859V8.01859L13.0293 8.02037ZM13.48 6.83159L13.8155 7.13151L13.8155 7.13151L13.48 6.83159ZM13.6928 6.59355L14.0283 6.89347L14.0595 6.8586L14.0828 6.81806L13.6928 6.59355ZM13.9351 5.61407L13.545 5.83842L13.545 5.83842L13.9351 5.61407ZM13.0234 4.02889L12.6333 4.25325V4.25325L13.0234 4.02889ZM12.0572 3.74972L12.057 3.29972L12.01 3.29974L11.9641 3.30948L12.0572 3.74972ZM11.7455 3.81571L11.8386 4.25596V4.25596L11.7455 3.81571ZM10.4945 3.61319L10.2673 4.00163L10.2673 4.00163L10.4945 3.61319ZM9.6976 2.62203L9.26956 2.76091V2.76091L9.6976 2.62203ZM9.5963 2.30982L10.0243 2.17094L10.0101 2.12717L9.98737 2.08718L9.5963 2.30982ZM5.80197 7.99024L5.35197 7.99212V7.99213L5.80197 7.99024ZM8.00177 5.78201L8.00367 5.33201L8.00365 5.33201L8.00177 5.78201ZM8.02034 10.2171L8.01844 10.6671H8.01845L8.02034 10.2171ZM10.2201 8.00882L10.6701 8.00694V8.00693L10.2201 8.00882ZM7.06191 2.0446L8.87292 2.0518L8.87649 1.15181L7.06549 1.14461L7.06191 2.0446ZM6.73957 2.51779C6.81072 2.3916 6.89732 2.24907 6.98982 2.14186C7.0356 2.0888 7.07098 2.05853 7.09318 2.04403C7.11507 2.02972 7.10224 2.04477 7.06187 2.0446L7.06553 1.14461C6.70231 1.14313 6.44215 1.39892 6.3084 1.55393C6.15372 1.7332 6.03082 1.94236 5.95561 2.07574L6.73957 2.51779ZM6.67752 2.74526L6.77657 2.4327L5.91862 2.16082L5.81957 2.47338L6.67752 2.74526ZM5.68585 3.98209C6.15878 3.708 6.51225 3.26678 6.67752 2.74526L5.81957 2.47338C5.72183 2.78182 5.51301 3.04203 5.23456 3.20341L5.68585 3.98209ZM4.12099 4.22587C4.65476 4.34323 5.21288 4.25621 5.68585 3.98209L5.23456 3.20341C4.95616 3.36476 4.62799 3.41584 4.31424 3.34687L4.12099 4.22587ZM3.80181 4.1557L4.12099 4.22587L4.31424 3.34687L3.99507 3.27669L3.80181 4.1557ZM3.32562 4.21044C3.30603 4.24481 3.28708 4.2483 3.31018 4.23651C3.3337 4.22451 3.37734 4.20895 3.44581 4.19572C3.58424 4.16897 3.75021 4.16494 3.89459 4.16618L3.9023 3.26621C3.74956 3.26491 3.50737 3.26717 3.27505 3.31206C3.07356 3.351 2.72331 3.44954 2.54364 3.76489L3.32562 4.21044ZM2.4263 5.78846L3.32559 4.21048L2.54366 3.76485L1.64436 5.34283L2.4263 5.78846ZM2.67444 6.3209C2.60111 6.19469 2.52091 6.04605 2.47402 5.90973C2.45081 5.84224 2.44186 5.79472 2.44025 5.76628C2.43864 5.73784 2.44561 5.75455 2.42632 5.78842L1.64434 5.34287C1.46598 5.65592 1.55608 6.00803 1.62297 6.20248C1.70028 6.42723 1.81884 6.6398 1.89626 6.77304L2.67444 6.3209ZM2.83925 6.4909L2.62054 6.24673L1.95015 6.84721L2.16886 7.09138L2.83925 6.4909ZM3.4107 7.97771C3.40853 7.42877 3.20528 6.89954 2.83925 6.4909L2.16886 7.09138C2.38758 7.33556 2.50941 7.65229 2.51071 7.98127L3.4107 7.97771ZM2.84541 9.46819C3.21158 9.05861 3.41288 8.52741 3.4107 7.97771L2.51071 7.98127C2.51201 8.30886 2.39202 8.62499 2.17445 8.86835L2.84541 9.46819ZM2.6326 9.70623L2.84541 9.46819L2.17445 8.86835L1.96164 9.10639L2.6326 9.70623ZM2.44499 10.1614C2.46348 10.1936 2.45684 10.2092 2.4582 10.1812C2.45957 10.153 2.46807 10.1059 2.49061 10.039C2.53619 9.90376 2.61487 9.75631 2.68711 9.63083L1.90713 9.1818C1.83071 9.31454 1.71349 9.52677 1.63772 9.75167C1.57171 9.94759 1.48548 10.2983 1.66482 10.6101L2.44499 10.1614ZM3.3567 11.7466L2.44499 10.1614L1.66482 10.6101L2.57653 12.1953L3.3567 11.7466ZM3.93255 11.8001C3.7882 11.8002 3.622 11.7949 3.48297 11.7669C3.41423 11.7531 3.36979 11.7371 3.34524 11.7244C3.32102 11.7119 3.33812 11.7143 3.3567 11.7466L2.57653 12.1953C2.75625 12.5078 3.10317 12.6086 3.30576 12.6493C3.53811 12.696 3.78018 12.7002 3.93293 12.7001L3.93255 11.8001ZM4.15133 11.7439L3.83956 11.8099L4.02592 12.6904L4.33768 12.6244L4.15133 11.7439ZM5.72268 11.9982C5.24857 11.7209 4.68853 11.6302 4.15133 11.7439L4.33768 12.6244C4.65565 12.5571 4.98726 12.6107 5.26829 12.7751L5.72268 11.9982ZM6.7204 13.239C6.55101 12.7169 6.19606 12.2751 5.72268 11.9982L5.26829 12.7751C5.55056 12.9402 5.76289 13.204 5.86433 13.5167L6.7204 13.239ZM6.8217 13.5512L6.7204 13.239L5.86433 13.5167L5.96563 13.8289L6.8217 13.5512ZM7.1171 13.9481C7.15704 13.9482 7.16881 13.9631 7.14545 13.9477C7.12208 13.9323 7.08573 13.901 7.03915 13.8471C6.94508 13.7383 6.85697 13.5943 6.78473 13.4674L6.0026 13.9127C6.07882 14.0466 6.20295 14.256 6.35829 14.4357C6.49236 14.5908 6.75209 14.8466 7.11343 14.8481L7.1171 13.9481ZM8.92805 13.9553L7.11705 13.9481L7.11347 14.8481L8.92448 14.8552L8.92805 13.9553ZM9.25039 13.4821C9.17924 13.6083 9.09265 13.7508 9.00014 13.858C8.95436 13.9111 8.91899 13.9413 8.89679 13.9558C8.87489 13.9701 8.88773 13.9551 8.9281 13.9553L8.92444 14.8552C9.28766 14.8567 9.54782 14.6009 9.68156 14.4459C9.83624 14.2667 9.95914 14.0575 10.0344 13.9241L9.25039 13.4821ZM9.31245 13.2546L9.2134 13.5672L10.0713 13.839L10.1704 13.5265L9.31245 13.2546ZM10.3041 12.0178C9.83119 12.2919 9.47771 12.7331 9.31245 13.2546L10.1704 13.5265C10.2681 13.218 10.477 12.9578 10.7554 12.7964L10.3041 12.0178ZM11.869 11.774C11.3352 11.6566 10.7771 11.7437 10.3041 12.0178L10.7554 12.7964C11.0338 12.6351 11.362 12.584 11.6757 12.653L11.869 11.774ZM12.1882 11.8442L11.869 11.774L11.6757 12.653L11.9949 12.7232L12.1882 11.8442ZM12.6643 11.7894C12.6839 11.755 12.7029 11.7516 12.6798 11.7633C12.6563 11.7753 12.6126 11.7909 12.5442 11.8041C12.4057 11.8309 12.2398 11.8349 12.0954 11.8337L12.0877 12.7336C12.2404 12.735 12.4826 12.7327 12.7149 12.6878C12.9164 12.6489 13.2667 12.5503 13.4463 12.235L12.6643 11.7894ZM13.5637 10.2114L12.6644 11.7894L13.4463 12.235L14.3456 10.657L13.5637 10.2114ZM13.3155 9.67896C13.3889 9.80517 13.4691 9.95381 13.5159 10.0901C13.5392 10.1576 13.5481 10.2051 13.5497 10.2336C13.5513 10.262 13.5444 10.2453 13.5636 10.2114L14.3456 10.657C14.524 10.3439 14.4339 9.99183 14.367 9.79738C14.2897 9.57263 14.1711 9.36006 14.0937 9.22682L13.3155 9.67896ZM13.1507 9.50896L13.3694 9.75313L14.0398 9.15265L13.8211 8.90848L13.1507 9.50896ZM12.5793 8.02215C12.5814 8.57109 12.7847 9.10032 13.1507 9.50896L13.8211 8.90848C13.6024 8.6643 13.4806 8.34757 13.4793 8.01859L12.5793 8.02215ZM13.1446 6.53167C12.7784 6.94124 12.5771 7.47244 12.5793 8.02215L13.4793 8.01859C13.478 7.691 13.5979 7.37487 13.8155 7.13151L13.1446 6.53167ZM13.3574 6.29363L13.1446 6.53167L13.8155 7.13151L14.0283 6.89347L13.3574 6.29363ZM13.545 5.83842C13.5265 5.80628 13.5331 5.79069 13.5318 5.81865C13.5304 5.84685 13.5219 5.89393 13.4994 5.96084C13.4538 6.0961 13.3751 6.24355 13.3029 6.36903L14.0828 6.81806C14.1593 6.68532 14.2765 6.47309 14.3522 6.24819C14.4183 6.05227 14.5045 5.70152 14.3251 5.38971L13.545 5.83842ZM12.6333 4.25325L13.545 5.83842L14.3251 5.38971L13.4134 3.80454L12.6333 4.25325ZM12.0574 4.19972C12.2018 4.19966 12.368 4.20499 12.507 4.23291C12.5757 4.24672 12.6202 4.26276 12.6447 4.27543C12.6689 4.28793 12.6518 4.28554 12.6333 4.25325L13.4134 3.80454C13.2337 3.49206 12.8868 3.39122 12.6842 3.35053C12.4519 3.30387 12.2098 3.29966 12.057 3.29972L12.0574 4.19972ZM11.8386 4.25596L12.1504 4.18997L11.9641 3.30948L11.6523 3.37546L11.8386 4.25596ZM10.2673 4.00163C10.7414 4.27893 11.3014 4.36965 11.8386 4.25596L11.6523 3.37546C11.3343 3.44275 11.0027 3.38913 10.7217 3.22476L10.2673 4.00163ZM9.26956 2.76091C9.43895 3.28301 9.79391 3.72475 10.2673 4.00163L10.7217 3.22476C10.4394 3.05966 10.2271 2.79582 10.1256 2.48316L9.26956 2.76091ZM9.16827 2.44869L9.26956 2.76091L10.1256 2.48316L10.0243 2.17094L9.16827 2.44869ZM8.87287 2.0518C8.83292 2.05164 8.82116 2.03678 8.84451 2.05215C8.86789 2.06754 8.90423 2.09888 8.95082 2.15276C9.04489 2.26158 9.133 2.40557 9.20523 2.53245L9.98737 2.08718C9.91115 1.9533 9.78702 1.74388 9.63168 1.56419C9.4976 1.40909 9.23787 1.15328 8.87654 1.15181L8.87287 2.0518ZM6.25196 7.98837C6.24789 7.01204 7.03145 6.22795 7.99988 6.23201L8.00365 5.33201C6.53194 5.32585 5.34583 6.51909 5.35197 7.99212L6.25196 7.98837ZM8.02224 9.76706C7.05086 9.76296 6.25608 8.96758 6.25196 7.98835L5.35197 7.99213C5.35815 9.46226 6.54977 10.6609 8.01844 10.6671L8.02224 9.76706ZM9.77009 8.0107C9.77416 8.98704 8.9906 9.77112 8.02222 9.76706L8.01845 10.6671C9.49012 10.6732 10.6762 9.47997 10.6701 8.00694L9.77009 8.0107ZM7.99987 6.23201C8.97128 6.23611 9.76597 7.03141 9.77009 8.01071L10.6701 8.00693C10.6639 6.53676 9.47239 5.33821 8.00367 5.33201L7.99987 6.23201Z" fill="white"/>
</g>
<defs>
<clipPath id="clip0_3292_8162">
<rect width="16" height="16" fill="white"/>
</clipPath>
</defs>
</svg>
