<svg width="20" height="20" viewBox="0 0 20 20" fill="none" xmlns="http://www.w3.org/2000/svg">
<g clip-path="url(#clip0_3243_97756)">
<path fill-rule="evenodd" clip-rule="evenodd" d="M11.8967 3.46269C11.2008 3.19591 10.428 3.05992 9.61862 3.06109C8.0936 3.0633 6.70429 3.55092 5.70271 4.48013C4.70983 5.40127 4.04332 6.8065 4.04332 8.75954V8.76438H4.0433L4.02447 11.2945C4.02006 11.8877 3.90114 12.4745 3.67426 13.0226L3.2853 13.9623C3.2467 14.0556 3.31525 14.1582 3.4162 14.1582H3.44036H3.46452H3.48869H3.51285H3.53701H3.56117H3.58534H3.6095H3.63366H3.65782H3.68198H3.70615H3.73031H3.75447H3.77863H3.80279H3.82696H3.85112H3.87528H3.89944H3.9236H3.94777H3.97193H3.99609H4.02025H4.04442H4.06858H4.09274H4.1169H4.14106H4.16523H4.18939H4.21355H4.23771H4.26187H4.28604H4.3102H4.33436H4.35852H4.38268H4.40685H4.43101H4.45517H4.47933H4.5035H4.52766H4.55182H4.57598H4.60014H4.62431H4.64847H4.67263H4.69679H4.72095H4.74512H4.76928H4.79344H4.8176H4.84176H4.86593H4.89009H4.91425H4.93841H4.96258H4.98674H5.0109H5.03506H5.05922H5.08339H5.10755H5.13171H5.15587H5.18003H5.2042H5.22836H5.25252H5.27668H5.30084H5.32501H5.34917H5.37333H5.39749H5.42166H5.44582H5.46998H5.49414H5.5183H5.54247H5.56663H5.59079H5.61495H5.63911H5.66328H5.68744H5.7116H5.73576H5.75992H5.78409H5.80825H5.83241H5.85657H5.88074H5.9049H5.92906H5.95322H5.97738H6.00155H6.02571H6.04987H6.07403H6.09819H6.12236H6.14652H6.17068H6.19484H6.219H6.24317H6.26733H6.29149H6.31565H6.33981H6.36398H6.38814H6.4123H6.43646H6.46063H6.48479H6.50895H6.53311H6.55727H6.58144H6.6056H6.62976H6.65392H6.67808H6.70225H6.72641H6.75057H6.77473H6.79889H6.82306H6.84722H6.87138H6.89554H6.91971H6.94387H6.96803H6.99219H7.01635H7.04052H7.06468H7.08884H7.113H7.13716H7.16133H7.18549H7.20965H7.23381H7.25797H7.28214H7.3063H7.33046H7.35462H7.37879H7.40295H7.42711H7.45127H7.47543H7.4996H7.52376H7.54792H7.57208H7.59624H7.62041H7.64457H7.66873H7.69289H7.71705H7.74122H7.76538H7.78954H7.8137H7.83787H7.86203H7.88619H7.91035H7.93451H7.95868H7.98284H8.007H8.03116H8.05532H8.07949H8.10365H8.12781H8.15197H8.17613H8.2003H8.22446H8.24862H8.27278H8.29695H8.32111H8.34527H8.36943H8.39359H8.41776H8.44192H8.46608H8.49024H8.5144H8.53857H8.56273H8.58689H8.61105H8.63521H8.65938H8.68354H8.7077H8.73186H8.75603H8.78019H8.80435H8.82851H8.85267H8.87684H8.901H8.92516H8.94932H8.97348H8.99765H9.02181H9.04597H9.07013H9.0943H9.11846H9.14262H9.16678H9.19094H9.21511H9.23927H9.26343H9.28759H9.31175H9.33592H9.36008H9.38424H9.4084H9.43256H9.45673H9.48089H9.50505H9.52921H9.55337H9.57754H9.6017H9.62586H9.65002H9.67419H9.69835H9.72251H9.74667H9.77083H9.795H9.81916H9.84332H9.86748H9.89164H9.91581H9.93997H9.96413H9.98829H10.0125H10.0366H10.0608H10.0849H10.1091H10.1333H10.1574H10.1816H10.2058H10.2299H10.2541H10.2782H10.3024H10.3266H10.3507H10.3749H10.399H10.4232H10.4474H10.4715H10.4957H10.5199H10.544H10.5682H10.5923H10.6165H10.6407H10.6648H10.689H10.7132H10.7373H10.7615H10.7856H10.8098H10.834H10.8581H10.8823H10.9065H10.9306H10.9548H10.9789H11.0031H11.0273H11.0514H11.0756H11.0997H11.1239H11.1481H11.1722H11.1964H11.2206H11.2447H11.2689H11.293H11.3172H11.3414H11.3655H11.3897H11.4139H11.438H11.4622H11.4863H11.5105H11.5347H11.5588H11.583H11.6072H11.6313H11.6555H11.6796H11.7038H11.728H11.7521H11.7763H11.8005H11.8246H11.8488H11.8729H11.8971H11.9213H11.9454H11.9696H11.9937H12.0179H12.0421H12.0662H12.0904H12.1146H12.1387H12.1629H12.187H12.2112H12.2354H12.2595H12.2837H12.3079H12.332H12.3562H12.3803H12.4045H12.4287H12.4528H12.477H12.5012H12.5253H12.5495H12.5736H12.5978H12.622H12.6461H12.6703H12.6944H12.7186H12.7428H12.7669H12.7911H12.8153H12.8394H12.8636H12.8877H12.9119H12.9361H12.9602H12.9844H13.0086H13.0327H13.0569H13.081H13.1052H13.1294H13.1535H13.1777H13.2019H13.226H13.2502H13.2743H13.2985H13.3227H13.3468H13.371H13.3951H13.4193H13.4435H13.4676H13.4918H13.516H13.5401H13.5643H13.5884H13.6126H13.6368H13.6609H13.6851H13.7093H13.7334H13.7576H13.7817H13.8059H13.8301H13.8542H13.8784H13.9026H13.9267H13.9509H13.975H13.9992H14.0234H14.0475H14.0717H14.0959H14.12H14.1442H14.1683H14.1925H14.2167H14.2408H14.265H14.2891H14.3133H14.3375H14.3616H14.3858H14.41H14.4341H14.4583H14.4824H14.5066H14.5308H14.5549H14.5791H14.6033H14.6274H14.6516H14.6757H14.6999H14.7241H14.7482H14.7724H14.7966H14.8207H14.8449H14.869H14.8932H14.9174H14.9415H14.9657H14.9898H15.014H15.0382H15.0623H15.0865H15.1107H15.1348H15.159H15.1831H15.2073H15.2315H15.2556H15.2798H15.304H15.3281H15.3523H15.3764H15.4006H15.4248H15.4489H15.4731H15.4973H15.5214H15.5456H15.5697H15.5939H15.6181H15.6422H15.6664H15.6905H15.7147H15.7389H15.763H15.7872C15.8895 14.1582 15.9581 14.053 15.9168 13.9594L15.532 13.0861C15.2739 12.5005 15.1406 11.8675 15.1406 11.2276V11.2058C15.1406 10.8468 15.4316 10.5558 15.7906 10.5558C16.1496 10.5558 16.4406 10.8468 16.4406 11.2058V11.2276C16.4406 11.687 16.5363 12.1414 16.7215 12.5618L17.1064 13.4351C17.5264 14.388 16.8285 15.4582 15.7872 15.4582H15.763H15.7389H15.7147H15.6905H15.6664H15.6422H15.6181H15.5939H15.5697H15.5456H15.5214H15.4973H15.4731H15.4489H15.4248H15.4006H15.3764H15.3523H15.3281H15.304H15.2798H15.2556H15.2315H15.2073H15.1831H15.159H15.1348H15.1107H15.0865H15.0623H15.0382H15.014H14.9898H14.9657H14.9415H14.9174H14.8932H14.869H14.8449H14.8207H14.7966H14.7724H14.7482H14.7241H14.6999H14.6757H14.6516H14.6274H14.6033H14.5791H14.5549H14.5308H14.5066H14.4824H14.4583H14.4341H14.41H14.3858H14.3616H14.3375H14.3133H14.2891H14.265H14.2408H14.2167H14.1925H14.1683H14.1442H14.12H14.0959H14.0717H14.0475H14.0234H13.9992H13.975H13.9509H13.9267H13.9026H13.8784H13.8542H13.8301H13.8059H13.7817H13.7576H13.7334H13.7093H13.6851H13.6609H13.6368H13.6126H13.5884H13.5643H13.5401H13.516H13.4918H13.4676H13.4435H13.4193H13.3951H13.371H13.3468H13.3227H13.2985H13.2743H13.2502H13.226H13.2019H13.1777H13.1535H13.1294H13.1052H13.081H13.0569H13.0327H13.0086H12.9844H12.9602H12.9361H12.9119H12.8877H12.8636H12.8394H12.8153H12.7911H12.7669H12.7428H12.7186H12.6944H12.6703H12.6487C12.5988 16.2566 12.2871 16.9393 11.7658 17.4332C11.2001 17.969 10.4351 18.2379 9.61743 18.2379C7.98735 18.2379 6.70219 17.0146 6.5865 15.4582H6.58144H6.55727H6.53311H6.50895H6.48479H6.46063H6.43646H6.4123H6.38814H6.36398H6.33981H6.31565H6.29149H6.26733H6.24317H6.219H6.19484H6.17068H6.14652H6.12236H6.09819H6.07403H6.04987H6.02571H6.00155H5.97738H5.95322H5.92906H5.9049H5.88074H5.85657H5.83241H5.80825H5.78409H5.75992H5.73576H5.7116H5.68744H5.66328H5.63911H5.61495H5.59079H5.56663H5.54247H5.5183H5.49414H5.46998H5.44582H5.42166H5.39749H5.37333H5.34917H5.32501H5.30084H5.27668H5.25252H5.22836H5.2042H5.18003H5.15587H5.13171H5.10755H5.08339H5.05922H5.03506H5.0109H4.98674H4.96258H4.93841H4.91425H4.89009H4.86593H4.84176H4.8176H4.79344H4.76928H4.74512H4.72095H4.69679H4.67263H4.64847H4.62431H4.60014H4.57598H4.55182H4.52766H4.5035H4.47933H4.45517H4.43101H4.40685H4.38268H4.35852H4.33436H4.3102H4.28604H4.26187H4.23771H4.21355H4.18939H4.16523H4.14106H4.1169H4.09274H4.06858H4.04442H4.02025H3.99609H3.97193H3.94777H3.9236H3.89944H3.87528H3.85112H3.82696H3.80279H3.77863H3.75447H3.73031H3.70615H3.68198H3.65782H3.63366H3.6095H3.58534H3.56117H3.53701H3.51285H3.48869H3.46452H3.44036H3.4162C2.38891 15.4582 1.69125 14.4143 2.08413 13.4651L2.47309 12.5255C2.63597 12.132 2.72134 11.7107 2.72451 11.2848L2.74332 8.75708C2.74388 6.48864 3.52962 4.72289 4.81854 3.52711C6.09923 2.33896 7.8221 1.76369 9.61673 1.76109C10.5716 1.75971 11.5043 1.91999 12.362 2.24884C12.6972 2.37736 12.8648 2.75327 12.7363 3.08846C12.6078 3.42365 12.2318 3.5912 11.8967 3.46269ZM11.3414 15.4582H11.3448C11.2995 15.9172 11.1179 16.2562 10.8718 16.4894C10.5813 16.7645 10.1521 16.9379 9.61743 16.9379C8.70418 16.9379 8.00254 16.2921 7.89294 15.4582H7.91035H7.93451H7.95868H7.98284H8.007H8.03116H8.05532H8.07949H8.10365H8.12781H8.15197H8.17613H8.2003H8.22446H8.24862H8.27278H8.29695H8.32111H8.34527H8.36943H8.39359H8.41776H8.44192H8.46608H8.49024H8.5144H8.53857H8.56273H8.58689H8.61105H8.63521H8.65938H8.68354H8.7077H8.73186H8.75603H8.78019H8.80435H8.82851H8.85267H8.87684H8.901H8.92516H8.94932H8.97348H8.99765H9.02181H9.04597H9.07013H9.0943H9.11846H9.14262H9.16678H9.19094H9.21511H9.23927H9.26343H9.28759H9.31175H9.33592H9.36008H9.38424H9.4084H9.43256H9.45673H9.48089H9.50505H9.52921H9.55337H9.57754H9.6017H9.62586H9.65002H9.67419H9.69835H9.72251H9.74667H9.77083H9.795H9.81916H9.84332H9.86748H9.89164H9.91581H9.93997H9.96413H9.98829H10.0125H10.0366H10.0608H10.0849H10.1091H10.1333H10.1574H10.1816H10.2058H10.2299H10.2541H10.2782H10.3024H10.3266H10.3507H10.3749H10.399H10.4232H10.4474H10.4715H10.4957H10.5199H10.544H10.5682H10.5923H10.6165H10.6407H10.6648H10.689H10.7132H10.7373H10.7615H10.7856H10.8098H10.834H10.8581H10.8823H10.9065H10.9306H10.9548H10.9789H11.0031H11.0273H11.0514H11.0756H11.0997H11.1239H11.1481H11.1722H11.1964H11.2206H11.2447H11.2689H11.293H11.3172H11.3414ZM14.2342 3.15681L15.2175 3.16066C15.3788 3.1613 15.5286 3.39954 15.6092 3.53882L15.6642 3.70559C15.7377 3.92852 15.8917 4.11696 16.0968 4.23499C16.3018 4.35295 16.5439 4.3915 16.776 4.34316L16.9453 4.30792C17.1066 4.30785 17.3886 4.3181 17.4698 4.45703L17.9648 5.30371C18.046 5.44264 17.914 5.68895 17.8333 5.82688L17.7177 5.95402C17.5593 6.1284 17.472 6.35469 17.473 6.58898C17.4739 6.82344 17.5622 7.04936 17.7209 7.22371L17.8396 7.35413C17.9215 7.4927 18.0555 7.73999 17.9754 7.87828L17.4872 8.72112C17.4071 8.8594 17.1252 8.86748 16.9639 8.86612L16.7906 8.82864C16.5605 8.77887 16.32 8.81575 16.116 8.93205C15.912 9.04835 15.7594 9.23568 15.688 9.45733L15.6342 9.62427C15.5548 9.76292 15.4068 9.99996 15.2454 9.99931L14.2622 9.99547C14.1009 9.99482 13.9511 9.75659 13.8705 9.6173L13.8155 9.45054C13.742 9.2276 13.588 9.03917 13.3829 8.92113C13.1779 8.80318 12.9358 8.76463 12.7037 8.81296L12.5344 8.84821C12.3731 8.84828 12.0911 8.83803 12.0099 8.6991L11.5149 7.85241C11.4337 7.71348 11.5657 7.46717 11.6464 7.32925L11.762 7.2021C11.9204 7.02773 12.0076 6.80144 12.0067 6.56714C12.0058 6.33269 11.9175 6.10676 11.7588 5.93242L11.64 5.802C11.5582 5.66342 11.4242 5.41613 11.5043 5.27785L11.9925 4.43501C12.0726 4.29672 12.3545 4.28865 12.5158 4.29001L12.6891 4.32749C12.9192 4.37725 13.1597 4.34037 13.3637 4.22407C13.5677 4.10778 13.7203 3.92045 13.7917 3.6988L13.8455 3.53185C13.9249 3.39321 14.0729 3.15617 14.2342 3.15681ZM13.5492 6.57293C13.5464 5.9188 14.0811 5.39073 14.7435 5.39346C15.4059 5.39621 15.945 5.92869 15.9478 6.58286C15.9506 7.23699 15.4159 7.76506 14.7536 7.76233C14.0912 7.75958 13.552 7.22707 13.5492 6.57293Z" fill="white"/>
</g>
<defs>
<clipPath id="clip0_3243_97756">
<rect width="20" height="20" fill="white"/>
</clipPath>
</defs>
</svg>
