<svg width="16" height="16" viewBox="0 0 16 16" fill="none" xmlns="http://www.w3.org/2000/svg">
<g clip-path="url(#clip0_3292_8233)">
<path fill-rule="evenodd" clip-rule="evenodd" d="M7.05712 1.30005L8.95144 1.30758C9.26222 1.30884 9.55095 1.7754 9.70624 2.04816L9.81219 2.37474C9.95384 2.81133 10.2505 3.18035 10.6457 3.4115C11.0407 3.6425 11.507 3.71799 11.9543 3.62333L12.2804 3.55431C12.5911 3.55418 13.1345 3.57425 13.2909 3.84633L14.2446 5.50443C14.4011 5.7765 14.1467 6.25886 13.9912 6.52897L13.7686 6.77796C13.4633 7.11945 13.2953 7.5626 13.2971 8.02143C13.2989 8.48058 13.469 8.92302 13.7748 9.26445L14.0036 9.51985C14.1612 9.79123 14.4194 10.2755 14.2651 10.5463L13.3244 12.1969C13.1701 12.4677 12.627 12.4835 12.3163 12.4809L11.9824 12.4075C11.5391 12.31 11.0756 12.3822 10.6826 12.61C10.2897 12.8377 9.99559 13.2046 9.85803 13.6386L9.75443 13.9656C9.60133 14.2371 9.31616 14.7013 9.00538 14.7L7.11106 14.6925C6.80028 14.6913 6.51155 14.2247 6.35626 13.9519L6.25031 13.6254C6.10866 13.1888 5.81197 12.8197 5.41676 12.5886C5.02182 12.3576 4.55549 12.2821 4.10824 12.3768L3.78212 12.4458C3.47135 12.4459 2.92804 12.4258 2.77155 12.1538L1.8179 10.4957C1.66142 10.2236 1.91577 9.74123 2.07126 9.47113L2.29386 9.22214C2.59915 8.88065 2.76719 8.4375 2.76538 7.97866C2.76356 7.51951 2.59354 7.07708 2.28772 6.73565L2.05895 6.48024C1.90127 6.20886 1.64313 5.72459 1.79742 5.45378L2.73809 3.8032C2.89239 3.53239 3.43547 3.51658 3.74625 3.51925L4.08011 3.59265C4.52336 3.6901 4.9869 3.61787 5.37986 3.39012C5.77283 3.16237 6.06691 2.79551 6.20447 2.36145L6.30807 2.03451C6.46117 1.763 6.74634 1.29879 7.05712 1.30005ZM8.10412 5.79748C6.88613 5.79238 5.90298 6.77935 5.90808 8.00194C5.91322 9.22453 6.90472 10.2198 8.12266 10.225C9.34059 10.2301 10.3237 9.24308 10.3187 8.02049C10.3135 6.79785 9.32211 5.80262 8.10412 5.79748Z" fill="white"/>
</g>
<defs>
<clipPath id="clip0_3292_8233">
<rect width="16" height="16" fill="white"/>
</clipPath>
</defs>
</svg>
