<svg width="24" height="24" viewBox="0 0 24 24" fill="none" xmlns="http://www.w3.org/2000/svg">
<g clip-path="url(#clip0_882_259819)">
<path d="M18.0192 12.3475V11.7837V9.97854C18.0192 9.9775 18.0188 9.9765 18.018 9.97576C18.0173 9.97502 18.0163 9.97461 18.0152 9.97461H2.20394C2.20289 9.97461 2.20189 9.97502 2.20115 9.97576C2.20042 9.9765 2.2 9.9775 2.2 9.97854V13.5904C2.2 17.9588 5.74124 21.5 10.1096 21.5C11.1048 21.5 12.0571 21.3162 12.9344 20.9806" stroke="white" stroke-width="1.7" stroke-linecap="round"/>
<path d="M15.3073 9.97461H18.6971C20.1172 9.97461 21.2926 11.0225 21.4921 12.3872" stroke="white" stroke-width="1.7" stroke-linecap="round"/>
<path d="M10.5996 2.34961H14.8594V2.90039C14.8592 4.97119 13.1802 6.65024 11.1094 6.65039H6.84961V6.09961C6.84982 4.02885 8.52885 2.34982 10.5996 2.34961Z" stroke="white" stroke-width="1.7"/>
<path fill-rule="evenodd" clip-rule="evenodd" d="M18.7917 14.3213L17.7417 14.3127C17.5694 14.3112 17.4103 14.5669 17.3248 14.7165L17.2666 14.8968C17.1893 15.1362 17.0254 15.338 16.8071 15.4629C16.5887 15.5877 16.3316 15.6265 16.0861 15.5716L15.9013 15.5303C15.729 15.5281 15.4279 15.5355 15.3418 15.6847L14.8165 16.594C14.7303 16.7432 14.8722 17.0112 14.959 17.1615L15.0852 17.303C15.2539 17.4923 15.3471 17.7371 15.347 17.9906C15.3469 18.244 15.2527 18.4883 15.0827 18.6762L14.9587 18.8132C14.8719 18.962 14.7298 19.2277 14.8159 19.3783L15.3406 20.2963C15.4266 20.4469 15.7278 20.4593 15.9 20.4599L16.0809 20.4226C16.3291 20.3714 16.5874 20.4142 16.8057 20.5427C17.0243 20.6713 17.1878 20.8758 17.2653 21.1172L17.3233 21.2978C17.4087 21.4488 17.5676 21.7071 17.7399 21.7086L18.7899 21.7172C18.9621 21.7187 19.1213 21.463 19.2068 21.3134L19.265 21.1331C19.3423 20.8937 19.5062 20.6918 19.7245 20.567C19.9429 20.4422 20.2 20.4034 20.4455 20.4582L20.6303 20.4996C20.8026 20.5018 21.1037 20.4943 21.1898 20.3451L21.7151 19.4359C21.8013 19.2867 21.6594 19.0186 21.5726 18.8684L21.4464 18.7268C21.2777 18.5375 21.1845 18.2928 21.1846 18.0393C21.1847 17.7859 21.2788 17.5415 21.4489 17.3537L21.5728 17.2167C21.6597 17.0679 21.8018 16.8021 21.7157 16.6515L21.191 15.7336C21.1049 15.583 20.8038 15.5706 20.6316 15.5699L20.4506 15.6073C20.2025 15.6585 19.9442 15.6157 19.7258 15.4872C19.5073 15.3586 19.3437 15.1541 19.2663 14.9127L19.2083 14.7321C19.1229 14.5811 18.9639 14.3228 18.7917 14.3213ZM18.2753 16.7337C17.5679 16.7277 16.9945 17.2963 16.9944 18.0038C16.9944 18.7112 17.5677 19.2896 18.2751 19.2956C18.9824 19.3016 19.5559 18.7329 19.5559 18.0255C19.556 17.318 18.9827 16.7397 18.2753 16.7337Z" fill="white"/>
</g>
<defs>
<clipPath id="clip0_882_259819">
<rect width="24" height="24" fill="white"/>
</clipPath>
</defs>
</svg>
