<svg width="16" height="16" viewBox="0 0 16 16" fill="none" xmlns="http://www.w3.org/2000/svg">
<g clip-path="url(#clip0_3292_6712)">
<path fill-rule="evenodd" clip-rule="evenodd" d="M9.38417 3.24237C8.87728 3.04802 8.31461 2.94908 7.72571 2.94993C6.61616 2.95154 5.60392 3.30634 4.87355 3.98393C4.14921 4.65594 3.66425 5.68016 3.66425 7.10066V7.10401H3.66424L3.65218 8.72519C3.64796 9.29267 3.5342 9.85399 3.31716 10.3783L3.24123 10.5618C3.14812 10.7867 3.31346 11.0341 3.55693 11.0341H3.57315H3.58937H3.60559H3.62181H3.63803H3.65425H3.67047H3.68669H3.70291H3.71913H3.73535H3.75158H3.7678H3.78402H3.80024H3.81646H3.83268H3.8489H3.86512H3.88134H3.89756H3.91378H3.93H3.94622H3.96244H3.97866H3.99488H4.01111H4.02733H4.04355H4.05977H4.07599H4.09221H4.10843H4.12465H4.14087H4.15709H4.17331H4.18953H4.20575H4.22197H4.23819H4.25442H4.27064H4.28686H4.30308H4.3193H4.33552H4.35174H4.36796H4.38418H4.4004H4.41662H4.43284H4.44906H4.46528H4.4815H4.49772H4.51395H4.53017H4.54639H4.56261H4.57883H4.59505H4.61127H4.62749H4.64371H4.65993H4.67615H4.69237H4.70859H4.72481H4.74103H4.75725H4.77348H4.7897H4.80592H4.82214H4.83836H4.85458H4.8708H4.88702H4.90324H4.91946H4.93568H4.9519H4.96812H4.98434H5.00056H5.01678H5.03301H5.04923H5.06545H5.08167H5.09789H5.11411H5.13033H5.14655H5.16277H5.17899H5.19521H5.21143H5.22765H5.24387H5.26009H5.27631H5.29254H5.30876H5.32498H5.3412H5.35742H5.37364H5.38986H5.40608H5.4223H5.43852H5.45474H5.47096H5.48718H5.5034H5.51962H5.53585H5.55207H5.56829H5.58451H5.60073H5.61695H5.63317H5.64939H5.66561H5.68183H5.69805H5.71427H5.73049H5.74671H5.76293H5.77915H5.79538H5.8116H5.82782H5.84404H5.86026H5.87648H5.8927H5.90892H5.92514H5.94136H5.95758H5.9738H5.99002H6.00624H6.02246H6.03868H6.05491H6.07113H6.08735H6.10357H6.11979H6.13601H6.15223H6.16845H6.18467H6.20089H6.21711H6.23333H6.24955H6.26577H6.28199H6.29821H6.31444H6.33066H6.34688H6.3631H6.37932H6.39554H6.41176H6.42798H6.4442H6.46042H6.47664H6.49286H6.50908H6.5253H6.54152H6.55774H6.57397H6.59019H6.60641H6.62263H6.63885H6.65507H6.67129H6.68751H6.70373H6.71995H6.73617H6.75239H6.76861H6.78483H6.80105H6.81728H6.8335H6.84972H6.86594H6.88216H6.89838H6.9146H6.93082H6.94704H6.96326H6.97948H6.9957H7.01192H7.02814H7.04436H7.06058H7.07681H7.09303H7.10925H7.12547H7.14169H7.15791H7.17413H7.19035H7.20657H7.22279H7.23901H7.25523H7.27145H7.28767H7.30389H7.32011H7.33634H7.35256H7.36878H7.385H7.40122H7.41744H7.43366H7.44988H7.4661H7.48232H7.49854H7.51476H7.53098H7.5472H7.56342H7.57965H7.59587H7.61209H7.62831H7.64453H7.66075H7.67697H7.69319H7.70941H7.72563H7.74185H7.75807H7.77429H7.79051H7.80673H7.82295H7.83918H7.8554H7.87162H7.88784H7.90406H7.92028H7.9365H7.95272H7.96894H7.98516H8.00138H8.0176H8.03382H8.05004H8.06626H8.08248H8.09871H8.11493H8.13115H8.14737H8.16359H8.17981H8.19603H8.21225H8.22847H8.24469H8.26091H8.27713H8.29335H8.30957H8.32579H8.34201H8.35824H8.37446H8.39068H8.4069H8.42312H8.43934H8.45556H8.47178H8.488H8.50422H8.52044H8.53666H8.55288H8.5691H8.58532H8.60154H8.61777H8.63399H8.65021H8.66643H8.68265H8.69887H8.71509H8.73131H8.74753H8.76375H8.77997H8.79619H8.81241H8.82863H8.84485H8.86107H8.8773H8.89352H8.90974H8.92596H8.94218H8.9584H8.97462H8.99084H9.00706H9.02328H9.0395H9.05572H9.07194H9.08816H9.10438H9.12061H9.13683H9.15305H9.16927H9.18549H9.20171H9.21793H9.23415H9.25037H9.26659H9.28281H9.29903H9.31525H9.33147H9.34769H9.36391H9.38014H9.39636H9.41258H9.4288H9.44502H9.46124H9.47746H9.49368H9.5099H9.52612H9.54234H9.55856H9.57478H9.591H9.60722H9.62345H9.63967H9.65589H9.67211H9.68833H9.70455H9.72077H9.73699H9.75321H9.76943H9.78565H9.80187H9.81809H9.83431H9.85053H9.86675H9.88298H9.8992H9.91542H9.93164H9.94786H9.96408H9.9803H9.99652H10.0127H10.029H10.0452H10.0614H10.0776H10.0938H10.1101H10.1263H10.1425H10.1587H10.1749H10.1912H10.2074H10.2236H10.2398H10.256H10.2723H10.2885H10.3047H10.3209H10.3372H10.3534H10.3696H10.3858H10.402H10.4183H10.4345H10.4507H10.4669H10.4831H10.4994H10.5156H10.5318H10.548H10.5642H10.5805H10.5967H10.6129H10.6291H10.6453H10.6616H10.6778H10.694H10.7102H10.7264H10.7427H10.7589H10.7751H10.7913H10.8076H10.8238H10.84H10.8562H10.8724H10.8887H10.9049H10.9211H10.9373H10.9535H10.9698H10.986H11.0022H11.0184H11.0346H11.0509H11.0671H11.0833H11.0995H11.1157H11.132H11.1482H11.1644H11.1806H11.1968H11.2131H11.2293H11.2455H11.2617H11.2779H11.2942H11.3104H11.3266H11.3428H11.3591H11.3753H11.3915H11.4077H11.4239H11.4402H11.4564H11.4726H11.4888H11.505H11.5213H11.5375H11.5537H11.5699H11.5861H11.6024H11.6186H11.6348H11.651H11.6672H11.6835H11.6997H11.7159H11.7321H11.7483H11.7646H11.7808H11.797H11.8132H11.8295H11.8457H11.8619C12.1087 11.0341 12.2741 10.7805 12.1745 10.5547L12.0368 10.2421C11.8467 9.81085 11.7486 9.34473 11.7486 8.87345H12.6486C12.6486 9.21975 12.7207 9.56225 12.8603 9.87913L12.9981 10.1917C13.3598 11.0124 12.7588 11.9341 11.8619 11.9341H11.8457H11.8295H11.8132H11.797H11.7808H11.7646H11.7483H11.7321H11.7159H11.6997H11.6835H11.6672H11.651H11.6348H11.6186H11.6024H11.5861H11.5699H11.5537H11.5375H11.5213H11.505H11.4888H11.4726H11.4564H11.4402H11.4239H11.4077H11.3915H11.3753H11.3591H11.3428H11.3266H11.3104H11.2942H11.2779H11.2617H11.2455H11.2293H11.2131H11.1968H11.1806H11.1644H11.1482H11.132H11.1157H11.0995H11.0833H11.0671H11.0509H11.0346H11.0184H11.0022H10.986H10.9698H10.9535H10.9373H10.9211H10.9049H10.8887H10.8724H10.8562H10.84H10.8238H10.8076H10.7913H10.7751H10.7589H10.7427H10.7264H10.7102H10.694H10.6778H10.6616H10.6453H10.6291H10.6129H10.5967H10.5805H10.5642H10.548H10.5318H10.5156H10.4994H10.4831H10.4669H10.4507H10.4345H10.4183H10.402H10.3858H10.3696H10.3534H10.3372H10.3209H10.3047H10.2885H10.2723H10.256H10.2398H10.2236H10.2074H10.1912H10.1749H10.1587H10.1425H10.1263H10.1101H10.0938H10.0776H10.0614H10.0452H10.029H10.0127H9.99652H9.9803H9.96408H9.94786H9.93164H9.91542H9.90183C9.8699 12.5164 9.64519 13.0132 9.26731 13.3712C8.86182 13.7553 8.31286 13.9486 7.72488 13.9486C6.54779 13.9486 5.62168 13.0604 5.54799 11.9341H5.53585H5.51962H5.5034H5.48718H5.47096H5.45474H5.43852H5.4223H5.40608H5.38986H5.37364H5.35742H5.3412H5.32498H5.30876H5.29254H5.27631H5.26009H5.24387H5.22765H5.21143H5.19521H5.17899H5.16277H5.14655H5.13033H5.11411H5.09789H5.08167H5.06545H5.04923H5.03301H5.01678H5.00056H4.98434H4.96812H4.9519H4.93568H4.91946H4.90324H4.88702H4.8708H4.85458H4.83836H4.82214H4.80592H4.7897H4.77348H4.75725H4.74103H4.72481H4.70859H4.69237H4.67615H4.65993H4.64371H4.62749H4.61127H4.59505H4.57883H4.56261H4.54639H4.53017H4.51395H4.49772H4.4815H4.46528H4.44906H4.43284H4.41662H4.4004H4.38418H4.36796H4.35174H4.33552H4.3193H4.30308H4.28686H4.27064H4.25442H4.23819H4.22197H4.20575H4.18953H4.17331H4.15709H4.14087H4.12465H4.10843H4.09221H4.07599H4.05977H4.04355H4.02733H4.01111H3.99488H3.97866H3.96244H3.94622H3.93H3.91378H3.89756H3.88134H3.86512H3.8489H3.83268H3.81646H3.80024H3.78402H3.7678H3.75158H3.73535H3.71913H3.70291H3.68669H3.67047H3.65425H3.63803H3.62181H3.60559H3.58937H3.57315H3.55693C2.67215 11.9341 2.07127 11.0351 2.40966 10.2176L2.48558 10.0341C2.65831 9.61684 2.74884 9.17011 2.7522 8.71849L2.76425 7.09896C2.76465 5.46011 3.33214 4.18629 4.26144 3.32415C5.18503 2.46729 6.4282 2.05181 7.72441 2.04993C8.41401 2.04893 9.08738 2.1647 9.70636 2.40201C9.93842 2.49098 10.0544 2.75123 9.96544 2.98328C9.87647 3.21534 9.61623 3.33134 9.38417 3.24237ZM8.99084 11.9341H8.9998C8.9704 12.2831 8.83493 12.5411 8.64839 12.7178C8.43345 12.9214 8.11697 13.0486 7.72488 13.0486C7.04374 13.0486 6.52174 12.5604 6.45136 11.9341H6.46042H6.47664H6.49286H6.50908H6.5253H6.54152H6.55774H6.57397H6.59019H6.60641H6.62263H6.63885H6.65507H6.67129H6.68751H6.70373H6.71995H6.73617H6.75239H6.76861H6.78483H6.80105H6.81728H6.8335H6.84972H6.86594H6.88216H6.89838H6.9146H6.93082H6.94704H6.96326H6.97948H6.9957H7.01192H7.02814H7.04436H7.06058H7.07681H7.09303H7.10925H7.12547H7.14169H7.15791H7.17413H7.19035H7.20657H7.22279H7.23901H7.25523H7.27145H7.28767H7.30389H7.32011H7.33634H7.35256H7.36878H7.385H7.40122H7.41744H7.43366H7.44988H7.4661H7.48232H7.49854H7.51476H7.53098H7.5472H7.56342H7.57965H7.59587H7.61209H7.62831H7.64453H7.66075H7.67697H7.69319H7.70941H7.72563H7.74185H7.75807H7.77429H7.79051H7.80673H7.82295H7.83918H7.8554H7.87162H7.88784H7.90406H7.92028H7.9365H7.95272H7.96894H7.98516H8.00138H8.0176H8.03382H8.05004H8.06626H8.08248H8.09871H8.11493H8.13115H8.14737H8.16359H8.17981H8.19603H8.21225H8.22847H8.24469H8.26091H8.27713H8.29335H8.30957H8.32579H8.34201H8.35824H8.37446H8.39068H8.4069H8.42312H8.43934H8.45556H8.47178H8.488H8.50422H8.52044H8.53666H8.55288H8.5691H8.58532H8.60154H8.61777H8.63399H8.65021H8.66643H8.68265H8.69887H8.71509H8.73131H8.74753H8.76375H8.77997H8.79619H8.81241H8.82863H8.84485H8.86107H8.8773H8.89352H8.90974H8.92596H8.94218H8.9584H8.97462H8.99084ZM11.0707 3.04041L11.7832 3.0432C11.9001 3.04367 12.0087 3.21632 12.0671 3.31726L12.107 3.43811C12.1603 3.59967 12.2719 3.73623 12.4205 3.82177C12.5691 3.90725 12.7445 3.93519 12.9127 3.90016L13.0354 3.87462C13.1523 3.87457 13.3566 3.882 13.4155 3.98268L13.7742 4.59628C13.8331 4.69696 13.7374 4.87546 13.6789 4.97541L13.5952 5.06756C13.4803 5.19393 13.4171 5.35792 13.4178 5.52771C13.4185 5.69763 13.4825 5.86135 13.5975 5.9877L13.6835 6.08222C13.7428 6.18264 13.8399 6.36185 13.7819 6.46207L13.4281 7.07288C13.37 7.17309 13.1658 7.17894 13.0489 7.17796L12.9233 7.15079C12.7566 7.11473 12.5822 7.14146 12.4344 7.22574C12.2866 7.31002 12.176 7.44578 12.1242 7.60641L12.0853 7.72739C12.0277 7.82787 11.9204 7.99965 11.8035 7.99919L11.091 7.9964C10.9741 7.99593 10.8655 7.82328 10.8071 7.72234L10.7672 7.60149C10.7139 7.43993 10.6023 7.30337 10.4537 7.21783C10.3051 7.13234 10.1297 7.10441 9.96149 7.13944L9.83883 7.16498C9.72194 7.16503 9.51757 7.1576 9.45871 7.05692L9.1 6.44332C9.04114 6.34264 9.13681 6.16414 9.1953 6.06419L9.27903 5.97204C9.39386 5.84567 9.45707 5.68168 9.45639 5.51189C9.4557 5.34197 9.39175 5.17825 9.27672 5.0519L9.19067 4.95738C9.13136 4.85696 9.03426 4.67775 9.0923 4.57753L9.44613 3.96672C9.50416 3.86651 9.70844 3.86066 9.82534 3.86164L9.95091 3.88881C10.1176 3.92487 10.292 3.89814 10.4398 3.81386C10.5876 3.72958 10.6982 3.59382 10.75 3.43319L10.7889 3.31221C10.8465 3.21173 10.9538 3.03995 11.0707 3.04041ZM10.5742 5.516C10.5722 5.04195 10.9597 4.65925 11.4397 4.66123C11.9198 4.66322 12.3105 5.04912 12.3125 5.52319C12.3145 5.99724 11.9271 6.37993 11.4471 6.37796C10.967 6.37596 10.5763 5.99005 10.5742 5.516Z" fill="white"/>
</g>
<defs>
<clipPath id="clip0_3292_6712">
<rect width="16" height="16" fill="white"/>
</clipPath>
</defs>
</svg>
