<svg width="16" height="16" viewBox="0 0 16 16" fill="none" xmlns="http://www.w3.org/2000/svg">
<path d="M10.5973 2.14936L10.1473 2.14936V2.14936L10.5973 2.14936ZM11.1065 1.93429L11.4202 1.61167V1.61167L11.1065 1.93429ZM10.5973 4.35364L10.6237 4.80287C10.8616 4.78892 11.0473 4.59193 11.0473 4.35364L10.5973 4.35364ZM5.69052 9.0843L5.24203 9.04742V9.04742L5.69052 9.0843ZM6.24748 9.30985L5.93735 8.98378H5.93735L6.24748 9.30985ZM10.5973 7.73161L11.0473 7.73161C11.0473 7.61039 10.9984 7.49429 10.9117 7.40961C10.8249 7.32493 10.7077 7.27883 10.5865 7.28174L10.5973 7.73161ZM10.5973 9.84119L10.1473 9.8412V9.8412L10.5973 9.84119ZM11.1049 10.0578L10.7936 9.7329L10.7936 9.7329L11.1049 10.0578ZM14.7146 6.59815L15.026 6.92302V6.92302L14.7146 6.59815ZM14.7188 5.44705L14.405 5.76966V5.76966L14.7188 5.44705ZM11.0473 2.14936C11.0473 2.28199 10.8878 2.34936 10.7927 2.2569L11.4202 1.61167C10.9448 1.14936 10.1473 1.48622 10.1473 2.14936L11.0473 2.14936ZM11.0473 4.35364L11.0473 2.14936L10.1473 2.14936L10.1473 4.35364L11.0473 4.35364ZM6.139 9.12117C6.28612 7.33201 6.9013 6.31283 7.68224 5.71245C8.48076 5.09857 9.52241 4.86747 10.6237 4.80287L10.571 3.90442C9.3998 3.97312 8.143 4.223 7.1337 4.99894C6.10682 5.78839 5.40481 7.06788 5.24203 9.04742L6.139 9.12117ZM5.93735 8.98378C5.97557 8.94744 6.02062 8.94952 6.04582 8.95936C6.06109 8.96532 6.0858 8.97955 6.10753 9.01072C6.13197 9.04578 6.14178 9.08743 6.139 9.12117L5.24203 9.04742C5.21097 9.42509 5.45339 9.69423 5.71852 9.79773C5.97609 9.89829 6.31138 9.8701 6.5576 9.63593L5.93735 8.98378ZM10.5865 7.28174C9.36858 7.31101 7.47182 7.52435 5.93735 8.98378L6.5576 9.63593C7.84415 8.41229 9.4564 8.20916 10.6081 8.18148L10.5865 7.28174ZM11.0473 9.84119L11.0473 7.73161L10.1473 7.73161L10.1473 9.8412L11.0473 9.84119ZM10.7936 9.7329C10.8889 9.64149 11.0473 9.70909 11.0473 9.84119L10.1473 9.8412C10.1473 10.5017 10.9394 10.8397 11.4163 10.3827L10.7936 9.7329ZM14.4032 6.27327L10.7936 9.7329L11.4163 10.3827L15.026 6.92302L14.4032 6.27327ZM14.405 5.76966C14.5471 5.90779 14.5463 6.13617 14.4032 6.27327L15.026 6.92302C15.5368 6.43341 15.5398 5.61775 15.0325 5.12444L14.405 5.76966ZM10.7927 2.2569L14.405 5.76966L15.0325 5.12444L11.4202 1.61167L10.7927 2.2569Z" fill="white"/>
<path d="M7.2753 2H5.8999C3.69076 2 1.8999 3.79086 1.8999 6V10.1842C1.8999 12.3934 3.69076 14.1842 5.8999 14.1842H10.3214C12.3995 14.1842 14.0841 12.4996 14.0841 10.4215" stroke="white" stroke-width="0.9" stroke-linecap="round"/>
</svg>
