<svg width="20" height="20" viewBox="0 0 20 20" fill="none" xmlns="http://www.w3.org/2000/svg">
<path d="M13.0757 2.46428L13.7257 2.46427V2.46427L13.0757 2.46428ZM13.7545 2.17751L14.2077 1.71151V1.71151L13.7545 2.17751ZM13.0757 5.30595L13.1138 5.95483C13.4574 5.93467 13.7257 5.65014 13.7257 5.30594L13.0757 5.30595ZM6.72892 11.128L7.37502 11.1991L6.72892 11.128ZM7.66257 11.5299L7.23722 11.0383H7.23722L7.66257 11.5299ZM13.0757 9.69702L13.7257 9.69702C13.7257 9.52192 13.6551 9.35422 13.5298 9.23191C13.4045 9.10959 13.2351 9.043 13.0601 9.04721L13.0757 9.69702ZM13.0757 12.4158L13.7257 12.4158L13.0757 12.4158ZM13.7525 12.7046L13.3027 12.2353L13.3027 12.2353L13.7525 12.7046ZM18.3081 8.33832L17.8583 7.86906L18.3081 8.33832ZM18.3144 6.61168L17.8612 7.07768V7.07768L18.3144 6.61168ZM13.7257 2.46427C13.7257 2.68532 13.4598 2.79761 13.3014 2.6435L14.2077 1.71151C13.5421 1.06428 12.4257 1.53588 12.4257 2.46428L13.7257 2.46427ZM13.7257 5.30594L13.7257 2.46427L12.4257 2.46428L12.4257 5.30595L13.7257 5.30594ZM7.37502 11.1991C7.6136 9.03119 8.40838 7.7994 9.39608 7.07124C10.4096 6.32402 11.7201 6.03661 13.1138 5.95483L13.0376 4.65706C11.5443 4.74469 9.93565 5.05837 8.62467 6.02486C7.28782 7.01041 6.35267 8.60493 6.08282 11.0569L7.37502 11.1991ZM7.23722 11.0383C7.25011 11.0272 7.26447 11.0225 7.2727 11.0215C7.27822 11.0207 7.28206 11.0212 7.28789 11.0236C7.29345 11.0259 7.31736 11.0372 7.34112 11.0725C7.3534 11.0908 7.36385 11.1131 7.37004 11.1381C7.3763 11.1633 7.37661 11.1847 7.37502 11.1991L6.08282 11.0569C6.01848 11.6416 6.38979 12.0597 6.79303 12.2257C7.184 12.3867 7.69759 12.3592 8.08792 12.0214L7.23722 11.0383ZM13.0601 9.04721C11.5407 9.08374 9.20003 9.33974 7.23722 11.0383L8.08792 12.0214C9.70286 10.6238 11.6639 10.3812 13.0913 10.3468L13.0601 9.04721ZM13.7257 12.4158L13.7257 9.69702L12.4257 9.69702L12.4257 12.4158L13.7257 12.4158ZM13.3027 12.2353C13.4617 12.083 13.7257 12.1956 13.7257 12.4158L12.4257 12.4158C12.4257 13.3405 13.5346 13.8137 14.2023 13.1739L13.3027 12.2353ZM17.8583 7.86906L13.3027 12.2353L14.2023 13.1739L18.7579 8.80759L17.8583 7.86906ZM17.8612 7.07768C18.0844 7.29473 18.0831 7.65362 17.8583 7.86906L18.7579 8.80759C19.5139 8.08296 19.5183 6.87578 18.7675 6.14569L17.8612 7.07768ZM13.3014 2.6435L17.8612 7.07768L18.7675 6.14569L14.2077 1.71151L13.3014 2.6435Z" fill="white"/>
<path d="M8.88748 2.31494H6.2999C3.86985 2.31494 1.8999 4.28489 1.8999 6.71494V13.7534C1.8999 16.1835 3.86985 18.1534 6.2999 18.1534H13.3384C15.7685 18.1534 17.7384 16.1835 17.7384 13.7534V13.2621" stroke="white" stroke-width="1.3" stroke-linecap="round"/>
</svg>
