<svg width="20" height="20" viewBox="0 0 20 20" fill="none" xmlns="http://www.w3.org/2000/svg">
<path fill-rule="evenodd" clip-rule="evenodd" d="M13.7545 2.17751C13.501 1.93094 13.0757 2.1106 13.0757 2.46428L13.0757 5.30595C10.1888 5.47535 7.23735 6.50815 6.72892 11.128C6.67659 11.6035 7.3008 11.8429 7.66257 11.5299C9.45144 9.98176 11.6023 9.73244 13.0757 9.69702L13.0757 12.4158C13.0757 12.7681 13.4982 12.9483 13.7525 12.7046L18.3081 8.33832C18.7985 7.86829 18.8014 7.08526 18.3144 6.61168L13.7545 2.17751Z" fill="white"/>
<path d="M8.88748 2.31494H6.2999C3.86985 2.31494 1.8999 4.28489 1.8999 6.71494V13.7534C1.8999 16.1835 3.86985 18.1534 6.2999 18.1534H13.3384C15.7685 18.1534 17.7384 16.1835 17.7384 13.7534V13.2621" stroke="white" stroke-width="1.3" stroke-linecap="round"/>
</svg>
