<svg width="24" height="24" viewBox="0 0 24 24" fill="none" xmlns="http://www.w3.org/2000/svg">
<path d="M14.9954 4.52834L14.2454 4.52835V4.52835L14.9954 4.52834ZM15.8439 4.16988L16.3668 3.6322V3.6322L15.8439 4.16988ZM14.9954 7.4111L15.0393 8.15981C15.4358 8.13655 15.7454 7.80825 15.7454 7.4111L14.9954 7.4111ZM8.17174 13.768L7.42555 13.6924V13.6924L8.17174 13.768ZM9.10317 14.1635L8.60407 13.6037H8.60407L9.10317 14.1635ZM14.9954 12.1242L15.7454 12.1242C15.7454 11.9221 15.6639 11.7287 15.5193 11.5875C15.3748 11.4464 15.1794 11.3696 14.9774 11.3744L14.9954 12.1242ZM14.9954 14.8768L14.2454 14.8768V14.8768L14.9954 14.8768ZM15.8414 15.2377L16.3603 15.7792V15.7792L15.8414 15.2377ZM20.453 10.8178L19.934 10.2764V10.2764L20.453 10.8178ZM20.4608 8.65951L20.9837 8.12182L20.9837 8.12182L20.4608 8.65951ZM15.7454 4.52834C15.7454 4.74939 15.4795 4.86167 15.3211 4.70757L16.3668 3.6322C15.5745 2.86168 14.2454 3.42311 14.2454 4.52835L15.7454 4.52834ZM15.7454 7.4111L15.7454 4.52834L14.2454 4.52835L14.2454 7.4111L15.7454 7.4111ZM8.91792 13.8435C9.15719 11.4806 10.0045 10.1489 11.0538 9.36516C12.1328 8.55927 13.5365 8.24799 15.0393 8.15981L14.9514 6.66239C13.3332 6.75734 11.5809 7.09924 10.1562 8.16338C8.70171 9.24971 7.69769 11.0048 7.42555 13.6924L8.91792 13.8435ZM8.60407 13.6037C8.66664 13.5479 8.73361 13.5549 8.7686 13.5691C8.79125 13.5784 8.83161 13.6016 8.86739 13.6543C8.90789 13.714 8.92381 13.7854 8.91792 13.8435L7.42555 13.6924C7.36132 14.3268 7.76551 14.7801 8.20232 14.9581C8.6258 15.1308 9.18259 15.0975 9.60227 14.7234L8.60407 13.6037ZM14.9774 11.3744C13.3196 11.4143 10.7428 11.6969 8.60407 13.6037L9.60227 14.7234C11.3356 13.1781 13.4631 12.9112 15.0134 12.874L14.9774 11.3744ZM15.7454 14.8768L15.7454 12.1242L14.2454 12.1242L14.2454 14.8768L15.7454 14.8768ZM15.3224 14.6963C15.4814 14.5439 15.7454 14.6566 15.7454 14.8768L14.2454 14.8768C14.2454 15.9776 15.5656 16.5409 16.3603 15.7792L15.3224 14.6963ZM19.934 10.2764L15.3224 14.6963L16.3603 15.7792L20.9719 11.3593L19.934 10.2764ZM19.9379 9.1972C20.2423 9.49318 20.2405 9.98258 19.934 10.2764L20.9719 11.3593C21.8915 10.478 21.8968 9.00978 20.9837 8.12182L19.9379 9.1972ZM15.3211 4.70757L19.9379 9.1972L20.9837 8.12182L16.3668 3.6322L15.3211 4.70757Z" fill="white"/>
<path d="M10.5 4.20068H8C5.23858 4.20068 3 6.43926 3 9.20068V16.2007C3 18.9621 5.23858 21.2007 8 21.2007H15C17.7614 21.2007 20 18.9621 20 16.2007V15.9507" stroke="white" stroke-width="1.5" stroke-linecap="round"/>
</svg>
