<svg width="24" height="24" viewBox="0 0 24 24" fill="none" xmlns="http://www.w3.org/2000/svg">
<path fill-rule="evenodd" clip-rule="evenodd" d="M15.8438 4.16988C15.5269 3.86167 14.9952 4.08625 14.9952 4.52834L14.9952 7.4111C11.8743 7.59423 8.683 8.71747 8.17159 13.768C8.12339 14.244 8.74591 14.4819 9.10302 14.1635C11.039 12.4375 13.3912 12.1628 14.9953 12.1242L14.9953 14.8768C14.9953 15.3171 15.5233 15.5424 15.8412 15.2377L20.4528 10.8178C21.0659 10.2303 21.0694 9.25148 20.4607 8.65951L15.8438 4.16988Z" fill="white"/>
<path d="M10.5 4.20068H8C5.23858 4.20068 3 6.43926 3 9.20068V16.2007C3 18.9621 5.23858 21.2007 8 21.2007H15C17.7614 21.2007 20 18.9621 20 16.2007V15.9507" stroke="white" stroke-width="1.5" stroke-linecap="round"/>
</svg>
