<svg width="16" height="16" viewBox="0 0 16 16" fill="none" xmlns="http://www.w3.org/2000/svg">
<path fill-rule="evenodd" clip-rule="evenodd" d="M11.1065 1.93428C10.9163 1.74935 10.5973 1.8841 10.5973 2.14935L10.5973 4.35364C8.32489 4.48694 6.00042 5.31559 5.69052 9.08429C5.66699 9.37038 6.03948 9.50768 6.24748 9.30985C7.65799 7.96831 9.41249 7.76007 10.5973 7.7316L10.5973 9.84119C10.5973 10.1054 10.9142 10.2406 11.1049 10.0578L14.7146 6.59814C15.0415 6.28478 15.0434 5.76276 14.7188 5.44704L11.1065 1.93428Z" fill="white"/>
<path d="M7.2753 2H5.8999C3.69076 2 1.8999 3.79086 1.8999 6V10.1842C1.8999 12.3934 3.69076 14.1842 5.8999 14.1842H10.3214C12.3995 14.1842 14.0841 12.4996 14.0841 10.4215" stroke="white" stroke-width="0.9" stroke-linecap="round"/>
</svg>
