<svg width="24" height="24" viewBox="0 0 24 24" fill="none" xmlns="http://www.w3.org/2000/svg">
<g clip-path="url(#clip0_3243_84524)">
<path d="M8.9502 14.2998L10.1553 17.4336C10.4827 18.2851 9.85462 19.2001 8.94238 19.2002C8.40447 19.2002 7.92162 18.8683 7.72852 18.3662L6.16504 14.2998H8.9502Z" stroke="white" stroke-width="1.6"/>
<path d="M6 7.7998H9.2002V14.2002H6C5.33726 14.2002 4.7998 13.6627 4.7998 13V9C4.7998 8.33726 5.33726 7.7998 6 7.7998Z" stroke="white" stroke-width="1.6"/>
<path d="M16.4844 4.08398C17.2806 3.70507 18.2002 4.28608 18.2002 5.16797V16.832C18.2002 17.7139 17.2806 18.2949 16.4844 17.916L9.2998 14.4941V7.50488L16.4844 4.08398Z" stroke="white" stroke-width="1.6"/>
</g>
<defs>
<clipPath id="clip0_3243_84524">
<rect width="24" height="24" fill="white"/>
</clipPath>
</defs>
</svg>
