<svg width="20" height="20" viewBox="0 0 20 20" fill="none" xmlns="http://www.w3.org/2000/svg">
<g clip-path="url(#clip0_3243_101106)">
<mask id="path-1-inside-1_3243_101106" fill="white">
<path fill-rule="evenodd" clip-rule="evenodd" d="M14.4261 2.22563L6.6167 5.94439V5.94456H3.96675C2.97264 5.94456 2.16675 6.75044 2.16675 7.74456V12.0556C2.16675 12.966 2.84252 13.7185 3.71978 13.8388L5.11585 17.4686C5.42431 18.2706 6.19484 18.7998 7.05411 18.7998C8.51149 18.7998 9.51554 17.3379 8.99238 15.9776L8.52581 14.7646L14.4261 17.5742C15.6206 18.143 17 17.2721 17 15.9491V3.85078C17 2.52778 15.6206 1.65683 14.4261 2.22563Z"/>
</mask>
<path fill-rule="evenodd" clip-rule="evenodd" d="M14.4261 2.22563L6.6167 5.94439V5.94456H3.96675C2.97264 5.94456 2.16675 6.75044 2.16675 7.74456V12.0556C2.16675 12.966 2.84252 13.7185 3.71978 13.8388L5.11585 17.4686C5.42431 18.2706 6.19484 18.7998 7.05411 18.7998C8.51149 18.7998 9.51554 17.3379 8.99238 15.9776L8.52581 14.7646L14.4261 17.5742C15.6206 18.143 17 17.2721 17 15.9491V3.85078C17 2.52778 15.6206 1.65683 14.4261 2.22563Z" fill="white"/>
<path d="M6.6167 5.94439L6.10078 4.86096L5.4167 5.18671V5.94439H6.6167ZM14.4261 2.22563L14.942 3.30907V3.30907L14.4261 2.22563ZM6.6167 5.94456V7.14456H7.8167V5.94456H6.6167ZM3.71978 13.8388L4.8398 13.408L4.58529 12.7463L3.88291 12.65L3.71978 13.8388ZM5.11585 17.4686L6.23586 17.0378V17.0378L5.11585 17.4686ZM8.99238 15.9776L7.87236 16.4084L8.99238 15.9776ZM8.52581 14.7646L9.04174 13.6811L6.32603 12.3879L7.4058 15.1953L8.52581 14.7646ZM14.4261 17.5742L13.9102 18.6577H13.9102L14.4261 17.5742ZM7.13262 7.02783L14.942 3.30907L13.9102 1.1422L6.10078 4.86096L7.13262 7.02783ZM7.8167 5.94456V5.94439H5.4167V5.94456H7.8167ZM6.6167 4.74456H3.96675V7.14456H6.6167V4.74456ZM3.96675 4.74456C2.30989 4.74456 0.966748 6.0877 0.966748 7.74456H3.36675C3.36675 7.41319 3.63538 7.14456 3.96675 7.14456V4.74456ZM0.966748 7.74456V12.0556H3.36675V7.74456H0.966748ZM0.966748 12.0556C0.966748 13.5738 2.09339 14.8269 3.55666 15.0277L3.88291 12.65C3.59165 12.61 3.36675 12.3581 3.36675 12.0556H0.966748ZM2.59977 14.2696L3.99583 17.8994L6.23586 17.0378L4.8398 13.408L2.59977 14.2696ZM3.99583 17.8994C4.48254 19.1648 5.69831 19.9998 7.05411 19.9998V17.5998C6.69136 17.5998 6.36608 17.3764 6.23586 17.0378L3.99583 17.8994ZM7.05411 19.9998C9.35362 19.9998 10.9379 17.6931 10.1124 15.5468L7.87236 16.4084C8.09322 16.9826 7.66935 17.5998 7.05411 17.5998V19.9998ZM10.1124 15.5468L9.64583 14.3338L7.4058 15.1953L7.87236 16.4084L10.1124 15.5468ZM14.942 16.4908L9.04174 13.6811L8.00989 15.848L13.9102 18.6577L14.942 16.4908ZM15.8 15.9491C15.8 16.3901 15.3402 16.6804 14.942 16.4908L13.9102 18.6577C15.901 19.6057 18.2 18.1541 18.2 15.9491H15.8ZM15.8 3.85078V15.9491H18.2V3.85078H15.8ZM14.942 3.30907C15.3402 3.11947 15.8 3.40978 15.8 3.85078H18.2C18.2 1.64578 15.901 0.194194 13.9102 1.1422L14.942 3.30907Z" fill="white" mask="url(#path-1-inside-1_3243_101106)"/>
</g>
<defs>
<clipPath id="clip0_3243_101106">
<rect width="20" height="20" fill="white"/>
</clipPath>
</defs>
</svg>
