<svg width="20" height="20" viewBox="0 0 20 20" fill="none" xmlns="http://www.w3.org/2000/svg">
<g clip-path="url(#clip0_3243_101178)">
<path d="M7.12537 13.0723L8.33923 16.2285C8.68605 17.1302 8.02021 18.0996 7.05408 18.0996C6.48456 18.0996 5.97348 17.7493 5.76892 17.2178L4.17517 13.0723H7.12537Z" stroke="white" stroke-width="1.4"/>
<path d="M3.96655 6.64478H7.40015V13.1555H3.96655C3.35922 13.1554 2.86708 12.6632 2.86694 12.0559V7.74438C2.86705 7.13703 3.35919 6.64488 3.96655 6.64478Z" stroke="white" stroke-width="1.4"/>
<path d="M14.7271 2.85742C15.4569 2.50994 16.3001 3.04224 16.3003 3.85059V15.9492C16.3002 16.7576 15.457 17.2899 14.7271 16.9424L7.31689 13.4131V6.38574L14.7271 2.85742Z" stroke="white" stroke-width="1.4"/>
</g>
<defs>
<clipPath id="clip0_3243_101178">
<rect width="20" height="20" fill="white"/>
</clipPath>
</defs>
</svg>
