<svg width="16" height="16" viewBox="0 0 16 16" fill="none" xmlns="http://www.w3.org/2000/svg">
<g clip-path="url(#clip0_3292_10110)">
<path d="M6.02466 9.4502L6.8479 11.5918C7.08723 12.2141 6.62789 12.8838 5.96118 12.8838C5.5682 12.8837 5.21554 12.6412 5.07446 12.2744L3.98853 9.4502H6.02466Z" stroke="white" stroke-width="0.9"/>
<path d="M4.16663 5.11694H6.21643V9.55054H4.16663C3.58673 9.55054 3.11682 9.07965 3.11682 8.49976V6.16675C3.11682 5.58685 3.58673 5.11694 4.16663 5.11694Z" stroke="white" stroke-width="0.9"/>
<path d="M10.7155 2.76111C11.4122 2.42949 12.2164 2.93767 12.2164 3.70935V10.9574C12.2164 11.7291 11.4122 12.2373 10.7155 11.9056L6.11682 9.71619V4.94958L10.7155 2.76111Z" stroke="white" stroke-width="0.9"/>
</g>
<defs>
<clipPath id="clip0_3292_10110">
<rect width="16" height="16" fill="white"/>
</clipPath>
</defs>
</svg>
