<svg width="24" height="24" viewBox="0 0 24 24" fill="none" xmlns="http://www.w3.org/2000/svg">
<g clip-path="url(#clip0_236_30888)">
<path d="M11.1191 4.44824C11.4729 3.65044 12.5271 3.65044 12.8809 4.44824L14.5801 8.2832L14.7754 8.72266L15.2529 8.78223L19.2832 9.2793C20.0703 9.37655 20.4867 10.4651 19.8223 11.1045L16.8428 13.9707L16.5107 14.291L16.5977 14.7432L17.3887 18.8848C17.5716 19.8431 16.6245 20.4005 15.9688 20.0186L12.4277 17.9561L12 17.707L11.5723 17.9561L8.03125 20.0186C7.37549 20.4005 6.42843 19.8431 6.61133 18.8848L7.40234 14.7432L7.48926 14.291L7.15723 13.9707L4.17773 11.1045C3.51329 10.4651 3.92969 9.37655 4.7168 9.2793L8.74707 8.78223L9.22461 8.72266L9.41992 8.2832L11.1191 4.44824Z" stroke="white" stroke-width="1.7"/>
</g>
<defs>
<clipPath id="clip0_236_30888">
<rect width="24" height="24" fill="white"/>
</clipPath>
</defs>
</svg>
