<svg width="20" height="20" viewBox="0 0 20 20" fill="none" xmlns="http://www.w3.org/2000/svg">
<g clip-path="url(#clip0_3243_96724)">
<path d="M12.5755 16.7554C11.041 17.0815 8.95899 17.0815 7.42455 16.7554C5.32806 16.3098 3.69024 14.6719 3.24462 12.5754C2.91846 11.041 2.91846 8.95899 3.24462 7.42455C3.69024 5.32806 5.32806 3.69024 7.42455 3.24462C8.95899 2.91846 11.041 2.91846 12.5755 3.24462C14.6719 3.69024 16.3098 5.32805 16.7554 7.42455C17.0815 8.95899 17.0815 11.041 16.7554 12.5755C16.3098 14.6719 14.6719 16.3098 12.5755 16.7554Z" stroke="white" stroke-width="1.3" stroke-linecap="round" stroke-linejoin="round"/>
<path d="M7.25 7.39992L12.75 7.3999" stroke="white" stroke-width="1.3" stroke-linecap="round"/>
<path d="M7.25 10H12.75" stroke="white" stroke-width="1.3" stroke-linecap="round"/>
<path d="M7.25 12.5999H10" stroke="white" stroke-width="1.3" stroke-linecap="round"/>
</g>
<defs>
<clipPath id="clip0_3243_96724">
<rect width="20" height="20" fill="white"/>
</clipPath>
</defs>
</svg>
