<svg width="24" height="24" viewBox="0 0 24 24" fill="none" xmlns="http://www.w3.org/2000/svg">
<g clip-path="url(#clip0_1451_70534)">
<path d="M15.6792 21.6505C13.4872 22.1165 10.5128 22.1165 8.32078 21.6505C5.32579 21.0139 2.98606 18.6742 2.34945 15.6792C1.88352 13.4872 1.88352 10.5128 2.34945 8.32078C2.98606 5.32579 5.32579 2.98606 8.32078 2.34945C10.5128 1.88352 13.4872 1.88352 15.6792 2.34945C18.6742 2.98606 21.0139 5.32579 21.6505 8.32078C22.1165 10.5128 22.1165 13.4872 21.6505 15.6792C21.0139 18.6742 18.6742 21.0139 15.6792 21.6505Z" stroke="white" stroke-width="1.7" stroke-linecap="round" stroke-linejoin="round"/>
<path d="M8.20154 8.15993L15.7792 8.15991" stroke="white" stroke-width="1.7" stroke-linecap="round"/>
<path d="M8.20154 12H15.8015" stroke="white" stroke-width="1.7" stroke-linecap="round"/>
<path d="M8.20154 15.8398H11.9911" stroke="white" stroke-width="1.7" stroke-linecap="round"/>
</g>
<defs>
<clipPath id="clip0_1451_70534">
<rect width="24" height="24" fill="white"/>
</clipPath>
</defs>
</svg>
