<svg width="16" height="16" viewBox="0 0 16 16" fill="none" xmlns="http://www.w3.org/2000/svg">
<g clip-path="url(#clip0_3292_5705)">
<path fill-rule="evenodd" clip-rule="evenodd" d="M10.1685 2.08706C8.86965 1.81099 7.13036 1.81099 5.83153 2.08706C3.95345 2.48626 2.48626 3.95345 2.08706 5.83153C1.81099 7.13036 1.81099 8.86965 2.08706 10.1685C2.48626 12.0466 3.95345 13.5137 5.83153 13.9129C7.13036 14.189 8.86965 14.189 10.1685 13.9129C12.0466 13.5137 13.5138 12.0466 13.9129 10.1685C14.189 8.86965 14.189 7.13036 13.9129 5.83153C13.5138 3.95345 12.0466 2.48626 10.1685 2.08706ZM5.80005 6.50007L10.2001 6.50006C10.4762 6.50006 10.7 6.2762 10.7 6.00006C10.7 5.72392 10.4762 5.50006 10.2 5.50006L5.80005 5.50007C5.52391 5.50007 5.30005 5.72393 5.30005 6.00008C5.30005 6.27622 5.52391 6.50007 5.80005 6.50007ZM5.30005 8.00006C5.30005 7.72392 5.52391 7.50006 5.80005 7.50006H10.2C10.4762 7.50006 10.7 7.72392 10.7 8.00006C10.7 8.2762 10.4762 8.50006 10.2 8.50006H5.80005C5.52391 8.50006 5.30005 8.2762 5.30005 8.00006ZM5.80005 9.50006C5.52391 9.50006 5.30005 9.72392 5.30005 10.0001C5.30005 10.2762 5.52391 10.5001 5.80005 10.5001H8.30005C8.57619 10.5001 8.80005 10.2762 8.80005 10.0001C8.80005 9.72392 8.57619 9.50006 8.30005 9.50006H5.80005Z" fill="white"/>
</g>
<defs>
<clipPath id="clip0_3292_5705">
<rect width="16" height="16" fill="white"/>
</clipPath>
</defs>
</svg>
