<svg width="24" height="24" viewBox="0 0 24 24" fill="none" xmlns="http://www.w3.org/2000/svg">
<g clip-path="url(#clip0_1451_70527)">
<path fill-rule="evenodd" clip-rule="evenodd" d="M8.04484 22.3743C10.4013 22.8752 13.5987 22.8752 15.9552 22.3743C19.1748 21.69 21.69 19.1748 22.3743 15.9552C22.8752 13.5987 22.8752 10.4013 22.3743 8.04484C21.69 4.82523 19.1748 2.31001 15.9552 1.62566C13.5987 1.12478 10.4013 1.12478 8.04484 1.62566C4.82523 2.31001 2.31001 4.82523 1.62566 8.04484C1.12478 10.4013 1.12478 13.5987 1.62566 15.9552C2.31001 19.1748 4.82523 21.69 8.04484 22.3743ZM8.20154 9.16005L15.7792 9.16003C16.3315 9.16003 16.7792 8.71232 16.7792 8.16003C16.7792 7.60775 16.3315 7.16003 15.7792 7.16003L8.20154 7.16005C7.64925 7.16005 7.20154 7.60777 7.20154 8.16005C7.20154 8.71233 7.64926 9.16005 8.20154 9.16005ZM7.20154 12C7.20154 11.4478 7.64925 11 8.20154 11H15.8015C16.3538 11 16.8015 11.4478 16.8015 12C16.8015 12.5523 16.3538 13 15.8015 13H8.20154C7.64925 13 7.20154 12.5523 7.20154 12ZM8.20154 14.84C7.64925 14.84 7.20154 15.2878 7.20154 15.84C7.20154 16.3923 7.64925 16.84 8.20154 16.84H11.9911C12.5434 16.84 12.9911 16.3923 12.9911 15.84C12.9911 15.2878 12.5434 14.84 11.9911 14.84H8.20154Z" fill="white"/>
</g>
<defs>
<clipPath id="clip0_1451_70527">
<rect width="24" height="24" fill="white"/>
</clipPath>
</defs>
</svg>
