<svg width="16" height="16" viewBox="0 0 16 16" fill="none" xmlns="http://www.w3.org/2000/svg">
<g clip-path="url(#clip0_3292_5699)">
<path d="M10.0604 13.4043C8.83283 13.6653 7.16722 13.6653 5.93966 13.4043C4.26247 13.0478 2.95222 11.7376 2.59572 10.0604C2.33479 8.83283 2.33479 7.16722 2.59572 5.93966C2.95222 4.26247 4.26247 2.95222 5.93966 2.59572C7.16722 2.33479 8.83283 2.33479 10.0604 2.59572C11.7376 2.95222 13.0478 4.26247 13.4043 5.93966C13.6653 7.16722 13.6653 8.83283 13.4043 10.0604C13.0478 11.7376 11.7376 13.0478 10.0604 13.4043Z" stroke="white" stroke-width="0.9" stroke-linecap="round" stroke-linejoin="round"/>
<path d="M5.79999 6.00001L10.2 6" stroke="white" stroke-width="0.9" stroke-linecap="round"/>
<path d="M5.79999 8H10.2" stroke="white" stroke-width="0.9" stroke-linecap="round"/>
<path d="M5.79999 10H8.29999" stroke="white" stroke-width="0.9" stroke-linecap="round"/>
</g>
<defs>
<clipPath id="clip0_3292_5699">
<rect width="16" height="16" fill="white"/>
</clipPath>
</defs>
</svg>
