<svg width="20" height="20" viewBox="0 0 20 20" fill="none" xmlns="http://www.w3.org/2000/svg">
<g clip-path="url(#clip0_3243_96730)">
<path fill-rule="evenodd" clip-rule="evenodd" d="M12.7106 2.60892C11.087 2.26382 8.91292 2.26382 7.28938 2.60892C4.94178 3.10792 3.10779 4.9419 2.6088 7.2895C2.2637 8.91304 2.2637 11.0871 2.6088 12.7107C3.10779 15.0583 4.94178 16.8923 7.28938 17.3913C8.91292 17.7364 11.087 17.7364 12.7106 17.3913C15.0582 16.8923 16.8922 15.0583 17.3912 12.7107C17.7362 11.0871 17.7362 8.91304 17.3912 7.2895C16.8922 4.9419 15.0582 3.10792 12.7106 2.60892ZM7.25 8.10016L12.75 8.10015C13.1366 8.10015 13.45 7.78674 13.45 7.40015C13.45 7.01355 13.1366 6.70015 12.75 6.70015L7.25 6.70016C6.8634 6.70016 6.55 7.01356 6.55 7.40016C6.55 7.78676 6.8634 8.10016 7.25 8.10016ZM6.55 10.0002C6.55 9.61356 6.8634 9.30016 7.25 9.30016H12.75C13.1366 9.30016 13.45 9.61356 13.45 10.0002C13.45 10.3868 13.1366 10.7002 12.75 10.7002H7.25C6.8634 10.7002 6.55 10.3868 6.55 10.0002ZM7.25 11.9002C6.8634 11.9002 6.55 12.2136 6.55 12.6002C6.55 12.9868 6.8634 13.3002 7.25 13.3002H10C10.3866 13.3002 10.7 12.9868 10.7 12.6002C10.7 12.2136 10.3866 11.9002 10 11.9002H7.25Z" fill="white"/>
</g>
<defs>
<clipPath id="clip0_3243_96730">
<rect width="20" height="20" fill="white"/>
</clipPath>
</defs>
</svg>
