<svg width="24" height="24" viewBox="0 0 24 24" fill="none" xmlns="http://www.w3.org/2000/svg">
<g clip-path="url(#clip0_162_21777)">
<path d="M2.2 9.97691C2.2 9.97564 2.20103 9.97461 2.2023 9.97461H18.0169C18.0181 9.97461 18.0192 9.97564 18.0192 9.97691V13.5904C18.0192 17.9588 14.4779 21.5 10.1096 21.5C5.74124 21.5 2.2 17.9588 2.2 13.5904V9.97691Z" stroke="white" stroke-width="1.7"/>
<path d="M15.3073 9.97461H18.6971C20.2572 9.97461 21.522 11.2393 21.522 12.7995C21.522 14.3596 20.2572 15.6243 18.6971 15.6243H17.4906" stroke="white" stroke-width="1.7"/>
<path d="M10.5996 2.34961H14.8594V2.90039C14.8592 4.97119 13.1802 6.65024 11.1094 6.65039H6.84961V6.09961C6.84982 4.02885 8.52885 2.34982 10.5996 2.34961Z" stroke="white" stroke-width="1.7"/>
</g>
<defs>
<clipPath id="clip0_162_21777">
<rect width="24" height="24" fill="white"/>
</clipPath>
</defs>
</svg>
