<svg width="16" height="16" viewBox="0 0 16 16" fill="none" xmlns="http://www.w3.org/2000/svg">
<g clip-path="url(#clip0_3292_6933)">
<path fill-rule="evenodd" clip-rule="evenodd" d="M8.28751 1.33827C6.19599 1.33831 4.50045 3.03385 4.50041 5.12537C4.50041 5.21437 4.57256 5.28652 4.66156 5.28652L7.18348 5.28648C9.275 5.28644 10.9705 3.5909 10.9706 1.49938C10.9706 1.41038 10.8984 1.33823 10.8094 1.33823L8.28751 1.33827ZM12.4711 7.68076L12.3209 7.68076L12.3208 9.17285C12.3208 9.39612 12.3068 9.61612 12.2796 9.83202L12.471 9.83202C13.0664 9.832 13.549 9.35041 13.5491 8.75636C13.5491 8.16231 13.0665 7.68074 12.4711 7.68076ZM9.16762 6.29293L9.16762 6.29319L2.18887 6.29325C2.01678 6.29325 1.87727 6.43276 1.87727 6.60485L1.87725 9.17292C1.87723 12.0568 4.21509 14.3947 7.09901 14.3947C9.25635 14.3947 11.1081 13.0864 11.9043 11.2199L12.471 11.2199C13.8346 11.2199 14.94 10.1169 14.94 8.75633C14.94 7.39575 13.8347 6.29282 12.4711 6.29285L9.16762 6.29293Z" fill="white"/>
</g>
<defs>
<clipPath id="clip0_3292_6933">
<rect width="16" height="16" fill="white"/>
</clipPath>
</defs>
</svg>
