<svg width="16" height="16" viewBox="0 0 16 16" fill="none" xmlns="http://www.w3.org/2000/svg">
<g clip-path="url(#clip0_3292_6861)">
<path d="M2.39999 6.70139C2.39999 6.7006 2.40064 6.69995 2.40143 6.69995H11.9986C11.9993 6.69995 12 6.7006 12 6.70139V9.09993C12 11.7509 9.85096 13.8999 7.19999 13.8999C4.54903 13.8999 2.39999 11.7509 2.39999 9.09994V6.70139Z" stroke="white" stroke-width="0.9"/>
<path d="M12 6.69995H12.55C13.5993 6.69995 14.45 7.55061 14.45 8.59995C14.45 9.64929 13.5993 10.5 12.55 10.5H12" stroke="white" stroke-width="0.9"/>
<path d="M8.09439 1.9502H10.3639C10.3227 3.55869 9.00675 4.84959 7.38834 4.84961H5.1188C5.1601 3.2412 6.47603 1.9502 8.09439 1.9502Z" stroke="white" stroke-width="0.9"/>
</g>
<defs>
<clipPath id="clip0_3292_6861">
<rect width="16" height="16" fill="white"/>
</clipPath>
</defs>
</svg>
