<svg width="20" height="20" viewBox="0 0 20 20" fill="none" xmlns="http://www.w3.org/2000/svg">
<g clip-path="url(#clip0_3243_97912)">
<path d="M2.25 8.87317C2.25 8.87216 2.25082 8.87134 2.25183 8.87134H14.8196C14.8206 8.87134 14.8214 8.87216 14.8214 8.87317V11.7285C14.8214 15.2 12.0072 18.0142 8.53571 18.0142C5.06421 18.0142 2.25 15.2 2.25 11.7285V8.87317Z" stroke="white" stroke-width="1.3"/>
<path d="M12.5357 8.87134H15.9643C17.2266 8.87134 18.25 9.89469 18.25 11.1571C18.25 12.4194 17.2267 13.4428 15.9643 13.4428H14.5432" stroke="white" stroke-width="1.3"/>
<path d="M10.0877 2.43604H13.3142C13.3076 4.61191 11.5415 6.37354 9.36405 6.37354H6.13846C6.14499 4.19771 7.91037 2.43625 10.0877 2.43604Z" stroke="white" stroke-width="1.3"/>
</g>
<defs>
<clipPath id="clip0_3243_97912">
<rect width="20" height="20" fill="white"/>
</clipPath>
</defs>
</svg>
