<svg width="20" height="20" viewBox="0 0 20 20" fill="none" xmlns="http://www.w3.org/2000/svg">
<g clip-path="url(#clip0_3243_97984)">
<path fill-rule="evenodd" clip-rule="evenodd" d="M1.7 8.87312C1.7 8.5684 1.94701 8.32129 2.25183 8.32129H14.8196C15.1243 8.32129 15.3714 8.5683 15.3714 8.87312V11.7284C15.3714 15.5037 12.311 18.5641 8.53572 18.5641C4.76045 18.5641 1.7 15.5037 1.7 11.7284V8.87312Z" fill="white"/>
<path fill-rule="evenodd" clip-rule="evenodd" d="M10.0881 1.78564C7.54756 1.78564 5.48807 3.84513 5.48807 6.38564V6.52374C5.48807 6.79988 5.71193 7.02374 5.98807 7.02374H9.36427C11.9048 7.02374 13.9643 4.96425 13.9643 2.42374V2.28564C13.9643 2.0095 13.7404 1.78564 13.4643 1.78564H10.0881Z" fill="white"/>
<path fill-rule="evenodd" clip-rule="evenodd" d="M16.0293 9.73008H12.5357V8.33008H16.0293C17.6345 8.33008 18.9357 9.63131 18.9357 11.2365C18.9357 12.8416 17.6345 14.1428 16.0293 14.1428H14.5382V12.7428H16.0293C16.8613 12.7428 17.5357 12.0684 17.5357 11.2365C17.5357 10.4045 16.8613 9.73008 16.0293 9.73008Z" fill="white"/>
</g>
<defs>
<clipPath id="clip0_3243_97984">
<rect width="20" height="20" fill="white"/>
</clipPath>
</defs>
</svg>
