<svg width="24" height="24" viewBox="0 0 24 24" fill="none" xmlns="http://www.w3.org/2000/svg">
<g clip-path="url(#clip0_571_109285)">
<path fill-rule="evenodd" clip-rule="evenodd" d="M1.55 9.97701C1.55 9.61681 1.84199 9.32471 2.20231 9.32471H18.0169C18.3768 9.32471 18.6692 9.61647 18.6692 9.97701V13.5905C18.6692 18.3178 14.8369 22.1501 10.1096 22.1501C5.38226 22.1501 1.55 18.3178 1.55 13.5905V9.97701Z" fill="white"/>
<path fill-rule="evenodd" clip-rule="evenodd" d="M18.8699 11.3201H15.3073V9.32007H18.8699C20.8869 9.32007 22.522 10.9552 22.522 12.9722C22.522 14.9892 20.8869 16.6243 18.8699 16.6243H17.4906V14.6243H18.8699C19.7823 14.6243 20.522 13.8846 20.522 12.9722C20.522 12.0597 19.7823 11.3201 18.8699 11.3201Z" fill="white"/>
<path d="M6 6.29995C6 3.75944 8.05949 1.69995 10.6 1.69995H15.2091C15.4852 1.69995 15.7091 1.92381 15.7091 2.19995V2.9C15.7091 5.44051 13.6496 7.5 11.1091 7.5H6.5C6.22386 7.5 6 7.27614 6 7V6.29995Z" fill="white"/>
</g>
<defs>
<clipPath id="clip0_571_109285">
<rect width="24" height="24" fill="white"/>
</clipPath>
</defs>
</svg>
