<svg width="16" height="16" viewBox="0 0 16 16" fill="none" xmlns="http://www.w3.org/2000/svg">
<path fill-rule="evenodd" clip-rule="evenodd" d="M8.96665 1.80005C8.6041 1.80005 8.25641 1.94407 8.00005 2.20043L2.20043 8.00005C1.66659 8.53389 1.66659 9.39941 2.20043 9.93326L6.06684 13.7997C6.60068 14.3335 7.46621 14.3335 8.00005 13.7997L13.7997 8.00005C14.056 7.74369 14.2 7.39599 14.2 7.03345L14.1029 3.85052C14.1029 3.48798 13.9589 3.14028 13.7025 2.88392L13.019 2.20043C12.7627 1.94407 12.415 1.80005 12.0524 1.80005H8.96665ZM9.36703 6.63307C9.90087 7.16691 10.7664 7.16691 11.3002 6.63307C11.8341 6.09922 11.8341 5.2337 11.3002 4.69986C10.7664 4.16602 9.90087 4.16602 9.36703 4.69986C8.83319 5.2337 8.83319 6.09922 9.36703 6.63307Z" stroke="white" stroke-width="0.9"/>
</svg>
