<svg width="24" height="24" viewBox="0 0 24 24" fill="none" xmlns="http://www.w3.org/2000/svg">
<path fill-rule="evenodd" clip-rule="evenodd" d="M13.559 2C12.9743 2 12.4135 2.23229 12 2.64577L2.64577 12C1.78474 12.861 1.78474 14.257 2.64577 15.1181L8.88192 21.3542C9.74296 22.2153 11.139 22.2153 12 21.3542L21.3542 12C21.7677 11.5865 22 11.0257 22 10.441L21.8433 5.30722C21.8433 4.72247 21.611 4.16166 21.1975 3.74818L20.0951 2.64577C19.6816 2.23229 19.1208 2 18.5361 2H13.559ZM14.2048 9.79519C15.0658 10.6562 16.4619 10.6562 17.3229 9.79519C18.1839 8.93416 18.1839 7.53815 17.3229 6.67711C16.4619 5.81608 15.0658 5.81608 14.2048 6.67711C13.3438 7.53815 13.3438 8.93416 14.2048 9.79519Z" stroke="white" stroke-width="1.5"/>
</svg>
