<svg width="20" height="20" viewBox="0 0 20 20" fill="none" xmlns="http://www.w3.org/2000/svg">
<path fill-rule="evenodd" clip-rule="evenodd" d="M11.2083 2.25C10.7551 2.25 10.3204 2.43003 10 2.75048L2.75048 10C2.08317 10.6673 2.08317 11.7492 2.75048 12.4165L7.58349 17.2495C8.25079 17.9168 9.3327 17.9168 10 17.2495L17.2495 10C17.57 9.67955 17.75 9.24493 17.75 8.79175L17.6286 4.81309C17.6286 4.35991 17.4485 3.92529 17.1281 3.60484L16.2737 2.75048C15.9533 2.43003 15.5187 2.25 15.0655 2.25H11.2083ZM11.7087 8.29127C12.376 8.95857 13.4579 8.95857 14.1252 8.29127C14.7925 7.62397 14.7925 6.54206 14.1252 5.87476C13.4579 5.20746 12.376 5.20746 11.7087 5.87476C11.0414 6.54206 11.0414 7.62397 11.7087 8.29127Z" stroke="white" stroke-width="1.3"/>
</svg>
