<svg width="20" height="20" viewBox="0 0 20 20" fill="none" xmlns="http://www.w3.org/2000/svg">
<path fill-rule="evenodd" clip-rule="evenodd" d="M16.608 2.29175C16.9855 2.29175 17.2916 2.59626 17.2916 2.9719V4.33219C17.2916 4.70782 16.9855 5.01234 16.608 5.01234C16.2305 5.01234 15.9244 4.70782 15.9244 4.33219V3.65204H10.6835V16.3481H13.8736C14.2512 16.3481 14.5572 16.6526 14.5572 17.0283C14.5572 17.4039 14.2512 17.7084 13.8736 17.7084H6.12622C5.74868 17.7084 5.44263 17.4039 5.44263 17.0283C5.44263 16.6526 5.74868 16.3481 6.12622 16.3481H9.31632V3.65204H4.07544V4.33219C4.07544 4.70782 3.76938 5.01234 3.39185 5.01234C3.01431 5.01234 2.70825 4.70782 2.70825 4.33219V2.9719C2.70825 2.59626 3.01431 2.29175 3.39185 2.29175H16.608Z" fill="white"/>
</svg>
