<svg width="24" height="24" viewBox="0 0 24 24" fill="none" xmlns="http://www.w3.org/2000/svg">
<path fill-rule="evenodd" clip-rule="evenodd" d="M19.9297 2.75C20.3827 2.75 20.75 3.11541 20.75 3.56618V5.19853C20.75 5.64929 20.3827 6.01471 19.9297 6.01471C19.4766 6.01471 19.1094 5.64929 19.1094 5.19853V4.38235H12.8203V19.6176H16.6484C17.1015 19.6176 17.4688 19.9831 17.4688 20.4338C17.4688 20.8846 17.1015 21.25 16.6484 21.25H7.35156C6.89852 21.25 6.53125 20.8846 6.53125 20.4338C6.53125 19.9831 6.89852 19.6176 7.35156 19.6176H11.1797V4.38235H4.89062V5.19853C4.89062 5.64929 4.52336 6.01471 4.07031 6.01471C3.61727 6.01471 3.25 5.64929 3.25 5.19853V3.56618C3.25 3.11541 3.61727 2.75 4.07031 2.75H19.9297Z" fill="white"/>
</svg>
