<svg width="16" height="16" viewBox="0 0 16 16" fill="none" xmlns="http://www.w3.org/2000/svg">
<path fill-rule="evenodd" clip-rule="evenodd" d="M13.2864 1.83337C13.5884 1.83337 13.8333 2.07698 13.8333 2.37749V3.46573C13.8333 3.76623 13.5884 4.00984 13.2864 4.00984C12.9844 4.00984 12.7395 3.76623 12.7395 3.46573V2.92161H8.54683V13.0785H11.0989C11.4009 13.0785 11.6458 13.3221 11.6458 13.6226C11.6458 13.9231 11.4009 14.1667 11.0989 14.1667H4.901C4.59897 14.1667 4.35413 13.9231 4.35413 13.6226C4.35413 13.3221 4.59897 13.0785 4.901 13.0785H7.45308V2.92161H3.26038V3.46573C3.26038 3.76623 3.01553 4.00984 2.7135 4.00984C2.41147 4.00984 2.16663 3.76623 2.16663 3.46573V2.37749C2.16663 2.07698 2.41147 1.83337 2.7135 1.83337H13.2864Z" fill="white"/>
</svg>
