<svg width="20" height="20" viewBox="0 0 20 20" fill="none" xmlns="http://www.w3.org/2000/svg">
<g clip-path="url(#clip0_3243_96653)">
<path fill-rule="evenodd" clip-rule="evenodd" d="M9.99267 1.8999C6.09763 1.8999 2.88 5.18586 2.88 8.97237C2.88 10.5462 3.57048 12.0351 4.61137 13.4202C5.65352 14.8069 7.08968 16.1465 8.68236 17.4353C9.44638 18.0536 10.5378 18.0548 11.3033 17.4386C12.917 16.1397 14.3571 14.7999 15.3978 13.4147C16.438 12.0302 17.1198 10.546 17.1198 8.97237C17.1198 5.20424 13.8582 1.8999 9.99267 1.8999ZM12.962 7.84692C13.2027 7.5806 13.182 7.16957 12.9157 6.92885C12.6493 6.68814 12.2383 6.7089 11.9976 6.97522L9.1138 10.1658L7.9617 9.01368C7.70786 8.75984 7.2963 8.75983 7.04246 9.01367C6.78862 9.26751 6.78861 9.67906 7.04245 9.93291L8.67797 11.5685C8.80389 11.6944 8.97597 11.7631 9.15399 11.7586C9.33202 11.7542 9.5004 11.6768 9.61981 11.5447L12.962 7.84692Z" fill="white"/>
</g>
<defs>
<clipPath id="clip0_3243_96653">
<rect width="20" height="20" fill="white"/>
</clipPath>
</defs>
</svg>
