<svg width="24" height="24" viewBox="0 0 24 24" fill="none" xmlns="http://www.w3.org/2000/svg">
<g clip-path="url(#clip0_1326_74969)">
<path fill-rule="evenodd" clip-rule="evenodd" d="M12.0022 0.75C6.52485 0.75 2.00006 5.37087 2.00006 10.6957C2.00006 12.9089 2.97104 15.0027 4.43479 16.9504C5.90032 18.9004 7.91992 20.7842 10.1596 22.5967C11.234 23.4661 12.7689 23.4679 13.8454 22.6013C16.1146 20.7747 18.1397 18.8906 19.6032 16.9427C21.066 14.9957 22.0248 12.9086 22.0248 10.6957C22.0248 5.39673 17.4382 0.75 12.0022 0.75ZM16.0182 9.43729C16.3944 9.03287 16.3714 8.40012 15.967 8.02401C15.5625 7.6479 14.9298 7.67085 14.5537 8.07528L10.7277 12.1893L9.10585 10.5662C8.71547 10.1755 8.08231 10.1752 7.69163 10.5656C7.30096 10.956 7.30072 11.5892 7.69109 11.9798L9.67959 13.9699C10.2804 14.5711 11.2602 14.5535 11.8391 13.9311L16.0182 9.43729Z" fill="white"/>
</g>
<defs>
<clipPath id="clip0_1326_74969">
<rect width="24" height="24" fill="white"/>
</clipPath>
</defs>
</svg>
