<svg width="16" height="16" viewBox="0 0 16 16" fill="none" xmlns="http://www.w3.org/2000/svg">
<g clip-path="url(#clip0_3292_5628)">
<path fill-rule="evenodd" clip-rule="evenodd" d="M7.99414 1.52002C4.87812 1.52002 2.30402 4.14878 2.30402 7.178C2.30402 8.43708 2.8564 9.62821 3.68911 10.7362C4.52283 11.8456 5.67176 12.9173 6.9459 13.9483C7.55711 14.443 8.43029 14.444 9.04269 13.951C10.3336 12.9119 11.4857 11.84 12.3183 10.7319C13.1504 9.62424 13.6959 8.43692 13.6959 7.178C13.6959 4.16349 11.0866 1.52002 7.99414 1.52002ZM10.3548 6.26423C10.54 6.05936 10.524 5.74318 10.3191 5.55802C10.1143 5.37285 9.79809 5.38882 9.61293 5.59369L7.29179 8.16176L6.35523 7.22518C6.15997 7.02992 5.84339 7.02992 5.64812 7.22518C5.45286 7.42044 5.45286 7.73702 5.64812 7.93228L6.95653 9.24073C7.05339 9.33759 7.18576 9.39047 7.3227 9.38702C7.45964 9.38356 7.58917 9.32407 7.68103 9.22245L10.3548 6.26423Z" fill="white"/>
</g>
<defs>
<clipPath id="clip0_3292_5628">
<rect width="16" height="16" fill="white"/>
</clipPath>
</defs>
</svg>
