<svg width="24" height="24" viewBox="0 0 24 24" fill="none" xmlns="http://www.w3.org/2000/svg">
<g clip-path="url(#clip0_1324_74799)">
<path d="M4.02 17.5115L17.3279 17.5115" stroke="white" stroke-width="1.5"/>
<path fill-rule="evenodd" clip-rule="evenodd" d="M9.43725 4.22559H7.48657C5.13936 4.22559 3.23657 6.12838 3.23657 8.47559V17.4138C3.23657 19.761 5.13936 21.6638 7.48657 21.6638H13.8278C16.175 21.6638 18.0778 19.761 18.0778 17.4138V11.1346C17.6903 11.2307 17.2851 11.2817 16.8679 11.2817H16.5814L16.5778 11.2843V17.4138C16.5778 18.9325 15.3465 20.1638 13.8278 20.1638H7.48657C5.96779 20.1638 4.73657 18.9325 4.73657 17.4138V8.47559C4.73657 6.9568 5.96779 5.72559 7.48657 5.72559H9.02979C9.08753 5.19644 9.22772 4.69207 9.43725 4.22559Z" fill="white"/>
<path d="M13.3252 11.2357L14.0742 11.198C14.0561 10.8376 13.7839 10.5412 13.4263 10.4926L13.3252 11.2357ZM13.3925 12.5733L12.6434 12.611V12.611L13.3925 12.5733ZM14.1779 12.9583L14.607 13.5734V13.5734L14.1779 12.9583ZM16.5814 11.2817V10.5317C16.428 10.5317 16.2782 10.5788 16.1523 10.6666L16.5814 11.2817ZM9.75 6.2749C9.75 3.92392 11.6558 2.01807 14.0068 2.01807V0.518066C10.8274 0.518066 8.25 3.09549 8.25 6.2749H9.75ZM13.4263 10.4926C11.3502 10.21 9.75 8.42868 9.75 6.2749H8.25C8.25 9.18907 10.4146 11.5964 13.224 11.9789L13.4263 10.4926ZM14.1415 12.5356L14.0742 11.198L12.5761 11.2734L12.6434 12.611L14.1415 12.5356ZM13.7488 12.3431C13.9099 12.2308 14.1317 12.3395 14.1415 12.5356L12.6434 12.611C12.6928 13.5917 13.8016 14.1352 14.607 13.5734L13.7488 12.3431ZM16.1523 10.6666L13.7488 12.3431L14.607 13.5734L17.0105 11.8969L16.1523 10.6666ZM16.8679 10.5317H16.5814V12.0317H16.8679V10.5317ZM21.1247 6.2749C21.1247 8.62588 19.2189 10.5317 16.8679 10.5317V12.0317C20.0473 12.0317 22.6247 9.45431 22.6247 6.2749H21.1247ZM16.8679 2.01807C19.2189 2.01807 21.1247 3.92392 21.1247 6.2749H22.6247C22.6247 3.09549 20.0473 0.518066 16.8679 0.518066V2.01807ZM14.0068 2.01807H16.8679V0.518066H14.0068V2.01807Z" fill="white"/>
<path fill-rule="evenodd" clip-rule="evenodd" d="M13.8972 6.27182C13.8972 6.79571 13.4725 7.2204 12.9486 7.2204C12.4247 7.2204 12 6.79571 12 6.27182C12 5.74794 12.4247 5.32324 12.9486 5.32324C13.4725 5.32324 13.8972 5.74794 13.8972 6.27182ZM15.6458 7.2204C16.1697 7.2204 16.5944 6.79571 16.5944 6.27182C16.5944 5.74794 16.1697 5.32324 15.6458 5.32324C15.122 5.32324 14.6973 5.74794 14.6973 6.27182C14.6973 6.79571 15.122 7.2204 15.6458 7.2204ZM18.3431 7.2204C18.867 7.2204 19.2917 6.79571 19.2917 6.27182C19.2917 5.74794 18.867 5.32324 18.3431 5.32324C17.8192 5.32324 17.3945 5.74794 17.3945 6.27182C17.3945 6.79571 17.8192 7.2204 18.3431 7.2204Z" fill="white"/>
</g>
<defs>
<clipPath id="clip0_1324_74799">
<rect width="24" height="24" fill="white"/>
</clipPath>
</defs>
</svg>
