<svg width="20" height="20" viewBox="0 0 20 20" fill="none" xmlns="http://www.w3.org/2000/svg">
<g clip-path="url(#clip0_3243_100739)">
<path d="M3.99999 14.2H15" stroke="white" stroke-width="1.2"/>
<path fill-rule="evenodd" clip-rule="evenodd" d="M7.62776 4.34302H7.1675C5.17928 4.34302 3.5675 5.95479 3.5675 7.94302V14.5942C3.5675 16.5825 5.17928 18.1942 7.1675 18.1942H11.7573C13.7455 18.1942 15.3573 16.5825 15.3573 14.5942V7.94302C15.3573 7.73741 15.3401 7.53584 15.307 7.33965C15.0012 7.73396 14.6084 8.05737 14.1573 8.281V14.5942C14.1573 15.9197 13.0828 16.9942 11.7573 16.9942H7.1675C5.84202 16.9942 4.7675 15.9197 4.7675 14.5942V7.94302C4.7675 6.61753 5.84202 5.54302 7.1675 5.54302H7.49169C7.48643 5.46669 7.48375 5.38965 7.48375 5.31199C7.48375 4.97486 7.53413 4.6495 7.62776 4.34302Z" fill="white"/>
<path d="M10.3447 8.59334L10.944 8.56318C10.9295 8.27487 10.7117 8.03776 10.4257 7.99882L10.3447 8.59334ZM10.3739 9.17306L10.9732 9.14291V9.14291L10.3739 9.17306ZM11.1593 9.55802L10.8161 9.06591L10.8161 9.06591L11.1593 9.55802ZM12.4987 8.62377V8.02377C12.3759 8.02377 12.2561 8.06143 12.1554 8.13167L12.4987 8.62377ZM8.08376 5.31189C8.08376 3.81415 9.29792 2.6 10.7957 2.6V1.4C8.63518 1.4 6.88376 3.15141 6.88376 5.31189H8.08376ZM10.4257 7.99882C9.10318 7.81879 8.08376 6.68389 8.08376 5.31189H6.88376C6.88376 7.2922 8.3547 8.92797 10.2638 9.18785L10.4257 7.99882ZM10.9732 9.14291L10.944 8.56318L9.7455 8.62349L9.77467 9.20321L10.9732 9.14291ZM10.8161 9.06591C10.8805 9.02097 10.9692 9.06445 10.9732 9.14291L9.77467 9.20321C9.8181 10.0662 10.7939 10.5445 11.5026 10.0501L10.8161 9.06591ZM12.1554 8.13167L10.8161 9.06591L11.5026 10.0501L12.8419 9.11588L12.1554 8.13167ZM12.6882 8.02377H12.4987V9.22377H12.6882V8.02377ZM15.4 5.31189C15.4 6.80962 14.1859 8.02377 12.6882 8.02377V9.22377C14.8486 9.22377 16.6 7.47236 16.6 5.31189H15.4ZM12.6882 2.6C14.1859 2.6 15.4 3.81415 15.4 5.31189H16.6C16.6 3.15141 14.8486 1.4 12.6882 1.4V2.6ZM10.7957 2.6H12.6882V1.4H10.7957V2.6Z" fill="white"/>
<path fill-rule="evenodd" clip-rule="evenodd" d="M10.7231 5.30983C10.7231 5.65637 10.4421 5.93729 10.0956 5.93729C9.74906 5.93729 9.46814 5.65637 9.46814 5.30983C9.46814 4.9633 9.74906 4.68237 10.0956 4.68237C10.4421 4.68237 10.7231 4.9633 10.7231 5.30983ZM11.8797 5.93729C12.2263 5.93729 12.5072 5.65637 12.5072 5.30983C12.5072 4.9633 12.2263 4.68237 11.8797 4.68237C11.5332 4.68237 11.2523 4.9633 11.2523 5.30983C11.2523 5.65637 11.5332 5.93729 11.8797 5.93729ZM13.664 5.93729C14.0105 5.93729 14.2914 5.65637 14.2914 5.30983C14.2914 4.9633 14.0105 4.68237 13.664 4.68237C13.3174 4.68237 13.0365 4.9633 13.0365 5.30983C13.0365 5.65637 13.3174 5.93729 13.664 5.93729Z" fill="white"/>
</g>
<defs>
<clipPath id="clip0_3243_100739">
<rect width="20" height="20" fill="white"/>
</clipPath>
</defs>
</svg>
