<svg width="16" height="16" viewBox="0 0 16 16" fill="none" xmlns="http://www.w3.org/2000/svg">
<g clip-path="url(#clip0_3292_9671)">
<path d="M2.99987 11H11.9999" stroke="white" stroke-width="0.9"/>
<path fill-rule="evenodd" clip-rule="evenodd" d="M6.60376 2.55002H5.4999C3.87066 2.55002 2.5499 3.87078 2.5499 5.50002V11.5C2.5499 13.1293 3.87066 14.45 5.4999 14.45H9.4999C11.1291 14.45 12.4499 13.1293 12.4499 11.5V5.56668C12.2315 5.94709 11.9215 6.26816 11.5499 6.49975V11.5C11.5499 12.6322 10.6321 13.55 9.4999 13.55H5.4999C4.36772 13.55 3.4499 12.6322 3.4499 11.5V5.50002C3.4499 4.36784 4.36772 3.45002 5.4999 3.45002H6.1097C6.21508 3.1167 6.38459 2.81187 6.60376 2.55002Z" fill="white"/>
<path d="M8.2802 6.49047L8.72963 6.46786C8.71834 6.24339 8.54315 6.06167 8.31925 6.04217L8.2802 6.49047ZM8.3302 7.48415L7.88077 7.50677H7.88077L8.3302 7.48415ZM8.64437 7.63814L8.38692 7.26905L8.38692 7.26906L8.64437 7.63814ZM10.276 6.5V6.05C10.1839 6.05 10.0941 6.07824 10.0186 6.13092L10.276 6.5ZM6.45 4C6.45 2.86782 7.36782 1.95 8.5 1.95V1.05C6.87076 1.05 5.55 2.37076 5.55 4H6.45ZM8.31925 6.04217C7.27195 5.95094 6.45 5.07121 6.45 4H5.55C5.55 5.54208 6.73291 6.80739 8.24115 6.93877L8.31925 6.04217ZM8.77963 7.46154L8.72963 6.46786L7.83077 6.51309L7.88077 7.50677L8.77963 7.46154ZM8.38692 7.26906C8.54799 7.1567 8.76976 7.2654 8.77963 7.46154L7.88077 7.50677C7.90643 8.01671 8.48304 8.29933 8.90182 8.00722L8.38692 7.26906ZM10.0186 6.13092L8.38692 7.26905L8.90182 8.00722L10.5335 6.86908L10.0186 6.13092ZM10.313 6.05H10.276V6.95H10.313V6.05ZM12.363 4C12.363 5.13218 11.4452 6.05 10.313 6.05V6.95C11.9423 6.95 13.263 5.62924 13.263 4H12.363ZM10.313 1.95C11.4452 1.95 12.363 2.86782 12.363 4H13.263C13.263 2.37076 11.9423 1.05 10.313 1.05V1.95ZM8.5 1.95H10.313V1.05H8.5V1.95Z" fill="white"/>
<path fill-rule="evenodd" clip-rule="evenodd" d="M8.37446 4.09995C8.37446 4.32087 8.19538 4.49995 7.97446 4.49995C7.75355 4.49995 7.57446 4.32087 7.57446 4.09995C7.57446 3.87904 7.75355 3.69995 7.97446 3.69995C8.19538 3.69995 8.37446 3.87904 8.37446 4.09995ZM9.40177 4.49995C9.62269 4.49995 9.80177 4.32087 9.80177 4.09995C9.80177 3.87904 9.62269 3.69995 9.40177 3.69995C9.18086 3.69995 9.00177 3.87904 9.00177 4.09995C9.00177 4.32087 9.18086 4.49995 9.40177 4.49995ZM10.8292 4.49995C11.0501 4.49995 11.2292 4.32087 11.2292 4.09995C11.2292 3.87904 11.0501 3.69995 10.8292 3.69995C10.6082 3.69995 10.4292 3.87904 10.4292 4.09995C10.4292 4.32087 10.6082 4.49995 10.8292 4.49995Z" fill="white"/>
</g>
<defs>
<clipPath id="clip0_3292_9671">
<rect width="16" height="16" fill="white"/>
</clipPath>
</defs>
</svg>
