<svg width="20" height="20" viewBox="0 0 20 20" fill="none" xmlns="http://www.w3.org/2000/svg">
<g clip-path="url(#clip0_3243_99449)">
<path d="M8.50666 11.5387C7.2184 10.183 7.2184 7.98486 8.50666 6.62915L10.9914 4.01673C12.2794 2.66109 14.3676 2.66109 15.6556 4.01673C16.9436 5.37255 16.9436 7.57061 15.6556 8.92631C15.6556 8.92631 15.5177 9.07 15.0172 9.59535C14.918 9.69948 14.8045 9.81862 14.6751 9.9546" stroke="white" stroke-width="1.3" stroke-linecap="round"/>
<path d="M11.4932 8.46157C12.7815 9.81727 12.7815 12.0154 11.4932 13.3711L9.00849 15.9835C7.72049 17.3392 5.63228 17.3392 4.34428 15.9835C3.05628 14.6277 3.05628 12.4296 4.34428 11.0739C4.34428 11.0739 4.48222 10.9302 4.9827 10.4049C5.08191 10.3008 5.19536 10.1816 5.32481 10.0456" stroke="white" stroke-width="1.3" stroke-linecap="round"/>
</g>
<defs>
<clipPath id="clip0_3243_99449">
<rect width="20" height="20" fill="white"/>
</clipPath>
</defs>
</svg>
