<svg width="16" height="16" viewBox="0 0 16 16" fill="none" xmlns="http://www.w3.org/2000/svg">
<g clip-path="url(#clip0_3292_8386)">
<path d="M6.80536 9.23096C5.77476 8.1464 5.77476 6.38791 6.80536 5.30334L8.79315 3.21341C9.82355 2.1289 11.4941 2.1289 12.5245 3.21341C13.5549 4.29806 13.5549 6.05651 12.5245 7.14107C12.5245 7.14107 12.4142 7.25602 12.0138 7.6763C11.9344 7.75961 11.8437 7.85492 11.7401 7.9637" stroke="white" stroke-width="0.9" stroke-linecap="round"/>
<path d="M9.19458 6.76916C10.2252 7.85372 10.2252 9.61221 9.19457 10.6968L7.20679 12.7867C6.17639 13.8712 4.50582 13.8712 3.47542 12.7867C2.44502 11.7021 2.44502 9.94361 3.47542 8.85905C3.47542 8.85905 3.58578 8.7441 3.98616 8.32382C4.06553 8.24051 4.15629 8.1452 4.25985 8.03642" stroke="white" stroke-width="0.9" stroke-linecap="round"/>
</g>
<defs>
<clipPath id="clip0_3292_8386">
<rect width="16" height="16" fill="white"/>
</clipPath>
</defs>
</svg>
