<svg width="24" height="24" viewBox="0 0 24 24" fill="none" xmlns="http://www.w3.org/2000/svg">
<g clip-path="url(#clip0_369_38866)">
<path d="M12.8887 3.3134C14.9374 1.36614 18.1164 1.43072 20.0899 3.50773C22.1035 5.62739 22.1036 9.04737 20.0899 11.1669L20.0869 11.1698H20.086L20.085 11.1718C20.0836 11.1733 20.0812 11.1755 20.0781 11.1786C20.072 11.185 20.0623 11.1949 20.0488 11.2089C20.0217 11.2373 19.978 11.2826 19.9141 11.3495C19.7862 11.4834 19.5756 11.7048 19.2451 12.0517C19.1142 12.1891 18.9648 12.3468 18.794 12.5263C18.4703 12.8663 17.9318 12.8792 17.5918 12.5556C17.2518 12.2319 17.2388 11.6935 17.5625 11.3534C17.7335 11.1738 17.8836 11.0164 18.0147 10.8788C18.3455 10.5316 18.557 10.3103 18.6856 10.1757C18.7495 10.1088 18.7927 10.063 18.8203 10.0341C18.834 10.0199 18.8442 10.0095 18.8506 10.0028C18.8536 9.99967 18.8559 9.99667 18.8574 9.99504C18.8582 9.99429 18.859 9.9935 18.8594 9.99308H18.8604V9.99211C20.2474 8.52845 20.2467 6.14105 18.8574 4.67863C17.4907 3.24017 15.2937 3.24035 13.9268 4.67863L13.9258 4.67961L10.6426 8.13175C9.25266 9.59505 9.25256 11.984 10.6426 13.4472V13.4482C10.7896 13.6029 11.1049 13.8251 11.4307 14.0282C11.829 14.2766 11.9506 14.8018 11.7022 15.2001C11.4537 15.5981 10.9295 15.7198 10.5313 15.4716C10.2087 15.2705 9.72276 14.9472 9.41017 14.6181V14.6191C7.39611 12.4996 7.3962 9.07944 9.41017 6.95988H9.41115L12.6944 3.50773L12.8887 3.3134Z" fill="white"/>
<path d="M11.1113 20.6866C9.06255 22.6339 5.88359 22.5693 3.91014 20.4923C1.8965 18.3726 1.89644 14.9526 3.91014 12.8331L3.91307 12.8302L3.91405 12.8302L3.91502 12.8282C3.91643 12.8267 3.91884 12.8245 3.92186 12.8214C3.92795 12.815 3.9377 12.8051 3.95116 12.7911C3.97834 12.7627 4.022 12.7174 4.08592 12.6505C4.21383 12.5166 4.42439 12.2952 4.75487 11.9483C4.88582 11.8109 5.03516 11.6532 5.20604 11.4737C5.5297 11.1337 6.06817 11.1208 6.40819 11.4444C6.7482 11.7681 6.76116 12.3065 6.43748 12.6466C6.26651 12.8262 6.11642 12.9836 5.98534 13.1212C5.65453 13.4684 5.44299 13.6897 5.31444 13.8243C5.2505 13.8912 5.20731 13.937 5.17967 13.9659C5.16605 13.9801 5.15582 13.9905 5.1494 13.9972C5.14635 14.0003 5.14413 14.0033 5.14256 14.005C5.14185 14.0057 5.14101 14.0065 5.14061 14.0069L5.13963 14.0069L5.13963 14.0079C3.75255 15.4715 3.75328 17.8589 5.14256 19.3214C6.50933 20.7598 8.70635 20.7596 10.0732 19.3214L10.0742 19.3204L13.3574 15.8682C14.7473 14.405 14.7474 12.016 13.3574 10.5528L13.3574 10.5518C13.2104 10.3971 12.8951 10.1749 12.5693 9.97176C12.171 9.72338 12.0495 9.19823 12.2978 8.79989C12.5463 8.40192 13.0705 8.28017 13.4687 8.5284C13.7913 8.72953 14.2772 9.05281 14.5898 9.38192L14.5898 9.38094C16.6039 11.5004 16.6038 14.9206 14.5898 17.0401L14.5889 17.0401L11.3056 20.4923L11.1113 20.6866Z" fill="white"/>
</g>
<defs>
<clipPath id="clip0_369_38866">
<rect width="24" height="24" fill="white"/>
</clipPath>
</defs>
</svg>
