<svg width="24" height="24" viewBox="0 0 24 24" fill="none" xmlns="http://www.w3.org/2000/svg">
<g clip-path="url(#clip0_133_15558)">
<path d="M20.35 11.0862L20.35 13.0306C20.35 14.9564 20.35 15.9194 20.1004 16.6997C19.5832 18.3164 18.3163 19.5833 16.6996 20.1005C15.9193 20.3501 14.9563 20.3501 13.0305 20.3501L11.975 20.3501C9.05831 20.3501 7.59996 20.3501 6.48406 19.7868C5.48235 19.2811 4.66902 18.4677 4.16333 17.466C3.6 16.3501 3.6 14.8918 3.6 11.9751L3.6 9.99745C3.6 8.93143 3.6 8.39842 3.67715 7.95339C4.05602 5.76777 5.76767 4.05612 7.95329 3.67725C8.39832 3.6001 8.93133 3.6001 9.99735 3.6001L10.5493 3.6001L12.4269 3.6001" stroke="white" stroke-width="1.7" stroke-linecap="round"/>
<path d="M16.9396 3.82108C17.7678 2.9929 19.1105 2.9929 19.9387 3.82108C20.7669 4.64927 20.7669 5.99202 19.9387 6.8202L14.6549 12.104C14.5138 12.2451 14.3418 12.3514 14.1525 12.4145L11.5969 12.9757C11.0945 13.1432 10.6166 12.6652 10.7841 12.1628L11.3453 9.60731C11.4084 9.41802 11.5147 9.24601 11.6558 9.10492L16.9396 3.82108Z" stroke="white" stroke-width="1.7" stroke-linecap="round"/>
<path d="M16.1367 4.60352L19.1525 7.61927" stroke="white" stroke-width="1.3"/>
</g>
<defs>
<clipPath id="clip0_133_15558">
<rect width="24" height="24" fill="white"/>
</clipPath>
</defs>
</svg>
