<svg width="16" height="16" viewBox="0 0 16 16" fill="none" xmlns="http://www.w3.org/2000/svg">
<g clip-path="url(#clip0_3292_6640)">
<path d="M13.5 7.41622L13.5 8.69315C13.5 9.72216 13.5 10.2367 13.3983 10.6613C13.074 12.0162 12.0162 13.074 10.6613 13.3983C10.2367 13.5 9.72216 13.5 8.69315 13.5L8 13.5C6.32294 13.5 5.48441 13.5 4.82043 13.2332C3.88461 12.8571 3.14285 12.1154 2.76681 11.1796C2.5 10.5156 2.5 9.67706 2.5 8L2.5 6.70125C2.5 6.23573 2.5 6.00297 2.52092 5.80706C2.70596 4.07459 4.07459 2.70596 5.80706 2.52092C6.00297 2.5 6.23573 2.5 6.70125 2.5L7.06372 2.5L8.29675 2.5" stroke="white" stroke-width="0.9" stroke-linecap="round"/>
<path d="M10.7937 2.96437C11.4128 2.34526 12.4166 2.34526 13.0357 2.96437C13.6548 3.58348 13.6548 4.58725 13.0357 5.20635L9.08577 9.15628C8.9803 9.26175 8.85172 9.34122 8.71022 9.38838L6.79982 9.80789C6.42426 9.93308 6.06697 9.57578 6.19215 9.20023L6.61169 7.28985C6.65886 7.14835 6.73833 7.01976 6.8438 6.91429L10.7937 2.96437Z" stroke="white" stroke-width="0.9" stroke-linecap="round"/>
<path d="M9.84776 3.43115L12.5833 6.16669" stroke="white" stroke-width="0.9"/>
</g>
<defs>
<clipPath id="clip0_3292_6640">
<rect width="16" height="16" fill="white"/>
</clipPath>
</defs>
</svg>
