<svg width="20" height="20" viewBox="0 0 20 20" fill="none" xmlns="http://www.w3.org/2000/svg">
<g clip-path="url(#clip0_3243_97684)">
<path d="M17.25 9.23047L17.25 10.9137C17.25 12.9047 17.25 13.9003 16.9193 14.6836C16.4937 15.6916 15.6916 16.4937 14.6836 16.9193C13.9003 17.25 12.9047 17.25 10.9137 17.25L10 17.25C7.1458 17.25 5.71871 17.25 4.68231 16.5852C4.17352 16.2588 3.74117 15.8265 3.41481 15.3177C2.75 14.2813 2.75 12.8542 2.75 10L2.75 8.28801C2.75 7.04387 2.75 6.42181 2.88078 5.91006C3.26095 4.42251 4.42251 3.26095 5.91006 2.88078C6.42181 2.75 7.04387 2.75 8.28801 2.75L8.76582 2.75L10.3912 2.75" stroke="white" stroke-width="1.3" stroke-linecap="round"/>
<path d="M13.6826 3.36191C14.4987 2.54581 15.8218 2.54581 16.6379 3.36191C17.454 4.17801 17.454 5.50116 16.6379 6.31726L11.4312 11.524C11.2922 11.663 11.1227 11.7678 10.9362 11.83L8.41791 12.3829C7.92286 12.548 7.45189 12.077 7.6169 11.5819L8.16993 9.0637C8.23211 8.87717 8.33686 8.70767 8.47589 8.56864L13.6826 3.36191Z" stroke="white" stroke-width="1.3" stroke-linecap="round"/>
<path d="M12.4167 3.9585L16.0607 7.60254" stroke="white" stroke-width="1.3"/>
</g>
<defs>
<clipPath id="clip0_3243_97684">
<rect width="20" height="20" fill="white"/>
</clipPath>
</defs>
</svg>
