<svg width="112" height="17" viewBox="0 0 112 17" fill="none" xmlns="http://www.w3.org/2000/svg">
<path d="M96.9746 4.46777C98.231 4.46777 99.3761 5.00844 100.092 5.97852L100.188 4.70605H101.666V12.7852C101.666 15.5842 99.758 16.9999 97.4043 17C95.639 17 94.0957 16.4272 93.4277 15.123L95.0342 14.4873C95.4159 15.2507 96.3546 15.6484 97.4043 15.6484C99.1058 15.6484 100.06 14.5668 100.061 12.6904V12.0693C99.329 12.9918 98.1992 13.5166 96.9746 13.5166C95.0663 13.5165 93.1418 11.9745 93.1416 9.46191V8.52344C93.1416 6.02657 95.0662 4.46783 96.9746 4.46777ZM7.33301 0.480469C9.65495 0.480531 11.7263 1.56151 13.0693 3.24609L10.6514 5.3584C9.89853 4.34355 8.69222 3.6857 7.33203 3.68555C5.05226 3.68555 3.20325 5.53374 3.20312 7.81348C3.20312 10.0933 5.05218 11.9424 7.33203 11.9424C8.6923 11.9422 9.89979 11.2835 10.6514 10.2686L13.0693 12.3809C11.7263 14.0668 9.65627 15.1464 7.33301 15.1465C3.28394 15.1465 0 11.8625 0 7.81348C0.000127386 3.76453 3.28277 0.480469 7.33301 0.480469ZM19.0107 5.28906C20.0505 5.28906 21.0159 5.60615 21.8135 6.14648V5.43945H24.3574V14.9961H21.8135V14.2891C21.0146 14.8294 20.0506 15.1465 19.0107 15.1465C16.2639 15.1463 14.0371 12.9398 14.0371 10.2178C14.0372 7.49575 16.2639 5.28921 19.0107 5.28906ZM38.0645 5.28906C39.4262 5.28906 40.7042 5.85591 41.5938 6.78027C42.4732 7.69465 42.9902 8.84014 42.9902 10.3545C42.9902 10.5061 42.9777 10.7198 42.9541 10.9932H35.999C35.999 11.4491 36.1989 11.9609 36.6523 12.3262C36.8896 12.5175 37.1244 12.6316 37.415 12.7285C37.7729 12.8465 38.1671 12.873 38.4131 12.873C38.8502 12.873 39.3185 12.7626 39.6514 12.6074C40.0297 12.4325 40.467 12.1576 40.8184 11.7734L42.5303 13.2744C41.9315 13.9589 41.2965 14.3784 40.5127 14.7188C39.7511 15.0492 38.9814 15.1465 38.1328 15.1465C37.472 15.1464 36.7478 15.0149 36.1416 14.7578C35.5839 14.5206 35.0622 14.1764 34.6025 13.7305C33.6372 12.7912 33.1328 11.4638 33.1328 10.209C33.1329 8.95419 33.6208 7.6878 34.5762 6.73242C35.5302 5.77725 36.7776 5.28918 38.0645 5.28906ZM33.29 2.47461C33.29 2.47461 32.5776 2.49512 32.2559 2.49512C31.4446 2.49517 30.9005 2.89755 30.7129 3.10254C30.3738 3.47524 30.1104 3.91753 30.1104 4.64551V5.43457H33.0908V8.07422H30.1104V14.9922H27.2637V4.26367C27.2637 3.86607 27.3258 3.19776 27.5469 2.61523C27.7593 2.0549 28.135 1.55511 28.4121 1.26562C29.1265 0.521624 30.3116 7.5005e-05 31.5078 0H33.29V2.47461ZM68.2617 4.46777C70.4246 4.46777 71.999 5.80362 71.999 8.09375V14.0576H70.5361L70.457 12.833C69.9482 13.7235 68.9779 14.2958 67.7217 14.2959H67.1006C65.3673 14.2957 64.0791 13.0713 64.0791 11.3379C64.0793 9.66815 65.336 8.47559 67.626 8.47559H70.4248V8.17285C70.4246 6.83719 69.6611 5.93066 68.1504 5.93066C67.085 5.93077 66.3053 6.42406 65.876 7.25098L64.4453 6.61523C65.1132 5.37481 66.5283 4.46789 68.2617 4.46777ZM87.7812 4.46777C89.9439 4.46795 91.5185 5.80378 91.5186 8.09375V14.0576H90.0547L89.9756 12.833C89.4667 13.7236 88.4966 14.2959 87.2402 14.2959H86.6201C84.8866 14.2959 83.5977 13.0714 83.5977 11.3379C83.5978 9.66818 84.8546 8.47563 87.1445 8.47559H89.9434V8.17285C89.9432 6.83732 89.1803 5.93084 87.6699 5.93066C86.6044 5.93066 85.8249 6.42401 85.3955 7.25098L83.9639 6.61523C84.6318 5.37473 86.0477 4.46777 87.7812 4.46777ZM107.644 4.46777C109.95 4.46777 111.874 5.97852 111.874 8.93652V9.9541H104.988C105.02 11.8785 106.244 12.8809 107.676 12.8809C108.805 12.8808 109.838 12.3243 110.268 11.2432L111.731 11.7197C111.143 13.4214 109.489 14.2959 107.676 14.2959C105.418 14.2959 103.43 12.8015 103.43 9.90723V8.84082C103.43 5.96267 105.385 4.46793 107.644 4.46777ZM55.7285 12.2764L60.3242 1.17578H62.3916V14.0576H60.8174V3.76855L56.5391 14.0576H54.8857L50.623 3.78418V14.0576H49.0488V1.17578H51.1162L55.7285 12.2764ZM78.5371 4.46777C80.6205 4.46777 82.0684 5.99457 82.0684 8.36426V14.0576H80.4619V8.44336C80.4618 6.78959 79.603 5.93068 78.124 5.93066C76.7086 5.93066 75.6113 6.93304 75.6113 8.41211V14.0576H74.0205V4.70605H75.5L75.5791 6.05859C76.1675 5.10445 77.2014 4.46789 78.5371 4.46777ZM67.6895 9.875C66.3058 9.87501 65.6533 10.4639 65.6533 11.3545C65.6535 12.2608 66.3538 12.833 67.4033 12.833H68.0078C69.1845 12.8329 70.2816 12.1334 70.4248 10.9727V9.875H67.6895ZM87.208 9.875C85.8245 9.87508 85.1729 10.4639 85.1729 11.3545C85.173 12.2608 85.8724 12.833 86.9219 12.833H87.5264C88.7032 12.833 89.8001 12.1335 89.9434 10.9727V9.875H87.208ZM19.1973 7.8125C17.8568 7.81256 16.7696 8.88969 16.7695 10.2178C16.7695 11.5459 17.8567 12.623 19.1973 12.623C20.5378 12.623 21.625 11.5459 21.625 10.2178C21.625 8.88966 20.5378 7.8125 19.1973 7.8125ZM97.4199 5.88281C95.925 5.88286 94.7324 6.88551 94.7324 8.57129V9.41406C94.7325 11.0997 95.9251 12.1015 97.4199 12.1016C98.883 12.1016 100.06 11.0997 100.061 9.41406V8.57129C100.061 6.88547 98.8672 5.88281 97.4199 5.88281ZM38.0615 7.56152C36.9222 7.56152 35.999 8.1965 35.999 9.21777H35.9971V9.21973H40.124V9.21777C40.124 8.1966 39.2007 7.56165 38.0615 7.56152ZM107.644 5.89941C106.26 5.89957 105.099 6.82158 105.004 8.60254H110.284C110.284 6.94865 109.154 5.89941 107.644 5.89941ZM40.7998 0.00488281C40.7998 2.56172 39.2192 3.87395 36.7021 3.87402H35.6152C35.6152 1.36438 37.174 0.00493815 39.7109 0.00488281H40.7998Z" fill="black"/>
</svg>
