<svg width="587" height="134" viewBox="0 0 587 134" fill="none" xmlns="http://www.w3.org/2000/svg">
<path d="M0.134231 0.500739H576.985" stroke="black" stroke-opacity="0.07" stroke-dasharray="4 4"/>
<path d="M0.134231 44.5657H576.985" stroke="black" stroke-opacity="0.07" stroke-dasharray="4 4"/>
<path d="M0.134231 88.6308H576.985" stroke="black" stroke-opacity="0.07" stroke-dasharray="4 4"/>
<path d="M0.134231 132.696H576.985" stroke="black" stroke-opacity="0.07" stroke-dasharray="4 4"/>
<path d="M53.1087 96.8069L0.384601 118.75V132.696H576.234V15.5229L498.102 45.5996C485.995 50.2599 472.833 51.4696 460.079 49.094L427.655 43.0541C414.002 40.5108 399.902 42.0801 387.142 47.5628L325.162 74.1946C316.419 77.9514 307.002 79.8888 297.486 79.8888H236.297C229.501 79.8888 222.742 80.8769 216.23 82.8222L163.106 98.693C151.894 102.042 140.022 102.532 128.573 100.118L94.5113 92.9342C80.6364 90.008 66.2003 91.3584 53.1087 96.8069Z" fill="url(#paint0_linear_85_1613)" fill-opacity="0.6"/>
<path d="M0.384601 118.675L53.1209 96.7429C66.2049 91.3014 80.6309 89.9528 94.4968 92.8749L128.585 100.059C140.026 102.47 151.89 101.981 163.094 98.636L216.237 82.7715C222.744 80.8289 229.499 79.8421 236.29 79.8421H298.127C307.704 79.8421 317.179 77.8799 325.968 74.0766L387.078 47.6329C399.877 42.0944 414.037 40.4992 427.747 43.0513L460.093 49.0721C472.838 51.4444 485.991 50.2364 498.09 45.5821L576.234 15.5229" stroke="#6060FF" stroke-width="2"/>
<circle cx="574.982" cy="15.5229" r="4.00591" fill="#6060FF"/>
<defs>
<linearGradient id="paint0_linear_85_1613" x1="288.309" y1="81.4562" x2="288.309" y2="132.696" gradientUnits="userSpaceOnUse">
<stop stop-color="#D4D4FF"/>
<stop offset="1" stop-color="#D4D4FF" stop-opacity="0"/>
</linearGradient>
</defs>
</svg>
