<svg width="21" height="22" viewBox="0 0 21 22" fill="none" xmlns="http://www.w3.org/2000/svg">
<path d="M7.59993 19.2669C8.01969 19.5532 8.41325 19.6842 9.32703 19.6842H14.5057C16.8023 19.6842 18.5264 17.9631 18.5264 16.0034V9.21865C18.5264 8.08039 18.3499 7.32528 17.8879 6.79332C17.841 6.73933 17.7901 6.68628 17.7345 6.63423C17.268 6.19688 17.2443 5.46413 17.6817 4.99758C18.119 4.53103 18.8518 4.50736 19.3183 4.94471C19.4313 5.05059 19.5372 5.16067 19.6363 5.27475C20.6616 6.45528 20.8422 7.92387 20.8422 9.21865V16.0034C20.8422 19.3873 17.9311 22 14.5057 22H9.32703C8.11013 22 7.21469 21.8074 6.29503 21.1801C5.76673 20.8197 5.63057 20.0994 5.99091 19.5711C6.35125 19.0428 7.07163 18.9066 7.59993 19.2669Z" fill="#222222"/>
<path fill-rule="evenodd" clip-rule="evenodd" d="M5.66834 17.3684C2.53133 17.3684 0 14.8121 0 11.6732V5.69519C0 2.55631 2.53133 1.19209e-07 5.66834 1.19209e-07H10.5422C13.6792 1.19209e-07 16.2105 2.55631 16.2105 5.69519V11.6732C16.2105 14.8121 13.6792 17.3684 10.5422 17.3684H5.66834ZM2.31579 11.6732C2.31579 13.5461 3.82325 15.0526 5.66834 15.0526H10.5422C12.3873 15.0526 13.8947 13.5461 13.8947 11.6732V5.69519C13.8947 3.82231 12.3873 2.31579 10.5422 2.31579H5.66834C3.82325 2.31579 2.31579 3.82231 2.31579 5.69519V11.6732Z" fill="#222222"/>
</svg>
