<svg width="24" height="24" viewBox="0 0 24 24" fill="none" xmlns="http://www.w3.org/2000/svg">
<path d="M11.083 13.7951C11.083 13.552 11.1796 13.3188 11.3515 13.1469C11.5234 12.975 11.7565 12.8784 11.9996 12.8784C12.2428 12.8784 12.4759 12.975 12.6478 13.1469C12.8197 13.3188 12.9163 13.552 12.9163 13.7951V15.6283C12.9163 15.8715 12.8197 16.1046 12.6478 16.2765C12.4759 16.4484 12.2428 16.545 11.9996 16.545C11.7565 16.545 11.5234 16.4484 11.3515 16.2765C11.1796 16.1046 11.083 15.8715 11.083 15.6283V13.7951Z" fill="#222222"/>
<path fill-rule="evenodd" clip-rule="evenodd" d="M5.12157 6.96284C5.3492 5.30018 6.17137 3.77624 7.43594 2.673C8.70051 1.56977 10.3219 0.961914 12.0001 0.961914C13.6782 0.961914 15.2996 1.56977 16.5642 2.673C17.8287 3.77624 18.6509 5.30018 18.8785 6.96284C19.8351 7.40213 20.6455 8.10669 21.2135 8.99286C21.7816 9.87904 22.0834 10.9096 22.0831 11.9622V17.4621C22.0831 18.9207 21.5037 20.3196 20.4722 21.351C19.4408 22.3825 18.0419 22.9619 16.5833 22.9619H7.41684C5.95819 22.9619 4.55928 22.3825 3.52786 21.351C2.49644 20.3196 1.91699 18.9207 1.91699 17.4621V11.9622C1.91673 10.9096 2.21854 9.87904 2.78657 8.99286C3.35461 8.10669 4.16502 7.40213 5.12157 6.96284ZM7.09419 6.47152C7.40379 5.41004 8.04932 4.47761 8.93389 3.81418C9.81846 3.15075 10.8943 2.79212 12.0001 2.79212C13.1058 2.79212 14.1817 3.15075 15.0662 3.81418C15.9508 4.47761 16.5963 5.41004 16.9059 6.47152C16.7985 6.46536 16.6909 6.46231 16.5833 6.46236H7.41684C7.30868 6.46236 7.20143 6.46511 7.09419 6.47152ZM16.5833 8.29564H7.41684C6.44441 8.29564 5.5118 8.68194 4.82419 9.36955C4.13657 10.0572 3.75028 10.9898 3.75028 11.9622V17.4621C3.75028 18.4345 4.13657 19.3671 4.82419 20.0547C5.5118 20.7423 6.44441 21.1286 7.41684 21.1286H16.5833C17.5557 21.1286 18.4883 20.7423 19.1759 20.0547C19.8635 19.3671 20.2498 18.4345 20.2498 17.4621V11.9622C20.2498 10.9898 19.8635 10.0572 19.1759 9.36955C18.4883 8.68194 17.5557 8.29564 16.5833 8.29564Z" fill="#222222"/>
</svg>
