<svg width="24" height="24" viewBox="0 0 24 24" fill="none" xmlns="http://www.w3.org/2000/svg">
<path fill-rule="evenodd" clip-rule="evenodd" d="M17.2354 6.23768C17.2361 6.95891 17.0887 7.6726 16.8022 8.33449C16.5157 8.99637 16.0962 9.59233 15.5698 10.0854C16.6998 10.4965 17.7398 11.0965 18.652 11.8442C18.7648 11.9369 18.8582 12.0508 18.927 12.1796C18.9957 12.3084 19.0384 12.4494 19.0527 12.5947C19.0669 12.7399 19.0524 12.8866 19.0099 13.0263C18.9675 13.1659 18.898 13.2959 18.8053 13.4086C18.7127 13.5214 18.5987 13.6149 18.4699 13.6836C18.3412 13.7524 18.2001 13.7951 18.0549 13.8093C17.9096 13.8235 17.7629 13.809 17.6233 13.7666C17.4836 13.7242 17.3537 13.6546 17.2409 13.562C16.074 12.6056 14.6693 11.9839 13.1768 11.7632C11.6842 11.5424 10.1598 11.7309 8.76596 12.3086C7.37215 12.8863 6.16126 13.8314 5.26245 15.0433C4.36363 16.2551 3.81059 17.6882 3.6623 19.1896C3.62729 19.4776 3.48104 19.7405 3.25479 19.9221C3.02855 20.1036 2.74026 20.1895 2.45153 20.1614C2.16279 20.1332 1.89652 19.9933 1.70961 19.7714C1.52269 19.5496 1.42996 19.2634 1.45124 18.9741C1.64663 16.9937 2.39727 15.1088 3.61677 13.5363C4.83626 11.9637 6.47503 10.7675 8.34442 10.0854C7.70703 9.48633 7.22852 8.73826 6.95193 7.90843C6.67533 7.0786 6.60933 6.19303 6.75986 5.33136C6.91039 4.4697 7.27272 3.65896 7.81428 2.97205C8.35584 2.28514 9.05963 1.74361 9.86238 1.39615C10.6651 1.0487 11.5416 0.906209 12.4131 0.981506C13.2846 1.0568 14.1237 1.34752 14.8549 1.82752C15.5862 2.30752 16.1866 2.96174 16.6023 3.73136C17.0181 4.50098 17.236 5.36185 17.2365 6.23657L17.2354 6.23768ZM11.9577 9.29317C12.359 9.29317 12.7564 9.21412 13.1272 9.06054C13.498 8.90696 13.8349 8.68185 14.1186 8.39807C14.4024 8.11429 14.6275 7.7774 14.7811 7.40662C14.9347 7.03584 15.0137 6.63845 15.0137 6.23712C15.0137 5.8358 14.9347 5.4384 14.7811 5.06762C14.6275 4.69685 14.4024 4.35995 14.1186 4.07617C13.8349 3.79239 13.498 3.56728 13.1272 3.4137C12.7564 3.26012 12.359 3.18107 11.9577 3.18107C11.1472 3.18107 10.3699 3.50305 9.79673 4.07617C9.22361 4.64929 8.90164 5.42661 8.90164 6.23712C8.90164 7.04764 9.22361 7.82495 9.79673 8.39807C10.3699 8.97119 11.1472 9.29317 11.9577 9.29317Z" fill="#222222"/>
<path d="M22.2315 15.9043C22.4289 15.6938 22.5366 15.4148 22.532 15.1263C22.5273 14.8377 22.4105 14.5623 22.2064 14.3584C22.0023 14.1544 21.7268 14.0378 21.4383 14.0333C21.1497 14.0289 20.8708 14.1368 20.6604 14.3343L16.485 18.5098L15.0072 17.0321C14.7987 16.8237 14.516 16.7067 14.2213 16.7068C13.9265 16.707 13.6439 16.8241 13.4356 17.0326C13.2272 17.2411 13.1102 17.5238 13.1104 17.8186C13.1105 18.1133 13.2276 18.3959 13.4361 18.6043L15.3061 20.4742C15.6186 20.7867 16.0425 20.9622 16.4844 20.9622C16.9263 20.9622 17.3502 20.7867 17.6627 20.4742L22.2315 15.9043Z" fill="#222222"/>
</svg>
