<svg width="24" height="24" viewBox="0 0 24 24" fill="none" xmlns="http://www.w3.org/2000/svg">
<path d="M16.2354 9.97536L16.3037 10.0515C16.4088 10.1804 16.4766 10.3292 16.5078 10.4841C16.5094 10.4922 16.5103 10.5004 16.5117 10.5086C16.5155 10.53 16.5191 10.5514 16.5215 10.573C16.5227 10.5844 16.5236 10.5958 16.5244 10.6072C16.5258 10.6257 16.527 10.6443 16.5273 10.6629C16.5276 10.6756 16.5276 10.6882 16.5273 10.7009C16.527 10.7212 16.525 10.7413 16.5234 10.7615C16.5226 10.7726 16.5217 10.7836 16.5205 10.7947C16.5186 10.8117 16.5164 10.8286 16.5137 10.8455C16.511 10.8615 16.5073 10.8774 16.5039 10.8933C16.5005 10.9091 16.4963 10.9246 16.4922 10.9402C16.4886 10.9539 16.4857 10.9677 16.4814 10.9812C16.4773 10.9944 16.4724 11.0073 16.4678 11.0203C16.4616 11.0376 16.4554 11.055 16.4482 11.072C16.3995 11.1874 16.3294 11.2964 16.2354 11.3904L6.58203 21.0427L6.50586 21.1111C6.13919 21.4099 5.60966 21.4102 5.24316 21.1111L5.16797 21.0427L2.01562 17.8904L13.083 6.82399L16.2354 9.97536ZM18.1348 14.0388C18.2773 13.6537 18.8223 13.6537 18.9648 14.0388C19.3756 15.1486 20.2506 16.0237 21.3604 16.4343C21.7452 16.577 21.7453 17.1219 21.3604 17.2644C20.2505 17.6751 19.3755 18.55 18.9648 19.6599C18.8223 20.0449 18.2774 20.0448 18.1348 19.6599C17.7241 18.5502 16.849 17.6752 15.7393 17.2644C15.3541 17.1219 15.3541 16.5769 15.7393 16.4343C16.849 16.0236 17.7241 15.1486 18.1348 14.0388ZM4.56152 17.8904L5.875 19.2039L12.6016 12.4763L11.2881 11.1629L4.56152 17.8904ZM6.50195 1.91384C6.64446 1.52872 7.18953 1.52872 7.33203 1.91384C7.74278 3.02357 8.61776 3.89869 9.72754 4.30934C10.1124 4.45198 10.1125 4.9969 9.72754 5.13942C8.61765 5.55012 7.74273 6.42504 7.33203 7.53493C7.1895 7.91987 6.64459 7.91976 6.50195 7.53493C6.0913 6.42515 5.21618 5.55017 4.10645 5.13942C3.72133 4.99692 3.72133 4.45185 4.10645 4.30934C5.21619 3.89864 6.09125 3.02359 6.50195 1.91384ZM18.1348 1.91384C18.2773 1.52872 18.8223 1.52872 18.9648 1.91384C19.3756 3.02357 20.2506 3.89869 21.3604 4.30934C21.7452 4.45198 21.7453 4.9969 21.3604 5.13942C20.2505 5.55012 19.3755 6.42504 18.9648 7.53493C18.8223 7.91987 18.2774 7.91976 18.1348 7.53493C17.7241 6.42515 16.849 5.55017 15.7393 5.13942C15.3541 4.99692 15.3541 4.45185 15.7393 4.30934C16.849 3.89864 17.7241 3.02359 18.1348 1.91384Z" fill="black"/>
</svg>
