<svg width="24" height="24" viewBox="0 0 24 24" fill="none" xmlns="http://www.w3.org/2000/svg">
<path d="M19.2725 20.5C19.2725 21.0523 18.8247 21.5 18.2725 21.5H14.7451C14.1928 21.5 13.7451 21.0523 13.7451 20.5V15.6006C13.7451 15.3244 13.5213 15.1006 13.2451 15.1006H10.7549C10.4787 15.1006 10.2549 15.3244 10.2549 15.6006V20.5C10.2549 21.0523 9.80717 21.5 9.25488 21.5H5.72754C5.17525 21.5 4.72754 21.0523 4.72754 20.5V12.6302C4.72754 12.3505 4.84464 12.0837 5.05044 11.8943L11.3229 6.123C11.7056 5.77086 12.2944 5.77086 12.6771 6.123L18.9496 11.8943C19.1554 12.0837 19.2725 12.3505 19.2725 12.6302V20.5Z" fill="#3283FD"/>
</svg>
