<svg width="12" height="12" viewBox="0 0 12 12" fill="none" xmlns="http://www.w3.org/2000/svg">
<path d="M5.68604 0C5.86364 0 6.00811 0.141488 6.02297 0.318474C6.25205 3.04627 8.35514 5.25537 11.0389 5.62848C11.2263 5.65453 11.3721 5.8108 11.3721 6C11.3721 6.1892 11.2263 6.34547 11.0389 6.37152C8.35514 6.74465 6.25202 8.95372 6.02297 11.6815C6.00811 11.8585 5.86364 12 5.68604 12C5.50843 12 5.36397 11.8585 5.3491 11.6815C5.12004 8.95376 3.01689 6.7447 0.333126 6.37153C0.145728 6.34547 0 6.1892 0 6C0 5.8108 0.14573 5.65453 0.333128 5.62847C3.01689 5.25532 5.12002 3.04624 5.3491 0.318474C5.36396 0.141489 5.50843 0 5.68604 0Z" fill="url(#paint0_linear_95_1637)"/>
<defs>
<linearGradient id="paint0_linear_95_1637" x1="5.68604" y1="0" x2="5.68604" y2="12" gradientUnits="userSpaceOnUse">
<stop stop-color="#8953F4"/>
<stop offset="1" stop-color="#3283FD"/>
</linearGradient>
</defs>
</svg>
