<svg width="24" height="24" viewBox="0 0 24 24" fill="none" xmlns="http://www.w3.org/2000/svg">
<path fill-rule="evenodd" clip-rule="evenodd" d="M20.8 11.96C20.8 14.2939 19.8729 16.5322 18.2225 18.1825C16.5722 19.8328 14.3339 20.76 12 20.76C9.66609 20.76 7.42778 19.8328 5.77746 18.1825C4.12714 16.5322 3.2 14.2939 3.2 11.96C3.2 9.62606 4.12714 7.38774 5.77746 5.73742C7.42778 4.0871 9.66609 3.15996 12 3.15996C14.3339 3.15996 16.5722 4.0871 18.2225 5.73742C19.8729 7.38774 20.8 9.62606 20.8 11.96ZM23 11.96C23 18.0353 18.0753 22.96 12 22.96C5.9247 22.96 1 18.0353 1 11.96C1 5.88466 5.9247 0.959961 12 0.959961C18.0753 0.959961 23 5.88466 23 11.96ZM10.9473 17.174C10.2323 17.0244 9.5767 16.7263 9.063 16.2896C8.5449 15.8463 8.15 15.2413 8.15 14.6132C8.15 14.3338 8.2336 14.05 8.4349 13.83C8.53362 13.7237 8.65358 13.6394 8.787 13.5826C8.92041 13.5257 9.0643 13.4976 9.2093 13.5C9.3842 13.5 9.5866 13.5297 9.7967 13.6859C9.954 13.8025 10.0926 13.9774 10.2334 14.1655L10.2367 14.1699C10.5095 14.5406 10.7757 14.7749 11.054 14.9201C11.3323 15.0642 11.6601 15.1401 12.088 15.1401C12.6446 15.1401 13.0131 15.0081 13.2309 14.8354C13.4311 14.6759 13.5554 14.4427 13.5554 14.0929C13.5554 13.8289 13.485 13.6793 13.3662 13.5616C13.2232 13.4208 12.9592 13.2734 12.4719 13.1447L10.9253 12.7421C10.1465 12.5408 9.4953 12.1811 9.0377 11.6564C8.5757 11.1262 8.3403 10.4629 8.3403 9.72366C8.3403 8.86236 8.6516 8.10446 9.2269 7.54346C9.6911 7.09246 10.3027 6.78996 11.0089 6.64916V6.45996C11.0089 6.18276 11.0859 5.89456 11.3004 5.67236C11.4013 5.57022 11.5221 5.48982 11.6553 5.43609C11.7885 5.38237 11.9312 5.35646 12.0748 5.35996C12.3465 5.35996 12.6303 5.44796 12.8448 5.66796C13.0582 5.88796 13.1407 6.17726 13.1407 6.45886V6.69866C13.8205 6.86586 14.4387 7.18706 14.9095 7.64906C15.3671 8.09236 15.7147 8.68306 15.7147 9.26496C15.721 9.54414 15.6198 9.81507 15.432 10.0218C15.3344 10.1235 15.2167 10.204 15.0865 10.2582C14.9562 10.3123 14.8162 10.3389 14.6752 10.3364C14.4493 10.3396 14.2285 10.2694 14.046 10.1362C13.87 9.99826 13.7176 9.83254 13.595 9.64556C13.3244 9.26386 13.0824 9.03726 12.8426 8.89976C12.6083 8.76666 12.3366 8.69626 11.9659 8.69626C11.4841 8.69626 11.1409 8.82386 10.9319 8.99106C10.8311 9.07044 10.7505 9.17248 10.6966 9.28888C10.6427 9.40528 10.617 9.53277 10.6217 9.66096C10.6217 9.88096 10.6899 10.0482 10.8153 10.1846C10.9473 10.3298 11.175 10.4706 11.5358 10.5674H11.5369L13.0549 10.9623C13.9239 11.1878 14.6312 11.5277 15.1218 12.0458C15.6256 12.5782 15.85 13.2448 15.85 14.0093C15.85 14.9003 15.5332 15.6791 14.9403 16.2577C14.4585 16.7274 13.8194 17.0409 13.0802 17.1905V17.4611C13.0802 17.7383 13.001 18.0265 12.7887 18.2487C12.6875 18.3507 12.5665 18.431 12.4332 18.4846C12.2998 18.5381 12.1569 18.5638 12.0132 18.56C11.8689 18.5641 11.7253 18.5386 11.5913 18.4848C11.4573 18.4311 11.3358 18.3503 11.2344 18.2476C11.0408 18.0323 10.9383 17.7504 10.9484 17.4611V17.1729L10.9473 17.174Z" fill="#222222"/>
</svg>
