<svg width="24" height="24" viewBox="0 0 24 24" fill="none" xmlns="http://www.w3.org/2000/svg">
<path fill-rule="evenodd" clip-rule="evenodd" d="M4.19961 1C3.90787 1 3.62808 1.11589 3.42179 1.32218C3.2155 1.52847 3.09961 1.80826 3.09961 2.1V21.9C3.09961 22.1917 3.2155 22.4715 3.42179 22.6778C3.62808 22.8841 3.90787 23 4.19961 23C4.49135 23 4.77114 22.8841 4.97743 22.6778C5.18372 22.4715 5.29961 22.1917 5.29961 21.9V20.8H15.0159C15.7453 20.8 16.4447 20.5103 16.9605 19.9945C17.4762 19.4788 17.7659 18.7793 17.7659 18.05V15.5904H20.1496C20.879 15.5904 21.5784 15.3007 22.0942 14.7849C22.6099 14.2692 22.8996 13.5697 22.8996 12.8404V11.1519C22.8996 10.4226 22.6099 9.72308 22.0942 9.20736C21.5784 8.69163 20.879 8.4019 20.1496 8.4019H19.8614V5.95C19.8614 5.22065 19.5717 4.52118 19.056 4.00546C18.5402 3.48973 17.8408 3.2 17.1114 3.2H5.29961V2.1C5.29961 1.80826 5.18372 1.52847 4.97743 1.32218C4.77114 1.11589 4.49135 1 4.19961 1ZM5.29961 5.4V8.1885H17.6614V5.95C17.6614 5.80413 17.6035 5.66424 17.5003 5.56109C17.3972 5.45795 17.2573 5.4 17.1114 5.4H5.29961ZM5.29961 10.6019V13.3904H20.1496C20.2955 13.3904 20.4354 13.3325 20.5385 13.2293C20.6417 13.1262 20.6996 12.9863 20.6996 12.8404V11.1519C20.6996 11.006 20.6417 10.8661 20.5385 10.763C20.4354 10.6598 20.2955 10.6019 20.1496 10.6019H5.29961ZM5.29961 15.8115V18.6H15.0159C15.1618 18.6 15.3017 18.5421 15.4048 18.4389C15.508 18.3358 15.5659 18.1959 15.5659 18.05V15.8115H5.29961Z" fill="#222222"/>
</svg>
