<svg width="24" height="24" viewBox="0 0 24 24" fill="none" xmlns="http://www.w3.org/2000/svg">
<circle cx="12" cy="14" r="8.4" stroke="black" stroke-width="1.2"/>
<path fill-rule="evenodd" clip-rule="evenodd" d="M11.9346 11.0383C12.1925 11.0388 12.4215 11.2037 12.5029 11.4484L13.7549 15.215L14.8848 11.465C14.9803 11.1478 15.3156 10.9684 15.6328 11.0637C15.9499 11.1593 16.1296 11.4935 16.0342 11.8107L15.5469 13.4289H16.7295C17.0607 13.429 17.3299 13.6973 17.3301 14.0285C17.3301 14.3598 17.0608 14.628 16.7295 14.6281H15.1855L14.3584 17.3762C14.283 17.6264 14.0543 17.799 13.793 17.8029C13.5317 17.8065 13.2974 17.6407 13.2148 17.3928L11.9287 13.5265L10.626 17.3947C10.5418 17.6443 10.3043 17.8099 10.041 17.8029C9.77812 17.7955 9.5502 17.6178 9.47949 17.3644L8.7168 14.6281H7.26953C6.93832 14.6279 6.66992 14.3598 6.66992 14.0285C6.67011 13.6974 6.93843 13.4291 7.26953 13.4289H8.38281L7.92871 11.799C7.83986 11.48 8.02677 11.1489 8.3457 11.0598C8.66487 10.9708 8.99597 11.1576 9.08496 11.4767L10.1113 15.1623L11.3643 11.4465C11.4466 11.2021 11.6768 11.0379 11.9346 11.0383Z" fill="black"/>
</svg>
