<svg width="24" height="24" viewBox="0 0 24 24" fill="none" xmlns="http://www.w3.org/2000/svg">
<path d="M4 9.64158V20C4 20.5523 4.44772 21 5 21H8.86667C9.41895 21 9.86667 20.5523 9.86667 20V17C9.86667 16.4477 10.3144 16 10.8667 16H13.1333C13.6856 16 14.1333 16.4477 14.1333 17V20C14.1333 20.5523 14.581 21 15.1333 21H19C19.5523 21 20 20.5523 20 20V9.64158C20 9.33098 19.8557 9.038 19.6094 8.84872L13.2188 3.9368C12.5001 3.38442 11.4999 3.38442 10.7812 3.9368L4.39059 8.84872C4.14433 9.03801 4 9.33098 4 9.64158Z" fill="black" stroke="black" stroke-width="1.8"/>
</svg>
