<svg width="24" height="24" viewBox="0 0 24 24" fill="none" xmlns="http://www.w3.org/2000/svg">
<circle cx="12.0038" cy="14.0001" r="2.55" stroke="black" stroke-width="1.2"/>
<mask id="path-2-inside-1_91_2082" fill="white">
<path d="M15.1543 6.29738C15.1543 7.29571 16.235 7.92001 17.0996 7.42085C17.7199 7.06275 18.513 7.27525 18.8711 7.89549L20.7246 11.1054C21.0827 11.7256 20.8701 12.5187 20.2498 12.8767C19.3853 13.3755 19.3855 14.6234 20.2498 15.1226C20.87 15.4809 21.0827 16.2743 20.7246 16.8946L18.8711 20.1045C18.513 20.7248 17.7199 20.9373 17.0996 20.5791C16.235 20.08 15.1543 20.7043 15.1543 21.7026C15.1543 22.419 14.5735 23 13.8571 23H10.1508C9.43434 23 8.85352 22.4188 8.85352 21.7023C8.85352 20.704 7.77267 20.0794 6.9082 20.5788C6.28799 20.9371 5.49478 20.7247 5.13663 20.1044L3.28335 16.8948C2.92513 16.2744 3.13771 15.481 3.75804 15.1226C4.62254 14.6232 4.6226 13.3752 3.75799 12.876C3.13764 12.5179 2.92505 11.7246 3.28316 11.1043L5.13566 7.89498C5.49383 7.27448 6.28739 7.06191 6.90791 7.42005C7.77255 7.91908 8.85352 7.29527 8.85352 6.29696C8.85352 5.58067 9.43418 5 10.1505 5H13.8571C14.5735 5 15.1543 5.58097 15.1543 6.29738Z"/>
</mask>
<path d="M5.13566 7.89498L4.09638 7.29507L5.13566 7.89498ZM3.75799 12.876L3.158 13.9153L3.75799 12.876ZM3.75804 15.1226L4.35828 16.1617L3.75804 15.1226ZM3.28335 16.8948L2.24415 17.4948L3.28335 16.8948ZM5.13663 20.1044L6.17583 19.5043L5.13663 20.1044ZM17.0996 20.5791L16.4996 21.6184L17.0996 20.5791ZM18.8711 20.1045L17.8319 19.5045L18.8711 20.1045ZM20.7246 16.8946L19.6854 16.2945L20.7246 16.8946ZM20.2498 12.8767L20.8495 13.9161L20.2498 12.8767ZM20.7246 11.1054L21.7638 10.5054L20.7246 11.1054ZM17.0996 7.42085L16.4996 6.38162L17.0996 7.42085ZM18.8711 7.89549L17.8319 8.49554L19.6854 11.7055L20.7246 11.1054L21.7638 10.5054L19.9103 7.29544L18.8711 7.89549ZM20.7246 16.8946L19.6854 16.2945L17.8319 19.5045L18.8711 20.1045L19.9103 20.7046L21.7638 17.4946L20.7246 16.8946ZM13.8571 23V21.8H10.1508V23V24.2H13.8571V23ZM5.13663 20.1044L6.17583 19.5043L4.32256 16.2947L3.28335 16.8948L2.24415 17.4948L4.09743 20.7044L5.13663 20.1044ZM3.28316 11.1043L4.32244 11.7042L6.17494 8.49489L5.13566 7.89498L4.09638 7.29507L2.24387 10.5044L3.28316 11.1043ZM10.1505 5V6.2H13.8571V5V3.8H10.1505V5ZM13.8571 5V6.2C13.9105 6.2 13.9543 6.24347 13.9543 6.29738H15.1543H16.3543C16.3543 4.91846 15.2365 3.8 13.8571 3.8V5ZM8.85352 6.29696H10.0535C10.0535 6.24341 10.0969 6.2 10.1505 6.2V5V3.8C8.77144 3.8 7.65352 4.91793 7.65352 6.29696H8.85352ZM6.90791 7.42005L6.30806 8.45937C7.97216 9.41981 10.0535 8.21957 10.0535 6.29696H8.85352H7.65352C7.65352 6.32486 7.64724 6.33785 7.6426 6.34556C7.63607 6.35643 7.62388 6.36985 7.60508 6.3807C7.58627 6.39156 7.56848 6.39544 7.55566 6.39567C7.54651 6.39583 7.532 6.39472 7.50776 6.38073L6.90791 7.42005ZM5.13566 7.89498L6.17494 8.49489C6.20167 8.44858 6.26128 8.43237 6.30806 8.45937L6.90791 7.42005L7.50776 6.38073C6.3135 5.69146 4.78599 6.10038 4.09638 7.29507L5.13566 7.89498ZM3.75799 12.876L4.35798 11.8368C4.31155 11.81 4.29564 11.7506 4.32244 11.7042L3.28316 11.1043L2.24387 10.5044C1.55447 11.6987 1.96372 13.2258 3.158 13.9153L3.75799 12.876ZM3.75804 15.1226L4.35828 16.1617C6.02222 15.2005 6.02284 12.798 4.35798 11.8368L3.75799 12.876L3.158 13.9153C3.18221 13.9292 3.19035 13.9412 3.19474 13.9491C3.2009 13.9602 3.20643 13.9775 3.20643 13.9992C3.20643 14.021 3.2009 14.0383 3.19469 14.0495C3.19026 14.0575 3.18206 14.0695 3.1578 14.0835L3.75804 15.1226ZM3.28335 16.8948L4.32256 16.2947C4.29577 16.2483 4.3116 16.1887 4.35828 16.1617L3.75804 15.1226L3.1578 14.0835C1.96382 14.7732 1.55449 16.3004 2.24415 17.4948L3.28335 16.8948ZM6.9082 20.5788L6.30796 19.5397C6.2617 19.5664 6.20254 19.5506 6.17583 19.5043L5.13663 20.1044L4.09743 20.7044C4.78702 21.8987 6.31428 22.3077 7.50843 21.6179L6.9082 20.5788ZM8.85352 21.7023H10.0535C10.0535 19.7811 7.97334 18.5777 6.30796 19.5397L6.9082 20.5788L7.50843 21.6179C7.53252 21.604 7.54681 21.6029 7.55573 21.6031C7.56833 21.6033 7.58601 21.6072 7.60481 21.618C7.62362 21.6289 7.63589 21.6424 7.6425 21.6534C7.64722 21.6612 7.65352 21.6743 7.65352 21.7023H8.85352ZM10.1508 23V21.8C10.0975 21.8 10.0535 21.7565 10.0535 21.7023H8.85352H7.65352C7.65352 23.0811 8.77114 24.2 10.1508 24.2V23ZM15.1543 21.7026H13.9543C13.9543 21.7565 13.9105 21.8 13.8571 21.8V23V24.2C15.2365 24.2 16.3543 23.0815 16.3543 21.7026H15.1543ZM17.0996 20.5791L17.6996 19.5399C16.0345 18.5786 13.9543 19.7811 13.9543 21.7026H15.1543H16.3543C16.3543 21.6746 16.3606 21.6615 16.3653 21.6537C16.3719 21.6428 16.3841 21.6293 16.4029 21.6185C16.4217 21.6076 16.4394 21.6038 16.4521 21.6035C16.4611 21.6034 16.4754 21.6044 16.4996 21.6184L17.0996 20.5791ZM18.8711 20.1045L17.8319 19.5045C17.8052 19.5508 17.7459 19.5667 17.6996 19.5399L17.0996 20.5791L16.4996 21.6184C17.6938 22.3078 19.2208 21.8987 19.9103 20.7046L18.8711 20.1045ZM20.2498 15.1226L19.6495 16.1617C19.6963 16.1887 19.712 16.2485 19.6854 16.2945L20.7246 16.8946L21.7638 17.4946C22.4535 16.3001 22.0437 14.773 20.85 14.0835L20.2498 15.1226ZM20.2498 12.8767L19.65 11.8373C17.9845 12.7983 17.9863 15.2009 19.6495 16.1617L20.2498 15.1226L20.85 14.0835C20.8258 14.0696 20.8177 14.0576 20.8132 14.0496C20.807 14.0384 20.8015 14.0211 20.8015 13.9994C20.8015 13.9777 20.807 13.9605 20.8131 13.9495C20.8174 13.9418 20.8254 13.9299 20.8495 13.9161L20.2498 12.8767ZM20.7246 11.1054L19.6854 11.7055C19.712 11.7516 19.6962 11.8107 19.65 11.8373L20.2498 12.8767L20.8495 13.9161C22.044 13.2268 22.4533 11.6996 21.7638 10.5054L20.7246 11.1054ZM17.0996 7.42085L17.6996 8.46009C17.7459 8.43334 17.8052 8.44921 17.8319 8.49554L18.8711 7.89549L19.9103 7.29544C19.2208 6.10129 17.6938 5.69216 16.4996 6.38162L17.0996 7.42085ZM17.0996 7.42085L16.4996 6.38162C16.4754 6.39557 16.4611 6.39662 16.4521 6.39647C16.4394 6.39624 16.4217 6.3924 16.4029 6.38155C16.3841 6.37069 16.3719 6.35724 16.3653 6.34628C16.3606 6.33845 16.3543 6.32536 16.3543 6.29738H15.1543H13.9543C13.9543 8.21892 16.0345 9.42139 17.6996 8.46009L17.0996 7.42085Z" fill="black" mask="url(#path-2-inside-1_91_2082)"/>
</svg>
