<svg width="24" height="24" viewBox="0 0 24 24" fill="none" xmlns="http://www.w3.org/2000/svg">
<path fill-rule="evenodd" clip-rule="evenodd" d="M7.91018 4H16.0912C17.152 4 18.1695 4.42143 18.9196 5.17157C19.6698 5.92172 20.0912 6.93913 20.0912 8V16C20.0912 17.0609 19.6698 18.0783 18.9196 18.8284C18.1695 19.5786 17.152 20 16.0912 20H7.90918C6.84831 20 5.8309 19.5786 5.08075 18.8284C4.33061 18.0783 3.90918 17.0609 3.90918 16V8C3.90918 6.93913 4.33061 5.92172 5.08075 5.17157C5.8309 4.42143 6.84931 4 7.91018 4ZM1.91018 8C1.91018 6.4087 2.54232 4.88258 3.66754 3.75736C4.79276 2.63214 6.31888 2 7.91018 2H16.0912C17.6825 2 19.2086 2.63214 20.3338 3.75736C21.459 4.88258 22.0912 6.4087 22.0912 8V16C22.0912 17.5913 21.459 19.1174 20.3338 20.2426C19.2086 21.3679 17.6825 22 16.0912 22H7.90918C6.31788 22 4.79176 21.3679 3.66654 20.2426C2.54132 19.1174 1.90918 17.5913 1.90918 16V8H1.91018ZM7.50018 8.5C7.50018 8.23478 7.60554 7.98043 7.79307 7.79289C7.98061 7.60536 8.23496 7.5 8.50018 7.5H15.5002C15.7654 7.5 16.0198 7.60536 16.2073 7.79289C16.3948 7.98043 16.5002 8.23478 16.5002 8.5C16.5002 8.76522 16.3948 9.01957 16.2073 9.20711C16.0198 9.39464 15.7654 9.5 15.5002 9.5H8.50018C8.23496 9.5 7.98061 9.39464 7.79307 9.20711C7.60554 9.01957 7.50018 8.76522 7.50018 8.5ZM7.50018 12C7.50018 11.7348 7.60554 11.4804 7.79307 11.2929C7.98061 11.1054 8.23496 11 8.50018 11H13.5002C13.7654 11 14.0198 11.1054 14.2073 11.2929C14.3948 11.4804 14.5002 11.7348 14.5002 12C14.5002 12.2652 14.3948 12.5196 14.2073 12.7071C14.0198 12.8946 13.7654 13 13.5002 13H8.50018C8.23496 13 7.98061 12.8946 7.79307 12.7071C7.60554 12.5196 7.50018 12.2652 7.50018 12ZM8.50018 14.5C8.23496 14.5 7.98061 14.6054 7.79307 14.7929C7.60554 14.9804 7.50018 15.2348 7.50018 15.5C7.50018 15.7652 7.60554 16.0196 7.79307 16.2071C7.98061 16.3946 8.23496 16.5 8.50018 16.5H11.5002C11.7654 16.5 12.0198 16.3946 12.2073 16.2071C12.3948 16.0196 12.5002 15.7652 12.5002 15.5C12.5002 15.2348 12.3948 14.9804 12.2073 14.7929C12.0198 14.6054 11.7654 14.5 11.5002 14.5H8.50018Z" fill="#222222"/>
</svg>
