<svg width="121" height="23" viewBox="0 0 121 23" fill="none" xmlns="http://www.w3.org/2000/svg">
<path d="M25.3472 8.57019V9.39161C24.4204 8.76363 23.2987 8.39551 22.0904 8.39551C18.8985 8.39551 16.3115 10.9594 16.3115 14.1224C16.3115 17.2854 18.8985 19.8493 22.0904 19.8493C23.2987 19.8493 24.419 19.4812 25.3472 18.8532V19.6746H28.3023V8.57019H25.3472ZM22.3069 16.9173C20.7493 16.9173 19.4861 15.6656 19.4861 14.1224C19.4861 12.5792 20.7493 11.3275 22.3069 11.3275C23.8646 11.3275 25.1278 12.5792 25.1278 14.1224C25.1278 15.6656 23.8646 16.9173 22.3069 16.9173Z" fill="#111112"/>
<path d="M47.4322 15.9284C47.0237 16.3759 46.5141 16.695 46.0738 16.8985C45.6869 17.079 45.1426 17.2074 44.6345 17.2074C44.3486 17.2074 43.891 17.1771 43.4752 17.04C43.1374 16.9274 42.8646 16.7946 42.5888 16.5722C42.0619 16.1478 41.8295 15.553 41.8295 15.0232H49.9109C49.9384 14.7056 49.9528 14.4573 49.9528 14.2812C49.9528 12.5214 49.3523 11.1904 48.3302 10.1279C47.2965 9.0538 45.8125 8.39551 44.2302 8.39551C42.7346 8.39551 41.2852 8.96286 40.1765 10.073C39.0664 11.1832 38.499 12.6542 38.499 14.1123C38.499 15.5704 39.0851 17.1122 40.2068 18.2036C40.741 18.7218 41.3473 19.1217 41.9955 19.3974C42.7 19.6963 43.5416 19.8493 44.3096 19.8493C45.2956 19.8493 46.1893 19.7367 47.0742 19.3527C47.9851 18.9571 48.7228 18.4692 49.4187 17.6737L47.4293 15.9298L47.4322 15.9284ZM41.8295 12.9603C41.8295 11.7736 42.9021 11.0359 44.2259 11.0359C45.5497 11.0359 46.6223 11.7736 46.6223 12.9603C46.6223 12.9603 46.6223 12.9617 46.6223 12.9632H41.828C41.828 12.9632 41.828 12.9617 41.828 12.9603H41.8295Z" fill="#111112"/>
<path d="M31.6797 19.6718V8.5659C31.6797 8.5659 31.6797 7.85274 31.6797 7.20455C31.6797 6.74259 31.7519 5.96591 32.0088 5.28885C32.2557 4.63777 32.6917 4.05743 33.0136 3.72106C33.8437 2.85633 35.2209 2.25 36.6111 2.25C37.652 2.25 38.6813 2.25 38.6813 2.25V5.12572C38.6813 5.12572 37.8541 5.14882 37.4802 5.14882C36.5375 5.14882 35.9052 5.61655 35.6872 5.85475C35.2931 6.28784 34.9871 6.80178 34.9871 7.64775C34.9871 7.95668 34.9871 8.56445 34.9871 8.56445H38.4503V11.6322H38.0375H34.9871V19.6703H31.6797V19.6718Z" fill="#111112"/>
<path d="M8.51888 16.1271C5.86981 16.1271 3.72169 13.979 3.72169 11.3299C3.72169 8.68083 5.86981 6.5327 8.51888 6.5327C10.0997 6.5327 11.5014 7.29783 12.3763 8.47727L15.1856 6.0231C13.625 4.06553 11.2185 2.80957 8.52033 2.80957C3.81408 2.80957 0 6.62509 0 11.3299C0 16.0347 3.81552 19.8502 8.52033 19.8502C11.2199 19.8502 13.625 18.5957 15.1856 16.6367L12.3763 14.1825C11.5029 15.362 10.0997 16.1271 8.51888 16.1271Z" fill="#111112"/>
<path d="M47.4081 2.25586H46.1434C43.1955 2.25586 41.3838 3.83519 41.3838 6.75133H42.647C45.5718 6.75133 47.4081 5.22686 47.4081 2.25586Z" fill="#111112"/>
<path d="M54.8296 15.2682L57.3485 14.0087C58.0927 15.6498 59.5048 16.6994 61.394 16.6994C63.2641 16.6994 64.3137 16.0506 64.3137 14.8674C64.3137 13.8179 63.7793 13.2645 62.3482 12.8828L60.0773 12.2722C57.9973 11.7188 55.7265 10.5548 55.7265 7.73054C55.7265 4.86814 58.15 3.15071 61.2604 3.15071C64.2755 3.15071 66.3555 4.92539 67.2142 6.92907L64.7335 8.18852C64.0847 6.92907 62.9397 5.86044 61.2604 5.86044C59.5621 5.86044 58.6843 6.5665 58.6843 7.73054C58.6843 8.85641 59.543 9.29531 60.7643 9.61971L62.9397 10.1922C65.0388 10.7456 67.2715 12.005 67.2715 14.8674C67.2715 17.7298 64.6762 19.4091 61.394 19.4091C58.1881 19.4091 55.8791 17.8443 54.8296 15.2682ZM75.2072 16.394L75.8369 18.8939C75.1309 19.2373 74.1004 19.4091 73.2417 19.4091C71.009 19.4091 69.616 18.226 69.616 16.0124V10.2685H67.8604V7.53971H69.616V4.58191H72.612V7.53971H75.2835V10.2685H72.612V15.5353C72.612 16.4131 72.9936 16.6803 73.6997 16.6803C74.2912 16.6803 74.7301 16.5658 75.2072 16.394ZM84.3638 14.6194V7.53971H87.3598V19.1229H84.5546L84.4401 17.8252C83.7722 18.7603 82.6654 19.4091 81.2724 19.4091C78.9825 19.4091 76.9025 17.5772 76.9025 14.4858V7.53971H79.8985V14.3713C79.8985 16.2223 80.9862 16.6994 82.1311 16.6994C83.2761 16.6994 84.3638 15.9551 84.3638 14.6194ZM97.3126 8.83733V3.43695H100.309V19.1229H97.5034L97.3699 17.768C96.4921 18.8366 95.2517 19.4091 93.9159 19.4091C91.5687 19.4091 89.2788 17.3291 89.2788 13.7988V12.8447C89.2788 9.37164 91.5687 7.25347 93.9159 7.25347C95.2326 7.25347 96.4348 7.80687 97.3126 8.83733ZM94.8128 16.6803C96.1676 16.6803 97.3126 15.8025 97.3126 13.7416V12.921C97.3126 10.8601 96.1676 9.98228 94.8128 9.98228C93.4198 9.98228 92.2748 10.8601 92.2748 12.921V13.7416C92.2748 15.8025 93.4198 16.6803 94.8128 16.6803ZM104.394 5.84136C103.459 5.84136 102.714 5.09714 102.714 4.16209C102.714 3.22704 103.459 2.48282 104.394 2.48282C105.329 2.48282 106.073 3.22704 106.073 4.16209C106.073 5.09714 105.329 5.84136 104.394 5.84136ZM105.901 19.1229H102.905V7.53971H105.901V19.1229ZM113.181 19.4091C110.242 19.4091 107.723 17.5962 107.723 13.9896V12.6538C107.723 9.06632 110.242 7.25347 113.181 7.25347C116.138 7.25347 118.657 9.06632 118.657 12.6538V13.9896C118.657 17.5962 116.138 19.4091 113.181 19.4091ZM113.181 16.6803C114.497 16.6803 115.661 15.8406 115.661 13.9324V12.7302C115.661 10.8219 114.497 9.98228 113.181 9.98228C111.883 9.98228 110.719 10.8219 110.719 12.7302V13.9324C110.719 15.8406 111.883 16.6803 113.181 16.6803Z" fill="black"/>
</svg>
