<svg width="20" height="20" viewBox="0 0 20 20" fill="none" xmlns="http://www.w3.org/2000/svg">
<path d="M10 1.25C14.8325 1.25 18.75 5.16751 18.75 10C18.75 14.8325 14.8325 18.75 10 18.75C5.16751 18.75 1.25 14.8325 1.25 10C1.25 5.16751 5.16751 1.25 10 1.25ZM13.6556 7.6359C13.3627 7.34307 12.8873 7.34315 12.5944 7.6359L9.03646 11.1938L7.4056 9.56299L7.34863 9.51172C7.0541 9.27138 6.61904 9.28849 6.3444 9.56299C6.06978 9.83761 6.05278 10.2726 6.29313 10.5672L6.3444 10.6242L8.50586 12.7856C8.79875 13.0785 9.27416 13.0785 9.56706 12.7856L13.6556 8.6971C13.9484 8.4042 13.9484 7.92875 13.6556 7.6359Z" fill="#3283FD"/>
</svg>
