<svg width="20" height="20" viewBox="0 0 20 20" fill="none" xmlns="http://www.w3.org/2000/svg">
<path d="M7.46426 9.65457C7.13882 9.32913 6.61118 9.32913 6.28574 9.65457C5.96031 9.98001 5.96031 10.5076 6.28574 10.8331L6.875 10.2438L7.46426 9.65457ZM8.83557 12.2044L9.42483 11.6151L9.42483 11.6151L8.83557 12.2044ZM9.08109 12.2044L8.49184 11.6151L8.49184 11.6151L9.08109 12.2044ZM13.7143 8.74975C14.0397 8.42431 14.0397 7.89667 13.7143 7.57124C13.3888 7.2458 12.8612 7.2458 12.5357 7.57124L13.125 8.16049L13.7143 8.74975ZM18.75 10H17.9167C17.9167 14.3723 14.3723 17.9167 10 17.9167V18.75V19.5833C15.2927 19.5833 19.5833 15.2927 19.5833 10H18.75ZM10 18.75V17.9167C5.62775 17.9167 2.08333 14.3723 2.08333 10H1.25H0.416667C0.416667 15.2927 4.70727 19.5833 10 19.5833V18.75ZM1.25 10H2.08333C2.08333 5.62775 5.62775 2.08333 10 2.08333V1.25V0.416667C4.70727 0.416667 0.416667 4.70727 0.416667 10H1.25ZM10 1.25V2.08333C14.3723 2.08333 17.9167 5.62775 17.9167 10H18.75H19.5833C19.5833 4.70727 15.2927 0.416667 10 0.416667V1.25ZM6.875 10.2438L6.28574 10.8331L8.24632 12.7937L8.83557 12.2044L9.42483 11.6151L7.46426 9.65457L6.875 10.2438ZM8.83557 12.2044L8.24631 12.7937C8.63955 13.1869 9.27712 13.1869 9.67035 12.7937L9.08109 12.2044L8.49184 11.6151C8.74948 11.3575 9.16719 11.3575 9.42483 11.6151L8.83557 12.2044ZM9.08109 12.2044L9.67035 12.7937L13.7143 8.74975L13.125 8.16049L12.5357 7.57124L8.49184 11.6151L9.08109 12.2044Z" fill="#C9C9C9"/>
</svg>
