<svg width="671" height="43" viewBox="0 0 671 43" fill="none" xmlns="http://www.w3.org/2000/svg">
<rect width="671" height="43" rx="21.5" fill="#F8F9FA"/>
<path d="M22.9717 13.9717C26.5615 13.9717 29.4717 16.8818 29.4717 20.4717C29.4717 21.9963 28.9444 23.3963 28.0654 24.5049L31.5283 27.9678L30.4678 29.0283L27.0049 25.5654C25.8963 26.4444 24.4963 26.9717 22.9717 26.9717C19.3818 26.9717 16.4717 24.0615 16.4717 20.4717C16.4717 16.8818 19.3818 13.9717 22.9717 13.9717ZM22.9717 15.4717C20.2103 15.4717 17.9717 17.7103 17.9717 20.4717C17.9717 23.2331 20.2103 25.4717 22.9717 25.4717C25.7331 25.4717 27.9717 23.2331 27.9717 20.4717C27.9717 17.7103 25.7331 15.4717 22.9717 15.4717Z" fill="black" fill-opacity="0.7"/>
<path d="M45.9463 17.4961C45.9463 18.9453 47.1768 20.2852 48.9678 20.8184L48.4619 21.6387C47.0605 21.2217 45.9668 20.3193 45.4404 19.1504C44.9072 20.4355 43.7793 21.4131 42.3369 21.8848L41.8037 21.0371C43.6084 20.4902 44.8936 19.0957 44.8936 17.4961V17.2637H42.1455V16.375H44.8936V14.8984H45.9736V16.375H48.6943V17.2637H45.9463V17.4961ZM51.3057 14.9531V17.9609H53.1377V18.8633H51.3057V22.0215H50.2393V14.9531H51.3057ZM51.5244 22.6777V23.5527H48.0791C48.2568 24.8242 50.041 25.918 51.9893 26.2324L51.5928 27.0664C49.8086 26.7725 48.1953 25.8906 47.5049 24.6738C46.8076 25.8838 45.208 26.7451 43.4443 27.0527L43.0342 26.2324C44.9961 25.918 46.7598 24.8447 46.9443 23.5527H43.5127V22.6777H51.5244ZM63.3514 16.1836V17.4004C63.3377 18.8906 63.3377 20.5586 62.9002 23.0059L61.8064 22.8828C62.2713 20.5586 62.2713 18.8496 62.2713 17.4004V17.0723H54.7791V16.1836H63.3514ZM64.6775 24.4961V25.3848H53.6033V24.4961H57.951V20.1484H59.0037V24.4961H64.6775ZM75.4381 14.9668V21.7207H74.3717V14.9668H75.4381ZM69.7096 16.6074C69.6959 18.2891 71.0084 19.8066 72.8131 20.3945L72.2936 21.2422C70.858 20.7568 69.7232 19.7451 69.1764 18.4258C68.6295 19.8408 67.4811 20.9482 66.0318 21.4609L65.485 20.6133C67.317 19.9707 68.6158 18.3711 68.6158 16.6074V15.418H69.7096V16.6074ZM75.5201 22.4453V23.3203H73.8385V26.0684H75.6432V26.9434H67.235V26.0684H69.0533V23.3203H67.3443V22.4453H75.5201ZM70.1061 26.0684H72.7721V23.3203H70.1061V26.0684ZM88.2768 21.3652V22.2402H77.2025V21.3652H88.2768ZM87.0463 25.9453V26.8477H78.6381V23.3066H79.7182V25.9453H87.0463ZM82.7396 15.3906C85.351 15.377 87.0326 16.2793 87.0326 17.7969C87.0326 19.3145 85.351 20.2168 82.7396 20.2168C80.101 20.2168 78.433 19.3145 78.433 17.7969C78.433 16.2793 80.101 15.377 82.7396 15.3906ZM82.7396 16.252C80.7846 16.252 79.5268 16.8398 79.5404 17.7969C79.5268 18.7539 80.7846 19.3418 82.7396 19.3418C84.6811 19.3418 85.9389 18.7539 85.9389 17.7969C85.9389 16.8398 84.6811 16.252 82.7396 16.252ZM102.265 14.9531V27.1074H101.185V14.9531H102.265ZM98.6689 16.2793C98.6553 19.7793 97.0283 22.8691 92.9541 24.8242L92.3662 23.9492C95.6543 22.3906 97.3291 20.0596 97.5752 17.1543H92.9268V16.2793H98.6689ZM113.832 18.3574V19.2461H105.533V15.1992H106.599V18.3574H113.832ZM115.103 20.668V21.5566H104.015V20.668H115.103ZM109.553 22.6504C112.164 22.6504 113.722 23.4434 113.736 24.8516C113.722 26.2598 112.164 27.0527 109.553 27.0527C106.928 27.0527 105.355 26.2598 105.355 24.8516C105.355 23.4434 106.928 22.6504 109.553 22.6504ZM109.553 23.498C107.597 23.5117 106.435 23.9902 106.449 24.8516C106.435 25.6992 107.597 26.2188 109.553 26.2188C111.48 26.2188 112.656 25.6992 112.656 24.8516C112.656 23.9902 111.48 23.5117 109.553 23.498ZM121.352 15.1719C124.059 15.1719 125.645 15.9102 125.645 17.2637C125.645 18.6445 124.059 19.3828 121.352 19.3965C118.645 19.3828 117.046 18.6445 117.046 17.2637C117.046 15.9102 118.645 15.1719 121.352 15.1719ZM121.352 15.9785C119.329 15.9785 118.153 16.4707 118.167 17.2637C118.153 18.1113 119.329 18.5762 121.352 18.5762C123.362 18.5762 124.551 18.1113 124.551 17.2637C124.551 16.4707 123.362 15.9785 121.352 15.9785ZM126.889 20.2168V21.0918H115.815V20.2168H126.889ZM125.467 22.1445V24.8652H118.249V26.123H125.837V26.9707H117.182V24.0723H124.415V22.9648H117.155V22.1445H125.467ZM137.104 15.7461C137.09 18.7949 134.916 20.9824 131.416 21.9805L130.965 21.1328C133.87 20.3125 135.723 18.6992 135.955 16.6348H131.594V15.7461H137.104ZM140.904 14.9668V21.8984H139.824V19H137.131V18.0977H139.824V14.9668H140.904ZM140.904 22.418V26.9434H133.016V22.418H140.904ZM134.055 23.2793V26.0684H139.838V23.2793H134.055ZM146.251 17.332C146.251 18.7129 147.181 20.1074 148.739 20.7227L148.165 21.5566C147.017 21.0781 146.176 20.1895 145.745 19.1094C145.294 20.292 144.419 21.3242 143.229 21.8574L142.642 21.0234C144.241 20.3125 145.226 18.7129 145.226 17.332V15.7051H146.251V17.332ZM152.95 14.9668V22.3086H151.925V19.041H150.312V22.2402H149.3V15.1855H150.312V18.1387H151.925V14.9668H152.95ZM152.95 22.9785V27.1074H151.897V23.8672H144.761V22.9785H152.95ZM160.498 17.0586V17.9336H154.4V17.0586H156.929V15.3223H157.996V17.0586H160.498ZM157.449 18.7539C158.98 18.7539 160.074 19.9023 160.088 21.5156C160.074 23.1426 158.98 24.3047 157.449 24.3047C155.931 24.3047 154.838 23.1426 154.838 21.5156C154.838 19.9023 155.931 18.7539 157.449 18.7539ZM157.449 19.6562C156.492 19.6699 155.795 20.4492 155.795 21.5156C155.795 22.5957 156.492 23.375 157.449 23.3613C158.42 23.375 159.131 22.5957 159.131 21.5156C159.131 20.4492 158.42 19.6699 157.449 19.6562ZM164.777 14.9531V27.1074H163.752V20.9688H162.138V26.5059H161.127V15.2539H162.138V20.0801H163.752V14.9531H164.777ZM177.356 24.6602V25.5488H166.227V24.6602H171.231V22.0352H167.54V15.8145H168.62V18.0156H174.936V15.8145H175.989V22.0352H172.284V24.6602H177.356ZM168.62 21.1602H174.936V18.8906H168.62V21.1602ZM181.636 18.4121C181.636 20.3398 182.579 22.4316 184.193 23.3887L183.578 24.2227C182.409 23.5117 181.568 22.2129 181.144 20.7363C180.693 22.3496 179.79 23.7373 178.574 24.4824L177.89 23.6758C179.572 22.6914 180.597 20.5312 180.597 18.4531V16.1016H181.636V18.4121ZM188.445 14.9531V27.1074H187.406V14.9531H188.445ZM185.929 15.2129V26.4922H184.917V20.2305H182.853V19.3145H184.917V15.2129H185.929ZM200.955 24.6465V25.5488H189.826V24.6465H192.588V21.3652C191.549 20.8252 190.92 19.9502 190.92 18.8496C190.92 16.9629 192.766 15.7324 195.363 15.7188C197.961 15.7324 199.807 16.9629 199.807 18.8496C199.807 19.9297 199.198 20.7979 198.194 21.3379V24.6465H200.955ZM195.363 16.6074C193.367 16.5938 191.959 17.4961 191.959 18.8496C191.959 20.2031 193.367 21.1191 195.363 21.1191C197.346 21.1191 198.768 20.2031 198.768 18.8496C198.768 17.4961 197.346 16.5938 195.363 16.6074ZM193.641 24.6465H197.113V21.748C196.587 21.8916 195.999 21.9668 195.363 21.9668C194.741 21.9668 194.16 21.8984 193.641 21.7617V24.6465ZM202.911 26.082C202.433 26.082 202.022 25.6855 202.036 25.1934C202.022 24.7148 202.433 24.3184 202.911 24.3184C203.39 24.3184 203.786 24.7148 203.786 25.1934C203.786 25.6855 203.39 26.082 202.911 26.082Z" fill="black" fill-opacity="0.2"/>
</svg>
