<svg width="24" height="24" viewBox="0 0 24 24" fill="none" xmlns="http://www.w3.org/2000/svg">
<circle cx="12" cy="14" r="8.4" stroke="black" stroke-width="1.2"/>
<path fill-rule="evenodd" clip-rule="evenodd" d="M11.9346 11.0383C12.1925 11.0389 12.4215 11.2037 12.5029 11.4484L13.7549 15.215L14.8848 11.465C14.9803 11.1478 15.3156 10.9683 15.6328 11.0637C15.9499 11.1593 16.1296 11.4935 16.0342 11.8107L15.5469 13.4289H16.7295C17.0608 13.429 17.3301 13.6972 17.3301 14.0285C17.3301 14.3598 17.0608 14.628 16.7295 14.6281H15.1855L14.3584 17.3762C14.2829 17.6262 14.0542 17.799 13.793 17.8029C13.5318 17.8065 13.2975 17.6406 13.2148 17.3928L11.9287 13.5266L10.626 17.3947C10.5417 17.6441 10.3042 17.8099 10.041 17.8029C9.77819 17.7956 9.55026 17.6177 9.47949 17.3644L8.7168 14.6281H7.26953C6.93832 14.6279 6.66992 14.3598 6.66992 14.0285C6.66995 13.6973 6.93833 13.4291 7.26953 13.4289H8.38281L7.92871 11.799C7.83982 11.48 8.02679 11.1489 8.3457 11.0598C8.6649 10.9708 8.996 11.1576 9.08496 11.4768L10.1113 15.1623L11.3643 11.4465C11.4466 11.2021 11.6768 11.0379 11.9346 11.0383Z" fill="black"/>
</svg>
