<svg width="24" height="24" viewBox="0 0 24 24" fill="none" xmlns="http://www.w3.org/2000/svg">
<path d="M9.625 14.5713C12.7316 14.5713 15.25 17.0897 15.25 20.1963V21.2246C15.25 21.7315 14.8389 22.1426 14.332 22.1426H4.91797C4.41111 22.1426 4 21.7315 4 21.2246V20.1963C4 17.0897 6.5184 14.5713 9.625 14.5713ZM16.875 16.2539C19.2912 16.2539 21.25 18.2127 21.25 20.6289V21.4287C21.25 21.8229 20.9303 22.1426 20.5361 22.1426H17.0141C16.5512 22.1426 16.2217 21.6875 16.2217 21.2246V20.1963C16.2217 19.4258 16.1146 18.6823 15.916 17.9816C15.6891 17.1809 16.0428 16.2539 16.875 16.2539ZM16.875 10.3652C18.2301 10.3652 19.329 11.4633 19.3291 12.8184C19.3291 14.1735 18.2301 15.2725 16.875 15.2725C15.5199 15.2725 14.4209 14.1735 14.4209 12.8184C14.421 11.4633 15.5199 10.3652 16.875 10.3652ZM9.625 7C11.3673 7 12.7792 8.41206 12.7793 10.1543C12.7793 11.8966 11.3673 13.3096 9.625 13.3096C7.88267 13.3096 6.4707 11.8966 6.4707 10.1543C6.4708 8.41206 7.88274 7 9.625 7Z" fill="#3283FD"/>
</svg>
