<svg width="24" height="24" viewBox="0 0 24 24" fill="none" xmlns="http://www.w3.org/2000/svg">
<circle cx="12.0038" cy="14.0001" r="2.55" stroke="black" stroke-width="1.2"/>
<mask id="path-2-inside-1_95_437" fill="white">
<path fill-rule="evenodd" clip-rule="evenodd" d="M15.1543 6.29738C15.1543 7.29571 16.235 7.92001 17.0996 7.42085C17.7199 7.06275 18.513 7.27525 18.8711 7.89549L20.7246 11.1054C21.0827 11.7256 20.8701 12.5187 20.2498 12.8767C19.3853 13.3755 19.3856 14.6234 20.2498 15.1226C20.87 15.4809 21.0828 16.2743 20.7246 16.8946L18.8711 20.1045C18.513 20.7248 17.7199 20.9373 17.0996 20.5791C16.235 20.08 15.1543 20.7043 15.1543 21.7026C15.1543 22.419 14.5736 23 13.8571 23H10.1509C9.43437 23 8.85355 22.4188 8.85355 21.7023C8.85355 20.704 7.7727 20.0794 6.90823 20.5788C6.28802 20.9371 5.49481 20.7247 5.13666 20.1044L3.28339 16.8948C2.92516 16.2744 3.13774 15.481 3.75807 15.1226C4.62257 14.6232 4.62264 13.3752 3.75802 12.876C3.13767 12.5179 2.92508 11.7246 3.28319 11.1043L5.13569 7.89498C5.49387 7.27448 6.28742 7.06191 6.90794 7.42005C7.77258 7.91908 8.85355 7.29527 8.85355 6.29696C8.85355 5.58067 9.43421 5 10.1505 5H13.8571C14.5736 5 15.1543 5.58097 15.1543 6.29738Z"/>
</mask>
<path d="M5.13569 7.89498L4.09641 7.29507L5.13569 7.89498ZM3.75802 12.876L3.15803 13.9153L3.75802 12.876ZM3.75807 15.1226L4.35831 16.1617L3.75807 15.1226ZM3.28339 16.8948L2.24418 17.4948L3.28339 16.8948ZM5.13666 20.1044L6.17587 19.5043L5.13666 20.1044ZM17.0996 20.5791L16.4996 21.6184L17.0996 20.5791ZM18.8711 20.1045L17.8319 19.5045L18.8711 20.1045ZM20.7246 16.8946L19.6854 16.2945L20.7246 16.8946ZM20.2498 12.8767L20.8495 13.9161L20.2498 12.8767ZM20.7246 11.1054L21.7638 10.5054L20.7246 11.1054ZM17.0996 7.42085L16.4996 6.38162L17.0996 7.42085ZM18.8711 7.89549L17.8319 8.49554L19.6854 11.7055L20.7246 11.1054L21.7638 10.5054L19.9103 7.29544L18.8711 7.89549ZM20.7246 16.8946L19.6854 16.2945L17.8319 19.5045L18.8711 20.1045L19.9103 20.7046L21.7638 17.4946L20.7246 16.8946ZM13.8571 23V21.8H10.1509V23V24.2H13.8571V23ZM5.13666 20.1044L6.17587 19.5043L4.32259 16.2947L3.28339 16.8948L2.24418 17.4948L4.09746 20.7044L5.13666 20.1044ZM3.28319 11.1043L4.32247 11.7042L6.17498 8.49489L5.13569 7.89498L4.09641 7.29507L2.24391 10.5044L3.28319 11.1043ZM10.1505 5V6.2H13.8571V5V3.8H10.1505V5ZM13.8571 5V6.2C13.9106 6.2 13.9543 6.24347 13.9543 6.29738H15.1543H16.3543C16.3543 4.91846 15.2365 3.8 13.8571 3.8V5ZM8.85355 6.29696H10.0535C10.0535 6.24341 10.097 6.2 10.1505 6.2V5V3.8C8.77147 3.8 7.65355 4.91793 7.65355 6.29696H8.85355ZM6.90794 7.42005L6.30809 8.45937C7.97219 9.41981 10.0535 8.21957 10.0535 6.29696H8.85355H7.65355C7.65355 6.32486 7.64728 6.33785 7.64264 6.34556C7.6361 6.35643 7.62392 6.36985 7.60511 6.3807C7.5863 6.39156 7.56851 6.39544 7.55569 6.39567C7.54654 6.39583 7.53203 6.39472 7.50779 6.38073L6.90794 7.42005ZM5.13569 7.89498L6.17498 8.49489C6.20171 8.44858 6.26131 8.43237 6.30809 8.45937L6.90794 7.42005L7.50779 6.38073C6.31353 5.69146 4.78603 6.10038 4.09641 7.29507L5.13569 7.89498ZM3.75802 12.876L4.35801 11.8368C4.31158 11.81 4.29567 11.7506 4.32247 11.7042L3.28319 11.1043L2.24391 10.5044C1.5545 11.6987 1.96375 13.2258 3.15803 13.9153L3.75802 12.876ZM3.75807 15.1226L4.35831 16.1617C6.02226 15.2005 6.02287 12.798 4.35801 11.8368L3.75802 12.876L3.15803 13.9153C3.18224 13.9292 3.19039 13.9412 3.19477 13.9491C3.20094 13.9602 3.20646 13.9775 3.20646 13.9992C3.20646 14.021 3.20093 14.0383 3.19473 14.0495C3.19029 14.0575 3.18209 14.0695 3.15783 14.0835L3.75807 15.1226ZM3.28339 16.8948L4.32259 16.2947C4.2958 16.2483 4.31163 16.1887 4.35831 16.1617L3.75807 15.1226L3.15783 14.0835C1.96385 14.7732 1.55452 16.3004 2.24418 17.4948L3.28339 16.8948ZM6.90823 20.5788L6.30799 19.5397C6.26173 19.5664 6.20258 19.5506 6.17587 19.5043L5.13666 20.1044L4.09746 20.7044C4.78705 21.8987 6.31431 22.3077 7.50847 21.6179L6.90823 20.5788ZM8.85355 21.7023H10.0535C10.0535 19.7811 7.97337 18.5777 6.30799 19.5397L6.90823 20.5788L7.50847 21.6179C7.53255 21.604 7.54684 21.6029 7.55576 21.6031C7.56836 21.6033 7.58604 21.6072 7.60484 21.618C7.62365 21.6289 7.63592 21.6424 7.64253 21.6534C7.64726 21.6612 7.65355 21.6743 7.65355 21.7023H8.85355ZM10.1509 23V21.8C10.0976 21.8 10.0535 21.7565 10.0535 21.7023H8.85355H7.65355C7.65355 23.0811 8.77117 24.2 10.1509 24.2V23ZM15.1543 21.7026H13.9543C13.9543 21.7565 13.9106 21.8 13.8571 21.8V23V24.2C15.2365 24.2 16.3543 23.0815 16.3543 21.7026H15.1543ZM17.0996 20.5791L17.6996 19.5399C16.0346 18.5786 13.9543 19.7811 13.9543 21.7026H15.1543H16.3543C16.3543 21.6746 16.3606 21.6615 16.3653 21.6537C16.3719 21.6428 16.3841 21.6293 16.4029 21.6185C16.4217 21.6076 16.4394 21.6038 16.4521 21.6035C16.4611 21.6034 16.4755 21.6044 16.4996 21.6184L17.0996 20.5791ZM18.8711 20.1045L17.8319 19.5045C17.8052 19.5508 17.7459 19.5667 17.6996 19.5399L17.0996 20.5791L16.4996 21.6184C17.6938 22.3078 19.2208 21.8987 19.9103 20.7046L18.8711 20.1045ZM20.2498 15.1226L19.6496 16.1617C19.6964 16.1887 19.712 16.2485 19.6854 16.2945L20.7246 16.8946L21.7638 17.4946C22.4535 16.3001 22.0437 14.773 20.85 14.0835L20.2498 15.1226ZM20.2498 12.8767L19.65 11.8373C17.9846 12.7983 17.9863 15.2009 19.6496 16.1617L20.2498 15.1226L20.85 14.0835C20.8259 14.0696 20.8177 14.0576 20.8133 14.0496C20.8071 14.0384 20.8015 14.0211 20.8015 13.9994C20.8015 13.9777 20.807 13.9605 20.8131 13.9495C20.8175 13.9418 20.8255 13.9299 20.8495 13.9161L20.2498 12.8767ZM20.7246 11.1054L19.6854 11.7055C19.712 11.7516 19.6962 11.8107 19.65 11.8373L20.2498 12.8767L20.8495 13.9161C22.044 13.2268 22.4534 11.6996 21.7638 10.5054L20.7246 11.1054ZM17.0996 7.42085L17.6996 8.46009C17.7459 8.43334 17.8052 8.44921 17.8319 8.49554L18.8711 7.89549L19.9103 7.29544C19.2208 6.10129 17.6938 5.69216 16.4996 6.38162L17.0996 7.42085ZM17.0996 7.42085L16.4996 6.38162C16.4755 6.39557 16.4611 6.39662 16.4521 6.39647C16.4394 6.39624 16.4217 6.3924 16.4029 6.38155C16.3841 6.37069 16.3719 6.35724 16.3653 6.34628C16.3606 6.33845 16.3543 6.32536 16.3543 6.29738H15.1543H13.9543C13.9543 8.21892 16.0346 9.42139 17.6996 8.46009L17.0996 7.42085Z" fill="black" mask="url(#path-2-inside-1_95_437)"/>
</svg>
