<svg width="141" height="37" viewBox="0 0 141 37" fill="none" xmlns="http://www.w3.org/2000/svg">
<rect width="141" height="37" rx="8" fill="#F5F9FF"/>
<path d="M19 12.5C19.1776 12.5 19.3221 12.6415 19.3369 12.8185C19.566 15.5463 21.6691 17.7554 24.3529 18.1285C24.5403 18.1545 24.686 18.3108 24.686 18.5C24.686 18.6892 24.5403 18.8455 24.3529 18.8715C21.6691 19.2447 19.566 21.4537 19.3369 24.1815C19.3221 24.3585 19.1776 24.5 19 24.5C18.8224 24.5 18.6779 24.3585 18.6631 24.1815C18.434 21.4538 16.3309 19.2447 13.6471 18.8715C13.4597 18.8455 13.314 18.6892 13.314 18.5C13.314 18.3108 13.4597 18.1545 13.6471 18.1285C16.3309 17.7553 18.434 15.5462 18.6631 12.8185C18.6779 12.6415 18.8224 12.5 19 12.5Z" fill="url(#paint0_linear_27_908)"/>
<path d="M29.8558 23H28.6624L32.0267 13.8086H33.2327L36.597 23H35.3909L34.4769 20.4102H30.7825L29.8558 23ZM31.1253 19.4072H34.1214L32.6614 15.2939H32.5853L31.1253 19.4072ZM37.4776 23V16.1064H38.5694V23H37.4776ZM38.0235 14.9639C37.6046 14.9639 37.2618 14.6465 37.2618 14.2402C37.2618 13.834 37.6046 13.5166 38.0235 13.5166C38.4425 13.5166 38.7979 13.834 38.7979 14.2402C38.7979 14.6465 38.4425 14.9639 38.0235 14.9639ZM48.1257 16.1191C48.0241 15.2178 47.1989 14.6973 46.0944 14.6973C44.8757 14.6973 44.0759 15.332 44.0759 16.208C44.0759 17.1729 45.155 17.5283 45.8532 17.7061L46.7673 17.96C47.7575 18.2139 49.3698 18.7852 49.3698 20.499C49.3698 21.9971 48.1638 23.165 46.031 23.165C44.0505 23.165 42.819 22.1367 42.7175 20.6133H43.8855C43.987 21.6416 44.9392 22.124 46.031 22.124C47.3005 22.124 48.2526 21.4766 48.2526 20.4736C48.2526 19.585 47.4021 19.2422 46.4372 18.9629L45.3073 18.6582C43.8601 18.2393 42.9714 17.5029 42.9714 16.2588C42.9714 14.71 44.3552 13.6816 46.1325 13.6816C47.9099 13.6816 49.1921 14.7227 49.2429 16.1191H48.1257ZM53.5767 16.1064V17.0205H52.1294V21.0195C52.1294 21.9082 52.561 22.0479 53.0308 22.0479C53.2339 22.0479 53.5132 22.0352 53.6782 22.0225V23.0381C53.5132 23.0635 53.2339 23.0889 52.9165 23.0889C52.0024 23.0889 51.0249 22.5176 51.0249 21.2988V17.0205H49.9839V16.1064H51.0249V14.4561H52.1294V16.1064H53.5767ZM54.3558 21.0449C54.3558 19.458 55.7522 19.1025 56.9456 19.0137C57.3836 18.9819 58.5008 18.9248 58.8118 18.9121V18.3535C58.8118 17.4775 58.2913 16.9697 57.2503 16.9697C56.3743 16.9697 55.8538 17.376 55.7015 17.8965H54.5589C54.6985 16.792 55.7776 16.0176 57.3011 16.0176C58.2024 16.0176 59.8909 16.2842 59.8909 18.4551V23H58.8118V22.0605H58.761C58.5325 22.5303 57.8978 23.165 56.7044 23.165C55.3968 23.165 54.3558 22.3906 54.3558 21.0449ZM55.4476 21.0957C55.4476 21.8193 56.0569 22.1875 56.8948 22.1875C58.1263 22.1875 58.8118 21.3623 58.8118 20.499V19.8008L57.0726 19.9277C56.0823 19.9912 55.4476 20.3467 55.4476 21.0957ZM64.4278 16.1064V17.0205H62.9044V23H61.7999V17.0205H60.6954V16.1064H61.7999V15.167C61.7999 14.0498 62.5489 13.377 63.7677 13.377C64.0343 13.377 64.3517 13.415 64.5802 13.4531V14.4307C64.3517 14.3926 64.1485 14.3799 64.0089 14.3799C63.2472 14.3799 62.9044 14.6973 62.9044 15.4082V16.1064H64.4278ZM68.5077 16.1064V17.0205H66.9843V23H65.8798V17.0205H64.7753V16.1064H65.8798V15.167C65.8798 14.0498 66.6288 13.377 67.8476 13.377C68.1142 13.377 68.4315 13.415 68.6601 13.4531V14.4307C68.4315 14.3926 68.2284 14.3799 68.0888 14.3799C67.3271 14.3799 66.9843 14.6973 66.9843 15.4082V16.1064H68.5077ZM75.1567 13.2754C76.6738 13.2627 77.8228 14.145 78.0386 15.4463H80.3999V12.7422H81.4028V18.7979H80.3999V16.2715H78.0513C77.8481 17.6045 76.6865 18.4932 75.1567 18.4932C73.4429 18.4932 72.2241 17.4268 72.2241 15.8779C72.2241 14.3418 73.4429 13.2627 75.1567 13.2754ZM75.1567 14.126C74.0015 14.1133 73.1763 14.8369 73.1763 15.8779C73.1763 16.9062 74.0015 17.6553 75.1567 17.6553C76.2993 17.6553 77.1118 16.9062 77.1118 15.8779C77.1118 14.8369 76.2993 14.1133 75.1567 14.126ZM75.1313 19.3691V20.8037H80.3999V19.3691H81.4028V23.876H74.1284V19.3691H75.1313ZM75.1313 23.0635H80.3999V21.6035H75.1313V23.0635ZM91.8812 13.9482V15.0781C91.8812 16.5 91.8812 18.1123 91.4622 20.5625L90.4466 20.4609C90.9036 18.1504 90.9036 16.4619 90.9036 15.0781V14.7734H84.0989V13.9482H91.8812ZM93.2649 21.54V22.3652H82.9817V21.54H93.2649ZM98.3224 13.999V17.8965H95.2628V20.4102C96.5641 20.4038 97.7955 20.3594 99.2999 20.0928L99.3761 20.918C97.7638 21.21 96.4815 21.2354 95.047 21.248H94.2979V17.0713H97.3702V14.8242H94.2726V13.999H98.3224ZM103.566 12.7422V24.0283H102.613V12.7422H103.566ZM101.255 13.0215V23.4316H100.316V17.6299H98.8683V16.8174H100.316V13.0215H101.255ZM114.158 12.7422V24.0537H113.155V12.7422H114.158ZM108.153 13.6182C109.829 13.6309 111.035 15.1543 111.035 17.5537C111.035 19.9531 109.829 21.4766 108.153 21.4766C106.465 21.4766 105.271 19.9531 105.271 17.5537C105.271 15.1543 106.465 13.6309 108.153 13.6182ZM108.153 14.5068C107.023 14.5195 106.236 15.7129 106.236 17.5537C106.236 19.3945 107.023 20.5879 108.153 20.5879C109.283 20.5879 110.07 19.3945 110.07 17.5537C110.07 15.7129 109.283 14.5195 108.153 14.5068ZM124.903 18.1758V19.001H117.108V13.7959H124.789V14.6211H118.098V18.1758H124.903ZM126.122 21.6543V22.4922H115.788V21.6543H126.122Z" fill="url(#paint1_linear_27_908)"/>
<defs>
<linearGradient id="paint0_linear_27_908" x1="19" y1="12.5" x2="19" y2="24.5" gradientUnits="userSpaceOnUse">
<stop stop-color="#8953F4"/>
<stop offset="1" stop-color="#3283FD"/>
</linearGradient>
<linearGradient id="paint1_linear_27_908" x1="35.3723" y1="14.5" x2="122.299" y2="37.6507" gradientUnits="userSpaceOnUse">
<stop stop-color="#8655F4"/>
<stop offset="1" stop-color="#3B7EFC"/>
</linearGradient>
</defs>
</svg>
