<svg width="24" height="24" viewBox="0 0 24 24" fill="none" xmlns="http://www.w3.org/2000/svg">
<mask id="path-1-inside-1_91_1950" fill="white">
<path d="M9.0249 14.5713C12.1315 14.5713 14.6499 17.0897 14.6499 20.1963V21.2246C14.6499 21.7315 14.2388 22.1426 13.7319 22.1426H4.31787C3.81101 22.1426 3.3999 21.7315 3.3999 21.2246V20.1963C3.3999 17.0897 5.9183 14.5713 9.0249 14.5713ZM16.2749 16.2539C18.6911 16.2539 20.6499 18.2127 20.6499 20.6289V21.4287C20.6499 21.8229 20.3303 22.1426 19.936 22.1426H16.414C15.9511 22.1426 15.6216 21.6875 15.6216 21.2246V20.1963C15.6216 19.4258 15.5145 18.6823 15.3159 17.9816C15.089 17.1809 15.4427 16.2539 16.2749 16.2539ZM16.2749 10.3652C17.63 10.3652 18.7289 11.4633 18.729 12.8184C18.729 14.1735 17.63 15.2725 16.2749 15.2725C14.9198 15.2725 13.8208 14.1735 13.8208 12.8184C13.8209 11.4633 14.9198 10.3652 16.2749 10.3652ZM9.0249 7C10.7672 7 12.1791 8.41206 12.1792 10.1543C12.1792 11.8966 10.7672 13.3096 9.0249 13.3096C7.28258 13.3096 5.87061 11.8966 5.87061 10.1543C5.87071 8.41206 7.28264 7 9.0249 7Z"/>
</mask>
<path d="M16.2749 16.2539V15.0539V15.0539V16.2539ZM20.6499 21.4287L21.8499 21.4287V21.4287H20.6499ZM16.2749 10.3652V9.16523V9.16523V10.3652ZM18.729 12.8184H19.929V12.8183L18.729 12.8184ZM16.2749 15.2725V16.4725V16.4725V15.2725ZM13.8208 12.8184L12.6208 12.8183V12.8184H13.8208ZM9.0249 7V5.8V5.8V7ZM12.1792 10.1543H13.3792V10.1542L12.1792 10.1543ZM9.0249 13.3096V14.5096V14.5096V13.3096ZM5.87061 10.1543L4.67061 10.1542V10.1543H5.87061ZM15.3159 17.9816L16.4704 17.6543L15.3159 17.9816ZM9.0249 14.5713V15.7713C11.4688 15.7713 13.4499 17.7524 13.4499 20.1963H14.6499H15.8499C15.8499 16.4269 12.7942 13.3713 9.0249 13.3713V14.5713ZM14.6499 20.1963H13.4499V21.2246H14.6499H15.8499V20.1963H14.6499ZM14.6499 21.2246H13.4499C13.4499 21.0687 13.5761 20.9426 13.7319 20.9426V22.1426V23.3426C14.9015 23.3426 15.8499 22.3942 15.8499 21.2246H14.6499ZM13.7319 22.1426V20.9426H4.31787V22.1426V23.3426H13.7319V22.1426ZM4.31787 22.1426V20.9426C4.47375 20.9426 4.5999 21.0687 4.5999 21.2246H3.3999H2.1999C2.1999 22.3942 3.14827 23.3426 4.31787 23.3426V22.1426ZM3.3999 21.2246H4.5999V20.1963H3.3999H2.1999V21.2246H3.3999ZM3.3999 20.1963H4.5999C4.5999 17.7524 6.58104 15.7713 9.0249 15.7713V14.5713V13.3713C5.25556 13.3713 2.1999 16.4269 2.1999 20.1963H3.3999ZM16.2749 16.2539V17.4539C18.0284 17.4539 19.4499 18.8754 19.4499 20.6289H20.6499H21.8499C21.8499 17.5499 19.3539 15.0539 16.2749 15.0539V16.2539ZM20.6499 20.6289H19.4499V21.4287H20.6499H21.8499V20.6289H20.6499ZM20.6499 21.4287L19.4499 21.4287C19.4499 21.1602 19.6675 20.9426 19.936 20.9426V22.1426V23.3426C20.993 23.3426 21.8499 22.4856 21.8499 21.4287L20.6499 21.4287ZM19.936 22.1426V20.9426H16.414V22.1426V23.3426H19.936V22.1426ZM15.6216 21.2246H16.8216V20.1963H15.6216H14.4216V21.2246H15.6216ZM15.6216 20.1963H16.8216C16.8216 19.3143 16.699 18.4608 16.4704 17.6543L15.3159 17.9816L14.1614 18.3088C14.3301 18.9039 14.4216 19.5373 14.4216 20.1963H15.6216ZM16.2749 10.3652V11.5652C16.9678 11.5652 17.529 12.1266 17.529 12.8184L18.729 12.8184L19.929 12.8183C19.9289 10.8 18.2922 9.16523 16.2749 9.16523V10.3652ZM18.729 12.8184H17.529C17.529 13.5108 16.9673 14.0725 16.2749 14.0725V15.2725V16.4725C18.2928 16.4725 19.929 14.8362 19.929 12.8184H18.729ZM16.2749 15.2725V14.0725C15.5825 14.0725 15.0208 13.5108 15.0208 12.8184H13.8208H12.6208C12.6208 14.8362 14.257 16.4725 16.2749 16.4725V15.2725ZM13.8208 12.8184L15.0208 12.8184C15.0208 12.1266 15.582 11.5652 16.2749 11.5652V10.3652V9.16523C14.2576 9.16523 12.6209 10.8 12.6208 12.8183L13.8208 12.8184ZM9.0249 7V8.2C10.1044 8.2 10.9791 9.07474 10.9792 10.1544L12.1792 10.1543L13.3792 10.1542C13.3791 7.74937 11.43 5.8 9.0249 5.8V7ZM12.1792 10.1543H10.9792C10.9792 11.2344 10.104 12.1096 9.0249 12.1096V13.3096V14.5096C11.4305 14.5096 13.3792 12.5589 13.3792 10.1543H12.1792ZM9.0249 13.3096V12.1096C7.9458 12.1096 7.07061 11.2344 7.07061 10.1543H5.87061H4.67061C4.67061 12.5589 6.61935 14.5096 9.0249 14.5096V13.3096ZM5.87061 10.1543L7.07061 10.1544C7.07067 9.07474 7.94545 8.2 9.0249 8.2V7V5.8C6.61983 5.8 4.67074 7.74937 4.67061 10.1542L5.87061 10.1543ZM15.3159 17.9816L16.4704 17.6543C16.452 17.5892 16.4455 17.5208 16.4499 17.4593C16.4544 17.3966 16.4686 17.3601 16.4739 17.3494C16.4785 17.3401 16.4657 17.3704 16.4154 17.4045C16.3905 17.4214 16.3622 17.435 16.3332 17.4438C16.3044 17.4525 16.2834 17.4539 16.2749 17.4539V16.2539V15.0539C15.3295 15.0539 14.6545 15.6142 14.3225 16.2856C14.0116 16.9144 13.9765 17.6564 14.1614 18.3088L15.3159 17.9816ZM16.414 22.1426V20.9426C16.6049 20.9426 16.7283 21.0426 16.7734 21.0979C16.811 21.1438 16.8216 21.1836 16.8216 21.2246H15.6216H14.4216C14.4216 22.1122 15.073 23.3426 16.414 23.3426V22.1426Z" fill="black" mask="url(#path-1-inside-1_91_1950)"/>
</svg>
